<?xml version="1.0" encoding="utf-8"?>
<!-- Generator: Adobe Illustrator 24.1.2, SVG Export Plug-In . SVG Version: 6.00 Build 0)  -->
<svg version="1.1" id="Layer_1" xmlns="http://www.w3.org/2000/svg" xmlns:xlink="http://www.w3.org/1999/xlink" x="0px" y="0px"
	 viewBox="0 0 376.5 99.9" enable-background="new 0 0 376.5 99.9" xml:space="preserve">
<path d="M49.9,46.7c0-4.6-3.7-8.3-8.3-8.3H38V55h3.6C46.2,55,49.9,51.3,49.9,46.7 M56.3,49.4l-5.9,10.1h11.7L56.3,49.4z M56.3,44
	l5.8-10.1H50.5L56.3,44z M62.8,46.7c0,4.6,3.7,8.3,8.3,8.3h3.6V38.4h-3.6C66.5,38.4,62.8,42.1,62.8,46.7 M330.6,60.2
	c-1.3,3.4-3,5-6.8,5c-0.9,0-1.6-0.1-2.2-0.2v-4.3c0.5,0.1,1.3,0.2,1.7,0.2c1.3,0,2.1-0.5,2.7-2.1l0.4-1l-6.9-16.1h5.5l4,9.9l3.7-9.9
	h5.2L330.6,60.2 M308.9,53.9c-2.2,0-3.8-1.9-3.8-4.1s1.6-4.1,3.8-4.1c2.3,0,3.9,1.9,3.9,4.1S311.2,53.9,308.9,53.9 M317.9,58.2V41.8
	h-5v2.4c-0.9-1.7-3-2.8-5.1-2.8c-4.7,0-7.8,3.6-7.8,8.5c0,4.8,3.2,8.2,7.9,8.2c2.1,0,4.1-1,4.9-2.5v2.8c0,2.3-1.2,3.6-3.6,3.6
	c-2.1,0-3.3-1-3.5-2.5h-5c0.3,3.6,3.1,6.1,8.5,6.1C315,65.5,317.9,62.9,317.9,58.2 M289.4,53.9c-2.3,0-3.8-1.8-3.8-4.1
	c0-2.2,1.5-4.1,3.8-4.1c2.3,0,3.8,1.9,3.8,4.1C293.3,52.1,291.7,53.9,289.4,53.9 M289.4,58.3c5.6,0,8.9-3.9,8.9-8.5
	c0-4.6-3.3-8.5-8.9-8.5c-5.5,0-8.9,3.9-8.9,8.5C280.5,54.4,283.9,58.3,289.4,58.3 M273,57.8h5.1V34.5H273V57.8z M261.6,53.9
	c-2.3,0-3.8-1.8-3.8-4.1c0-2.2,1.5-4.1,3.8-4.1c2.3,0,3.8,1.9,3.8,4.1C265.5,52.1,263.9,53.9,261.6,53.9 M261.6,58.3
	c5.6,0,8.9-3.9,8.9-8.5c0-4.6-3.3-8.5-8.9-8.5c-5.5,0-8.9,3.9-8.9,8.5C252.7,54.4,256.1,58.3,261.6,58.3 M234.3,57.8h5.1v-8.4
	c0-2.3,1.1-3.7,3.1-3.7c2.2,0,2.9,1.3,2.9,3.3v8.9h5.1v-9.2c0-4.5-2-7.2-6.1-7.2c-2.4,0-4.1,1.1-5,2.7v-2.3h-5V57.8z M214.9,57.8
	h5.1v-8.4c0-2.3,1.1-3.7,3.1-3.7c2.2,0,2.9,1.3,2.9,3.3v8.9h5.1v-9.2c0-4.5-2-7.2-6.1-7.2c-2.4,0-4.1,1.1-5,2.7v-9.6h-5.1V57.8z
	 M212.7,48c-0.6-3.7-3.4-6.6-8.2-6.6c-5.4,0-8.7,3.9-8.7,8.5c0,4.6,3.3,8.5,8.7,8.5c4.9,0,7.6-2.9,8.2-6.6h-5.1
	c-0.4,1.4-1.5,2.3-3.1,2.3c-2.2,0-3.7-1.9-3.7-4.2s1.4-4.2,3.7-4.2c1.6,0,2.6,0.9,3.1,2.3H212.7z M185.7,44.9c1.9,0,3.2,1.2,3.4,3.1
	h-6.8C182.5,46.1,183.8,44.9,185.7,44.9 M193.7,53h-4.8c-0.5,1-1.5,1.6-3,1.6c-2.3,0-3.5-1.5-3.5-3.5h11.7c0.1-0.7,0.1-1.3,0.1-1.9
	c0-4.3-3-7.9-8.3-7.9c-5.5,0-8.5,3.8-8.5,8.5c0,4.6,3,8.5,8.5,8.5C190.2,58.3,192.9,55.9,193.7,53 M164.2,41.8v4h2.5v6.5
	c0,4.4,2.1,5.8,5.9,5.8c1.4,0,2.5-0.1,3.2-0.2v-4.1c-0.6,0.1-1.6,0.2-2,0.2c-1.3,0-2-0.4-2-2.1v-6.2h3.7v-4h-3.7V37h-5.1v4.8H164.2z
	 M157.3,54.9c0,1.8,1.4,3.2,3.2,3.2c1.8,0,3.2-1.5,3.2-3.2c0-1.8-1.4-3.2-3.2-3.2C158.8,51.7,157.3,53.1,157.3,54.9 M144.9,58.3
	c6.4,0,10-3.9,10.6-8.8h-5.3c-0.5,2.3-2.4,4.1-5.2,4.1c-4,0-6.1-3.2-6.1-6.9c0-3.7,2.1-6.9,6.1-6.9c2.8,0,4.7,1.7,5.2,4.1h5.3
	c-0.7-4.9-4.2-8.8-10.6-8.8c-7.2,0-11.4,5.5-11.4,11.6S137.7,58.3,144.9,58.3 M127.5,57.8h6.2l-7.2-11.3l7.2-11.1h-6l-4.4,7.4
	l-4.5-7.4h-6.1l7.2,11.1l-7.3,11.3h6l4.6-7.5L127.5,57.8z M100.8,40c4.1,0,6.5,3.2,6.5,6.7c0,3.4-2.4,6.7-6.5,6.7h-2.7V40H100.8z
	 M92.8,57.8h8.2c7.5,0,11.6-5.5,11.6-11.2s-4.2-11.2-11.6-11.2h-8.2V57.8z"/>
</svg>
