<svg id="Layer_1" data-name="Layer 1" xmlns="http://www.w3.org/2000/svg" viewBox="0 0 300 31.6">
  <path d="M11.9,12.8A8.3,8.3,0,0,0,3.6,4.5H0V21.1H3.6a8.3,8.3,0,0,0,8.3-8.3m6.5,2.7L12.5,25.6H24.2Zm0-5.4L24.2,0H12.5Zm6.4,2.7a8.3,8.3,0,0,0,8.3,8.3h3.6V4.5H33.1a8.3,8.3,0,0,0-8.3,8.3M292.7,26.3c-1.4,3.4-3.1,5-6.9,5h-2.2V26.9l1.7.2c1.3,0,2.1-.5,2.7-2.1l.4-1L281.5,7.9h5.6l4,9.9,3.7-9.9H300l-7.3,18.4M270.9,20a3.9,3.9,0,0,1-3.8-4.1,3.9,3.9,0,1,1,7.7,0,4,4,0,0,1-3.9,4.1m9,4.3V7.9h-5v2.3a5.9,5.9,0,0,0-5.1-2.7c-4.7,0-7.8,3.6-7.8,8.4s3.2,8.2,7.9,8.2a5.8,5.8,0,0,0,4.9-2.5v2.8c0,2.3-1.2,3.6-3.6,3.6s-3.4-1-3.6-2.5h-5c.3,3.6,3.1,6.1,8.4,6.1s8.9-2.6,8.9-7.3M251.5,20c-2.4,0-3.8-1.8-3.8-4.1a3.8,3.8,0,0,1,3.8-4.1,3.9,3.9,0,0,1,3.8,4.1,3.8,3.8,0,0,1-3.8,4.1m0,4.4c5.5,0,8.9-3.9,8.9-8.5s-3.4-8.5-8.9-8.5-8.9,3.9-8.9,8.5,3.3,8.5,8.9,8.5M235,24h5.1V.6H235Zm-11.4-4c-2.3,0-3.7-1.8-3.7-4.1s1.4-4.1,3.7-4.1a4,4,0,0,1,3.9,4.1,3.9,3.9,0,0,1-3.9,4.1m0,4.4c5.6,0,9-3.9,9-8.5s-3.4-8.5-9-8.5-8.8,3.9-8.8,8.5,3.3,8.5,8.8,8.5M196.3,24h5V15.6c0-2.3,1.1-3.8,3.2-3.8s2.8,1.4,2.8,3.3V24h5.1V14.7c0-4.5-2-7.2-6.1-7.2a5.3,5.3,0,0,0-5,2.7V7.9h-5ZM177,24h5V15.6c0-2.3,1.1-3.8,3.1-3.8s2.9,1.4,2.9,3.3V24h5.1V14.7c0-4.5-2-7.2-6.1-7.2a5.3,5.3,0,0,0-5,2.7V.6h-5Zm-2.3-9.9c-.6-3.8-3.4-6.7-8.3-6.7a8.3,8.3,0,0,0-8.7,8.5,8.3,8.3,0,0,0,8.7,8.5c4.9,0,7.7-2.9,8.3-6.6h-5.1a3,3,0,0,1-3.1,2.3c-2.3,0-3.7-1.9-3.7-4.2s1.4-4.2,3.7-4.2a3.2,3.2,0,0,1,3.1,2.4ZM147.8,11a3.2,3.2,0,0,1,3.3,3.2h-6.8a3.3,3.3,0,0,1,3.5-3.2m7.9,8.1h-4.8a3.4,3.4,0,0,1-3.1,1.6c-2.3,0-3.4-1.4-3.5-3.5H156a12.8,12.8,0,0,0,.1-1.9c0-4.2-3-7.9-8.3-7.9s-8.4,3.9-8.4,8.5,3,8.5,8.5,8.5,7-2.3,7.8-5.3M126.2,7.9v4h2.6v6.5c0,4.4,2.1,5.8,5.9,5.8l3.2-.2V19.9l-2.1.2c-1.3,0-2-.5-2-2.1V11.9h3.7v-4h-3.7V3.1h-5V7.9ZM119.4,21a3.2,3.2,0,1,0,3.2-3.2,3.2,3.2,0,0,0-3.2,3.2M107,24.4c6.4,0,9.9-3.9,10.6-8.8h-5.3a5.2,5.2,0,0,1-5.2,4.1c-4,0-6.1-3.2-6.1-6.9s2.1-6.9,6.1-6.9a5.1,5.1,0,0,1,5.2,4h5.3c-.7-4.9-4.2-8.7-10.6-8.7S95.6,6.6,95.6,12.8,99.8,24.4,107,24.4M89.5,24h6.2L88.4,12.7,95.6,1.6h-6L85.1,8.9,80.6,1.6H74.5l7.2,11.1L74.4,24h6L85,16.5ZM62.8,6.1a6.4,6.4,0,0,1,6.5,6.7,6.4,6.4,0,0,1-6.5,6.6H60.1V6.1ZM54.8,24H63c7.5,0,11.7-5.5,11.7-11.2S70.5,1.6,63,1.6H54.8Z" fill="#fff"/>
</svg>
