<?xml version="1.0" encoding="utf-8"?>
<!-- Generator: Adobe Illustrator 24.1.2, SVG Export Plug-In . SVG Version: 6.00 Build 0)  -->
<svg version="1.1" id="Layer_1" xmlns="http://www.w3.org/2000/svg" xmlns:xlink="http://www.w3.org/1999/xlink" x="0px" y="0px"
	 viewBox="0 0 89.6 93.3" enable-background="new 0 0 89.6 93.3" xml:space="preserve">
<g>
	<path d="M5.3,29.6c-1.9-1.9-2.8-4.3-2.8-7.1c0-2.9,0.9-5.2,2.8-7.2c1.9-1.9,4.3-2.9,7.2-2.9s5.3,1,7.3,2.9c1.9,2,2.9,4.3,2.9,7.1
		c0,2.8-1,5.1-2.9,7.1c-1.9,1.9-4.3,2.9-7.3,2.9S7.2,31.5,5.3,29.6z M4.3,36.9h16.4v51.6H4.3V36.9z"/>
	<path d="M34.1,36.9h16.4v7.5c1.5-2.9,3.7-5,6.5-6.6c2.9-1.5,6.2-2.3,10.2-2.3c12.5,0,18.8,7,18.8,21.1v31.9H69.5V62
		c0-4.4-0.7-7.6-2.1-9.6c-1.4-2-3.7-3-7-3c-3.3,0-5.8,1-7.4,3.1c-1.7,2.1-2.5,5.1-2.5,9.1v27H34.1V36.9z"/>
</g>
</svg>
