<?xml version="1.0" encoding="utf-8"?>
<!-- Generator: Adobe Illustrator 24.1.2, SVG Export Plug-In . SVG Version: 6.00 Build 0)  -->
<svg version="1.1" id="Layer_2" xmlns="http://www.w3.org/2000/svg" xmlns:xlink="http://www.w3.org/1999/xlink" x="0px" y="0px"
	 viewBox="0 0 558.8 319.4" enable-background="new 0 0 558.8 319.4" xml:space="preserve">
<circle fill="#7F3F98" cx="457.1" cy="197" r="82.4"/>
<circle fill="#7F3F98" cx="102" cy="216.7" r="82.7"/>
<g>
	<path fill="#FFFFFF" d="M119.3,178.1l-13.3-13.3c-0.4-0.8-1.5-1.3-2.8-1.3c-0.9,0-1.7,0.3-2.2,0.7l0,0l-0.1,0.1
		c-0.1,0.1-0.3,0.2-0.4,0.4l-13.2,13.7l2.7,2.6l12.9-13.3c0.1,0,0.2,0,0.3,0c0.1,0,0.2,0,0.3,0l13.2,13.2L119.3,178.1z"/>
	<path fill="#FFFFFF" d="M133.1,182.5H73.3c-0.2-1.4-0.4-2.9-0.6-4.3c20.4,0,40.8,0,61.2-0.1C133.6,179.6,133.3,181,133.1,182.5z"/>
	<path fill="#FFFFFF" d="M126.1,214.4h-45c-0.6,0-1-0.5-1-1v-2.4c0-0.6,0.5-1,1-1h45c0.6,0,1,0.5,1,1v2.4
		C127.2,213.9,126.7,214.4,126.1,214.4z"/>
	<path fill="#FFFFFF" d="M128.7,211.6c1.5-9.7,2.9-19.4,4.4-29.2c-1.4,0-2.7-0.1-4.1-0.1c-1.5,10.7-2.9,21.4-4.4,32l0.5,0.1
		C126.9,214.7,128.5,213.4,128.7,211.6z"/>
	<path fill="#FFFFFF" d="M78.2,211.6c-1.6-9.7-3.3-19.4-4.9-29.1c1.4-0.1,2.9-0.1,4.3-0.2c1.6,10.7,3.2,21.3,4.8,32l-0.5,0.1
		C80,214.6,78.4,213.3,78.2,211.6z"/>
	<rect x="78.4" y="189.5" fill="#FFFFFF" width="50.8" height="3"/>
	<rect x="79" y="199.7" fill="#FFFFFF" width="48.2" height="2.9"/>
	
		<rect x="89.7" y="181.9" transform="matrix(0.9987 -5.035816e-02 5.035816e-02 0.9987 -9.8044 4.8325)" fill="#FFFFFF" width="2.6" height="30.1"/>
	
		<rect x="114.4" y="181.6" transform="matrix(-0.9987 -5.035816e-02 5.035816e-02 -0.9987 221.303 399.7912)" fill="#FFFFFF" width="2.6" height="30.9"/>
	<rect x="102" y="181.7" fill="#FFFFFF" width="2.7" height="29.6"/>
</g>
<g>
	<path fill="#FFFFFF" d="M80.5,236.1c-0.4,0.6-0.8,1-1.4,1.3l1.8,3.3h-2.8l-1.6-2.9h-1.3v2.9h-2.4v-10.5h4.5c0.7,0,1.4,0.2,1.9,0.5
		c0.6,0.3,1,0.8,1.3,1.4c0.3,0.6,0.5,1.2,0.5,2C81.1,234.9,80.9,235.5,80.5,236.1z M75.3,235.9h1.7c0.5,0,0.9-0.2,1.2-0.5
		c0.3-0.3,0.5-0.8,0.5-1.3c0-0.5-0.2-1-0.5-1.3c-0.3-0.3-0.7-0.5-1.2-0.5h-1.7V235.9z"/>
	<path fill="#FFFFFF" d="M82.6,230.3H89v2h-4v2.4h4v1.9h-4v2.3h4v2h-6.4V230.3z"/>
	<path fill="#FFFFFF" d="M92.7,232.5h-2.9v-2.2h8.2v2.2h-2.9v8.3h-2.4V232.5z"/>
	<path fill="#FFFFFF" d="M103.8,239.5h-3.7l-0.4,1.3h-2.6l3.6-10.5h2.4l3.6,10.5h-2.6L103.8,239.5z M103.2,237.6l-1.3-4.7l-1.3,4.7
		H103.2z"/>
	<path fill="#FFFFFF" d="M107.9,230.3h2.4v10.5h-2.4V230.3z"/>
	<path fill="#FFFFFF" d="M112.3,230.3h2.4v8.3h3.9v2.2h-6.3V230.3z"/>
	<path fill="#FFFFFF" d="M132.1,237.4h-0.6c0,1.1-0.4,2-1.1,2.7c-0.7,0.7-1.7,1-2.9,1c-0.8,0-1.5-0.1-2.1-0.4
		c-0.6-0.3-1.1-0.6-1.4-1.1c-0.3-0.5-0.5-1-0.5-1.7c0-0.7,0.2-1.2,0.6-1.7c0.4-0.5,0.9-0.8,1.4-0.9c-0.5-0.1-1-0.4-1.3-0.8
		c-0.3-0.4-0.5-0.9-0.5-1.5s0.2-1.1,0.5-1.6c0.3-0.5,0.8-0.8,1.4-1c0.6-0.2,1.2-0.4,1.9-0.4c1.3,0,2.2,0.3,2.9,0.9
		c0.6,0.6,1,1.4,1,2.5h-2.5c0-0.5-0.1-0.9-0.3-1.2c-0.2-0.3-0.6-0.4-1-0.4c-0.4,0-0.7,0.1-1,0.3c-0.3,0.2-0.4,0.5-0.4,0.9
		c0,0.9,0.5,1.3,1.4,1.3h0.3v1.9h-0.3c-0.5,0-0.9,0.1-1.2,0.4c-0.2,0.3-0.4,0.6-0.4,1.1c0,0.4,0.1,0.7,0.4,1s0.6,0.4,1.1,0.4
		c0.4,0,0.8-0.2,1.1-0.5s0.5-0.8,0.5-1.3h-0.7v-1.8h3.8V237.4z"/>
	<path fill="#FFFFFF" d="M52.5,248.3h4c1.1,0,2,0.2,2.9,0.7s1.4,1.1,1.9,1.9c0.4,0.8,0.6,1.7,0.6,2.6s-0.2,1.8-0.6,2.6
		c-0.4,0.8-1,1.4-1.9,1.9c-0.8,0.5-1.8,0.7-2.9,0.7h-4V248.3z M56.3,256.8c0.7,0,1.2-0.1,1.7-0.4c0.5-0.3,0.8-0.7,1-1.2
		c0.2-0.5,0.3-1,0.3-1.6c0-0.6-0.1-1.1-0.3-1.6s-0.6-0.9-1-1.2c-0.5-0.3-1-0.4-1.7-0.4H55v6.4H56.3z"/>
	<path fill="#FFFFFF" d="M63.2,248.3h2.4v10.5h-2.4V248.3z"/>
	<path fill="#FFFFFF" d="M68.1,258.1c-0.7-0.7-1.1-1.6-1.1-2.8h2.4c0,0.6,0.2,1,0.5,1.3s0.7,0.5,1.3,0.5c0.5,0,0.8-0.1,1-0.3
		s0.4-0.5,0.4-0.9c0-0.3-0.1-0.6-0.3-0.8c-0.2-0.2-0.5-0.4-1-0.6l-1.9-0.7c-0.7-0.3-1.2-0.6-1.6-1.1c-0.4-0.5-0.5-1.1-0.5-1.7
		c0-0.6,0.2-1.1,0.5-1.6c0.3-0.5,0.7-0.8,1.3-1.1s1.2-0.4,2-0.4c0.8,0,1.4,0.1,2,0.4c0.6,0.3,1,0.7,1.3,1.2c0.3,0.5,0.5,1.1,0.5,1.8
		h-2.4c0-0.5-0.1-0.9-0.4-1.1c-0.3-0.3-0.6-0.4-1.1-0.4c-0.4,0-0.7,0.1-0.9,0.3c-0.2,0.2-0.3,0.4-0.3,0.8c0,0.3,0.1,0.5,0.3,0.7
		c0.2,0.2,0.6,0.4,1.1,0.6l1.7,0.7c0.7,0.3,1.3,0.7,1.6,1.2c0.3,0.5,0.5,1.1,0.5,1.8c0,0.6-0.2,1.2-0.5,1.7
		c-0.3,0.5-0.8,0.9-1.4,1.1c-0.6,0.3-1.3,0.4-2,0.4C69.8,259.1,68.8,258.8,68.1,258.1z"/>
	<path fill="#FFFFFF" d="M78.2,250.5h-2.9v-2.2h8.2v2.2h-2.9v8.3h-2.4V250.5z"/>
	<path fill="#FFFFFF" d="M92.3,254.1c-0.4,0.6-0.8,1-1.4,1.3l1.8,3.3h-2.8l-1.6-2.9H87v2.9h-2.4v-10.5h4.5c0.7,0,1.4,0.2,1.9,0.5
		c0.6,0.3,1,0.8,1.3,1.4c0.3,0.6,0.5,1.2,0.5,2C92.8,252.9,92.7,253.5,92.3,254.1z M87,253.9h1.7c0.5,0,0.9-0.2,1.2-0.5
		c0.3-0.3,0.5-0.8,0.5-1.3c0-0.5-0.2-1-0.5-1.3c-0.3-0.3-0.7-0.5-1.2-0.5H87V253.9z"/>
	<path fill="#FFFFFF" d="M94.3,248.3h2.4v10.5h-2.4V248.3z"/>
	<path fill="#FFFFFF" d="M106,254.2c0.4,0.4,0.6,1,0.6,1.7c0,0.9-0.3,1.6-0.9,2.1c-0.6,0.5-1.4,0.8-2.5,0.8h-4.5v-10.5h4.3
		c1,0,1.9,0.2,2.5,0.7c0.6,0.5,0.9,1.2,0.9,2c0,0.7-0.2,1.2-0.5,1.6c-0.4,0.4-0.9,0.7-1.5,0.8C105.1,253.5,105.6,253.7,106,254.2z
		 M101.2,250.1v2.6h1.3c0.5,0,0.8-0.1,1.1-0.3c0.3-0.2,0.4-0.5,0.4-0.9c0-0.4-0.1-0.7-0.4-0.9c-0.3-0.2-0.6-0.3-1.1-0.3H101.2z
		 M103.8,256.6c0.3-0.2,0.4-0.6,0.4-1c0-0.4-0.1-0.7-0.4-0.9c-0.3-0.2-0.6-0.4-1.1-0.4h-1.5v2.7h1.5
		C103.2,257,103.6,256.8,103.8,256.6z"/>
	<path fill="#FFFFFF" d="M109,258.1c-0.8-0.7-1.1-1.6-1.1-2.8v-6.9h2.4v6.8c0,0.6,0.2,1.1,0.5,1.4c0.3,0.3,0.8,0.5,1.3,0.5
		c0.6,0,1-0.2,1.3-0.5c0.3-0.3,0.5-0.8,0.5-1.4v-6.8h2.4v6.9c0,1.2-0.4,2.2-1.1,2.8s-1.8,1-3.1,1C110.8,259.1,109.8,258.7,109,258.1
		z"/>
	<path fill="#FFFFFF" d="M120.1,250.5h-2.9v-2.2h8.2v2.2h-2.9v8.3h-2.4V250.5z"/>
	<path fill="#FFFFFF" d="M126.5,248.3h2.4v10.5h-2.4V248.3z"/>
	<path fill="#FFFFFF" d="M133,258.3c-0.9-0.5-1.5-1.2-2-2c-0.5-0.8-0.7-1.8-0.7-2.8c0-1,0.2-1.9,0.7-2.8s1.1-1.5,2-2
		c0.8-0.5,1.8-0.8,3-0.8c1.1,0,2.1,0.3,3,0.8s1.5,1.2,2,2s0.7,1.8,0.7,2.8c0,1-0.2,1.9-0.7,2.8c-0.5,0.8-1.1,1.5-2,2
		c-0.8,0.5-1.8,0.8-3,0.8C134.9,259.1,133.9,258.8,133,258.3z M137.7,256.5c0.5-0.3,0.8-0.7,1.1-1.2c0.2-0.5,0.4-1.1,0.4-1.7
		s-0.1-1.2-0.4-1.7c-0.2-0.5-0.6-0.9-1.1-1.2c-0.5-0.3-1-0.5-1.7-0.5c-0.6,0-1.2,0.2-1.7,0.5s-0.8,0.7-1.1,1.2s-0.4,1.1-0.3,1.7
		c0,0.6,0.1,1.2,0.3,1.7c0.2,0.5,0.6,0.9,1.1,1.2c0.5,0.3,1,0.5,1.7,0.5C136.6,256.9,137.2,256.8,137.7,256.5z"/>
	<path fill="#FFFFFF" d="M143,248.3h2.5l3.6,6.8v-6.8h2.3v10.5H149l-3.6-6.8v6.8H143V248.3z"/>
</g>
<g>
	<circle fill="none" stroke="#7F3F98" stroke-miterlimit="10" stroke-dasharray="3,1" cx="102.1" cy="216" r="99.3"/>
</g>
<circle fill="#7F3F98" cx="274.2" cy="103.5" r="82.7"/>
<g>
	<circle fill="none" stroke="#7F3F98" stroke-miterlimit="10" stroke-dasharray="3,1" cx="273.6" cy="103.4" r="99.3"/>
</g>
<g>
	<circle fill="none" stroke="#7F3F98" stroke-miterlimit="10" stroke-dasharray="3,1" cx="457" cy="195.6" r="99.3"/>
</g>
<g>
	<g>
		<path fill="#FFFFFF" d="M265.3,88.4c0,2.1-3.4,3.5-4.2,5.3c-0.8,1.9,0.6,5.3-0.9,6.7c-1.4,1.4-4.8-0.1-6.7,0.7
			c-1.8,0.7-3.3,4.2-5.4,4.2c-2.1,0-3.5-3.4-5.4-4.2c-1.9-0.8-5.3,0.7-6.7-0.7c-1.5-1.4-0.1-4.8-0.9-6.7c-0.8-1.8-4.2-3.2-4.2-5.3
			c0-2.1,3.4-3.5,4.2-5.3c0.8-1.9-0.6-5.3,0.9-6.7c1.4-1.4,4.8,0.1,6.7-0.7c1.8-0.7,3.3-4.2,5.4-4.2s3.5,3.4,5.4,4.2
			c1.9,0.8,5.3-0.7,6.7,0.7c1.5,1.4,0.1,4.8,0.9,6.7C261.9,84.9,265.3,86.3,265.3,88.4z"/>
	</g>
	<circle fill="#7F3F98" cx="248.1" cy="88.4" r="6.1"/>
	<g>
		<path fill="#FFFFFF" d="M283.3,59.5c0,2.1-3.4,3.5-4.2,5.3c-0.8,1.9,0.6,5.3-0.9,6.7c-1.4,1.4-4.8-0.1-6.7,0.7
			c-1.8,0.7-3.3,4.2-5.4,4.2c-2.1,0-3.5-3.4-5.4-4.2c-1.9-0.8-5.3,0.7-6.7-0.7c-1.5-1.4-0.1-4.8-0.9-6.7c-0.8-1.8-4.2-3.2-4.2-5.3
			c0-2.1,3.4-3.5,4.2-5.3c0.8-1.9-0.6-5.3,0.9-6.7c1.4-1.4,4.8,0.1,6.7-0.7c1.8-0.7,3.3-4.2,5.4-4.2s3.5,3.4,5.4,4.2
			c1.9,0.8,5.3-0.7,6.7,0.7c1.5,1.4,0.1,4.8,0.9,6.7C279.9,56,283.3,57.4,283.3,59.5z"/>
	</g>
	<circle fill="#7F3F98" cx="266.1" cy="59.5" r="6.1"/>
	<path fill="#FFFFFF" d="M301.2,104.5h-23.6c-1.6,0-2.9-1.3-2.9-2.9v-1.4c0-1.6,1.3-2.9,2.9-2.9h23.6c1.6,0,2.9,1.3,2.9,2.9v1.4
		C304.2,103.2,302.9,104.5,301.2,104.5z"/>
	<path fill="#FFFFFF" d="M303.2,94.5h-27.9v-7.8c0-0.2,0.2-0.4,0.4-0.4h27.5V94.5z"/>
	<path fill="#FFFFFF" d="M303.2,86.3H290v-5.7c0-1.3,1.1-2.4,2.4-2.4h8.6c1.3,0,2.3,1,2.3,2.3V86.3z"/>
	<path fill="#FFFFFF" d="M307.8,92.3l1.7-13.1l1.4,0.2c3.7,0.5,6.2,3.8,5.8,7.5v0c-0.5,3.6-3.7,6.1-7.3,5.7L307.8,92.3z"/>
	<rect x="292.1" y="80.5" fill="#7F3F98" width="9" height="5.7"/>
	<circle fill="#7F3F98" cx="283.8" cy="100.9" r="1.5"/>
	<circle fill="#7F3F98" cx="278.2" cy="100.9" r="1.5"/>
	<circle fill="#7F3F98" cx="289.5" cy="100.9" r="1.5"/>
	<circle fill="#7F3F98" cx="295" cy="100.9" r="1.5"/>
	<circle fill="#7F3F98" cx="300.6" cy="100.9" r="1.5"/>
	<path fill="#FFFFFF" d="M314.4,82.1l-15.5-15.5c-0.1-0.4-0.5-0.7-0.9-0.7c-0.4,0-0.7,0.2-0.9,0.5l-21.7,20.2l1.1,1.2L297.7,68
		l15.4,15.4L314.4,82.1z"/>
</g>
<g>
	<path fill="#FFFFFF" d="M211.6,116.6h2.8l2.8,7.5l2.8-7.5h2.8v10.5h-2.3v-6.8l-2.3,6.8h-1.8l-2.4-6.9v6.9h-2.3V116.6z"/>
	<path fill="#FFFFFF" d="M230.6,125.8h-3.7l-0.4,1.3H224l3.6-10.5h2.4l3.6,10.5H231L230.6,125.8z M230.1,123.9l-1.3-4.7l-1.3,4.7
		H230.1z"/>
	<path fill="#FFFFFF" d="M234.7,116.6h2.5l3.6,6.8v-6.8h2.3v10.5h-2.5l-3.6-6.8v6.8h-2.3V116.6z"/>
	<path fill="#FFFFFF" d="M246.1,126.3c-0.8-0.7-1.1-1.6-1.1-2.8v-6.9h2.4v6.8c0,0.6,0.2,1.1,0.5,1.4c0.3,0.3,0.8,0.5,1.3,0.5
		s1-0.2,1.3-0.5c0.3-0.3,0.5-0.8,0.5-1.4v-6.8h2.4v6.9c0,1.2-0.4,2.2-1.1,2.8c-0.8,0.7-1.8,1-3.1,1S246.8,127,246.1,126.3z"/>
	<path fill="#FFFFFF" d="M255.2,116.6h6.4v2h-4v2.8h4v2h-4v3.6h-2.4V116.6z"/>
	<path fill="#FFFFFF" d="M268.4,125.8h-3.7l-0.4,1.3h-2.6l3.6-10.5h2.4l3.6,10.5h-2.6L268.4,125.8z M267.9,123.9l-1.3-4.7l-1.3,4.7
		H267.9z"/>
	<path fill="#FFFFFF" d="M274,126.6c-0.9-0.5-1.5-1.1-2-2c-0.5-0.8-0.7-1.8-0.7-2.9c0-1.1,0.2-2,0.7-2.9c0.5-0.8,1.1-1.5,2-2
		s1.8-0.7,3-0.7c1,0,1.9,0.2,2.7,0.5c0.8,0.3,1.4,0.8,1.9,1.4c0.5,0.6,0.7,1.3,0.8,2.2h-2.6c-0.1-0.6-0.4-1.1-0.9-1.4
		c-0.5-0.3-1.1-0.5-1.8-0.5c-1,0-1.7,0.3-2.3,0.9c-0.6,0.6-0.8,1.4-0.8,2.5s0.3,1.9,0.8,2.5c0.5,0.6,1.3,0.9,2.3,0.9
		c0.7,0,1.3-0.2,1.8-0.5c0.5-0.3,0.8-0.8,0.9-1.4h2.6c-0.1,0.8-0.4,1.5-0.8,2.2c-0.5,0.6-1.1,1.1-1.9,1.4s-1.7,0.5-2.7,0.5
		C275.8,127.4,274.8,127.1,274,126.6z"/>
	<path fill="#FFFFFF" d="M285.1,118.7h-2.9v-2.2h8.2v2.2h-2.9v8.3h-2.4V118.7z"/>
	<path fill="#FFFFFF" d="M292.4,126.3c-0.8-0.7-1.1-1.6-1.1-2.8v-6.9h2.4v6.8c0,0.6,0.2,1.1,0.5,1.4c0.3,0.3,0.8,0.5,1.3,0.5
		c0.6,0,1-0.2,1.3-0.5c0.3-0.3,0.5-0.8,0.5-1.4v-6.8h2.4v6.9c0,1.2-0.4,2.2-1.1,2.8c-0.8,0.7-1.8,1-3.1,1
		C294.2,127.3,293.2,127,292.4,126.3z"/>
	<path fill="#FFFFFF" d="M309.3,122.4c-0.4,0.6-0.8,1-1.4,1.3l1.8,3.3h-2.8l-1.7-2.9H304v2.9h-2.4v-10.5h4.5c0.7,0,1.4,0.2,1.9,0.5
		c0.6,0.3,1,0.8,1.3,1.4c0.3,0.6,0.5,1.2,0.5,2C309.8,121.1,309.6,121.8,309.3,122.4z M304,122.2h1.7c0.5,0,0.9-0.2,1.2-0.5
		c0.3-0.3,0.5-0.8,0.5-1.3c0-0.5-0.2-1-0.5-1.3c-0.3-0.3-0.7-0.5-1.2-0.5H304V122.2z"/>
	<path fill="#FFFFFF" d="M311.3,116.6h2.4v10.5h-2.4V116.6z"/>
	<path fill="#FFFFFF" d="M315.8,116.6h2.5l3.6,6.8v-6.8h2.3v10.5h-2.5l-3.6-6.8v6.8h-2.3V116.6z"/>
	<path fill="#FFFFFF" d="M337.5,123.4h-1c-0.3,1.3-0.9,2.3-1.8,2.9c-0.9,0.7-2.1,1-3.5,1c-1.1,0-2.1-0.2-2.9-0.7
		c-0.8-0.5-1.5-1.1-2-2s-0.7-1.8-0.7-2.8c0-1,0.2-2,0.7-2.8s1.1-1.5,2-2c0.9-0.5,1.9-0.8,3.1-0.8c0.9,0,1.7,0.2,2.5,0.5
		c0.7,0.3,1.3,0.7,1.7,1.3c0.4,0.5,0.7,1.2,0.7,1.8h-2.7c-0.1-0.4-0.4-0.8-0.8-1.1s-0.9-0.4-1.5-0.4c-1,0-1.8,0.3-2.4,1
		c-0.5,0.7-0.8,1.5-0.8,2.5c0,0.7,0.1,1.2,0.4,1.8c0.2,0.5,0.6,0.9,1.1,1.2s1,0.4,1.6,0.4c1.5,0,2.4-0.6,2.7-1.9h-1.9v-1.8h5.4
		V123.4z"/>
	<path fill="#FFFFFF" d="M218.1,141.6h-0.6c0,1.1-0.4,2-1.1,2.7c-0.7,0.7-1.7,1-2.9,1c-0.8,0-1.5-0.1-2.1-0.4
		c-0.6-0.3-1.1-0.6-1.4-1.1s-0.5-1-0.5-1.7c0-0.6,0.2-1.2,0.6-1.7c0.4-0.5,0.9-0.8,1.4-0.9c-0.5-0.1-1-0.4-1.3-0.8
		c-0.3-0.4-0.5-0.9-0.5-1.5c0-0.6,0.2-1.1,0.5-1.6s0.8-0.8,1.4-1c0.6-0.2,1.2-0.4,1.9-0.4c1.3,0,2.2,0.3,2.9,0.9
		c0.6,0.6,1,1.4,1,2.5h-2.5c0-0.5-0.1-0.9-0.3-1.2c-0.2-0.3-0.6-0.4-1.1-0.4c-0.4,0-0.7,0.1-1,0.3s-0.4,0.5-0.4,0.9
		c0,0.9,0.5,1.3,1.4,1.3h0.3v1.9h-0.3c-0.5,0-0.9,0.1-1.2,0.4s-0.4,0.6-0.4,1.1c0,0.4,0.1,0.7,0.4,1c0.3,0.3,0.6,0.4,1.1,0.4
		c0.4,0,0.8-0.2,1.1-0.5c0.3-0.3,0.5-0.8,0.5-1.4h-0.7v-1.8h3.8V141.6z"/>
	<path fill="#FFFFFF" d="M224.9,144.6c-0.9-0.5-1.5-1.1-2-2c-0.5-0.8-0.7-1.8-0.7-2.9c0-1.1,0.2-2,0.7-2.9c0.5-0.8,1.1-1.5,2-2
		s1.8-0.7,3-0.7c1,0,1.9,0.2,2.7,0.5c0.8,0.3,1.4,0.8,1.9,1.4c0.5,0.6,0.7,1.3,0.8,2.2h-2.6c-0.1-0.6-0.4-1.1-0.9-1.4
		c-0.5-0.3-1.1-0.5-1.8-0.5c-1,0-1.7,0.3-2.3,0.9c-0.6,0.6-0.8,1.4-0.8,2.5s0.3,1.9,0.8,2.5c0.5,0.6,1.3,0.9,2.3,0.9
		c0.7,0,1.4-0.2,1.8-0.5c0.5-0.3,0.8-0.8,0.9-1.4h2.6c-0.1,0.8-0.4,1.5-0.8,2.2c-0.5,0.6-1.1,1.1-1.9,1.4c-0.8,0.3-1.7,0.5-2.7,0.5
		C226.8,145.4,225.8,145.1,224.9,144.6z"/>
	<path fill="#FFFFFF" d="M236.7,144.6c-0.9-0.5-1.5-1.2-1.9-2c-0.5-0.8-0.7-1.8-0.7-2.8c0-1,0.2-1.9,0.7-2.8c0.4-0.8,1.1-1.5,1.9-2
		s1.8-0.8,3-0.8c1.1,0,2.1,0.3,3,0.8c0.8,0.5,1.5,1.2,2,2c0.4,0.8,0.7,1.8,0.7,2.8c0,1-0.2,1.9-0.7,2.8c-0.5,0.8-1.1,1.5-2,2
		c-0.9,0.5-1.8,0.8-3,0.8C238.6,145.4,237.6,145.1,236.7,144.6z M241.4,142.7c0.5-0.3,0.8-0.7,1.1-1.2c0.2-0.5,0.4-1.1,0.4-1.7
		s-0.1-1.2-0.4-1.7c-0.2-0.5-0.6-0.9-1.1-1.2c-0.5-0.3-1-0.5-1.7-0.5c-0.7,0-1.2,0.1-1.7,0.5c-0.5,0.3-0.8,0.7-1.1,1.2
		c-0.2,0.5-0.4,1.1-0.3,1.7c0,0.6,0.1,1.2,0.3,1.7c0.2,0.5,0.6,0.9,1.1,1.2c0.5,0.3,1,0.5,1.7,0.5
		C240.4,143.2,240.9,143,241.4,142.7z"/>
	<path fill="#FFFFFF" d="M246.7,134.6h2.5l3.6,6.8v-6.8h2.3v10.5h-2.5l-3.6-6.8v6.8h-2.3V134.6z"/>
	<path fill="#FFFFFF" d="M257.7,144.4c-0.7-0.7-1.1-1.6-1.1-2.8h2.4c0,0.6,0.2,1,0.5,1.3c0.3,0.3,0.7,0.5,1.3,0.5
		c0.5,0,0.8-0.1,1-0.3s0.4-0.5,0.4-0.9c0-0.3-0.1-0.6-0.3-0.8c-0.2-0.2-0.5-0.4-1-0.6l-1.9-0.7c-0.7-0.3-1.2-0.6-1.6-1.1
		c-0.4-0.5-0.5-1.1-0.5-1.7c0-0.6,0.2-1.1,0.5-1.6c0.3-0.5,0.7-0.8,1.3-1.1s1.2-0.4,2-0.4c0.8,0,1.4,0.1,2,0.4
		c0.6,0.3,1,0.7,1.3,1.2c0.3,0.5,0.5,1.1,0.5,1.8H262c0-0.5-0.1-0.9-0.4-1.1c-0.3-0.3-0.6-0.4-1.1-0.4c-0.4,0-0.7,0.1-0.9,0.3
		c-0.2,0.2-0.3,0.4-0.3,0.8c0,0.3,0.1,0.5,0.3,0.7c0.2,0.2,0.6,0.4,1.1,0.6l1.7,0.7c0.7,0.3,1.3,0.7,1.6,1.2
		c0.3,0.5,0.5,1.1,0.5,1.8c0,0.6-0.2,1.2-0.5,1.7c-0.3,0.5-0.8,0.9-1.4,1.1c-0.6,0.3-1.3,0.4-2,0.4
		C259.4,145.4,258.4,145,257.7,144.4z"/>
	<path fill="#FFFFFF" d="M267.7,136.7h-2.9v-2.2h8.2v2.2h-2.9v8.3h-2.4V136.7z"/>
	<path fill="#FFFFFF" d="M281.9,140.4c-0.4,0.6-0.8,1-1.4,1.3l1.8,3.3h-2.8l-1.7-2.9h-1.3v2.9h-2.4v-10.5h4.5c0.7,0,1.4,0.2,1.9,0.5
		c0.6,0.3,1,0.8,1.3,1.4c0.3,0.6,0.5,1.2,0.5,2C282.4,139.1,282.2,139.8,281.9,140.4z M276.6,140.2h1.7c0.5,0,0.9-0.2,1.2-0.5
		s0.5-0.8,0.5-1.3c0-0.5-0.2-1-0.5-1.3s-0.7-0.5-1.2-0.5h-1.7V140.2z"/>
	<path fill="#FFFFFF" d="M284.7,144.3c-0.8-0.7-1.1-1.6-1.1-2.8v-6.9h2.4v6.8c0,0.6,0.2,1.1,0.5,1.4c0.3,0.3,0.8,0.5,1.3,0.5
		c0.6,0,1-0.2,1.3-0.5c0.3-0.3,0.5-0.8,0.5-1.4v-6.8h2.4v6.9c0,1.2-0.4,2.2-1.1,2.8c-0.8,0.7-1.8,1-3.1,1
		C286.5,145.3,285.5,145,284.7,144.3z"/>
	<path fill="#FFFFFF" d="M295.9,144.6c-0.9-0.5-1.5-1.1-2-2c-0.5-0.8-0.7-1.8-0.7-2.9c0-1.1,0.2-2,0.7-2.9c0.5-0.8,1.1-1.5,2-2
		c0.9-0.5,1.8-0.7,3-0.7c1,0,1.9,0.2,2.7,0.5c0.8,0.3,1.4,0.8,1.9,1.4c0.5,0.6,0.7,1.3,0.8,2.2h-2.6c-0.1-0.6-0.5-1.1-0.9-1.4
		c-0.5-0.3-1.1-0.5-1.8-0.5c-1,0-1.7,0.3-2.3,0.9s-0.8,1.4-0.8,2.5s0.3,1.9,0.8,2.5c0.5,0.6,1.3,0.9,2.3,0.9c0.7,0,1.4-0.2,1.8-0.5
		c0.5-0.3,0.8-0.8,0.9-1.4h2.6c-0.1,0.8-0.4,1.5-0.8,2.2s-1.1,1.1-1.9,1.4c-0.8,0.3-1.7,0.5-2.7,0.5
		C297.8,145.4,296.8,145.1,295.9,144.6z"/>
	<path fill="#FFFFFF" d="M307.1,136.7h-2.9v-2.2h8.2v2.2h-2.9v8.3h-2.4V136.7z"/>
	<path fill="#FFFFFF" d="M313.5,134.6h2.4v10.5h-2.4V134.6z"/>
	<path fill="#FFFFFF" d="M320,144.6c-0.9-0.5-1.5-1.2-2-2c-0.5-0.8-0.7-1.8-0.7-2.8c0-1,0.2-1.9,0.7-2.8c0.5-0.8,1.1-1.5,2-2
		c0.8-0.5,1.8-0.8,3-0.8c1.1,0,2.1,0.3,3,0.8s1.5,1.2,2,2c0.5,0.8,0.7,1.8,0.7,2.8c0,1-0.2,1.9-0.7,2.8c-0.5,0.8-1.1,1.5-2,2
		c-0.8,0.5-1.8,0.8-3,0.8C321.8,145.4,320.8,145.1,320,144.6z M324.6,142.7c0.5-0.3,0.8-0.7,1.1-1.2c0.2-0.5,0.4-1.1,0.4-1.7
		s-0.1-1.2-0.4-1.7c-0.2-0.5-0.6-0.9-1.1-1.2c-0.5-0.3-1-0.5-1.7-0.5c-0.6,0-1.2,0.1-1.7,0.5c-0.5,0.3-0.8,0.7-1.1,1.2
		c-0.2,0.5-0.4,1.1-0.3,1.7c0,0.6,0.1,1.2,0.3,1.7s0.6,0.9,1.1,1.2c0.5,0.3,1,0.5,1.7,0.5C323.6,143.2,324.1,143,324.6,142.7z"/>
	<path fill="#FFFFFF" d="M330,134.6h2.5l3.6,6.8v-6.8h2.3v10.5h-2.5l-3.6-6.8v6.8H330V134.6z"/>
</g>
<g>
	<path fill="#FFFFFF" d="M421.8,229.6c-0.7-0.7-1.1-1.6-1.1-2.8h2.4c0,0.6,0.2,1,0.5,1.3c0.3,0.3,0.7,0.5,1.3,0.5
		c0.5,0,0.8-0.1,1-0.3s0.4-0.5,0.4-0.9c0-0.3-0.1-0.6-0.3-0.8c-0.2-0.2-0.5-0.4-1-0.6l-1.9-0.7c-0.7-0.3-1.2-0.6-1.6-1.1
		c-0.4-0.5-0.5-1.1-0.5-1.7c0-0.6,0.2-1.1,0.5-1.6c0.3-0.5,0.7-0.8,1.3-1.1c0.6-0.3,1.2-0.4,2-0.4c0.8,0,1.4,0.1,2,0.4
		c0.6,0.3,1,0.7,1.3,1.2s0.5,1.1,0.5,1.8h-2.4c0-0.5-0.1-0.9-0.4-1.1s-0.6-0.4-1.1-0.4c-0.4,0-0.7,0.1-0.9,0.3
		c-0.2,0.2-0.3,0.4-0.3,0.8c0,0.3,0.1,0.5,0.3,0.7s0.6,0.4,1.1,0.6l1.7,0.7c0.7,0.3,1.3,0.7,1.6,1.2c0.3,0.5,0.5,1.1,0.5,1.8
		c0,0.6-0.2,1.2-0.5,1.7c-0.3,0.5-0.8,0.9-1.4,1.1c-0.6,0.3-1.3,0.4-2,0.4C423.6,230.6,422.5,230.2,421.8,229.6z"/>
	<path fill="#FFFFFF" d="M430.1,219.8h6.4v2h-4v2.4h4v1.9h-4v2.3h4v2h-6.4V219.8z"/>
	<path fill="#FFFFFF" d="M446.2,225.6c-0.4,0.6-0.8,1-1.4,1.3l1.8,3.3h-2.8l-1.6-2.9h-1.3v2.9h-2.4v-10.5h4.5c0.7,0,1.4,0.2,1.9,0.5
		c0.6,0.3,1,0.8,1.3,1.4s0.5,1.2,0.5,2C446.7,224.3,446.5,225,446.2,225.6z M440.9,225.4h1.7c0.5,0,0.9-0.2,1.2-0.5
		c0.3-0.3,0.5-0.8,0.5-1.3c0-0.5-0.2-1-0.5-1.3c-0.3-0.3-0.7-0.5-1.2-0.5h-1.7V225.4z"/>
	<path fill="#FFFFFF" d="M446.7,219.8h2.6l2.2,7.4l2.2-7.4h2.6l-3.5,10.5h-2.5L446.7,219.8z"/>
	<path fill="#FFFFFF" d="M457.2,219.8h2.4v10.5h-2.4V219.8z"/>
	<path fill="#FFFFFF" d="M463.7,229.8c-0.9-0.5-1.5-1.1-2-2c-0.5-0.8-0.7-1.8-0.7-2.9c0-1.1,0.2-2,0.7-2.9c0.5-0.8,1.1-1.5,2-2
		c0.9-0.5,1.8-0.7,3-0.7c1,0,1.9,0.2,2.7,0.5c0.8,0.3,1.4,0.8,1.9,1.4s0.7,1.3,0.8,2.2h-2.6c-0.1-0.6-0.5-1.1-0.9-1.4
		c-0.5-0.3-1.1-0.5-1.8-0.5c-1,0-1.7,0.3-2.3,0.9c-0.6,0.6-0.8,1.4-0.8,2.5s0.3,1.9,0.8,2.5c0.5,0.6,1.3,0.9,2.3,0.9
		c0.7,0,1.3-0.2,1.8-0.5c0.5-0.3,0.8-0.8,0.9-1.4h2.6c-0.1,0.8-0.4,1.5-0.8,2.2s-1.1,1.1-1.9,1.4s-1.7,0.5-2.7,0.5
		C465.6,230.6,464.6,230.3,463.7,229.8z"/>
	<path fill="#FFFFFF" d="M473.4,219.8h6.4v2h-4v2.4h4v1.9h-4v2.3h4v2h-6.4V219.8z"/>
	<path fill="#FFFFFF" d="M493.6,226.8h-0.6c0,1.1-0.4,2-1.1,2.7c-0.7,0.7-1.7,1-2.9,1c-0.8,0-1.5-0.1-2.1-0.4
		c-0.6-0.3-1.1-0.6-1.4-1.1c-0.3-0.5-0.5-1-0.5-1.7c0-0.7,0.2-1.2,0.6-1.7c0.4-0.5,0.9-0.8,1.4-0.9c-0.5-0.1-1-0.4-1.3-0.8
		c-0.3-0.4-0.5-0.9-0.5-1.5s0.2-1.1,0.5-1.6s0.8-0.8,1.4-1c0.6-0.2,1.2-0.4,1.9-0.4c1.3,0,2.2,0.3,2.9,0.9c0.6,0.6,1,1.4,1,2.5h-2.5
		c0-0.5-0.1-0.9-0.3-1.2c-0.2-0.3-0.6-0.4-1-0.4c-0.4,0-0.7,0.1-1,0.3c-0.3,0.2-0.4,0.5-0.4,0.9c0,0.9,0.5,1.3,1.4,1.3h0.3v1.9H489
		c-0.5,0-0.9,0.1-1.2,0.4c-0.2,0.3-0.4,0.6-0.4,1.1c0,0.4,0.1,0.7,0.4,1c0.3,0.3,0.6,0.4,1.1,0.4c0.4,0,0.8-0.2,1.1-0.5
		s0.5-0.8,0.5-1.3h-0.7V225h3.8V226.8z"/>
	<path fill="#FFFFFF" d="M426.6,247.5c-0.8-0.7-1.1-1.6-1.1-2.8v-6.9h2.4v6.8c0,0.6,0.2,1.1,0.5,1.4c0.3,0.3,0.8,0.5,1.3,0.5
		c0.6,0,1-0.2,1.3-0.5c0.3-0.3,0.5-0.8,0.5-1.4v-6.8h2.4v6.9c0,1.2-0.4,2.2-1.1,2.8s-1.8,1-3.1,1
		C428.4,248.5,427.4,248.2,426.6,247.5z"/>
	<path fill="#FFFFFF" d="M437.7,239.9h-2.9v-2.2h8.2v2.2h-2.9v8.3h-2.4V239.9z"/>
	<path fill="#FFFFFF" d="M444.1,237.8h2.4v10.5h-2.4V237.8z"/>
	<path fill="#FFFFFF" d="M448.6,237.8h2.4v8.3h3.9v2.2h-6.3V237.8z"/>
	<path fill="#FFFFFF" d="M456.5,237.8h2.4v10.5h-2.4V237.8z"/>
	<path fill="#FFFFFF" d="M462.9,239.9H460v-2.2h8.2v2.2h-2.9v8.3h-2.4V239.9z"/>
	<path fill="#FFFFFF" d="M469.3,237.8h2.4v10.5h-2.4V237.8z"/>
	<path fill="#FFFFFF" d="M473.8,237.8h6.4v2h-4v2.4h4v1.9h-4v2.3h4v2h-6.4V237.8z"/>
	<path fill="#FFFFFF" d="M482.3,247.6c-0.7-0.7-1.1-1.6-1.1-2.8h2.4c0,0.6,0.2,1,0.5,1.3c0.3,0.3,0.7,0.5,1.3,0.5
		c0.5,0,0.8-0.1,1-0.3s0.4-0.5,0.4-0.9c0-0.3-0.1-0.6-0.3-0.8c-0.2-0.2-0.5-0.4-1-0.6l-1.9-0.7c-0.7-0.3-1.2-0.6-1.6-1.1
		c-0.4-0.5-0.5-1.1-0.5-1.7c0-0.6,0.2-1.1,0.5-1.6c0.3-0.5,0.7-0.8,1.3-1.1c0.6-0.3,1.2-0.4,2-0.4c0.8,0,1.4,0.1,2,0.4
		c0.6,0.3,1,0.7,1.3,1.2s0.5,1.1,0.5,1.8h-2.4c0-0.5-0.1-0.9-0.4-1.1s-0.6-0.4-1.1-0.4c-0.4,0-0.7,0.1-0.9,0.3
		c-0.2,0.2-0.3,0.4-0.3,0.8c0,0.3,0.1,0.5,0.3,0.7s0.6,0.4,1.1,0.6l1.7,0.7c0.7,0.3,1.3,0.7,1.6,1.2c0.3,0.5,0.5,1.1,0.5,1.8
		c0,0.6-0.2,1.2-0.5,1.7c-0.3,0.5-0.8,0.9-1.4,1.1c-0.6,0.3-1.3,0.4-2,0.4C484,248.6,483,248.2,482.3,247.6z"/>
</g>
<g>
	<ellipse fill="none" stroke="#FFFFFF" stroke-width="3" stroke-miterlimit="10" cx="443.8" cy="163.8" rx="16.7" ry="15.9"/>
	<circle fill="#FFFFFF" cx="424.8" cy="155.4" r="6.9"/>
	<circle fill="#FFFFFF" cx="463.2" cy="155.4" r="6.9"/>
	<path fill="#FFFFFF" d="M429.2,164.4h-8.7c-5.5,0-9.9,4.4-9.9,9.9v3.1H439v-3.1C439,168.8,434.6,164.4,429.2,164.4z"/>
	<path fill="#FFFFFF" d="M467.5,164.4h-8.7c-5.5,0-9.9,4.4-9.9,9.9v3.1h28.4v-3.1C477.4,168.8,473,164.4,467.5,164.4z"/>
	<circle fill="#7F3F98" cx="443.8" cy="163.8" r="15.2"/>
	<circle fill="#FFFFFF" cx="443.4" cy="160.8" r="7.8"/>
	<path fill="#FFFFFF" d="M448.3,169.7h-8.7c-5.5,0-9.9,4.4-9.9,9.9v8.1h28.4v-8.1C458.1,174.2,453.7,169.7,448.3,169.7z"/>
	<ellipse fill="none" stroke="#7F3F98" stroke-miterlimit="10" cx="443.8" cy="163.8" rx="18.7" ry="17.8"/>
	<path fill="#FFFFFF" stroke="#7F3F98" stroke-miterlimit="10" d="M472.5,185.6l-8.6-8.2c-0.4,0.2-1,0.3-1.7,0.3
		c-2.5,0-4-2.1-4.2-2.4c-0.7,0.7-1.5,1.4-2.2,2.1c0.6,0.5,2.3,1.9,2.5,4.1c0.1,0.5,0,0.9,0,1.3l8.6,8.2c1.5,1.4,3.9,1.4,5.4,0
		l0.3-0.3C474,189.3,474,187,472.5,185.6z"/>
	<path fill="#FFFFFF" d="M457.1,174.8c0.5,0.5,0.9,1.1,1.4,1.6c-0.6,0.3-1.2,0.7-1.8,1c-0.4-0.4-0.8-0.8-1.1-1.2L457.1,174.8z"/>
	<path fill="#FFFFFF" d="M493,190.1c-3.8,0-7.5,0-11.3-0.1c1.6-9.2,3.3-18.5,4.9-27.7h15.5C499,171.6,496,180.8,493,190.1z"/>
	<path fill="#FFFFFF" d="M485.6,212.3L485.6,212.3c2.8-9.9,5.6-19.7,8.3-29.6h11.9C499,192.6,492.3,202.4,485.6,212.3z"/>
</g>
<circle fill="#7F3F98" cx="187.1" cy="159.1" r="12.3"/>
<circle fill="none" stroke="#7F3F98" stroke-width="0.75" stroke-miterlimit="10" cx="187.1" cy="159.1" r="16"/>
<circle fill="#7F3F98" cx="369.3" cy="143.2" r="12.3"/>
<circle fill="none" stroke="#7F3F98" stroke-width="0.75" stroke-miterlimit="10" cx="369.3" cy="143.2" r="16"/>
</svg>
