<?xml version="1.0" encoding="utf-8"?>
<!-- Generator: Adobe Illustrator 24.1.2, SVG Export Plug-In . SVG Version: 6.00 Build 0)  -->
<svg version="1.1" id="Layer_2" xmlns="http://www.w3.org/2000/svg" xmlns:xlink="http://www.w3.org/1999/xlink" x="0px" y="0px"
	 viewBox="0 0 109.3 542.8" enable-background="new 0 0 109.3 542.8" xml:space="preserve">
<g>
	<circle fill="#21ADE3" cx="56.7" cy="46.1" r="41.8"/>
	<g>
		<path fill="#FFFFFF" d="M34.5,40.4c0.2,0.2,0.3,0.6,0.3,1c0,0.5-0.2,0.9-0.5,1.2C34,42.9,33.5,43,32.9,43h-2.5v-6h2.4
			c0.6,0,1.1,0.1,1.4,0.4s0.5,0.7,0.5,1.1c0,0.4-0.1,0.7-0.3,0.9c-0.2,0.2-0.5,0.4-0.8,0.4C34,40,34.3,40.1,34.5,40.4z M31.8,38.1
			v1.4h0.8c0.3,0,0.5-0.1,0.6-0.2c0.1-0.1,0.2-0.3,0.2-0.5s-0.1-0.4-0.2-0.5s-0.4-0.2-0.6-0.2H31.8z M33.2,41.8
			c0.1-0.1,0.2-0.3,0.2-0.6c0-0.2-0.1-0.4-0.2-0.5c-0.1-0.1-0.3-0.2-0.6-0.2h-0.9V42h0.9C32.9,42,33.1,41.9,33.2,41.8z"/>
		<path fill="#FFFFFF" d="M39.7,41.3h-3c0,0.3,0.1,0.5,0.3,0.6s0.4,0.2,0.7,0.2c0.4,0,0.7-0.1,0.8-0.4h1.3c0,0.3-0.2,0.5-0.3,0.7
			c-0.2,0.2-0.4,0.4-0.7,0.5c-0.3,0.1-0.6,0.2-1,0.2c-0.7,0-1.2-0.2-1.6-0.6c-0.4-0.4-0.6-0.9-0.6-1.6c0-0.4,0.1-0.8,0.3-1.2
			c0.2-0.3,0.4-0.6,0.8-0.8c0.3-0.2,0.7-0.3,1.2-0.3c0.4,0,0.8,0.1,1.1,0.2c0.3,0.2,0.6,0.4,0.8,0.7c0.2,0.3,0.3,0.6,0.3,1
			C39.7,40.9,39.7,41.1,39.7,41.3z M38.4,40.5c0-0.3-0.1-0.5-0.2-0.6c-0.1-0.1-0.4-0.2-0.6-0.2c-0.3,0-0.5,0.1-0.7,0.2
			s-0.2,0.4-0.3,0.6H38.4z"/>
		<path fill="#FFFFFF" d="M41.1,43c-0.3-0.1-0.5-0.3-0.7-0.5c-0.2-0.2-0.2-0.4-0.2-0.7h1.3c0,0.1,0.1,0.3,0.2,0.3
			c0.1,0.1,0.3,0.1,0.5,0.1c0.1,0,0.3,0,0.3-0.1c0.1-0.1,0.1-0.2,0.1-0.3c0-0.2-0.1-0.3-0.3-0.3l-1-0.3c-0.3-0.1-0.6-0.2-0.8-0.4
			c-0.2-0.2-0.3-0.5-0.3-0.7c0-0.4,0.2-0.7,0.5-0.9c0.3-0.2,0.7-0.4,1.3-0.4c0.6,0,1,0.1,1.4,0.3s0.5,0.5,0.5,0.9h-1.3
			c0-0.1,0-0.3-0.1-0.3c-0.1-0.1-0.2-0.1-0.4-0.1c-0.1,0-0.3,0-0.3,0.1s-0.1,0.1-0.1,0.2c0,0.2,0.1,0.3,0.3,0.4l1,0.3
			c0.3,0.1,0.6,0.2,0.8,0.4c0.2,0.2,0.3,0.4,0.3,0.7c0,0.4-0.2,0.8-0.5,1s-0.8,0.4-1.3,0.4C41.7,43.1,41.4,43.1,41.1,43z"/>
		<path fill="#FFFFFF" d="M47.2,42v1c-0.2,0-0.5,0.1-0.9,0.1c-0.4,0-0.8-0.1-1-0.3s-0.4-0.6-0.4-1.2v-1.6h-0.6v-1h0.6v-1.2h1.3v1.2
			h0.9v1h-0.9v1.4c0,0.3,0,0.5,0.1,0.6c0.1,0.1,0.2,0.1,0.4,0.1C47,42,47.1,42,47.2,42z"/>
		<path fill="#FFFFFF" d="M53.7,37.3c0.3,0.2,0.6,0.4,0.8,0.8s0.3,0.7,0.3,1.1c0,0.4-0.1,0.8-0.3,1.1s-0.4,0.6-0.8,0.8
			c-0.3,0.2-0.7,0.3-1.1,0.3h-1.2V43h-1.4v-6h2.5C53,37.1,53.4,37.1,53.7,37.3z M53.1,39.9c0.2-0.2,0.3-0.4,0.3-0.7
			s-0.1-0.5-0.3-0.7c-0.2-0.2-0.4-0.3-0.7-0.3h-0.9v2.1h0.9C52.7,40.2,52.9,40.1,53.1,39.9z"/>
		<path fill="#FFFFFF" d="M55.4,38.9h1.3v0.9c0.1-0.3,0.2-0.5,0.4-0.7s0.4-0.2,0.7-0.2c0.1,0,0.2,0,0.3,0v1.2c-0.2,0-0.3,0-0.4,0
			c-0.3,0-0.6,0.1-0.8,0.3c-0.2,0.2-0.3,0.6-0.3,1V43h-1.3V38.9z"/>
		<path fill="#FFFFFF" d="M59.3,42.8c-0.3-0.2-0.5-0.4-0.7-0.8c-0.2-0.3-0.2-0.7-0.2-1.1c0-0.4,0.1-0.8,0.2-1.1s0.4-0.6,0.7-0.8
			c0.3-0.2,0.6-0.3,1-0.3c0.3,0,0.5,0.1,0.8,0.2s0.4,0.3,0.5,0.5v-0.6h1.3V43h-1.3v-0.6c-0.1,0.2-0.3,0.4-0.5,0.5
			c-0.2,0.1-0.5,0.2-0.8,0.2C60,43.1,59.6,43,59.3,42.8z M61.5,41.7c0.2-0.2,0.3-0.5,0.3-0.8c0-0.3-0.1-0.6-0.3-0.8
			s-0.4-0.3-0.7-0.3c-0.3,0-0.5,0.1-0.7,0.3c-0.2,0.2-0.3,0.5-0.3,0.8s0.1,0.6,0.3,0.8c0.2,0.2,0.4,0.3,0.7,0.3
			C61,42,61.3,41.9,61.5,41.7z"/>
		<path fill="#FFFFFF" d="M64.7,42.9c-0.3-0.2-0.6-0.4-0.8-0.8c-0.2-0.3-0.3-0.7-0.3-1.1s0.1-0.8,0.3-1.1c0.2-0.3,0.4-0.6,0.8-0.8
			c0.3-0.2,0.7-0.3,1.2-0.3c0.6,0,1.1,0.1,1.5,0.5c0.4,0.3,0.6,0.7,0.6,1.2h-1.3c0-0.2-0.1-0.3-0.3-0.4c-0.1-0.1-0.3-0.1-0.5-0.1
			c-0.3,0-0.5,0.1-0.7,0.3S65,40.6,65,41c0,0.3,0.1,0.6,0.2,0.8s0.4,0.3,0.7,0.3c0.2,0,0.4,0,0.5-0.1c0.1-0.1,0.2-0.2,0.3-0.4H68
			c-0.1,0.5-0.3,0.9-0.6,1.2c-0.4,0.3-0.9,0.4-1.5,0.4C65.5,43.1,65.1,43,64.7,42.9z"/>
		<path fill="#FFFFFF" d="M71.4,42v1c-0.2,0-0.5,0.1-0.9,0.1c-0.4,0-0.8-0.1-1-0.3S69,42.2,69,41.6v-1.6h-0.6v-1H69v-1.2h1.3v1.2
			h0.9v1h-0.9v1.4c0,0.3,0,0.5,0.1,0.6c0.1,0.1,0.2,0.1,0.4,0.1C71.1,42,71.2,42,71.4,42z"/>
		<path fill="#FFFFFF" d="M72.2,38.3C72,38.2,72,38,72,37.8c0-0.2,0.1-0.4,0.2-0.6c0.1-0.2,0.3-0.2,0.6-0.2s0.4,0.1,0.6,0.2
			s0.2,0.3,0.2,0.6c0,0.2-0.1,0.4-0.2,0.6c-0.2,0.2-0.3,0.2-0.6,0.2S72.3,38.5,72.2,38.3z M72.1,38.9h1.3V43h-1.3V38.9z"/>
		<path fill="#FFFFFF" d="M75.2,42.9c-0.3-0.2-0.6-0.4-0.8-0.8c-0.2-0.3-0.3-0.7-0.3-1.1s0.1-0.8,0.3-1.1c0.2-0.3,0.4-0.6,0.8-0.8
			c0.3-0.2,0.7-0.3,1.2-0.3c0.6,0,1.1,0.1,1.5,0.5c0.4,0.3,0.6,0.7,0.6,1.2h-1.3c0-0.2-0.1-0.3-0.3-0.4c-0.1-0.1-0.3-0.1-0.5-0.1
			c-0.3,0-0.5,0.1-0.7,0.3s-0.2,0.5-0.2,0.8c0,0.3,0.1,0.6,0.2,0.8s0.4,0.3,0.7,0.3c0.2,0,0.4,0,0.5-0.1c0.1-0.1,0.2-0.2,0.3-0.4
			h1.3c-0.1,0.5-0.3,0.9-0.6,1.2c-0.4,0.3-0.9,0.4-1.5,0.4C75.9,43.1,75.5,43,75.2,42.9z"/>
		<path fill="#FFFFFF" d="M83.4,41.3h-3c0,0.3,0.1,0.5,0.3,0.6s0.4,0.2,0.7,0.2c0.4,0,0.7-0.1,0.8-0.4h1.3c0,0.3-0.2,0.5-0.3,0.7
			c-0.2,0.2-0.4,0.4-0.7,0.5c-0.3,0.1-0.6,0.2-1,0.2c-0.7,0-1.2-0.2-1.6-0.6C79.2,42.2,79,41.6,79,41c0-0.4,0.1-0.8,0.3-1.2
			c0.2-0.3,0.4-0.6,0.8-0.8c0.3-0.2,0.7-0.3,1.2-0.3c0.4,0,0.8,0.1,1.1,0.2c0.3,0.2,0.6,0.4,0.8,0.7c0.2,0.3,0.3,0.6,0.3,1
			C83.4,40.9,83.4,41.1,83.4,41.3z M82.1,40.5c0-0.3-0.1-0.5-0.2-0.6c-0.1-0.1-0.4-0.2-0.6-0.2c-0.3,0-0.5,0.1-0.7,0.2
			s-0.2,0.4-0.3,0.6H82.1z"/>
		<path fill="#FFFFFF" d="M40.4,47.5c0.3,0.2,0.6,0.4,0.8,0.8s0.3,0.7,0.3,1.1c0,0.4-0.1,0.8-0.3,1.1s-0.4,0.6-0.8,0.8
			c-0.3,0.2-0.7,0.3-1.1,0.3h-1.2v1.6h-1.4v-6h2.5C39.7,47.3,40,47.3,40.4,47.5z M39.7,50.1c0.2-0.2,0.3-0.4,0.3-0.7
			s-0.1-0.5-0.3-0.7c-0.2-0.2-0.4-0.3-0.7-0.3h-0.9v2.1h0.9C39.3,50.4,39.6,50.3,39.7,50.1z"/>
		<path fill="#FFFFFF" d="M42,49.1h1.3V50c0.1-0.3,0.2-0.5,0.4-0.7s0.4-0.2,0.7-0.2c0.1,0,0.2,0,0.3,0v1.2c-0.2,0-0.3,0-0.4,0
			c-0.3,0-0.6,0.1-0.8,0.3c-0.2,0.2-0.3,0.6-0.3,1v1.6H42V49.1z"/>
		<path fill="#FFFFFF" d="M46.2,53.1c-0.3-0.2-0.6-0.4-0.8-0.8s-0.3-0.7-0.3-1.1s0.1-0.8,0.3-1.1c0.2-0.3,0.4-0.6,0.8-0.8
			c0.3-0.2,0.7-0.3,1.2-0.3s0.9,0.1,1.2,0.3c0.3,0.2,0.6,0.4,0.8,0.8c0.2,0.3,0.3,0.7,0.3,1.1c0,0.4-0.1,0.8-0.3,1.1
			c-0.2,0.3-0.4,0.6-0.8,0.8c-0.3,0.2-0.7,0.3-1.2,0.3S46.5,53.2,46.2,53.1z M48.1,51.9c0.2-0.2,0.3-0.5,0.3-0.8s-0.1-0.6-0.3-0.8
			c-0.2-0.2-0.4-0.3-0.7-0.3c-0.3,0-0.5,0.1-0.7,0.3c-0.2,0.2-0.3,0.5-0.3,0.8s0.1,0.6,0.3,0.8c0.2,0.2,0.4,0.3,0.7,0.3
			C47.7,52.2,47.9,52.1,48.1,51.9z"/>
		<path fill="#FFFFFF" d="M51.3,53.1c-0.3-0.2-0.6-0.4-0.8-0.8c-0.2-0.3-0.3-0.7-0.3-1.1s0.1-0.8,0.3-1.1c0.2-0.3,0.4-0.6,0.8-0.8
			c0.3-0.2,0.7-0.3,1.2-0.3c0.6,0,1.1,0.1,1.5,0.5c0.4,0.3,0.6,0.7,0.6,1.2h-1.3c0-0.2-0.1-0.3-0.3-0.4c-0.1-0.1-0.3-0.1-0.5-0.1
			c-0.3,0-0.5,0.1-0.7,0.3s-0.2,0.5-0.2,0.8c0,0.3,0.1,0.6,0.2,0.8s0.4,0.3,0.7,0.3c0.2,0,0.4,0,0.5-0.1c0.1-0.1,0.2-0.2,0.3-0.4
			h1.3c-0.1,0.5-0.3,0.9-0.6,1.2c-0.4,0.3-0.9,0.4-1.5,0.4C52,53.3,51.6,53.2,51.3,53.1z"/>
		<path fill="#FFFFFF" d="M59.4,51.5h-3c0,0.3,0.1,0.5,0.3,0.6s0.4,0.2,0.7,0.2c0.4,0,0.7-0.1,0.8-0.4h1.3c0,0.3-0.2,0.5-0.3,0.7
			c-0.2,0.2-0.4,0.4-0.7,0.5c-0.3,0.1-0.6,0.2-1,0.2c-0.7,0-1.2-0.2-1.6-0.6c-0.4-0.4-0.6-0.9-0.6-1.6c0-0.4,0.1-0.8,0.3-1.2
			c0.2-0.3,0.4-0.6,0.8-0.8c0.3-0.2,0.7-0.3,1.2-0.3c0.4,0,0.8,0.1,1.1,0.2c0.3,0.2,0.6,0.4,0.8,0.7c0.2,0.3,0.3,0.6,0.3,1
			C59.5,51.1,59.5,51.3,59.4,51.5z M58.2,50.7c0-0.3-0.1-0.5-0.2-0.6c-0.1-0.1-0.4-0.2-0.6-0.2c-0.3,0-0.5,0.1-0.7,0.2
			s-0.2,0.4-0.3,0.6H58.2z"/>
		<path fill="#FFFFFF" d="M60.9,53.2c-0.3-0.1-0.5-0.3-0.7-0.5C60,52.5,60,52.2,60,52h1.3c0,0.1,0.1,0.3,0.2,0.3
			c0.1,0.1,0.3,0.1,0.5,0.1c0.1,0,0.3,0,0.3-0.1c0.1-0.1,0.1-0.2,0.1-0.3c0-0.2-0.1-0.3-0.3-0.3l-1-0.3c-0.3-0.1-0.6-0.2-0.8-0.4
			c-0.2-0.2-0.3-0.5-0.3-0.7c0-0.4,0.2-0.7,0.5-0.9c0.3-0.2,0.7-0.4,1.3-0.4c0.6,0,1,0.1,1.4,0.3s0.5,0.5,0.5,0.9h-1.3
			c0-0.1,0-0.3-0.1-0.3c-0.1-0.1-0.2-0.1-0.4-0.1c-0.1,0-0.3,0-0.3,0.1s-0.1,0.1-0.1,0.2c0,0.2,0.1,0.3,0.3,0.4l1,0.3
			c0.3,0.1,0.6,0.2,0.8,0.4c0.2,0.2,0.3,0.4,0.3,0.7c0,0.4-0.2,0.8-0.5,1s-0.8,0.4-1.3,0.4C61.5,53.3,61.2,53.3,60.9,53.2z"/>
		<path fill="#FFFFFF" d="M65.1,53.2c-0.3-0.1-0.5-0.3-0.7-0.5c-0.2-0.2-0.2-0.4-0.2-0.7h1.3c0,0.1,0.1,0.3,0.2,0.3
			c0.1,0.1,0.3,0.1,0.5,0.1c0.1,0,0.3,0,0.3-0.1c0.1-0.1,0.1-0.2,0.1-0.3c0-0.2-0.1-0.3-0.3-0.3l-1-0.3c-0.3-0.1-0.6-0.2-0.8-0.4
			c-0.2-0.2-0.3-0.5-0.3-0.7c0-0.4,0.2-0.7,0.5-0.9c0.3-0.2,0.7-0.4,1.3-0.4c0.6,0,1,0.1,1.4,0.3s0.5,0.5,0.5,0.9h-1.3
			c0-0.1,0-0.3-0.1-0.3c-0.1-0.1-0.2-0.1-0.4-0.1c-0.1,0-0.3,0-0.3,0.1s-0.1,0.1-0.1,0.2c0,0.2,0.1,0.3,0.3,0.4l1,0.3
			c0.3,0.1,0.6,0.2,0.8,0.4c0.2,0.2,0.3,0.4,0.3,0.7c0,0.4-0.2,0.8-0.5,1s-0.8,0.4-1.3,0.4C65.7,53.3,65.4,53.3,65.1,53.2z"/>
		<path fill="#FFFFFF" d="M72.8,51.5h-3c0,0.3,0.1,0.5,0.3,0.6s0.4,0.2,0.7,0.2c0.4,0,0.7-0.1,0.8-0.4h1.3c0,0.3-0.2,0.5-0.3,0.7
			c-0.2,0.2-0.4,0.4-0.7,0.5c-0.3,0.1-0.6,0.2-1,0.2c-0.7,0-1.2-0.2-1.6-0.6c-0.4-0.4-0.6-0.9-0.6-1.6c0-0.4,0.1-0.8,0.3-1.2
			c0.2-0.3,0.4-0.6,0.8-0.8c0.3-0.2,0.7-0.3,1.2-0.3c0.4,0,0.8,0.1,1.1,0.2c0.3,0.2,0.6,0.4,0.8,0.7c0.2,0.3,0.3,0.6,0.3,1
			C72.8,51.1,72.8,51.3,72.8,51.5z M71.5,50.7c0-0.3-0.1-0.5-0.2-0.6c-0.1-0.1-0.4-0.2-0.6-0.2c-0.3,0-0.5,0.1-0.7,0.2
			s-0.2,0.4-0.3,0.6H71.5z"/>
		<path fill="#FFFFFF" d="M74.2,53.2c-0.3-0.1-0.5-0.3-0.7-0.5c-0.2-0.2-0.2-0.4-0.2-0.7h1.3c0,0.1,0.1,0.3,0.2,0.3
			c0.1,0.1,0.3,0.1,0.5,0.1c0.1,0,0.3,0,0.3-0.1c0.1-0.1,0.1-0.2,0.1-0.3c0-0.2-0.1-0.3-0.3-0.3l-1-0.3c-0.3-0.1-0.6-0.2-0.8-0.4
			c-0.2-0.2-0.3-0.5-0.3-0.7c0-0.4,0.2-0.7,0.5-0.9c0.3-0.2,0.7-0.4,1.3-0.4c0.6,0,1,0.1,1.4,0.3s0.5,0.5,0.5,0.9h-1.3
			c0-0.1,0-0.3-0.1-0.3c-0.1-0.1-0.2-0.1-0.4-0.1c-0.1,0-0.3,0-0.3,0.1s-0.1,0.1-0.1,0.2c0,0.2,0.1,0.3,0.3,0.4l1,0.3
			c0.3,0.1,0.6,0.2,0.8,0.4c0.2,0.2,0.3,0.4,0.3,0.7c0,0.4-0.2,0.8-0.5,1s-0.8,0.4-1.3,0.4C74.8,53.3,74.5,53.3,74.2,53.2z"/>
		<path fill="#FFFFFF" d="M49.7,60.8c0.2,0.2,0.3,0.6,0.3,1c0,0.5-0.2,0.9-0.5,1.2c-0.3,0.3-0.8,0.4-1.4,0.4h-2.5v-6H48
			c0.6,0,1.1,0.1,1.4,0.4c0.3,0.3,0.5,0.7,0.5,1.1c0,0.4-0.1,0.7-0.3,0.9c-0.2,0.2-0.5,0.4-0.8,0.4C49.1,60.4,49.4,60.5,49.7,60.8z
			 M46.9,58.5v1.4h0.8c0.3,0,0.5-0.1,0.6-0.2c0.1-0.1,0.2-0.3,0.2-0.5c0-0.2-0.1-0.4-0.2-0.5c-0.1-0.1-0.4-0.2-0.6-0.2H46.9z
			 M48.4,62.2c0.1-0.1,0.2-0.3,0.2-0.6c0-0.2-0.1-0.4-0.2-0.5c-0.1-0.1-0.3-0.2-0.6-0.2h-0.9v1.5h0.9C48,62.4,48.2,62.3,48.4,62.2z"
			/>
		<path fill="#FFFFFF" d="M54.5,57.7c0.3,0.2,0.6,0.4,0.8,0.8c0.2,0.3,0.3,0.7,0.3,1.1c0,0.4-0.1,0.8-0.3,1.1
			c-0.2,0.3-0.4,0.6-0.8,0.8c-0.3,0.2-0.7,0.3-1.1,0.3h-1.2v1.6h-1.4v-6h2.5C53.8,57.5,54.2,57.5,54.5,57.7z M53.9,60.3
			c0.2-0.2,0.3-0.4,0.3-0.7c0-0.3-0.1-0.5-0.3-0.7c-0.2-0.2-0.4-0.3-0.7-0.3h-0.9v2.1h0.9C53.4,60.6,53.7,60.5,53.9,60.3z"/>
		<path fill="#FFFFFF" d="M56.2,57.5h1.6l1.6,4.2l1.6-4.2h1.6v6h-1.3v-3.9l-1.3,3.9h-1l-1.4-3.9v3.9h-1.3V57.5z"/>
		<path fill="#FFFFFF" d="M63,57.5h1.5l1.2,4.2l1.2-4.2h1.5l-2,6H65L63,57.5z"/>
	</g>
</g>
<g>
	<circle fill="#21ADE3" cx="56.7" cy="157.8" r="41.8"/>
	<g>
		<path fill="#FFFFFF" d="M39.4,146.8c-0.4-0.4-0.6-0.9-0.6-1.6h1.4c0,0.3,0.1,0.6,0.3,0.8s0.4,0.3,0.7,0.3c0.3,0,0.5-0.1,0.6-0.2
			c0.1-0.1,0.2-0.3,0.2-0.5c0-0.2-0.1-0.3-0.2-0.4s-0.3-0.2-0.6-0.3l-1.1-0.4c-0.4-0.1-0.7-0.4-0.9-0.6s-0.3-0.6-0.3-1
			c0-0.3,0.1-0.7,0.3-0.9c0.2-0.3,0.4-0.5,0.7-0.6c0.3-0.1,0.7-0.2,1.1-0.2c0.4,0,0.8,0.1,1.1,0.2c0.3,0.2,0.6,0.4,0.8,0.7
			c0.2,0.3,0.3,0.6,0.3,1h-1.4c0-0.3-0.1-0.5-0.2-0.6c-0.1-0.1-0.3-0.2-0.6-0.2c-0.2,0-0.4,0.1-0.5,0.2s-0.2,0.2-0.2,0.4
			c0,0.2,0.1,0.3,0.2,0.4c0.1,0.1,0.3,0.2,0.6,0.4l1,0.4c0.4,0.2,0.7,0.4,0.9,0.7c0.2,0.3,0.3,0.6,0.3,1c0,0.4-0.1,0.7-0.3,1
			c-0.2,0.3-0.4,0.5-0.8,0.6c-0.3,0.1-0.7,0.2-1.1,0.2C40.4,147.4,39.8,147.2,39.4,146.8z"/>
		<path fill="#FFFFFF" d="M46.7,146.2v1c-0.2,0-0.5,0.1-0.9,0.1c-0.4,0-0.8-0.1-1-0.3s-0.4-0.6-0.4-1.2v-1.6h-0.6v-1h0.6v-1.2h1.3
			v1.2h0.9v1h-0.9v1.4c0,0.3,0,0.5,0.1,0.6c0.1,0.1,0.2,0.1,0.4,0.1C46.4,146.2,46.5,146.2,46.7,146.2z"/>
		<path fill="#FFFFFF" d="M48,147c-0.3-0.2-0.5-0.4-0.7-0.8c-0.2-0.3-0.2-0.7-0.2-1.1c0-0.4,0.1-0.8,0.2-1.1s0.4-0.6,0.7-0.8
			c0.3-0.2,0.6-0.3,1-0.3c0.3,0,0.5,0.1,0.8,0.2s0.4,0.3,0.5,0.5v-0.6h1.3v4.1h-1.3v-0.6c-0.1,0.2-0.3,0.4-0.5,0.5
			c-0.2,0.1-0.5,0.2-0.8,0.2C48.6,147.3,48.3,147.2,48,147z M50.1,145.9c0.2-0.2,0.3-0.5,0.3-0.8c0-0.3-0.1-0.6-0.3-0.8
			s-0.4-0.3-0.7-0.3c-0.3,0-0.5,0.1-0.7,0.3c-0.2,0.2-0.3,0.5-0.3,0.8s0.1,0.6,0.3,0.8c0.2,0.2,0.4,0.3,0.7,0.3
			C49.7,146.2,49.9,146.1,50.1,145.9z"/>
		<path fill="#FFFFFF" d="M52.7,143.1H54v0.6c0.1-0.2,0.3-0.4,0.5-0.5c0.2-0.1,0.5-0.2,0.8-0.2c1,0,1.5,0.6,1.5,1.7v2.5h-1.3v-2.1
			c0-0.4-0.1-0.6-0.2-0.8c-0.1-0.2-0.3-0.2-0.6-0.2s-0.5,0.1-0.6,0.2c-0.1,0.2-0.2,0.4-0.2,0.7v2.1h-1.3V143.1z"/>
		<path fill="#FFFFFF" d="M62.1,143.3L62.1,143.3l0,3.9h-1.3v-0.6c-0.1,0.2-0.3,0.4-0.5,0.5c-0.2,0.1-0.5,0.2-0.8,0.2
			c-0.4,0-0.7-0.1-1-0.3s-0.5-0.4-0.7-0.8c-0.2-0.3-0.2-0.7-0.2-1.1c0-0.4,0.1-0.8,0.2-1.1s0.4-0.6,0.7-0.8c0.3-0.2,0.6-0.3,1-0.3
			c0.3,0,0.5,0.1,0.8,0.2s0.4,0.3,0.5,0.5v-2.4h1.3V143.3z M60.6,145.9c0.2-0.2,0.3-0.5,0.3-0.8c0-0.3-0.1-0.6-0.3-0.8
			s-0.4-0.3-0.7-0.3c-0.3,0-0.5,0.1-0.7,0.3c-0.2,0.2-0.3,0.5-0.3,0.8s0.1,0.6,0.3,0.8c0.2,0.2,0.4,0.3,0.7,0.3
			C60.2,146.2,60.4,146.1,60.6,145.9z"/>
		<path fill="#FFFFFF" d="M63.7,147c-0.3-0.2-0.5-0.4-0.7-0.8c-0.2-0.3-0.2-0.7-0.2-1.1c0-0.4,0.1-0.8,0.2-1.1s0.4-0.6,0.7-0.8
			c0.3-0.2,0.6-0.3,1-0.3c0.3,0,0.5,0.1,0.8,0.2s0.4,0.3,0.5,0.5v-0.6h1.3v4.1h-1.3v-0.6c-0.1,0.2-0.3,0.4-0.5,0.5
			c-0.2,0.1-0.5,0.2-0.8,0.2C64.4,147.3,64,147.2,63.7,147z M65.9,145.9c0.2-0.2,0.3-0.5,0.3-0.8c0-0.3-0.1-0.6-0.3-0.8
			s-0.4-0.3-0.7-0.3c-0.3,0-0.5,0.1-0.7,0.3c-0.2,0.2-0.3,0.5-0.3,0.8s0.1,0.6,0.3,0.8c0.2,0.2,0.4,0.3,0.7,0.3
			C65.5,146.2,65.7,146.1,65.9,145.9z"/>
		<path fill="#FFFFFF" d="M68.5,143.1h1.3v0.9c0.1-0.3,0.2-0.5,0.4-0.7s0.4-0.2,0.7-0.2c0.1,0,0.2,0,0.3,0v1.2c-0.2,0-0.3,0-0.4,0
			c-0.3,0-0.6,0.1-0.8,0.3c-0.2,0.2-0.3,0.6-0.3,1v1.6h-1.3V143.1z"/>
		<path fill="#FFFFFF" d="M76,143.3L76,143.3l0,3.9h-1.3v-0.6c-0.1,0.2-0.3,0.4-0.5,0.5c-0.2,0.1-0.5,0.2-0.8,0.2
			c-0.4,0-0.7-0.1-1-0.3s-0.5-0.4-0.7-0.8c-0.2-0.3-0.2-0.7-0.2-1.1c0-0.4,0.1-0.8,0.2-1.1s0.4-0.6,0.7-0.8c0.3-0.2,0.6-0.3,1-0.3
			c0.3,0,0.5,0.1,0.8,0.2s0.4,0.3,0.5,0.5v-2.4H76V143.3z M74.5,145.9c0.2-0.2,0.3-0.5,0.3-0.8c0-0.3-0.1-0.6-0.3-0.8
			s-0.4-0.3-0.7-0.3c-0.3,0-0.5,0.1-0.7,0.3c-0.2,0.2-0.3,0.5-0.3,0.8s0.1,0.6,0.3,0.8c0.2,0.2,0.4,0.3,0.7,0.3
			C74.1,146.2,74.4,146.1,74.5,145.9z"/>
		<path fill="#FFFFFF" d="M29.1,151.4h2.2c0.6,0,1.2,0.1,1.6,0.4c0.5,0.3,0.8,0.6,1.1,1.1c0.2,0.5,0.4,0.9,0.4,1.5s-0.1,1-0.4,1.5
			c-0.2,0.5-0.6,0.8-1.1,1.1c-0.5,0.3-1,0.4-1.6,0.4h-2.2V151.4z M31.3,156.2c0.4,0,0.7-0.1,1-0.3c0.3-0.2,0.5-0.4,0.6-0.7
			c0.1-0.3,0.2-0.6,0.2-0.9c0-0.3-0.1-0.6-0.2-0.9c-0.1-0.3-0.3-0.5-0.6-0.7c-0.3-0.2-0.6-0.3-1-0.3h-0.7v3.6H31.3z"/>
		<path fill="#FFFFFF" d="M39.2,153.3v4c0,0.3-0.1,0.6-0.2,0.9c-0.1,0.3-0.2,0.5-0.4,0.6c-0.2,0.2-0.4,0.3-0.6,0.4
			c-0.2,0.1-0.5,0.1-0.9,0.1c-0.7,0-1.2-0.1-1.5-0.4c-0.2-0.1-0.3-0.3-0.4-0.5c-0.1-0.2-0.1-0.4-0.1-0.6h1.3c0,0.2,0.1,0.3,0.2,0.4
			c0.1,0.1,0.3,0.1,0.5,0.1c0.2,0,0.4-0.1,0.6-0.2s0.2-0.4,0.2-0.7v-0.6c-0.1,0.2-0.3,0.4-0.5,0.5c-0.2,0.1-0.5,0.2-0.8,0.2
			c-0.5,0-0.9-0.2-1.1-0.5c-0.3-0.3-0.4-0.7-0.4-1.3v-2.4h1.3v2.2c0,0.3,0.1,0.5,0.2,0.7c0.1,0.2,0.3,0.2,0.6,0.2
			c0.3,0,0.5-0.1,0.6-0.3c0.1-0.2,0.2-0.4,0.2-0.8v-2H39.2z"/>
		<path fill="#FFFFFF" d="M40.3,153.3h1.3v0.6c0.1-0.2,0.3-0.4,0.5-0.5c0.2-0.1,0.5-0.2,0.8-0.2c1,0,1.5,0.6,1.5,1.7v2.5h-1.3v-2.1
			c0-0.4-0.1-0.6-0.2-0.8c-0.1-0.2-0.3-0.2-0.6-0.2s-0.5,0.1-0.6,0.2c-0.1,0.2-0.2,0.4-0.2,0.7v2.1h-1.3V153.3z"/>
		<path fill="#FFFFFF" d="M46.1,157.2c-0.3-0.2-0.5-0.4-0.7-0.8c-0.2-0.3-0.2-0.7-0.2-1.1c0-0.4,0.1-0.8,0.2-1.1s0.4-0.6,0.7-0.8
			c0.3-0.2,0.6-0.3,1-0.3c0.3,0,0.5,0.1,0.8,0.2s0.4,0.3,0.5,0.5v-0.6h1.3v4.1h-1.3v-0.6c-0.1,0.2-0.3,0.4-0.5,0.5
			c-0.2,0.1-0.5,0.2-0.8,0.2C46.7,157.5,46.3,157.4,46.1,157.2z M48.2,156.1c0.2-0.2,0.3-0.5,0.3-0.8c0-0.3-0.1-0.6-0.3-0.8
			s-0.4-0.3-0.7-0.3c-0.3,0-0.5,0.1-0.7,0.3c-0.2,0.2-0.3,0.5-0.3,0.8s0.1,0.6,0.3,0.8c0.2,0.2,0.4,0.3,0.7,0.3
			C47.8,156.4,48,156.3,48.2,156.1z"/>
		<path fill="#FFFFFF" d="M50.8,153.3h1.3v0.6c0.1-0.2,0.2-0.4,0.4-0.5c0.2-0.1,0.4-0.2,0.7-0.2c0.6,0,1.1,0.3,1.3,0.8
			c0.1-0.2,0.3-0.4,0.5-0.5c0.2-0.1,0.5-0.2,0.8-0.2c1,0,1.5,0.6,1.5,1.7v2.5H56v-2.3c0-0.3-0.1-0.5-0.2-0.6
			c-0.1-0.1-0.3-0.2-0.5-0.2c-0.2,0-0.4,0.1-0.5,0.2c-0.1,0.2-0.2,0.4-0.2,0.8v2.1h-1.3v-2.3c0-0.3,0-0.5-0.1-0.6s-0.3-0.2-0.5-0.2
			c-0.2,0-0.4,0.1-0.5,0.2c-0.1,0.2-0.2,0.4-0.2,0.8v2.1h-1.3V153.3z"/>
		<path fill="#FFFFFF" d="M58.4,152.7c-0.2-0.2-0.2-0.3-0.2-0.6c0-0.2,0.1-0.4,0.2-0.6c0.1-0.2,0.3-0.2,0.6-0.2s0.4,0.1,0.6,0.2
			s0.2,0.3,0.2,0.6c0,0.2-0.1,0.4-0.2,0.6c-0.2,0.2-0.3,0.2-0.6,0.2S58.5,152.9,58.4,152.7z M58.3,153.3h1.3v4.1h-1.3V153.3z"/>
		<path fill="#FFFFFF" d="M61.4,157.2c-0.3-0.2-0.6-0.4-0.8-0.8c-0.2-0.3-0.3-0.7-0.3-1.1s0.1-0.8,0.3-1.1c0.2-0.3,0.4-0.6,0.8-0.8
			c0.3-0.2,0.7-0.3,1.2-0.3c0.6,0,1.1,0.1,1.5,0.5c0.4,0.3,0.6,0.7,0.6,1.2h-1.3c0-0.2-0.1-0.3-0.3-0.4c-0.1-0.1-0.3-0.1-0.5-0.1
			c-0.3,0-0.5,0.1-0.7,0.3s-0.2,0.5-0.2,0.8c0,0.3,0.1,0.6,0.2,0.8s0.4,0.3,0.7,0.3c0.2,0,0.4,0,0.5-0.1c0.1-0.1,0.2-0.2,0.3-0.4
			h1.3c-0.1,0.5-0.3,0.9-0.6,1.2c-0.4,0.3-0.9,0.4-1.5,0.4C62.1,157.5,61.7,157.4,61.4,157.2z"/>
		<path fill="#FFFFFF" d="M66.1,157.3c-0.3-0.1-0.5-0.3-0.7-0.5c-0.2-0.2-0.2-0.4-0.2-0.7h1.3c0,0.1,0.1,0.3,0.2,0.3
			c0.1,0.1,0.3,0.1,0.5,0.1c0.1,0,0.3,0,0.3-0.1c0.1-0.1,0.1-0.2,0.1-0.3c0-0.2-0.1-0.3-0.3-0.3l-1-0.3c-0.3-0.1-0.6-0.2-0.8-0.4
			c-0.2-0.2-0.3-0.5-0.3-0.7c0-0.4,0.2-0.7,0.5-0.9c0.3-0.2,0.7-0.4,1.3-0.4c0.6,0,1,0.1,1.4,0.3s0.5,0.5,0.5,0.9h-1.3
			c0-0.1,0-0.3-0.1-0.3c-0.1-0.1-0.2-0.1-0.4-0.1c-0.1,0-0.3,0-0.3,0.1s-0.1,0.1-0.1,0.2c0,0.2,0.1,0.3,0.3,0.4l1,0.3
			c0.3,0.1,0.6,0.2,0.8,0.4c0.2,0.2,0.3,0.4,0.3,0.7c0,0.4-0.2,0.8-0.5,1s-0.8,0.4-1.3,0.4C66.7,157.5,66.3,157.5,66.1,157.3z"/>
		<path fill="#FFFFFF" d="M72,157c-0.4-0.4-0.6-0.9-0.6-1.5h1.4c0,0.3,0.1,0.5,0.2,0.7c0.2,0.2,0.4,0.2,0.7,0.2
			c0.2,0,0.4-0.1,0.6-0.2c0.1-0.1,0.2-0.3,0.2-0.5c0-0.5-0.3-0.8-0.9-0.8h-0.6v-1.1h0.6c0.5,0,0.8-0.2,0.8-0.7
			c0-0.2-0.1-0.4-0.2-0.5c-0.1-0.1-0.3-0.2-0.5-0.2c-0.3,0-0.5,0.1-0.6,0.2c-0.1,0.1-0.2,0.3-0.2,0.6h-1.4c0-0.4,0.1-0.7,0.3-1
			c0.2-0.3,0.4-0.5,0.8-0.6c0.3-0.2,0.7-0.2,1.2-0.2c0.4,0,0.8,0.1,1.1,0.2s0.6,0.3,0.7,0.6s0.3,0.5,0.3,0.9c0,0.3-0.1,0.6-0.3,0.8
			c-0.2,0.2-0.4,0.4-0.8,0.5c0.4,0.1,0.6,0.2,0.9,0.5c0.2,0.2,0.3,0.5,0.3,0.9c0,0.3-0.1,0.7-0.3,0.9s-0.4,0.5-0.8,0.6
			c-0.3,0.1-0.7,0.2-1.2,0.2C73,157.5,72.4,157.3,72,157z"/>
		<path fill="#FFFFFF" d="M80.2,153.5c0.3,0.2,0.5,0.4,0.7,0.8s0.2,0.7,0.2,1.1c0,0.4-0.1,0.8-0.3,1.1s-0.5,0.6-0.8,0.8
			s-0.7,0.3-1.2,0.3s-0.9-0.1-1.2-0.3c-0.3-0.2-0.6-0.4-0.8-0.8s-0.3-0.7-0.3-1.1c0-0.5,0.1-1,0.4-1.4l1.7-2.4h1.6l-1.2,1.6
			C79.5,153.2,79.9,153.3,80.2,153.5z M79.6,156.1c0.2-0.2,0.3-0.5,0.3-0.8s-0.1-0.6-0.3-0.8c-0.2-0.2-0.4-0.3-0.7-0.3
			c-0.3,0-0.5,0.1-0.7,0.3c-0.2,0.2-0.3,0.5-0.3,0.8s0.1,0.6,0.3,0.8c0.2,0.2,0.4,0.3,0.7,0.3C79.2,156.4,79.4,156.3,79.6,156.1z"/>
		<path fill="#FFFFFF" d="M82.5,157c-0.4-0.3-0.6-0.7-0.6-1.3h1.3c0,0.2,0.1,0.4,0.3,0.5c0.2,0.1,0.4,0.2,0.6,0.2
			c0.3,0,0.5-0.1,0.7-0.3c0.2-0.2,0.3-0.4,0.3-0.7c0-0.3-0.1-0.5-0.2-0.7s-0.4-0.3-0.6-0.3c-0.2,0-0.4,0-0.6,0.1
			c-0.2,0.1-0.3,0.2-0.4,0.4H82v-3.4h4v1.1h-2.8v1.2c0.1-0.2,0.3-0.3,0.5-0.3c0.2-0.1,0.4-0.1,0.7-0.1c0.4,0,0.7,0.1,1,0.2
			c0.3,0.2,0.5,0.4,0.7,0.7s0.2,0.6,0.2,1c0,0.4-0.1,0.8-0.3,1.1c-0.2,0.3-0.4,0.6-0.8,0.8s-0.7,0.3-1.2,0.3
			C83.4,157.5,82.9,157.4,82.5,157z"/>
		<path fill="#FFFFFF" d="M38.9,165.4h-1.3v-1h1.3V163H40v1.3h1.3v1H40v1.3h-1.1V165.4z"/>
		<path fill="#FFFFFF" d="M44.4,161.6h1.4v6h-1.4V161.6z"/>
		<path fill="#FFFFFF" d="M46.8,163.5h1.3v0.6c0.1-0.2,0.3-0.4,0.5-0.5s0.5-0.2,0.8-0.2c1,0,1.5,0.6,1.5,1.7v2.5h-1.3v-2.1
			c0-0.4-0.1-0.6-0.2-0.8c-0.1-0.2-0.3-0.2-0.6-0.2s-0.5,0.1-0.6,0.2s-0.2,0.4-0.2,0.7v2.1h-1.3V163.5z"/>
		<path fill="#FFFFFF" d="M56.2,163.7L56.2,163.7l0,3.9h-1.3V167c-0.1,0.2-0.3,0.4-0.5,0.5c-0.2,0.1-0.5,0.2-0.8,0.2
			c-0.4,0-0.7-0.1-1-0.3c-0.3-0.2-0.5-0.4-0.7-0.8c-0.2-0.3-0.2-0.7-0.2-1.1c0-0.4,0.1-0.8,0.2-1.1c0.2-0.3,0.4-0.6,0.7-0.8
			c0.3-0.2,0.6-0.3,1-0.3c0.3,0,0.5,0.1,0.8,0.2s0.4,0.3,0.5,0.5v-2.4h1.3V163.7z M54.7,166.3c0.2-0.2,0.3-0.5,0.3-0.8
			c0-0.3-0.1-0.6-0.3-0.8s-0.4-0.3-0.7-0.3c-0.3,0-0.5,0.1-0.7,0.3c-0.2,0.2-0.3,0.5-0.3,0.8s0.1,0.6,0.3,0.8
			c0.2,0.2,0.4,0.3,0.7,0.3C54.3,166.6,54.6,166.5,54.7,166.3z"/>
		<path fill="#FFFFFF" d="M57.7,167.3c-0.3-0.3-0.4-0.7-0.4-1.2v-2.5h1.3v2.2c0,0.3,0.1,0.5,0.2,0.6c0.1,0.1,0.3,0.2,0.5,0.2
			c0.3,0,0.5-0.1,0.6-0.2c0.1-0.2,0.2-0.4,0.2-0.7v-2.2h1.3v4.1h-1.3V167c-0.1,0.2-0.3,0.4-0.5,0.5s-0.5,0.2-0.8,0.2
			C58.3,167.7,57.9,167.6,57.7,167.3z"/>
		<path fill="#FFFFFF" d="M63,167.5c-0.3-0.1-0.5-0.3-0.7-0.5s-0.2-0.4-0.2-0.7h1.3c0,0.1,0.1,0.3,0.2,0.3c0.1,0.1,0.3,0.1,0.5,0.1
			c0.1,0,0.3,0,0.3-0.1c0.1-0.1,0.1-0.2,0.1-0.3c0-0.2-0.1-0.3-0.3-0.3l-1-0.3c-0.3-0.1-0.6-0.2-0.8-0.4c-0.2-0.2-0.3-0.5-0.3-0.7
			c0-0.4,0.2-0.7,0.5-0.9c0.3-0.2,0.7-0.4,1.3-0.4c0.6,0,1,0.1,1.4,0.3s0.5,0.5,0.5,0.9h-1.3c0-0.1,0-0.3-0.1-0.3s-0.2-0.1-0.4-0.1
			c-0.1,0-0.3,0-0.3,0.1s-0.1,0.1-0.1,0.2c0,0.2,0.1,0.3,0.3,0.4l1,0.3c0.3,0.1,0.6,0.2,0.8,0.4s0.3,0.4,0.3,0.7
			c0,0.4-0.2,0.8-0.5,1s-0.8,0.4-1.3,0.4C63.7,167.7,63.3,167.7,63,167.5z"/>
		<path fill="#FFFFFF" d="M69.2,166.6v1c-0.2,0-0.5,0.1-0.9,0.1c-0.4,0-0.8-0.1-1-0.3s-0.4-0.6-0.4-1.2v-1.6h-0.6v-1h0.6v-1.2h1.3
			v1.2h0.9v1h-0.9v1.4c0,0.3,0,0.5,0.1,0.6c0.1,0.1,0.2,0.1,0.4,0.1C68.9,166.6,69.1,166.6,69.2,166.6z"/>
		<path fill="#FFFFFF" d="M70,163.5h1.3v0.9c0.1-0.3,0.2-0.5,0.4-0.7s0.4-0.2,0.7-0.2c0.1,0,0.2,0,0.3,0v1.2c-0.2,0-0.3,0-0.4,0
			c-0.3,0-0.6,0.1-0.8,0.3c-0.2,0.2-0.3,0.6-0.3,1v1.6H70V163.5z"/>
		<path fill="#FFFFFF" d="M77.5,163.5v4c0,0.3-0.1,0.6-0.2,0.9s-0.2,0.5-0.4,0.6c-0.2,0.2-0.4,0.3-0.6,0.4c-0.2,0.1-0.5,0.1-0.9,0.1
			c-0.7,0-1.2-0.1-1.5-0.4c-0.2-0.1-0.3-0.3-0.4-0.5c-0.1-0.2-0.1-0.4-0.1-0.6h1.3c0,0.2,0.1,0.3,0.2,0.4s0.3,0.1,0.5,0.1
			c0.2,0,0.4-0.1,0.6-0.2c0.1-0.2,0.2-0.4,0.2-0.7v-0.6c-0.1,0.2-0.3,0.4-0.5,0.5c-0.2,0.1-0.5,0.2-0.8,0.2c-0.5,0-0.9-0.2-1.1-0.5
			c-0.3-0.3-0.4-0.7-0.4-1.3v-2.4h1.3v2.2c0,0.3,0.1,0.5,0.2,0.7c0.1,0.2,0.3,0.2,0.6,0.2c0.3,0,0.5-0.1,0.6-0.3
			c0.1-0.2,0.2-0.4,0.2-0.8v-2H77.5z"/>
		<path fill="#FFFFFF" d="M36.3,171.8h3.6v1.1h-2.3v1.4h2.3v1.1h-2.3v1.3h2.3v1.1h-3.6V171.8z"/>
		<path fill="#FFFFFF" d="M42,175.7l-1.5-2h1.6l0.7,1.2l0.7-1.2h1.6l-1.5,2l1.5,2.1h-1.6l-0.7-1.2l-0.7,1.2h-1.6L42,175.7z"/>
		<path fill="#FFFFFF" d="M48.3,176.8v1c-0.2,0-0.5,0.1-0.9,0.1c-0.4,0-0.8-0.1-1-0.3S46,177,46,176.4v-1.6h-0.6v-1H46v-1.2h1.3v1.2
			h0.9v1h-0.9v1.4c0,0.3,0,0.5,0.1,0.6c0.1,0.1,0.2,0.1,0.4,0.1C48.1,176.8,48.2,176.8,48.3,176.8z"/>
		<path fill="#FFFFFF" d="M53.1,176.1h-3c0,0.3,0.1,0.5,0.3,0.6s0.4,0.2,0.7,0.2c0.4,0,0.7-0.1,0.8-0.4h1.3c0,0.3-0.2,0.5-0.3,0.7
			s-0.4,0.4-0.7,0.5c-0.3,0.1-0.6,0.2-1,0.2c-0.7,0-1.2-0.2-1.6-0.6c-0.4-0.4-0.6-0.9-0.6-1.6c0-0.4,0.1-0.8,0.3-1.2
			c0.2-0.3,0.4-0.6,0.8-0.8s0.7-0.3,1.2-0.3c0.4,0,0.8,0.1,1.1,0.2c0.3,0.2,0.6,0.4,0.8,0.7c0.2,0.3,0.3,0.6,0.3,1
			C53.1,175.7,53.1,175.9,53.1,176.1z M51.8,175.3c0-0.3-0.1-0.5-0.2-0.6c-0.1-0.1-0.4-0.2-0.6-0.2c-0.3,0-0.5,0.1-0.7,0.2
			s-0.2,0.4-0.3,0.6H51.8z"/>
		<path fill="#FFFFFF" d="M53.9,173.7h1.3v0.6c0.1-0.2,0.3-0.4,0.5-0.5s0.5-0.2,0.8-0.2c1,0,1.5,0.6,1.5,1.7v2.5h-1.3v-2.1
			c0-0.4-0.1-0.6-0.2-0.8c-0.1-0.2-0.3-0.2-0.6-0.2s-0.5,0.1-0.6,0.2s-0.2,0.4-0.2,0.7v2.1h-1.3V173.7z"/>
		<path fill="#FFFFFF" d="M59.6,177.7c-0.3-0.1-0.5-0.3-0.7-0.5s-0.2-0.4-0.2-0.7H60c0,0.1,0.1,0.3,0.2,0.3c0.1,0.1,0.3,0.1,0.5,0.1
			c0.1,0,0.3,0,0.3-0.1c0.1-0.1,0.1-0.2,0.1-0.3c0-0.2-0.1-0.3-0.3-0.3l-1-0.3c-0.3-0.1-0.6-0.2-0.8-0.4c-0.2-0.2-0.3-0.5-0.3-0.7
			c0-0.4,0.2-0.7,0.5-0.9c0.3-0.2,0.7-0.4,1.3-0.4c0.6,0,1,0.1,1.4,0.3s0.5,0.5,0.5,0.9h-1.3c0-0.1,0-0.3-0.1-0.3s-0.2-0.1-0.4-0.1
			c-0.1,0-0.3,0-0.3,0.1s-0.1,0.1-0.1,0.2c0,0.2,0.1,0.3,0.3,0.4l1,0.3c0.3,0.1,0.6,0.2,0.8,0.4s0.3,0.4,0.3,0.7
			c0,0.4-0.2,0.8-0.5,1s-0.8,0.4-1.3,0.4C60.3,177.9,59.9,177.9,59.6,177.7z"/>
		<path fill="#FFFFFF" d="M63.3,173.1c-0.2-0.2-0.2-0.3-0.2-0.6c0-0.2,0.1-0.4,0.2-0.6c0.1-0.2,0.3-0.2,0.6-0.2
			c0.2,0,0.4,0.1,0.6,0.2c0.2,0.2,0.2,0.3,0.2,0.6c0,0.2-0.1,0.4-0.2,0.6s-0.3,0.2-0.6,0.2C63.7,173.3,63.5,173.3,63.3,173.1z
			 M63.3,173.7h1.3v4.1h-1.3V173.7z"/>
		<path fill="#FFFFFF" d="M66.4,177.6c-0.3-0.2-0.6-0.4-0.8-0.8c-0.2-0.3-0.3-0.7-0.3-1.1c0-0.4,0.1-0.8,0.3-1.1s0.4-0.6,0.8-0.8
			c0.3-0.2,0.7-0.3,1.2-0.3s0.9,0.1,1.2,0.3c0.3,0.2,0.6,0.4,0.8,0.8c0.2,0.3,0.3,0.7,0.3,1.1c0,0.4-0.1,0.8-0.3,1.1
			c-0.2,0.3-0.4,0.6-0.8,0.8c-0.3,0.2-0.7,0.3-1.2,0.3S66.7,177.8,66.4,177.6z M68.3,176.5c0.2-0.2,0.3-0.5,0.3-0.8
			s-0.1-0.6-0.3-0.8c-0.2-0.2-0.4-0.3-0.7-0.3c-0.3,0-0.5,0.1-0.7,0.3c-0.2,0.2-0.3,0.5-0.3,0.8s0.1,0.6,0.3,0.8
			c0.2,0.2,0.4,0.3,0.7,0.3C67.9,176.8,68.1,176.7,68.3,176.5z"/>
		<path fill="#FFFFFF" d="M70.6,173.7h1.3v0.6c0.1-0.2,0.3-0.4,0.5-0.5s0.5-0.2,0.8-0.2c1,0,1.5,0.6,1.5,1.7v2.5h-1.3v-2.1
			c0-0.4-0.1-0.6-0.2-0.8c-0.1-0.2-0.3-0.2-0.6-0.2s-0.5,0.1-0.6,0.2s-0.2,0.4-0.2,0.7v2.1h-1.3V173.7z"/>
		<path fill="#FFFFFF" d="M76.4,177.7c-0.3-0.1-0.5-0.3-0.7-0.5s-0.2-0.4-0.2-0.7h1.3c0,0.1,0.1,0.3,0.2,0.3
			c0.1,0.1,0.3,0.1,0.5,0.1c0.1,0,0.3,0,0.3-0.1c0.1-0.1,0.1-0.2,0.1-0.3c0-0.2-0.1-0.3-0.3-0.3l-1-0.3c-0.3-0.1-0.6-0.2-0.8-0.4
			c-0.2-0.2-0.3-0.5-0.3-0.7c0-0.4,0.2-0.7,0.5-0.9c0.3-0.2,0.7-0.4,1.3-0.4c0.6,0,1,0.1,1.4,0.3s0.5,0.5,0.5,0.9h-1.3
			c0-0.1,0-0.3-0.1-0.3s-0.2-0.1-0.4-0.1c-0.1,0-0.3,0-0.3,0.1s-0.1,0.1-0.1,0.2c0,0.2,0.1,0.3,0.3,0.4l1,0.3
			c0.3,0.1,0.6,0.2,0.8,0.4s0.3,0.4,0.3,0.7c0,0.4-0.2,0.8-0.5,1s-0.8,0.4-1.3,0.4C77,177.9,76.7,177.9,76.4,177.7z"/>
	</g>
</g>
<g>
	<circle fill="#21ADE3" cx="56.7" cy="271.2" r="41.8"/>
	<g>
		<path fill="#FFFFFF" d="M38.5,263.1h-2.1l-0.2,0.7h-1.5l2-6h1.4l2,6h-1.5L38.5,263.1z M38.2,262l-0.7-2.6l-0.7,2.6H38.2z"/>
		<path fill="#FFFFFF" d="M40.7,257.9H42v6h-1.3V257.9z"/>
		<path fill="#FFFFFF" d="M43.2,259.1c-0.2-0.2-0.2-0.3-0.2-0.6c0-0.2,0.1-0.4,0.2-0.6c0.1-0.2,0.3-0.2,0.6-0.2s0.4,0.1,0.6,0.2
			s0.2,0.3,0.2,0.6c0,0.2-0.1,0.4-0.2,0.6c-0.2,0.2-0.3,0.2-0.6,0.2S43.3,259.3,43.2,259.1z M43.1,259.7h1.3v4.1h-1.3V259.7z"/>
		<path fill="#FFFFFF" d="M49.7,259.7v3.8c0,0.4-0.1,0.7-0.2,1c-0.1,0.3-0.3,0.5-0.6,0.7c-0.3,0.2-0.8,0.4-1.5,0.4
			c-0.6,0-1.1-0.1-1.5-0.3c-0.2-0.1-0.4-0.3-0.5-0.5c-0.1-0.2-0.2-0.4-0.2-0.6h1.3c0,0.2,0.1,0.3,0.3,0.4c0.1,0.1,0.3,0.1,0.6,0.1
			c0.3,0,0.6-0.1,0.7-0.2c0.2-0.2,0.2-0.4,0.2-0.8v-0.5c-0.1,0.2-0.3,0.4-0.5,0.5c-0.2,0.1-0.5,0.2-0.8,0.2c-0.4,0-0.7-0.1-1-0.3
			c-0.3-0.2-0.5-0.4-0.7-0.7c-0.2-0.3-0.2-0.7-0.2-1.1s0.1-0.8,0.2-1.1c0.2-0.3,0.4-0.6,0.7-0.8s0.6-0.3,1-0.3
			c0.3,0,0.5,0.1,0.8,0.2s0.4,0.3,0.5,0.5v-0.6H49.7z M48.2,262.5c0.2-0.2,0.3-0.5,0.3-0.8c0-0.3-0.1-0.6-0.3-0.8s-0.4-0.3-0.7-0.3
			c-0.3,0-0.5,0.1-0.7,0.3c-0.2,0.2-0.3,0.5-0.3,0.8c0,0.3,0.1,0.6,0.3,0.8c0.2,0.2,0.4,0.3,0.7,0.3C47.8,262.8,48,262.7,48.2,262.5
			z"/>
		<path fill="#FFFFFF" d="M50.8,259.7h1.3v0.6c0.1-0.2,0.3-0.4,0.5-0.5c0.2-0.1,0.5-0.2,0.8-0.2c1,0,1.5,0.6,1.5,1.7v2.5h-1.3v-2.1
			c0-0.4-0.1-0.6-0.2-0.8c-0.1-0.2-0.3-0.2-0.6-0.2s-0.5,0.1-0.6,0.2c-0.1,0.2-0.2,0.4-0.2,0.7v2.1h-1.3V259.7z"/>
		<path fill="#FFFFFF" d="M56,259.7h1.3v0.6c0.1-0.2,0.2-0.4,0.4-0.5c0.2-0.1,0.4-0.2,0.7-0.2c0.6,0,1.1,0.3,1.3,0.8
			c0.1-0.2,0.3-0.4,0.5-0.5c0.2-0.1,0.5-0.2,0.8-0.2c1,0,1.5,0.6,1.5,1.7v2.5h-1.3v-2.3c0-0.3-0.1-0.5-0.2-0.6
			c-0.1-0.1-0.3-0.2-0.5-0.2c-0.2,0-0.4,0.1-0.5,0.2c-0.1,0.2-0.2,0.4-0.2,0.8v2.1h-1.3v-2.3c0-0.3,0-0.5-0.1-0.6
			c-0.1-0.1-0.3-0.2-0.5-0.2c-0.2,0-0.4,0.1-0.5,0.2c-0.1,0.2-0.2,0.4-0.2,0.8v2.1H56V259.7z"/>
		<path fill="#FFFFFF" d="M67.5,262.1h-3c0,0.3,0.1,0.5,0.3,0.6s0.4,0.2,0.7,0.2c0.4,0,0.7-0.1,0.8-0.4h1.3c0,0.3-0.2,0.5-0.3,0.7
			c-0.2,0.2-0.4,0.4-0.7,0.5c-0.3,0.1-0.6,0.2-1,0.2c-0.7,0-1.2-0.2-1.6-0.6c-0.4-0.4-0.6-0.9-0.6-1.6c0-0.4,0.1-0.8,0.3-1.2
			c0.2-0.3,0.4-0.6,0.8-0.8c0.3-0.2,0.7-0.3,1.2-0.3c0.4,0,0.8,0.1,1.1,0.2c0.3,0.2,0.6,0.4,0.8,0.7s0.3,0.6,0.3,1
			C67.5,261.7,67.5,261.9,67.5,262.1z M66.2,261.3c0-0.3-0.1-0.5-0.2-0.6s-0.4-0.2-0.6-0.2s-0.5,0.1-0.7,0.2
			c-0.2,0.2-0.2,0.4-0.3,0.6H66.2z"/>
		<path fill="#FFFFFF" d="M68.3,259.7h1.3v0.6c0.1-0.2,0.3-0.4,0.5-0.5c0.2-0.1,0.5-0.2,0.8-0.2c1,0,1.5,0.6,1.5,1.7v2.5h-1.3v-2.1
			c0-0.4-0.1-0.6-0.2-0.8c-0.1-0.2-0.3-0.2-0.6-0.2s-0.5,0.1-0.6,0.2c-0.1,0.2-0.2,0.4-0.2,0.7v2.1h-1.3V259.7z"/>
		<path fill="#FFFFFF" d="M76,262.8v1c-0.2,0-0.5,0.1-0.9,0.1c-0.4,0-0.8-0.1-1-0.3c-0.3-0.2-0.4-0.6-0.4-1.2v-1.6H73v-1h0.6v-1.2
			h1.3v1.2h0.9v1h-0.9v1.4c0,0.3,0,0.5,0.1,0.6c0.1,0.1,0.2,0.1,0.4,0.1C75.7,262.8,75.8,262.8,76,262.8z"/>
		<path fill="#FFFFFF" d="M44.9,273.9c-0.3-0.2-0.6-0.4-0.8-0.8s-0.3-0.7-0.3-1.1s0.1-0.8,0.3-1.1c0.2-0.3,0.4-0.6,0.8-0.8
			c0.3-0.2,0.7-0.3,1.2-0.3s0.9,0.1,1.2,0.3c0.3,0.2,0.6,0.4,0.8,0.8c0.2,0.3,0.3,0.7,0.3,1.1c0,0.4-0.1,0.8-0.3,1.1
			c-0.2,0.3-0.4,0.6-0.8,0.8c-0.3,0.2-0.7,0.3-1.2,0.3S45.3,274.1,44.9,273.9z M46.9,272.8c0.2-0.2,0.3-0.5,0.3-0.8
			s-0.1-0.6-0.3-0.8c-0.2-0.2-0.4-0.3-0.7-0.3c-0.3,0-0.5,0.1-0.7,0.3c-0.2,0.2-0.3,0.5-0.3,0.8s0.1,0.6,0.3,0.8
			c0.2,0.2,0.4,0.3,0.7,0.3C46.4,273,46.7,273,46.9,272.8z"/>
		<path fill="#FFFFFF" d="M50.9,269.1c-0.1,0.1-0.2,0.2-0.2,0.4v0.4h1v1h-1v3.1h-1.3V271h-0.7v-1h0.7v-0.4c0-0.6,0.2-1,0.5-1.2
			c0.3-0.2,0.7-0.3,1-0.3c0.3,0,0.5,0,0.7,0.1v0.9c-0.1,0-0.1,0-0.2,0s-0.1,0-0.2,0C51.1,269,51,269,50.9,269.1z"/>
		<path fill="#FFFFFF" d="M57,273v1c-0.3,0-0.5,0.1-0.9,0.1c-0.4,0-0.8-0.1-1-0.3c-0.3-0.2-0.4-0.6-0.4-1.2V271H54v-1h0.6v-1.2H56
			v1.2h0.9v1H56v1.4c0,0.3,0,0.5,0.1,0.6c0.1,0.1,0.2,0.1,0.4,0.1C56.7,273,56.9,273,57,273z"/>
		<path fill="#FFFFFF" d="M61.9,271.5v2.5h-1.3v-2.1c0-0.4-0.1-0.6-0.2-0.8s-0.3-0.2-0.6-0.2s-0.5,0.1-0.6,0.2
			c-0.1,0.2-0.2,0.4-0.2,0.7v2.1h-1.3v-6H59v2.4c0.1-0.2,0.3-0.4,0.5-0.5c0.2-0.1,0.5-0.2,0.8-0.2C61.4,269.8,61.9,270.4,61.9,271.5
			z"/>
		<path fill="#FFFFFF" d="M66.9,272.3h-3c0,0.3,0.1,0.5,0.3,0.6c0.2,0.1,0.4,0.2,0.7,0.2c0.4,0,0.7-0.1,0.8-0.4h1.3
			c0,0.3-0.2,0.5-0.3,0.7c-0.2,0.2-0.4,0.4-0.7,0.5s-0.6,0.2-1,0.2c-0.7,0-1.2-0.2-1.6-0.6c-0.4-0.4-0.6-0.9-0.6-1.6
			c0-0.4,0.1-0.8,0.3-1.2s0.4-0.6,0.8-0.8c0.3-0.2,0.7-0.3,1.2-0.3c0.4,0,0.8,0.1,1.1,0.2c0.3,0.2,0.6,0.4,0.8,0.7
			c0.2,0.3,0.3,0.6,0.3,1C66.9,271.9,66.9,272.1,66.9,272.3z M65.6,271.5c0-0.3-0.1-0.5-0.2-0.6c-0.1-0.1-0.4-0.2-0.6-0.2
			c-0.3,0-0.5,0.1-0.7,0.2c-0.2,0.2-0.2,0.4-0.3,0.6H65.6z"/>
		<path fill="#FFFFFF" d="M30.9,284.1c-0.3-0.2-0.6-0.4-0.8-0.8c-0.2-0.3-0.3-0.7-0.3-1.1c0-0.4,0.1-0.8,0.3-1.1
			c0.2-0.3,0.4-0.6,0.8-0.8c0.3-0.2,0.7-0.3,1.2-0.3c0.5,0,0.9,0.1,1.2,0.3c0.3,0.2,0.6,0.4,0.8,0.8c0.2,0.3,0.3,0.7,0.3,1.1
			c0,0.4-0.1,0.8-0.3,1.1c-0.2,0.3-0.4,0.6-0.8,0.8c-0.3,0.2-0.7,0.3-1.2,0.3C31.6,284.4,31.2,284.3,30.9,284.1z M32.8,283
			c0.2-0.2,0.3-0.5,0.3-0.8s-0.1-0.6-0.3-0.8c-0.2-0.2-0.4-0.3-0.7-0.3c-0.3,0-0.5,0.1-0.7,0.3c-0.2,0.2-0.3,0.5-0.3,0.8
			s0.1,0.6,0.3,0.8c0.2,0.2,0.4,0.3,0.7,0.3C32.4,283.2,32.6,283.2,32.8,283z"/>
		<path fill="#FFFFFF" d="M35.1,280.1h1.3v0.9c0.1-0.3,0.2-0.5,0.4-0.7s0.4-0.2,0.7-0.2c0.1,0,0.2,0,0.3,0v1.2c-0.2,0-0.3,0-0.4,0
			c-0.3,0-0.6,0.1-0.8,0.3c-0.2,0.2-0.3,0.6-0.3,1v1.6h-1.3V280.1z"/>
		<path fill="#FFFFFF" d="M42.7,280.1v3.8c0,0.4-0.1,0.7-0.2,1c-0.1,0.3-0.3,0.5-0.6,0.7c-0.3,0.2-0.8,0.4-1.5,0.4
			c-0.6,0-1.1-0.1-1.5-0.3c-0.2-0.1-0.4-0.3-0.5-0.5c-0.1-0.2-0.2-0.4-0.2-0.6h1.3c0,0.2,0.1,0.3,0.3,0.4s0.3,0.1,0.6,0.1
			c0.3,0,0.6-0.1,0.7-0.2c0.2-0.2,0.2-0.4,0.2-0.8v-0.5c-0.1,0.2-0.3,0.4-0.5,0.5s-0.5,0.2-0.8,0.2c-0.4,0-0.7-0.1-1-0.3
			s-0.5-0.4-0.7-0.7s-0.2-0.7-0.2-1.1s0.1-0.8,0.2-1.1c0.2-0.3,0.4-0.6,0.7-0.8c0.3-0.2,0.6-0.3,1-0.3c0.3,0,0.5,0.1,0.8,0.2
			c0.2,0.1,0.4,0.3,0.5,0.5v-0.6H42.7z M41.2,282.9c0.2-0.2,0.3-0.5,0.3-0.8c0-0.3-0.1-0.6-0.3-0.8s-0.4-0.3-0.7-0.3
			c-0.3,0-0.5,0.1-0.7,0.3c-0.2,0.2-0.3,0.5-0.3,0.8s0.1,0.6,0.3,0.8c0.2,0.2,0.4,0.3,0.7,0.3C40.8,283.2,41,283.1,41.2,282.9z"/>
		<path fill="#FFFFFF" d="M44.4,284.1c-0.3-0.2-0.5-0.4-0.7-0.8c-0.2-0.3-0.2-0.7-0.2-1.1c0-0.4,0.1-0.8,0.2-1.1
			c0.2-0.3,0.4-0.6,0.7-0.8c0.3-0.2,0.6-0.3,1-0.3c0.3,0,0.5,0.1,0.8,0.2s0.4,0.3,0.5,0.5v-0.6H48v4.1h-1.3v-0.6
			c-0.1,0.2-0.3,0.4-0.5,0.5c-0.2,0.1-0.5,0.2-0.8,0.2C45,284.3,44.7,284.2,44.4,284.1z M46.5,283c0.2-0.2,0.3-0.5,0.3-0.8
			c0-0.3-0.1-0.6-0.3-0.8s-0.4-0.3-0.7-0.3c-0.3,0-0.5,0.1-0.7,0.3c-0.2,0.2-0.3,0.5-0.3,0.8s0.1,0.6,0.3,0.8
			c0.2,0.2,0.4,0.3,0.7,0.3C46.1,283.3,46.3,283.2,46.5,283z"/>
		<path fill="#FFFFFF" d="M49.1,280.1h1.3v0.6c0.1-0.2,0.3-0.4,0.5-0.5s0.5-0.2,0.8-0.2c1,0,1.5,0.6,1.5,1.7v2.5h-1.3v-2.1
			c0-0.4-0.1-0.6-0.2-0.8c-0.1-0.2-0.3-0.2-0.6-0.2s-0.5,0.1-0.6,0.2c-0.1,0.2-0.2,0.4-0.2,0.7v2.1h-1.3V280.1z"/>
		<path fill="#FFFFFF" d="M54.3,279.5c-0.2-0.2-0.2-0.3-0.2-0.6c0-0.2,0.1-0.4,0.2-0.6c0.2-0.2,0.3-0.2,0.6-0.2s0.4,0.1,0.6,0.2
			c0.2,0.2,0.2,0.3,0.2,0.6c0,0.2-0.1,0.4-0.2,0.6c-0.2,0.2-0.3,0.2-0.6,0.2S54.5,279.7,54.3,279.5z M54.2,280.1h1.3v4.1h-1.3V280.1
			z"/>
		<path fill="#FFFFFF" d="M58.1,281.2h-1.8v-1.1h3.8l-2,3H60v1.1h-3.8L58.1,281.2z"/>
		<path fill="#FFFFFF" d="M61.2,284.1c-0.3-0.2-0.5-0.4-0.7-0.8c-0.2-0.3-0.2-0.7-0.2-1.1c0-0.4,0.1-0.8,0.2-1.1
			c0.2-0.3,0.4-0.6,0.7-0.8c0.3-0.2,0.6-0.3,1-0.3c0.3,0,0.5,0.1,0.8,0.2s0.4,0.3,0.5,0.5v-0.6h1.3v4.1h-1.3v-0.6
			c-0.1,0.2-0.3,0.4-0.5,0.5c-0.2,0.1-0.5,0.2-0.8,0.2C61.8,284.3,61.4,284.2,61.2,284.1z M63.3,283c0.2-0.2,0.3-0.5,0.3-0.8
			c0-0.3-0.1-0.6-0.3-0.8s-0.4-0.3-0.7-0.3c-0.3,0-0.5,0.1-0.7,0.3s-0.3,0.5-0.3,0.8s0.1,0.6,0.3,0.8s0.4,0.3,0.7,0.3
			C62.9,283.3,63.1,283.2,63.3,283z"/>
		<path fill="#FFFFFF" d="M68.5,283.2v1c-0.2,0-0.5,0.1-0.9,0.1c-0.4,0-0.8-0.1-1-0.3c-0.3-0.2-0.4-0.6-0.4-1.2v-1.6h-0.6v-1h0.6
			v-1.2h1.3v1.2h0.9v1h-0.9v1.4c0,0.3,0,0.5,0.1,0.6c0.1,0.1,0.2,0.1,0.4,0.1C68.2,283.2,68.3,283.2,68.5,283.2z"/>
		<path fill="#FFFFFF" d="M69.3,279.5c-0.2-0.2-0.2-0.3-0.2-0.6c0-0.2,0.1-0.4,0.2-0.6c0.1-0.2,0.3-0.2,0.6-0.2s0.4,0.1,0.6,0.2
			c0.2,0.2,0.2,0.3,0.2,0.6c0,0.2-0.1,0.4-0.2,0.6c-0.2,0.2-0.3,0.2-0.6,0.2S69.4,279.7,69.3,279.5z M69.2,280.1h1.3v4.1h-1.3V280.1
			z"/>
		<path fill="#FFFFFF" d="M72.3,284.1c-0.3-0.2-0.6-0.4-0.8-0.8c-0.2-0.3-0.3-0.7-0.3-1.1c0-0.4,0.1-0.8,0.3-1.1
			c0.2-0.3,0.4-0.6,0.8-0.8c0.3-0.2,0.7-0.3,1.2-0.3s0.9,0.1,1.2,0.3c0.3,0.2,0.6,0.4,0.8,0.8c0.2,0.3,0.3,0.7,0.3,1.1
			c0,0.4-0.1,0.8-0.3,1.1c-0.2,0.3-0.4,0.6-0.8,0.8c-0.3,0.2-0.7,0.3-1.2,0.3S72.7,284.3,72.3,284.1z M74.3,283
			c0.2-0.2,0.3-0.5,0.3-0.8s-0.1-0.6-0.3-0.8c-0.2-0.2-0.4-0.3-0.7-0.3c-0.3,0-0.5,0.1-0.7,0.3s-0.3,0.5-0.3,0.8s0.1,0.6,0.3,0.8
			c0.2,0.2,0.4,0.3,0.7,0.3C73.8,283.2,74.1,283.2,74.3,283z"/>
		<path fill="#FFFFFF" d="M76.6,280.1h1.3v0.6c0.1-0.2,0.3-0.4,0.5-0.5s0.5-0.2,0.8-0.2c1,0,1.5,0.6,1.5,1.7v2.5h-1.3v-2.1
			c0-0.4-0.1-0.6-0.2-0.8c-0.1-0.2-0.3-0.2-0.6-0.2s-0.5,0.1-0.6,0.2c-0.1,0.2-0.2,0.4-0.2,0.7v2.1h-1.3V280.1z"/>
	</g>
</g>
<g>
	<circle fill="#21ADE3" cx="56.7" cy="384.6" r="41.8"/>
	<g>
		<path fill="#FFFFFF" d="M38.8,371.9h3.6v1.2h-2.3v1.6h2.3v1.1h-2.3v2.1h-1.4V371.9z"/>
		<path fill="#FFFFFF" d="M44.1,377.7c-0.3-0.2-0.6-0.4-0.8-0.8c-0.2-0.3-0.3-0.7-0.3-1.1s0.1-0.8,0.3-1.1c0.2-0.3,0.4-0.6,0.8-0.8
			c0.3-0.2,0.7-0.3,1.2-0.3s0.9,0.1,1.2,0.3s0.6,0.4,0.8,0.8c0.2,0.3,0.3,0.7,0.3,1.1c0,0.4-0.1,0.8-0.3,1.1
			c-0.2,0.3-0.4,0.6-0.8,0.8s-0.7,0.3-1.2,0.3S44.5,377.9,44.1,377.7z M46.1,376.6c0.2-0.2,0.3-0.5,0.3-0.8s-0.1-0.6-0.3-0.8
			c-0.2-0.2-0.4-0.3-0.7-0.3c-0.3,0-0.5,0.1-0.7,0.3c-0.2,0.2-0.3,0.5-0.3,0.8s0.1,0.6,0.3,0.8s0.4,0.3,0.7,0.3
			C45.7,376.9,45.9,376.8,46.1,376.6z"/>
		<path fill="#FFFFFF" d="M49.2,377.7c-0.3-0.2-0.6-0.4-0.8-0.8c-0.2-0.3-0.3-0.7-0.3-1.1s0.1-0.8,0.3-1.1c0.2-0.3,0.4-0.6,0.8-0.8
			c0.3-0.2,0.7-0.3,1.2-0.3c0.6,0,1.1,0.1,1.5,0.5c0.4,0.3,0.6,0.7,0.6,1.2h-1.3c0-0.2-0.1-0.3-0.3-0.4c-0.1-0.1-0.3-0.1-0.5-0.1
			c-0.3,0-0.5,0.1-0.7,0.3c-0.2,0.2-0.2,0.5-0.2,0.8c0,0.3,0.1,0.6,0.2,0.8c0.2,0.2,0.4,0.3,0.7,0.3c0.2,0,0.4,0,0.5-0.1
			c0.1-0.1,0.2-0.2,0.3-0.4h1.3c-0.1,0.5-0.3,0.9-0.6,1.2S51,378,50.4,378C49.9,378,49.6,377.9,49.2,377.7z"/>
		<path fill="#FFFFFF" d="M53.6,377.5c-0.3-0.3-0.4-0.7-0.4-1.2v-2.5h1.3v2.2c0,0.3,0.1,0.5,0.2,0.7c0.1,0.1,0.3,0.2,0.5,0.2
			c0.3,0,0.5-0.1,0.6-0.2c0.1-0.2,0.2-0.4,0.2-0.7v-2.2h1.3v4.1H56v-0.6c-0.1,0.2-0.3,0.4-0.5,0.5c-0.2,0.1-0.5,0.2-0.8,0.2
			C54.2,377.9,53.9,377.8,53.6,377.5z"/>
		<path fill="#FFFFFF" d="M59,377.8c-0.3-0.1-0.5-0.3-0.7-0.5c-0.2-0.2-0.2-0.4-0.2-0.7h1.3c0,0.1,0.1,0.3,0.2,0.3
			c0.1,0.1,0.3,0.1,0.5,0.1c0.1,0,0.3,0,0.3-0.1c0.1-0.1,0.1-0.2,0.1-0.3c0-0.2-0.1-0.3-0.3-0.3l-1-0.3c-0.3-0.1-0.6-0.2-0.8-0.4
			c-0.2-0.2-0.3-0.5-0.3-0.7c0-0.4,0.2-0.7,0.5-0.9c0.3-0.2,0.7-0.4,1.3-0.4c0.6,0,1,0.1,1.4,0.3s0.5,0.5,0.5,0.9h-1.3
			c0-0.1,0-0.3-0.1-0.3c-0.1-0.1-0.2-0.1-0.4-0.1c-0.1,0-0.3,0-0.3,0.1s-0.1,0.1-0.1,0.2c0,0.2,0.1,0.3,0.3,0.4l1,0.3
			c0.3,0.1,0.6,0.2,0.8,0.4c0.2,0.2,0.3,0.4,0.3,0.7c0,0.4-0.2,0.8-0.5,1S60.6,378,60,378C59.6,378,59.3,377.9,59,377.8z"/>
		<path fill="#FFFFFF" d="M65.4,377.7c-0.3-0.2-0.6-0.4-0.8-0.8c-0.2-0.3-0.3-0.7-0.3-1.1s0.1-0.8,0.3-1.1c0.2-0.3,0.4-0.6,0.8-0.8
			s0.7-0.3,1.2-0.3s0.9,0.1,1.2,0.3c0.3,0.2,0.6,0.4,0.8,0.8s0.3,0.7,0.3,1.1c0,0.4-0.1,0.8-0.3,1.1s-0.4,0.6-0.8,0.8
			c-0.3,0.2-0.7,0.3-1.2,0.3S65.8,377.9,65.4,377.7z M67.4,376.6c0.2-0.2,0.3-0.5,0.3-0.8s-0.1-0.6-0.3-0.8
			c-0.2-0.2-0.4-0.3-0.7-0.3c-0.3,0-0.5,0.1-0.7,0.3c-0.2,0.2-0.3,0.5-0.3,0.8s0.1,0.6,0.3,0.8c0.2,0.2,0.4,0.3,0.7,0.3
			C66.9,376.9,67.2,376.8,67.4,376.6z"/>
		<path fill="#FFFFFF" d="M69.7,373.7H71v0.6c0.1-0.2,0.3-0.4,0.5-0.5c0.2-0.1,0.5-0.2,0.8-0.2c1,0,1.5,0.6,1.5,1.7v2.5h-1.3v-2.1
			c0-0.4-0.1-0.6-0.2-0.8c-0.1-0.2-0.3-0.2-0.6-0.2s-0.5,0.1-0.6,0.2c-0.1,0.2-0.2,0.4-0.2,0.7v2.1h-1.3V373.7z"/>
		<path fill="#FFFFFF" d="M41.8,387.8c-0.5-0.3-0.9-0.6-1.1-1.1c-0.3-0.5-0.4-1-0.4-1.6c0-0.6,0.1-1.1,0.4-1.6
			c0.3-0.5,0.6-0.8,1.1-1.1s1-0.4,1.7-0.4c0.6,0,1.1,0.1,1.5,0.3c0.4,0.2,0.8,0.5,1,0.8c0.3,0.4,0.4,0.8,0.5,1.2h-1.5
			c-0.1-0.3-0.3-0.6-0.5-0.8c-0.3-0.2-0.6-0.3-1-0.3c-0.6,0-1,0.2-1.3,0.5s-0.5,0.8-0.5,1.4s0.2,1.1,0.5,1.4s0.7,0.5,1.3,0.5
			c0.4,0,0.8-0.1,1-0.3c0.3-0.2,0.4-0.5,0.5-0.8h1.5c-0.1,0.5-0.2,0.9-0.5,1.2c-0.3,0.4-0.6,0.6-1,0.8c-0.4,0.2-0.9,0.3-1.5,0.3
			C42.9,388.2,42.3,388.1,41.8,387.8z"/>
		<path fill="#FFFFFF" d="M51.4,385.5v2.5h-1.3v-2.1c0-0.4-0.1-0.6-0.2-0.8s-0.3-0.2-0.6-0.2s-0.5,0.1-0.6,0.2
			c-0.1,0.2-0.2,0.4-0.2,0.7v2.1h-1.3v-6h1.3v2.4c0.1-0.2,0.3-0.4,0.5-0.5c0.2-0.1,0.5-0.2,0.8-0.2
			C50.9,383.8,51.4,384.4,51.4,385.5z"/>
		<path fill="#FFFFFF" d="M53,387.9c-0.3-0.2-0.5-0.4-0.7-0.8c-0.2-0.3-0.2-0.7-0.2-1.1c0-0.4,0.1-0.8,0.2-1.1
			c0.2-0.3,0.4-0.6,0.7-0.8c0.3-0.2,0.6-0.3,1-0.3c0.3,0,0.5,0.1,0.8,0.2s0.4,0.3,0.5,0.5v-0.6h1.3v4.1h-1.3v-0.6
			c-0.1,0.2-0.3,0.4-0.5,0.5c-0.2,0.1-0.5,0.2-0.8,0.2C53.7,388.1,53.3,388.1,53,387.9z M55.2,386.8c0.2-0.2,0.3-0.5,0.3-0.8
			c0-0.3-0.1-0.6-0.3-0.8s-0.4-0.3-0.7-0.3c-0.3,0-0.5,0.1-0.7,0.3c-0.2,0.2-0.3,0.5-0.3,0.8s0.1,0.6,0.3,0.8
			c0.2,0.2,0.4,0.3,0.7,0.3C54.8,387.1,55,387,55.2,386.8z"/>
		<path fill="#FFFFFF" d="M57.7,383.9H59v0.6c0.1-0.2,0.3-0.4,0.5-0.5c0.2-0.1,0.5-0.2,0.8-0.2c1,0,1.5,0.6,1.5,1.7v2.5h-1.3v-2.1
			c0-0.4-0.1-0.6-0.2-0.8c-0.1-0.2-0.3-0.2-0.6-0.2s-0.5,0.1-0.6,0.2c-0.1,0.2-0.2,0.4-0.2,0.7v2.1h-1.3V383.9z"/>
		<path fill="#FFFFFF" d="M67.1,383.9v3.8c0,0.4-0.1,0.7-0.2,1c-0.1,0.3-0.3,0.5-0.6,0.7c-0.3,0.2-0.8,0.4-1.5,0.4
			c-0.6,0-1.1-0.1-1.5-0.3c-0.2-0.1-0.4-0.3-0.5-0.5s-0.2-0.4-0.2-0.6H64c0,0.2,0.1,0.3,0.3,0.4c0.1,0.1,0.3,0.1,0.6,0.1
			c0.3,0,0.6-0.1,0.7-0.2s0.2-0.4,0.2-0.8v-0.5c-0.1,0.2-0.3,0.4-0.5,0.5c-0.2,0.1-0.5,0.2-0.8,0.2c-0.4,0-0.7-0.1-1-0.3
			c-0.3-0.2-0.5-0.4-0.7-0.7c-0.2-0.3-0.2-0.7-0.2-1.1s0.1-0.8,0.2-1.1c0.2-0.3,0.4-0.6,0.7-0.8c0.3-0.2,0.6-0.3,1-0.3
			c0.3,0,0.5,0.1,0.8,0.2s0.4,0.3,0.5,0.5v-0.6H67.1z M65.6,386.7c0.2-0.2,0.3-0.5,0.3-0.8c0-0.3-0.1-0.6-0.3-0.8s-0.4-0.3-0.7-0.3
			c-0.3,0-0.5,0.1-0.7,0.3c-0.2,0.2-0.3,0.5-0.3,0.8c0,0.3,0.1,0.6,0.3,0.8c0.2,0.2,0.4,0.3,0.7,0.3C65.2,387,65.4,386.9,65.6,386.7
			z"/>
		<path fill="#FFFFFF" d="M72.2,386.3h-3c0,0.3,0.1,0.5,0.3,0.6s0.4,0.2,0.7,0.2c0.4,0,0.7-0.1,0.8-0.4h1.3c0,0.3-0.2,0.5-0.3,0.7
			c-0.2,0.2-0.4,0.4-0.7,0.5c-0.3,0.1-0.6,0.2-1,0.2c-0.7,0-1.2-0.2-1.6-0.6c-0.4-0.4-0.6-0.9-0.6-1.6c0-0.4,0.1-0.8,0.3-1.2
			c0.2-0.3,0.4-0.6,0.8-0.8c0.3-0.2,0.7-0.3,1.2-0.3c0.4,0,0.8,0.1,1.1,0.2c0.3,0.2,0.6,0.4,0.8,0.7s0.3,0.6,0.3,1
			C72.2,385.9,72.2,386.1,72.2,386.3z M70.9,385.5c0-0.3-0.1-0.5-0.2-0.6s-0.4-0.2-0.6-0.2s-0.5,0.1-0.7,0.2
			c-0.2,0.2-0.2,0.4-0.3,0.6H70.9z"/>
		<path fill="#FFFFFF" d="M29.8,392.3h1.6l1.6,4.2l1.6-4.2h1.6v5.9h-1.3v-3.9l-1.3,3.9h-1l-1.4-3.9v3.9h-1.3V392.3z"/>
		<path fill="#FFFFFF" d="M37.8,398.1c-0.3-0.2-0.5-0.4-0.7-0.8c-0.2-0.3-0.2-0.7-0.2-1.1c0-0.4,0.1-0.8,0.2-1.1
			c0.2-0.3,0.4-0.6,0.7-0.8c0.3-0.2,0.6-0.3,1-0.3c0.3,0,0.5,0.1,0.8,0.2s0.4,0.3,0.5,0.5v-0.6h1.3v4.1h-1.3v-0.6
			c-0.1,0.2-0.3,0.4-0.5,0.5c-0.2,0.1-0.5,0.2-0.8,0.2C38.5,398.3,38.1,398.3,37.8,398.1z M40,397c0.2-0.2,0.3-0.5,0.3-0.8
			c0-0.3-0.1-0.6-0.3-0.8s-0.4-0.3-0.7-0.3c-0.3,0-0.5,0.1-0.7,0.3s-0.3,0.5-0.3,0.8s0.1,0.6,0.3,0.8s0.4,0.3,0.7,0.3
			C39.6,397.3,39.8,397.2,40,397z"/>
		<path fill="#FFFFFF" d="M42.5,394.1h1.3v0.6c0.1-0.2,0.3-0.4,0.5-0.5s0.5-0.2,0.8-0.2c1,0,1.5,0.6,1.5,1.7v2.5h-1.3v-2.1
			c0-0.4-0.1-0.6-0.2-0.8c-0.1-0.2-0.3-0.2-0.6-0.2s-0.5,0.1-0.6,0.2c-0.1,0.2-0.2,0.4-0.2,0.7v2.1h-1.3V394.1z"/>
		<path fill="#FFFFFF" d="M48.3,398.1c-0.3-0.2-0.5-0.4-0.7-0.8c-0.2-0.3-0.2-0.7-0.2-1.1c0-0.4,0.1-0.8,0.2-1.1
			c0.2-0.3,0.4-0.6,0.7-0.8c0.3-0.2,0.6-0.3,1-0.3c0.3,0,0.5,0.1,0.8,0.2s0.4,0.3,0.5,0.5v-0.6h1.3v4.1h-1.3v-0.6
			c-0.1,0.2-0.3,0.4-0.5,0.5c-0.2,0.1-0.5,0.2-0.8,0.2C48.9,398.3,48.6,398.3,48.3,398.1z M50.4,397c0.2-0.2,0.3-0.5,0.3-0.8
			c0-0.3-0.1-0.6-0.3-0.8s-0.4-0.3-0.7-0.3c-0.3,0-0.5,0.1-0.7,0.3c-0.2,0.2-0.3,0.5-0.3,0.8s0.1,0.6,0.3,0.8
			c0.2,0.2,0.4,0.3,0.7,0.3C50,397.3,50.3,397.2,50.4,397z"/>
		<path fill="#FFFFFF" d="M57.2,394.1v3.8c0,0.4-0.1,0.7-0.2,1c-0.1,0.3-0.3,0.5-0.6,0.7c-0.3,0.2-0.8,0.4-1.5,0.4
			c-0.6,0-1.1-0.1-1.5-0.3c-0.2-0.1-0.4-0.3-0.5-0.5c-0.1-0.2-0.2-0.4-0.2-0.6h1.3c0,0.2,0.1,0.3,0.3,0.4s0.3,0.1,0.6,0.1
			c0.3,0,0.6-0.1,0.7-0.2c0.2-0.2,0.2-0.4,0.2-0.8v-0.5c-0.1,0.2-0.3,0.4-0.5,0.5c-0.2,0.1-0.5,0.2-0.8,0.2c-0.4,0-0.7-0.1-1-0.3
			c-0.3-0.2-0.5-0.4-0.7-0.7c-0.2-0.3-0.2-0.7-0.2-1.1s0.1-0.8,0.2-1.1s0.4-0.6,0.7-0.8c0.3-0.2,0.6-0.3,1-0.3
			c0.3,0,0.5,0.1,0.8,0.2c0.2,0.1,0.4,0.3,0.5,0.5v-0.6H57.2z M55.7,396.9c0.2-0.2,0.3-0.5,0.3-0.8c0-0.3-0.1-0.6-0.3-0.8
			s-0.4-0.3-0.7-0.3c-0.3,0-0.5,0.1-0.7,0.3s-0.3,0.5-0.3,0.8s0.1,0.6,0.3,0.8s0.4,0.3,0.7,0.3C55.3,397.2,55.5,397.1,55.7,396.9z"
			/>
		<path fill="#FFFFFF" d="M62.3,396.5h-3c0,0.3,0.1,0.5,0.3,0.6s0.4,0.2,0.7,0.2c0.4,0,0.7-0.1,0.8-0.4h1.3c0,0.3-0.2,0.5-0.3,0.7
			c-0.2,0.2-0.4,0.4-0.7,0.5s-0.6,0.2-1,0.2c-0.7,0-1.2-0.2-1.6-0.6c-0.4-0.4-0.6-0.9-0.6-1.6c0-0.4,0.1-0.8,0.3-1.2
			s0.4-0.6,0.8-0.8c0.3-0.2,0.7-0.3,1.2-0.3c0.4,0,0.8,0.1,1.1,0.2c0.3,0.2,0.6,0.4,0.8,0.7c0.2,0.3,0.3,0.6,0.3,1
			C62.3,396.1,62.3,396.3,62.3,396.5z M61.1,395.7c0-0.3-0.1-0.5-0.2-0.6c-0.1-0.1-0.4-0.2-0.6-0.2c-0.3,0-0.5,0.1-0.7,0.2
			c-0.2,0.2-0.2,0.4-0.3,0.6H61.1z"/>
		<path fill="#FFFFFF" d="M63.1,394.1h1.3v0.6c0.1-0.2,0.2-0.4,0.4-0.5c0.2-0.1,0.4-0.2,0.7-0.2c0.6,0,1.1,0.3,1.3,0.8
			c0.1-0.2,0.3-0.4,0.5-0.5s0.5-0.2,0.8-0.2c1,0,1.5,0.6,1.5,1.7v2.5h-1.3v-2.3c0-0.3-0.1-0.5-0.2-0.6c-0.1-0.1-0.3-0.2-0.5-0.2
			c-0.2,0-0.4,0.1-0.5,0.2s-0.2,0.4-0.2,0.8v2.1h-1.3v-2.3c0-0.3,0-0.5-0.1-0.6c-0.1-0.1-0.3-0.2-0.5-0.2c-0.2,0-0.4,0.1-0.5,0.2
			s-0.2,0.4-0.2,0.8v2.1h-1.3V394.1z"/>
		<path fill="#FFFFFF" d="M74.6,396.5h-3c0,0.3,0.1,0.5,0.3,0.6s0.4,0.2,0.7,0.2c0.4,0,0.7-0.1,0.8-0.4h1.3c0,0.3-0.2,0.5-0.3,0.7
			c-0.2,0.2-0.4,0.4-0.7,0.5c-0.3,0.1-0.6,0.2-1,0.2c-0.7,0-1.2-0.2-1.6-0.6c-0.4-0.4-0.6-0.9-0.6-1.6c0-0.4,0.1-0.8,0.3-1.2
			c0.2-0.3,0.4-0.6,0.8-0.8c0.3-0.2,0.7-0.3,1.2-0.3c0.4,0,0.8,0.1,1.1,0.2c0.3,0.2,0.6,0.4,0.8,0.7c0.2,0.3,0.3,0.6,0.3,1
			C74.7,396.1,74.6,396.3,74.6,396.5z M73.4,395.7c0-0.3-0.1-0.5-0.2-0.6s-0.4-0.2-0.6-0.2s-0.5,0.1-0.7,0.2
			c-0.2,0.2-0.2,0.4-0.3,0.6H73.4z"/>
		<path fill="#FFFFFF" d="M75.4,394.1h1.3v0.6c0.1-0.2,0.3-0.4,0.5-0.5s0.5-0.2,0.8-0.2c1,0,1.5,0.6,1.5,1.7v2.5h-1.3v-2.1
			c0-0.4-0.1-0.6-0.2-0.8c-0.1-0.2-0.3-0.2-0.6-0.2s-0.5,0.1-0.6,0.2c-0.1,0.2-0.2,0.4-0.2,0.7v2.1h-1.3V394.1z"/>
		<path fill="#FFFFFF" d="M83.1,397.2v1c-0.2,0-0.5,0.1-0.9,0.1c-0.4,0-0.8-0.1-1-0.3c-0.3-0.2-0.4-0.6-0.4-1.2v-1.6h-0.6v-1h0.6
			v-1.2h1.3v1.2H83v1h-0.9v1.4c0,0.3,0,0.5,0.1,0.6c0.1,0.1,0.2,0.1,0.4,0.1C82.8,397.2,83,397.2,83.1,397.2z"/>
	</g>
</g>
<g>
	<circle fill="#21ADE3" cx="56.7" cy="493.6" r="41.8"/>
	<g>
		<path fill="#FFFFFF" d="M36.5,473.4c-0.5-0.3-0.8-0.7-1.1-1.1c-0.3-0.5-0.4-1-0.4-1.6c0-0.6,0.1-1.1,0.4-1.6s0.6-0.9,1.1-1.1
			c0.5-0.3,1-0.4,1.7-0.4c0.6,0,1.2,0.1,1.7,0.4c0.5,0.3,0.8,0.7,1.1,1.1s0.4,1,0.4,1.6c0,0.6-0.1,1.1-0.4,1.6
			c-0.3,0.5-0.6,0.9-1.1,1.1c-0.5,0.3-1,0.4-1.7,0.4C37.6,473.8,37,473.7,36.5,473.4z M39.2,472.3c0.3-0.2,0.5-0.4,0.6-0.7
			s0.2-0.6,0.2-1c0-0.4-0.1-0.7-0.2-1c-0.1-0.3-0.3-0.5-0.6-0.7c-0.3-0.2-0.6-0.3-0.9-0.3c-0.4,0-0.7,0.1-0.9,0.3
			c-0.3,0.2-0.5,0.4-0.6,0.7c-0.1,0.3-0.2,0.6-0.2,1c0,0.4,0.1,0.7,0.2,1c0.1,0.3,0.3,0.5,0.6,0.7s0.6,0.3,0.9,0.3
			C38.6,472.6,38.9,472.5,39.2,472.3z"/>
		<path fill="#FFFFFF" d="M45.8,469.7c0.3,0.2,0.5,0.4,0.7,0.8c0.2,0.3,0.2,0.7,0.2,1.1c0,0.4-0.1,0.8-0.2,1.1
			c-0.2,0.3-0.4,0.6-0.7,0.8c-0.3,0.2-0.6,0.3-1,0.3c-0.3,0-0.6-0.1-0.8-0.2c-0.2-0.1-0.4-0.3-0.5-0.5v2.3h-1.3v-5.8h1.3v0.6
			c0.1-0.2,0.3-0.4,0.5-0.5c0.2-0.1,0.5-0.2,0.8-0.2C45.2,469.4,45.5,469.5,45.8,469.7z M45.1,472.4c0.2-0.2,0.3-0.5,0.3-0.8
			s-0.1-0.6-0.3-0.8c-0.2-0.2-0.4-0.3-0.7-0.3c-0.3,0-0.5,0.1-0.7,0.3c-0.2,0.2-0.3,0.5-0.3,0.8c0,0.3,0.1,0.6,0.3,0.8
			c0.2,0.2,0.4,0.3,0.7,0.3C44.7,472.7,44.9,472.6,45.1,472.4z"/>
		<path fill="#FFFFFF" d="M50.1,472.6v1c-0.3,0-0.5,0.1-0.9,0.1c-0.4,0-0.8-0.1-1-0.3c-0.3-0.2-0.4-0.6-0.4-1.2v-1.6h-0.6v-1h0.6
			v-1.2H49v1.2H50v1H49v1.4c0,0.3,0,0.5,0.1,0.6c0.1,0.1,0.2,0.1,0.4,0.1C49.8,472.6,49.9,472.6,50.1,472.6z"/>
		<path fill="#FFFFFF" d="M50.9,468.9c-0.2-0.2-0.2-0.3-0.2-0.6c0-0.2,0.1-0.4,0.2-0.6s0.3-0.2,0.6-0.2s0.4,0.1,0.6,0.2
			c0.2,0.2,0.2,0.3,0.2,0.6c0,0.2-0.1,0.4-0.2,0.6c-0.2,0.2-0.3,0.2-0.6,0.2S51,469.1,50.9,468.9z M50.8,469.5h1.3v4.1h-1.3V469.5z"
			/>
		<path fill="#FFFFFF" d="M53.2,469.5h1.3v0.6c0.1-0.2,0.2-0.4,0.4-0.5c0.2-0.1,0.4-0.2,0.7-0.2c0.6,0,1.1,0.3,1.3,0.8
			c0.1-0.2,0.3-0.4,0.5-0.5c0.2-0.1,0.5-0.2,0.8-0.2c1,0,1.5,0.6,1.5,1.7v2.5h-1.3v-2.3c0-0.3-0.1-0.5-0.2-0.6s-0.3-0.2-0.5-0.2
			c-0.2,0-0.4,0.1-0.5,0.2c-0.1,0.2-0.2,0.4-0.2,0.8v2.1h-1.3v-2.3c0-0.3,0-0.5-0.1-0.6c-0.1-0.1-0.3-0.2-0.5-0.2
			c-0.2,0-0.4,0.1-0.5,0.2c-0.1,0.2-0.2,0.4-0.2,0.8v2.1h-1.3V469.5z"/>
		<path fill="#FFFFFF" d="M60.8,468.9c-0.2-0.2-0.2-0.3-0.2-0.6c0-0.2,0.1-0.4,0.2-0.6c0.1-0.2,0.3-0.2,0.6-0.2s0.4,0.1,0.6,0.2
			c0.2,0.2,0.2,0.3,0.2,0.6c0,0.2-0.1,0.4-0.2,0.6c-0.2,0.2-0.3,0.2-0.6,0.2S61,469.1,60.8,468.9z M60.7,469.5H62v4.1h-1.3V469.5z"
			/>
		<path fill="#FFFFFF" d="M64.6,470.6h-1.8v-1.1h3.8l-2,3h1.8v1.1h-3.8L64.6,470.6z"/>
		<path fill="#FFFFFF" d="M71,471.9h-3c0,0.3,0.1,0.5,0.3,0.6s0.4,0.2,0.7,0.2c0.4,0,0.7-0.1,0.8-0.4H71c0,0.3-0.2,0.5-0.3,0.7
			c-0.2,0.2-0.4,0.4-0.7,0.5c-0.3,0.1-0.6,0.2-1,0.2c-0.7,0-1.2-0.2-1.6-0.6c-0.4-0.4-0.6-0.9-0.6-1.6c0-0.4,0.1-0.8,0.3-1.2
			c0.2-0.3,0.4-0.6,0.8-0.8c0.3-0.2,0.7-0.3,1.2-0.3c0.4,0,0.8,0.1,1.1,0.2c0.3,0.2,0.6,0.4,0.8,0.7s0.3,0.6,0.3,1
			C71,471.5,71,471.7,71,471.9z M69.8,471.1c0-0.3-0.1-0.5-0.2-0.6s-0.4-0.2-0.6-0.2s-0.5,0.1-0.7,0.2c-0.2,0.2-0.2,0.4-0.3,0.6
			H69.8z"/>
		<path fill="#FFFFFF" d="M76.1,469.8L76.1,469.8l0,3.9h-1.3v-0.6c-0.1,0.2-0.3,0.4-0.5,0.5s-0.5,0.2-0.8,0.2c-0.4,0-0.7-0.1-1-0.3
			s-0.5-0.4-0.7-0.8c-0.2-0.3-0.2-0.7-0.2-1.1c0-0.4,0.1-0.8,0.2-1.1c0.2-0.3,0.4-0.6,0.7-0.8c0.3-0.2,0.6-0.3,1-0.3
			c0.3,0,0.5,0.1,0.8,0.2s0.4,0.3,0.5,0.5v-2.4h1.3V469.8z M74.6,472.4c0.2-0.2,0.3-0.5,0.3-0.8c0-0.3-0.1-0.6-0.3-0.8
			s-0.4-0.3-0.7-0.3c-0.3,0-0.5,0.1-0.7,0.3c-0.2,0.2-0.3,0.5-0.3,0.8s0.1,0.6,0.3,0.8s0.4,0.3,0.7,0.3
			C74.2,472.7,74.5,472.6,74.6,472.4z"/>
		<path fill="#FFFFFF" d="M33.5,481.2c0.2,0.2,0.3,0.6,0.3,1c0,0.5-0.2,0.9-0.5,1.2c-0.3,0.3-0.8,0.4-1.4,0.4h-2.5v-6h2.4
			c0.6,0,1.1,0.1,1.4,0.4s0.5,0.7,0.5,1.1c0,0.4-0.1,0.7-0.3,0.9s-0.5,0.4-0.8,0.4C33,480.8,33.3,481,33.5,481.2z M30.8,478.9v1.4
			h0.8c0.3,0,0.5-0.1,0.6-0.2c0.1-0.1,0.2-0.3,0.2-0.5s-0.1-0.4-0.2-0.5s-0.4-0.2-0.6-0.2H30.8z M32.3,482.6
			c0.1-0.1,0.2-0.3,0.2-0.6c0-0.2-0.1-0.4-0.2-0.5c-0.2-0.1-0.3-0.2-0.6-0.2h-0.9v1.5h0.9C31.9,482.8,32.1,482.7,32.3,482.6z"/>
		<path fill="#FFFFFF" d="M38.7,482.1h-3c0,0.3,0.1,0.5,0.3,0.6s0.4,0.2,0.7,0.2c0.4,0,0.7-0.1,0.8-0.4h1.3c0,0.3-0.2,0.5-0.3,0.7
			c-0.2,0.2-0.4,0.4-0.7,0.5s-0.6,0.2-1,0.2c-0.7,0-1.2-0.2-1.6-0.6c-0.4-0.4-0.6-0.9-0.6-1.6c0-0.4,0.1-0.8,0.3-1.2
			s0.4-0.6,0.8-0.8c0.3-0.2,0.7-0.3,1.2-0.3c0.4,0,0.8,0.1,1.1,0.2c0.3,0.2,0.6,0.4,0.8,0.7c0.2,0.3,0.3,0.6,0.3,1
			C38.7,481.7,38.7,481.9,38.7,482.1z M37.4,481.3c0-0.3-0.1-0.5-0.2-0.6c-0.1-0.1-0.4-0.2-0.6-0.2c-0.3,0-0.5,0.1-0.7,0.2
			c-0.2,0.2-0.2,0.4-0.3,0.6H37.4z"/>
		<path fill="#FFFFFF" d="M40.1,483.8c-0.3-0.1-0.5-0.3-0.7-0.5c-0.2-0.2-0.2-0.4-0.2-0.7h1.3c0,0.1,0.1,0.3,0.2,0.3
			c0.1,0.1,0.3,0.1,0.5,0.1c0.1,0,0.3,0,0.3-0.1c0.1-0.1,0.1-0.2,0.1-0.3c0-0.2-0.1-0.3-0.3-0.3l-1-0.3c-0.3-0.1-0.6-0.2-0.8-0.4
			c-0.2-0.2-0.3-0.5-0.3-0.7c0-0.4,0.2-0.7,0.5-0.9c0.3-0.2,0.7-0.4,1.3-0.4c0.6,0,1,0.1,1.4,0.3s0.5,0.5,0.5,0.9h-1.3
			c0-0.1,0-0.3-0.1-0.3c-0.1-0.1-0.2-0.1-0.4-0.1c-0.1,0-0.3,0-0.3,0.1s-0.1,0.1-0.1,0.2c0,0.2,0.1,0.3,0.3,0.4l1,0.3
			c0.3,0.1,0.6,0.2,0.8,0.4c0.2,0.2,0.3,0.4,0.3,0.7c0,0.4-0.2,0.8-0.5,1s-0.8,0.4-1.3,0.4C40.7,484,40.4,483.9,40.1,483.8z"/>
		<path fill="#FFFFFF" d="M46.3,482.8v1c-0.3,0-0.5,0.1-0.9,0.1c-0.4,0-0.8-0.1-1-0.3c-0.3-0.2-0.4-0.6-0.4-1.2v-1.6h-0.6v-1H44
			v-1.2h1.3v1.2h0.9v1h-0.9v1.4c0,0.3,0,0.5,0.1,0.6c0.1,0.1,0.2,0.1,0.4,0.1C46,482.8,46.2,482.8,46.3,482.8z"/>
		<path fill="#FFFFFF" d="M52.8,478.2c0.3,0.2,0.6,0.4,0.8,0.8c0.2,0.3,0.3,0.7,0.3,1.1c0,0.4-0.1,0.8-0.3,1.1
			c-0.2,0.3-0.4,0.6-0.8,0.8c-0.3,0.2-0.7,0.3-1.1,0.3h-1.2v1.6h-1.4v-6h2.5C52.1,477.9,52.4,478,52.8,478.2z M52.1,480.8
			c0.2-0.2,0.3-0.4,0.3-0.7s-0.1-0.5-0.3-0.7c-0.2-0.2-0.4-0.3-0.7-0.3h-0.9v2.1h0.9C51.7,481.1,52,481,52.1,480.8z"/>
		<path fill="#FFFFFF" d="M54.4,479.7h1.3v0.9c0.1-0.3,0.2-0.5,0.4-0.7c0.2-0.2,0.4-0.2,0.7-0.2c0.1,0,0.2,0,0.3,0v1.2
			c-0.2,0-0.3,0-0.4,0c-0.3,0-0.6,0.1-0.8,0.3c-0.2,0.2-0.3,0.6-0.3,1v1.6h-1.3V479.7z"/>
		<path fill="#FFFFFF" d="M58.4,483.7c-0.3-0.2-0.5-0.4-0.7-0.8c-0.2-0.3-0.2-0.7-0.2-1.1c0-0.4,0.1-0.8,0.2-1.1
			c0.2-0.3,0.4-0.6,0.7-0.8c0.3-0.2,0.6-0.3,1-0.3c0.3,0,0.5,0.1,0.8,0.2s0.4,0.3,0.5,0.5v-0.6H62v4.1h-1.3v-0.6
			c-0.1,0.2-0.3,0.4-0.5,0.5s-0.5,0.2-0.8,0.2C59,483.9,58.7,483.8,58.4,483.7z M60.5,482.6c0.2-0.2,0.3-0.5,0.3-0.8
			c0-0.3-0.1-0.6-0.3-0.8s-0.4-0.3-0.7-0.3c-0.3,0-0.5,0.1-0.7,0.3c-0.2,0.2-0.3,0.5-0.3,0.8s0.1,0.6,0.3,0.8s0.4,0.3,0.7,0.3
			C60.1,482.9,60.3,482.8,60.5,482.6z"/>
		<path fill="#FFFFFF" d="M63.8,483.7c-0.3-0.2-0.6-0.4-0.8-0.8c-0.2-0.3-0.3-0.7-0.3-1.1s0.1-0.8,0.3-1.1c0.2-0.3,0.4-0.6,0.8-0.8
			c0.3-0.2,0.7-0.3,1.2-0.3c0.6,0,1.1,0.1,1.5,0.5c0.4,0.3,0.6,0.7,0.6,1.2h-1.3c0-0.2-0.1-0.3-0.3-0.4c-0.1-0.1-0.3-0.1-0.5-0.1
			c-0.3,0-0.5,0.1-0.7,0.3c-0.2,0.2-0.2,0.5-0.2,0.8c0,0.3,0.1,0.6,0.2,0.8c0.2,0.2,0.4,0.3,0.7,0.3c0.2,0,0.4,0,0.5-0.1
			c0.1-0.1,0.2-0.2,0.3-0.4h1.3c-0.1,0.5-0.3,0.9-0.6,1.2s-0.9,0.4-1.5,0.4C64.5,484,64.1,483.9,63.8,483.7z"/>
		<path fill="#FFFFFF" d="M70.4,482.8v1c-0.3,0-0.5,0.1-0.9,0.1c-0.4,0-0.8-0.1-1-0.3c-0.3-0.2-0.4-0.6-0.4-1.2v-1.6h-0.6v-1h0.6
			v-1.2h1.3v1.2h0.9v1h-0.9v1.4c0,0.3,0,0.5,0.1,0.6c0.1,0.1,0.2,0.1,0.4,0.1C70.1,482.8,70.3,482.8,70.4,482.8z"/>
		<path fill="#FFFFFF" d="M71.2,479.1c-0.2-0.2-0.2-0.3-0.2-0.6c0-0.2,0.1-0.4,0.2-0.6s0.3-0.2,0.6-0.2s0.4,0.1,0.6,0.2
			c0.2,0.2,0.2,0.3,0.2,0.6c0,0.2-0.1,0.4-0.2,0.6c-0.2,0.2-0.3,0.2-0.6,0.2S71.4,479.3,71.2,479.1z M71.1,479.7h1.3v4.1h-1.3V479.7
			z"/>
		<path fill="#FFFFFF" d="M74.2,483.7c-0.3-0.2-0.6-0.4-0.8-0.8c-0.2-0.3-0.3-0.7-0.3-1.1s0.1-0.8,0.3-1.1c0.2-0.3,0.4-0.6,0.8-0.8
			c0.3-0.2,0.7-0.3,1.2-0.3c0.6,0,1.1,0.1,1.5,0.5c0.4,0.3,0.6,0.7,0.6,1.2h-1.3c0-0.2-0.1-0.3-0.3-0.4c-0.1-0.1-0.3-0.1-0.5-0.1
			c-0.3,0-0.5,0.1-0.7,0.3c-0.2,0.2-0.2,0.5-0.2,0.8c0,0.3,0.1,0.6,0.2,0.8c0.2,0.2,0.4,0.3,0.7,0.3c0.2,0,0.4,0,0.5-0.1
			c0.1-0.1,0.2-0.2,0.3-0.4h1.3c-0.1,0.5-0.3,0.9-0.6,1.2c-0.4,0.3-0.9,0.4-1.5,0.4C74.9,484,74.6,483.9,74.2,483.7z"/>
		<path fill="#FFFFFF" d="M82.4,482.1h-3c0,0.3,0.1,0.5,0.3,0.6s0.4,0.2,0.7,0.2c0.4,0,0.7-0.1,0.8-0.4h1.3c0,0.3-0.2,0.5-0.3,0.7
			c-0.2,0.2-0.4,0.4-0.7,0.5s-0.6,0.2-1,0.2c-0.7,0-1.2-0.2-1.6-0.6c-0.4-0.4-0.6-0.9-0.6-1.6c0-0.4,0.1-0.8,0.3-1.2
			s0.4-0.6,0.8-0.8c0.3-0.2,0.7-0.3,1.2-0.3c0.4,0,0.8,0.1,1.1,0.2c0.3,0.2,0.6,0.4,0.8,0.7c0.2,0.3,0.3,0.6,0.3,1
			C82.4,481.7,82.4,481.9,82.4,482.1z M81.1,481.3c0-0.3-0.1-0.5-0.2-0.6c-0.1-0.1-0.4-0.2-0.6-0.2c-0.3,0-0.5,0.1-0.7,0.2
			c-0.2,0.2-0.2,0.4-0.3,0.6H81.1z"/>
		<path fill="#FFFFFF" d="M28.5,493.9c-0.3-0.2-0.5-0.4-0.7-0.8c-0.2-0.3-0.2-0.7-0.2-1.1c0-0.4,0.1-0.8,0.2-1.1
			c0.2-0.3,0.4-0.6,0.7-0.8c0.3-0.2,0.6-0.3,1-0.3c0.3,0,0.5,0.1,0.8,0.2s0.4,0.3,0.5,0.5v-0.6h1.3v4.1h-1.3v-0.6
			c-0.1,0.2-0.3,0.4-0.5,0.5s-0.5,0.2-0.8,0.2C29.1,494.1,28.8,494,28.5,493.9z M30.6,492.8c0.2-0.2,0.3-0.5,0.3-0.8
			c0-0.3-0.1-0.6-0.3-0.8s-0.4-0.3-0.7-0.3c-0.3,0-0.5,0.1-0.7,0.3c-0.2,0.2-0.3,0.5-0.3,0.8s0.1,0.6,0.3,0.8s0.4,0.3,0.7,0.3
			C30.2,493.1,30.5,493,30.6,492.8z"/>
		<path fill="#FFFFFF" d="M33.2,489.9h1.3v0.6c0.1-0.2,0.3-0.4,0.5-0.5c0.2-0.1,0.5-0.2,0.8-0.2c1,0,1.5,0.6,1.5,1.7v2.5H36v-2.1
			c0-0.4-0.1-0.6-0.2-0.8s-0.3-0.2-0.6-0.2s-0.5,0.1-0.6,0.2c-0.1,0.2-0.2,0.4-0.2,0.7v2.1h-1.3V489.9z"/>
		<path fill="#FFFFFF" d="M42.6,490.2L42.6,490.2l0,3.9h-1.3v-0.6c-0.1,0.2-0.3,0.4-0.5,0.5c-0.2,0.1-0.5,0.2-0.8,0.2
			c-0.4,0-0.7-0.1-1-0.3s-0.5-0.4-0.7-0.8c-0.2-0.3-0.2-0.7-0.2-1.1c0-0.4,0.1-0.8,0.2-1.1c0.2-0.3,0.4-0.6,0.7-0.8
			c0.3-0.2,0.6-0.3,1-0.3c0.3,0,0.5,0.1,0.8,0.2s0.4,0.3,0.5,0.5v-2.4h1.3V490.2z M41.1,492.8c0.2-0.2,0.3-0.5,0.3-0.8
			c0-0.3-0.1-0.6-0.3-0.8s-0.4-0.3-0.7-0.3c-0.3,0-0.5,0.1-0.7,0.3c-0.2,0.2-0.3,0.5-0.3,0.8s0.1,0.6,0.3,0.8
			c0.2,0.2,0.4,0.3,0.7,0.3C40.7,493.1,40.9,493,41.1,492.8z"/>
		<path fill="#FFFFFF" d="M49.3,490.1c0.3,0.2,0.5,0.4,0.7,0.8c0.2,0.3,0.2,0.7,0.2,1.1c0,0.4-0.1,0.8-0.2,1.1
			c-0.2,0.3-0.4,0.6-0.7,0.8c-0.3,0.2-0.6,0.3-1,0.3c-0.3,0-0.6-0.1-0.8-0.2s-0.4-0.3-0.5-0.5v0.6h-1.3v-6H47v2.4
			c0.1-0.2,0.3-0.4,0.5-0.5c0.2-0.1,0.5-0.2,0.8-0.2C48.7,489.8,49.1,489.9,49.3,490.1z M48.7,492.8c0.2-0.2,0.3-0.5,0.3-0.8
			s-0.1-0.6-0.3-0.8c-0.2-0.2-0.4-0.3-0.7-0.3c-0.3,0-0.5,0.1-0.7,0.3c-0.2,0.2-0.3,0.5-0.3,0.8c0,0.3,0.1,0.6,0.3,0.8
			c0.2,0.2,0.4,0.3,0.7,0.3C48.2,493.1,48.5,493,48.7,492.8z"/>
		<path fill="#FFFFFF" d="M51.4,493.7c-0.3-0.3-0.4-0.7-0.4-1.2v-2.5h1.3v2.2c0,0.3,0.1,0.5,0.2,0.7s0.3,0.2,0.5,0.2
			c0.3,0,0.5-0.1,0.6-0.2c0.1-0.2,0.2-0.4,0.2-0.7v-2.2h1.3v4.1h-1.3v-0.6c-0.1,0.2-0.3,0.4-0.5,0.5c-0.2,0.1-0.5,0.2-0.8,0.2
			C52,494.1,51.6,494,51.4,493.7z"/>
		<path fill="#FFFFFF" d="M56.8,494c-0.3-0.1-0.5-0.3-0.7-0.5c-0.2-0.2-0.2-0.4-0.2-0.7h1.3c0,0.1,0.1,0.3,0.2,0.3
			c0.1,0.1,0.3,0.1,0.5,0.1c0.1,0,0.3,0,0.3-0.1s0.1-0.2,0.1-0.3c0-0.2-0.1-0.3-0.3-0.3l-1-0.3c-0.3-0.1-0.6-0.2-0.8-0.4
			s-0.3-0.5-0.3-0.7c0-0.4,0.2-0.7,0.5-0.9c0.3-0.2,0.7-0.4,1.3-0.4c0.6,0,1,0.1,1.4,0.3s0.5,0.5,0.5,0.9h-1.3c0-0.1,0-0.3-0.1-0.3
			c-0.1-0.1-0.2-0.1-0.4-0.1c-0.1,0-0.3,0-0.3,0.1s-0.1,0.1-0.1,0.2c0,0.2,0.1,0.3,0.3,0.4l1,0.3c0.3,0.1,0.6,0.2,0.8,0.4
			c0.2,0.2,0.3,0.4,0.3,0.7c0,0.4-0.2,0.8-0.5,1s-0.8,0.4-1.3,0.4C57.4,494.2,57.1,494.1,56.8,494z"/>
		<path fill="#FFFFFF" d="M60.5,489.3c-0.2-0.2-0.2-0.3-0.2-0.6c0-0.2,0.1-0.4,0.2-0.6s0.3-0.2,0.6-0.2s0.4,0.1,0.6,0.2
			c0.2,0.2,0.2,0.3,0.2,0.6c0,0.2-0.1,0.4-0.2,0.6c-0.2,0.2-0.3,0.2-0.6,0.2S60.6,489.5,60.5,489.3z M60.4,489.9h1.3v4.1h-1.3V489.9
			z"/>
		<path fill="#FFFFFF" d="M62.8,489.9h1.3v0.6c0.1-0.2,0.3-0.4,0.5-0.5c0.2-0.1,0.5-0.2,0.8-0.2c1,0,1.5,0.6,1.5,1.7v2.5h-1.3v-2.1
			c0-0.4-0.1-0.6-0.2-0.8c-0.1-0.2-0.3-0.2-0.6-0.2s-0.5,0.1-0.6,0.2c-0.1,0.2-0.2,0.4-0.2,0.7v2.1h-1.3V489.9z"/>
		<path fill="#FFFFFF" d="M71.9,492.3h-3c0,0.3,0.1,0.5,0.3,0.6s0.4,0.2,0.7,0.2c0.4,0,0.7-0.1,0.8-0.4h1.3c0,0.3-0.2,0.5-0.3,0.7
			c-0.2,0.2-0.4,0.4-0.7,0.5c-0.3,0.1-0.6,0.2-1,0.2c-0.7,0-1.2-0.2-1.6-0.6c-0.4-0.4-0.6-0.9-0.6-1.6c0-0.4,0.1-0.8,0.3-1.2
			c0.2-0.3,0.4-0.6,0.8-0.8c0.3-0.2,0.7-0.3,1.2-0.3c0.4,0,0.8,0.1,1.1,0.2c0.3,0.2,0.6,0.4,0.8,0.7s0.3,0.6,0.3,1
			C72,491.9,71.9,492.1,71.9,492.3z M70.7,491.5c0-0.3-0.1-0.5-0.2-0.6s-0.4-0.2-0.6-0.2s-0.5,0.1-0.7,0.2c-0.2,0.2-0.2,0.4-0.3,0.6
			H70.7z"/>
		<path fill="#FFFFFF" d="M73.3,494c-0.3-0.1-0.5-0.3-0.7-0.5c-0.2-0.2-0.2-0.4-0.2-0.7h1.3c0,0.1,0.1,0.3,0.2,0.3
			c0.1,0.1,0.3,0.1,0.5,0.1c0.1,0,0.3,0,0.3-0.1s0.1-0.2,0.1-0.3c0-0.2-0.1-0.3-0.3-0.3l-1-0.3c-0.3-0.1-0.6-0.2-0.8-0.4
			s-0.3-0.5-0.3-0.7c0-0.4,0.2-0.7,0.5-0.9c0.3-0.2,0.7-0.4,1.3-0.4c0.6,0,1,0.1,1.4,0.3s0.5,0.5,0.5,0.9h-1.3c0-0.1,0-0.3-0.1-0.3
			c-0.1-0.1-0.2-0.1-0.4-0.1c-0.1,0-0.3,0-0.3,0.1s-0.1,0.1-0.1,0.2c0,0.2,0.1,0.3,0.3,0.4l1,0.3c0.3,0.1,0.6,0.2,0.8,0.4
			c0.2,0.2,0.3,0.4,0.3,0.7c0,0.4-0.2,0.8-0.5,1s-0.8,0.4-1.3,0.4C74,494.2,73.6,494.1,73.3,494z"/>
		<path fill="#FFFFFF" d="M77.6,494c-0.3-0.1-0.5-0.3-0.7-0.5c-0.2-0.2-0.2-0.4-0.2-0.7H78c0,0.1,0.1,0.3,0.2,0.3
			c0.1,0.1,0.3,0.1,0.5,0.1c0.1,0,0.3,0,0.3-0.1s0.1-0.2,0.1-0.3c0-0.2-0.1-0.3-0.3-0.3l-1-0.3c-0.3-0.1-0.6-0.2-0.8-0.4
			s-0.3-0.5-0.3-0.7c0-0.4,0.2-0.7,0.5-0.9c0.3-0.2,0.7-0.4,1.3-0.4c0.6,0,1,0.1,1.4,0.3s0.5,0.5,0.5,0.9h-1.3c0-0.1,0-0.3-0.1-0.3
			c-0.1-0.1-0.2-0.1-0.4-0.1c-0.1,0-0.3,0-0.3,0.1S78,490.9,78,491c0,0.2,0.1,0.3,0.3,0.4l1,0.3c0.3,0.1,0.6,0.2,0.8,0.4
			c0.2,0.2,0.3,0.4,0.3,0.7c0,0.4-0.2,0.8-0.5,1s-0.8,0.4-1.3,0.4C78.2,494.2,77.9,494.1,77.6,494z"/>
		<path fill="#FFFFFF" d="M81,491.2h2.7v1H81V491.2z"/>
		<path fill="#FFFFFF" d="M47.7,500.4L47.7,500.4l0,3.9h-1.3v-0.6c-0.1,0.2-0.3,0.4-0.5,0.5c-0.2,0.1-0.5,0.2-0.8,0.2
			c-0.4,0-0.7-0.1-1-0.3c-0.3-0.2-0.5-0.4-0.7-0.8c-0.2-0.3-0.2-0.7-0.2-1.1c0-0.4,0.1-0.8,0.2-1.1c0.2-0.3,0.4-0.6,0.7-0.8
			c0.3-0.2,0.6-0.3,1-0.3c0.3,0,0.5,0.1,0.8,0.2s0.4,0.3,0.5,0.5v-2.4h1.3V500.4z M46.2,503c0.2-0.2,0.3-0.5,0.3-0.8
			c0-0.3-0.1-0.6-0.3-0.8s-0.4-0.3-0.7-0.3c-0.3,0-0.5,0.1-0.7,0.3c-0.2,0.2-0.3,0.5-0.3,0.8c0,0.3,0.1,0.6,0.3,0.8s0.4,0.3,0.7,0.3
			C45.8,503.3,46.1,503.2,46.2,503z"/>
		<path fill="#FFFFFF" d="M48.8,500.1h1.3v0.9c0.1-0.3,0.2-0.5,0.4-0.7c0.2-0.2,0.4-0.2,0.7-0.2c0.1,0,0.2,0,0.3,0v1.2
			c-0.2,0-0.3,0-0.4,0c-0.3,0-0.6,0.1-0.8,0.3c-0.2,0.2-0.3,0.6-0.3,1v1.6h-1.3V500.1z"/>
		<path fill="#FFFFFF" d="M52.4,499.5c-0.2-0.2-0.2-0.3-0.2-0.6c0-0.2,0.1-0.4,0.2-0.6s0.3-0.2,0.6-0.2s0.4,0.1,0.6,0.2
			c0.2,0.2,0.2,0.3,0.2,0.6c0,0.2-0.1,0.4-0.2,0.6c-0.2,0.2-0.3,0.2-0.6,0.2S52.5,499.7,52.4,499.5z M52.3,500.1h1.3v4.1h-1.3V500.1
			z"/>
		<path fill="#FFFFFF" d="M54.1,500.1h1.4l0.9,2.6l0.9-2.6h1.4l-1.8,4.1h-1.2L54.1,500.1z"/>
		<path fill="#FFFFFF" d="M63.1,502.5h-3c0,0.3,0.1,0.5,0.3,0.6s0.4,0.2,0.7,0.2c0.4,0,0.7-0.1,0.8-0.4h1.3c0,0.3-0.2,0.5-0.3,0.7
			c-0.2,0.2-0.4,0.4-0.7,0.5s-0.6,0.2-1,0.2c-0.7,0-1.2-0.2-1.6-0.6c-0.4-0.4-0.6-0.9-0.6-1.6c0-0.4,0.1-0.8,0.3-1.2
			c0.2-0.3,0.4-0.6,0.8-0.8c0.3-0.2,0.7-0.3,1.2-0.3c0.4,0,0.8,0.1,1.1,0.2c0.3,0.2,0.6,0.4,0.8,0.7c0.2,0.3,0.3,0.6,0.3,1
			C63.2,502.1,63.1,502.3,63.1,502.5z M61.9,501.7c0-0.3-0.1-0.5-0.2-0.6c-0.1-0.1-0.4-0.2-0.6-0.2c-0.3,0-0.5,0.1-0.7,0.2
			c-0.2,0.2-0.2,0.4-0.3,0.6H61.9z"/>
		<path fill="#FFFFFF" d="M63.9,500.1h1.3v0.6c0.1-0.2,0.3-0.4,0.5-0.5c0.2-0.1,0.5-0.2,0.8-0.2c1,0,1.5,0.6,1.5,1.7v2.5h-1.3v-2.1
			c0-0.4-0.1-0.6-0.2-0.8c-0.1-0.2-0.3-0.2-0.6-0.2s-0.5,0.1-0.6,0.2c-0.1,0.2-0.2,0.4-0.2,0.7v2.1h-1.3V500.1z"/>
		<path fill="#FFFFFF" d="M35.8,513.4v1c-0.3,0-0.5,0.1-0.9,0.1c-0.4,0-0.8-0.1-1-0.3c-0.3-0.2-0.4-0.6-0.4-1.2v-1.6h-0.6v-1h0.6
			v-1.2h1.3v1.2h0.9v1h-0.9v1.4c0,0.3,0,0.5,0.1,0.6c0.1,0.1,0.2,0.1,0.4,0.1C35.5,513.4,35.7,513.4,35.8,513.4z"/>
		<path fill="#FFFFFF" d="M40.5,512.7h-3c0,0.3,0.1,0.5,0.3,0.6s0.4,0.2,0.7,0.2c0.4,0,0.7-0.1,0.8-0.4h1.3c0,0.3-0.2,0.5-0.3,0.7
			c-0.2,0.2-0.4,0.4-0.7,0.5c-0.3,0.1-0.6,0.2-1,0.2c-0.7,0-1.2-0.2-1.6-0.6c-0.4-0.4-0.6-0.9-0.6-1.6c0-0.4,0.1-0.8,0.3-1.2
			c0.2-0.3,0.4-0.6,0.8-0.8c0.3-0.2,0.7-0.3,1.2-0.3c0.4,0,0.8,0.1,1.1,0.2c0.3,0.2,0.6,0.4,0.8,0.7c0.2,0.3,0.3,0.6,0.3,1
			C40.6,512.3,40.5,512.5,40.5,512.7z M39.3,511.9c0-0.3-0.1-0.5-0.2-0.6s-0.4-0.2-0.6-0.2s-0.5,0.1-0.7,0.2
			c-0.2,0.2-0.2,0.4-0.3,0.6H39.3z"/>
		<path fill="#FFFFFF" d="M42.2,514.3c-0.3-0.2-0.6-0.4-0.8-0.8c-0.2-0.3-0.3-0.7-0.3-1.1s0.1-0.8,0.3-1.1c0.2-0.3,0.4-0.6,0.8-0.8
			c0.3-0.2,0.7-0.3,1.2-0.3c0.6,0,1.1,0.2,1.5,0.5c0.4,0.3,0.6,0.7,0.6,1.2h-1.3c0-0.2-0.1-0.3-0.3-0.4c-0.1-0.1-0.3-0.1-0.5-0.1
			c-0.3,0-0.5,0.1-0.7,0.3c-0.2,0.2-0.2,0.5-0.2,0.8s0.1,0.6,0.2,0.8c0.2,0.2,0.4,0.3,0.7,0.3c0.2,0,0.4,0,0.5-0.1s0.2-0.2,0.3-0.4
			h1.3c-0.1,0.5-0.3,0.9-0.6,1.2c-0.4,0.3-0.9,0.4-1.5,0.4C42.9,514.6,42.5,514.5,42.2,514.3z"/>
		<path fill="#FFFFFF" d="M50.3,511.9v2.5H49v-2.1c0-0.4-0.1-0.6-0.2-0.8c-0.1-0.2-0.3-0.2-0.6-0.2s-0.5,0.1-0.6,0.2
			c-0.1,0.2-0.2,0.4-0.2,0.7v2.1h-1.3v-6h1.3v2.4c0.1-0.2,0.3-0.4,0.5-0.5s0.5-0.2,0.8-0.2C49.8,510.2,50.3,510.8,50.3,511.9z"/>
		<path fill="#FFFFFF" d="M51.4,510.3h1.3v0.6c0.1-0.2,0.3-0.4,0.5-0.5s0.5-0.2,0.8-0.2c1,0,1.5,0.6,1.5,1.7v2.5h-1.3v-2.1
			c0-0.4-0.1-0.6-0.2-0.8c-0.1-0.2-0.3-0.2-0.6-0.2s-0.5,0.1-0.6,0.2c-0.1,0.2-0.2,0.4-0.2,0.7v2.1h-1.3V510.3z"/>
		<path fill="#FFFFFF" d="M57.3,514.3c-0.3-0.2-0.6-0.4-0.8-0.8c-0.2-0.3-0.3-0.7-0.3-1.1c0-0.4,0.1-0.8,0.3-1.1
			c0.2-0.3,0.4-0.6,0.8-0.8c0.3-0.2,0.7-0.3,1.2-0.3s0.9,0.1,1.2,0.3c0.3,0.2,0.6,0.4,0.8,0.8c0.2,0.3,0.3,0.7,0.3,1.1
			c0,0.4-0.1,0.8-0.3,1.1c-0.2,0.3-0.4,0.6-0.8,0.8c-0.3,0.2-0.7,0.3-1.2,0.3S57.6,514.5,57.3,514.3z M59.2,513.2
			c0.2-0.2,0.3-0.5,0.3-0.8s-0.1-0.6-0.3-0.8s-0.4-0.3-0.7-0.3c-0.3,0-0.5,0.1-0.7,0.3c-0.2,0.2-0.3,0.5-0.3,0.8s0.1,0.6,0.3,0.8
			c0.2,0.2,0.4,0.3,0.7,0.3C58.8,513.5,59,513.4,59.2,513.2z"/>
		<path fill="#FFFFFF" d="M61.5,508.5h1.3v6h-1.3V508.5z"/>
		<path fill="#FFFFFF" d="M64.6,514.3c-0.3-0.2-0.6-0.4-0.8-0.8c-0.2-0.3-0.3-0.7-0.3-1.1c0-0.4,0.1-0.8,0.3-1.1
			c0.2-0.3,0.4-0.6,0.8-0.8c0.3-0.2,0.7-0.3,1.2-0.3s0.9,0.1,1.2,0.3c0.3,0.2,0.6,0.4,0.8,0.8c0.2,0.3,0.3,0.7,0.3,1.1
			c0,0.4-0.1,0.8-0.3,1.1c-0.2,0.3-0.4,0.6-0.8,0.8c-0.3,0.2-0.7,0.3-1.2,0.3S65,514.5,64.6,514.3z M66.5,513.2
			c0.2-0.2,0.3-0.5,0.3-0.8s-0.1-0.6-0.3-0.8c-0.2-0.2-0.4-0.3-0.7-0.3c-0.3,0-0.5,0.1-0.7,0.3s-0.3,0.5-0.3,0.8s0.1,0.6,0.3,0.8
			c0.2,0.2,0.4,0.3,0.7,0.3C66.1,513.5,66.4,513.4,66.5,513.2z"/>
		<path fill="#FFFFFF" d="M73.2,510.3v3.8c0,0.4-0.1,0.7-0.2,1c-0.1,0.3-0.3,0.5-0.6,0.7c-0.3,0.2-0.8,0.4-1.5,0.4
			c-0.6,0-1.1-0.1-1.5-0.3c-0.2-0.1-0.4-0.3-0.5-0.5c-0.1-0.2-0.2-0.4-0.2-0.6H70c0,0.2,0.1,0.3,0.3,0.4s0.3,0.1,0.6,0.1
			c0.3,0,0.6-0.1,0.7-0.2c0.2-0.2,0.2-0.4,0.2-0.8v-0.5c-0.1,0.2-0.3,0.4-0.5,0.5c-0.2,0.1-0.5,0.2-0.8,0.2c-0.4,0-0.7-0.1-1-0.3
			c-0.3-0.2-0.5-0.4-0.7-0.7c-0.2-0.3-0.2-0.7-0.2-1.1s0.1-0.8,0.2-1.1s0.4-0.6,0.7-0.8c0.3-0.2,0.6-0.3,1-0.3
			c0.3,0,0.5,0.1,0.8,0.2c0.2,0.1,0.4,0.3,0.5,0.5v-0.6H73.2z M71.7,513.1c0.2-0.2,0.3-0.5,0.3-0.8c0-0.3-0.1-0.6-0.3-0.8
			s-0.4-0.3-0.7-0.3c-0.3,0-0.5,0.1-0.7,0.3S70,512,70,512.4s0.1,0.6,0.3,0.8s0.4,0.3,0.7,0.3C71.2,513.4,71.5,513.3,71.7,513.1z"/>
		<path fill="#FFFFFF" d="M78.3,510.3v4c0,0.3-0.1,0.6-0.2,0.9c-0.1,0.3-0.2,0.5-0.4,0.6c-0.2,0.2-0.4,0.3-0.6,0.4
			c-0.2,0.1-0.5,0.1-0.9,0.1c-0.7,0-1.2-0.1-1.5-0.4c-0.2-0.1-0.3-0.3-0.4-0.5c-0.1-0.2-0.1-0.4-0.1-0.6h1.3c0,0.2,0.1,0.3,0.2,0.4
			s0.3,0.1,0.5,0.1c0.2,0,0.4-0.1,0.6-0.2c0.1-0.2,0.2-0.4,0.2-0.7v-0.6c-0.1,0.2-0.3,0.4-0.5,0.5c-0.2,0.1-0.5,0.2-0.8,0.2
			c-0.5,0-0.9-0.2-1.1-0.5s-0.4-0.7-0.4-1.3v-2.4h1.3v2.2c0,0.3,0.1,0.5,0.2,0.7c0.1,0.2,0.3,0.2,0.6,0.2c0.3,0,0.5-0.1,0.6-0.3
			c0.1-0.2,0.2-0.4,0.2-0.8v-2H78.3z"/>
		<path fill="#FFFFFF" d="M39.9,524.2c-0.4-0.4-0.6-0.9-0.6-1.6h1.4c0,0.3,0.1,0.6,0.3,0.8c0.2,0.2,0.4,0.3,0.7,0.3
			c0.3,0,0.5-0.1,0.6-0.2s0.2-0.3,0.2-0.5c0-0.2-0.1-0.3-0.2-0.4c-0.1-0.1-0.3-0.2-0.6-0.3l-1.1-0.4c-0.4-0.1-0.7-0.4-0.9-0.6
			c-0.2-0.3-0.3-0.6-0.3-1c0-0.3,0.1-0.6,0.3-0.9s0.4-0.5,0.7-0.6c0.3-0.1,0.7-0.2,1.1-0.2c0.4,0,0.8,0.1,1.1,0.2
			c0.3,0.2,0.6,0.4,0.8,0.7s0.3,0.6,0.3,1h-1.4c0-0.3-0.1-0.5-0.2-0.6s-0.3-0.2-0.6-0.2c-0.2,0-0.4,0.1-0.5,0.2
			c-0.1,0.1-0.2,0.2-0.2,0.4c0,0.2,0.1,0.3,0.2,0.4c0.1,0.1,0.3,0.2,0.6,0.4l1,0.4c0.4,0.2,0.7,0.4,0.9,0.7c0.2,0.3,0.3,0.6,0.3,1
			c0,0.4-0.1,0.7-0.3,1c-0.2,0.3-0.4,0.5-0.8,0.6c-0.3,0.2-0.7,0.2-1.1,0.2C40.9,524.8,40.3,524.6,39.9,524.2z"/>
		<path fill="#FFFFFF" d="M45.4,524.5c-0.3-0.2-0.6-0.4-0.8-0.8c-0.2-0.3-0.3-0.7-0.3-1.1c0-0.4,0.1-0.8,0.3-1.1
			c0.2-0.3,0.4-0.6,0.8-0.8c0.3-0.2,0.7-0.3,1.2-0.3s0.9,0.1,1.2,0.3c0.3,0.2,0.6,0.4,0.8,0.8c0.2,0.3,0.3,0.7,0.3,1.1
			c0,0.4-0.1,0.8-0.3,1.1c-0.2,0.3-0.4,0.6-0.8,0.8c-0.3,0.2-0.7,0.3-1.2,0.3S45.7,524.7,45.4,524.5z M47.3,523.4
			c0.2-0.2,0.3-0.5,0.3-0.8s-0.1-0.6-0.3-0.8s-0.4-0.3-0.7-0.3c-0.3,0-0.5,0.1-0.7,0.3c-0.2,0.2-0.3,0.5-0.3,0.8s0.1,0.6,0.3,0.8
			c0.2,0.2,0.4,0.3,0.7,0.3C46.9,523.7,47.1,523.6,47.3,523.4z"/>
		<path fill="#FFFFFF" d="M49.6,518.7h1.3v6h-1.3V518.7z"/>
		<path fill="#FFFFFF" d="M52.3,524.3c-0.3-0.3-0.4-0.7-0.4-1.2v-2.5h1.3v2.2c0,0.3,0.1,0.5,0.2,0.6c0.1,0.1,0.3,0.2,0.5,0.2
			c0.3,0,0.5-0.1,0.6-0.2c0.1-0.2,0.2-0.4,0.2-0.7v-2.2H56v4.1h-1.3V524c-0.1,0.2-0.3,0.4-0.5,0.5c-0.2,0.1-0.5,0.2-0.8,0.2
			C52.9,524.7,52.6,524.6,52.3,524.3z"/>
		<path fill="#FFFFFF" d="M59.7,523.6v1c-0.3,0-0.5,0.1-0.9,0.1c-0.4,0-0.8-0.1-1-0.3c-0.3-0.2-0.4-0.6-0.4-1.2v-1.6h-0.6v-1h0.6
			v-1.2h1.3v1.2h0.9v1h-0.9v1.4c0,0.3,0,0.5,0.1,0.6c0.1,0.1,0.2,0.1,0.4,0.1C59.4,523.6,59.6,523.6,59.7,523.6z"/>
		<path fill="#FFFFFF" d="M60.5,519.9c-0.2-0.2-0.2-0.3-0.2-0.6c0-0.2,0.1-0.4,0.2-0.6c0.2-0.2,0.3-0.2,0.6-0.2s0.4,0.1,0.6,0.2
			c0.2,0.2,0.2,0.3,0.2,0.6c0,0.2-0.1,0.4-0.2,0.6c-0.2,0.2-0.3,0.2-0.6,0.2S60.7,520.1,60.5,519.9z M60.4,520.5h1.3v4.1h-1.3V520.5
			z"/>
		<path fill="#FFFFFF" d="M63.6,524.5c-0.3-0.2-0.6-0.4-0.8-0.8c-0.2-0.3-0.3-0.7-0.3-1.1c0-0.4,0.1-0.8,0.3-1.1
			c0.2-0.3,0.4-0.6,0.8-0.8c0.3-0.2,0.7-0.3,1.2-0.3s0.9,0.1,1.2,0.3c0.3,0.2,0.6,0.4,0.8,0.8c0.2,0.3,0.3,0.7,0.3,1.1
			c0,0.4-0.1,0.8-0.3,1.1c-0.2,0.3-0.4,0.6-0.8,0.8c-0.3,0.2-0.7,0.3-1.2,0.3S63.9,524.7,63.6,524.5z M65.5,523.4
			c0.2-0.2,0.3-0.5,0.3-0.8s-0.1-0.6-0.3-0.8s-0.4-0.3-0.7-0.3c-0.3,0-0.5,0.1-0.7,0.3c-0.2,0.2-0.3,0.5-0.3,0.8s0.1,0.6,0.3,0.8
			c0.2,0.2,0.4,0.3,0.7,0.3C65.1,523.7,65.3,523.6,65.5,523.4z"/>
		<path fill="#FFFFFF" d="M67.8,520.5h1.3v0.6c0.1-0.2,0.3-0.4,0.5-0.5s0.5-0.2,0.8-0.2c1,0,1.5,0.6,1.5,1.7v2.5h-1.3v-2.1
			c0-0.4-0.1-0.6-0.2-0.8c-0.1-0.2-0.3-0.2-0.6-0.2s-0.5,0.1-0.6,0.2c-0.1,0.2-0.2,0.4-0.2,0.7v2.1h-1.3V520.5z"/>
	</g>
</g>
<polygon fill="#7F3F98" points="67.5,98.7 59.8,98.7 59.8,91.1 53.6,91.1 53.6,98.7 45.9,98.7 45.9,104.9 53.6,104.9 53.6,112.7 
	59.8,112.7 59.8,104.9 67.5,104.9 "/>
<polygon fill="#7F3F98" points="67.5,211.2 59.8,211.2 59.8,203.7 53.6,203.7 53.6,211.2 45.9,211.2 45.9,217.5 53.6,217.5 
	53.6,225.3 59.8,225.3 59.8,217.5 67.5,217.5 "/>
<g>
	<rect x="45.9" y="439.9" fill="#7F3F98" width="21.6" height="6.2"/>
	<rect x="45.9" y="430.5" fill="#7F3F98" width="21.6" height="6.2"/>
</g>
<polygon fill="#7F3F98" points="67.5,324.7 59.8,324.7 59.8,317.1 53.6,317.1 53.6,324.7 45.9,324.7 45.9,330.9 53.6,330.9 
	53.6,338.7 59.8,338.7 59.8,330.9 67.5,330.9 "/>
</svg>
