<?xml version="1.0" encoding="utf-8"?>
<!-- Generator: Adobe Illustrator 24.1.2, SVG Export Plug-In . SVG Version: 6.00 Build 0)  -->
<svg version="1.1" id="Layer_2" xmlns="http://www.w3.org/2000/svg" xmlns:xlink="http://www.w3.org/1999/xlink" x="0px" y="0px"
	 viewBox="0 0 546.7 88" enable-background="new 0 0 546.7 88" xml:space="preserve">
<circle fill="#21ADE3" cx="44.7" cy="44.4" r="41.8"/>
<g>
	<path fill="#FFFFFF" d="M22.5,38.8c0.2,0.2,0.3,0.6,0.3,1c0,0.5-0.2,0.9-0.5,1.2c-0.3,0.3-0.8,0.4-1.4,0.4h-2.5v-6h2.4
		c0.6,0,1.1,0.1,1.4,0.4s0.5,0.7,0.5,1.1c0,0.4-0.1,0.7-0.3,0.9c-0.2,0.2-0.5,0.4-0.8,0.4C22,38.4,22.3,38.5,22.5,38.8z M19.8,36.4
		v1.4h0.8c0.3,0,0.5-0.1,0.6-0.2c0.1-0.1,0.2-0.3,0.2-0.5s-0.1-0.4-0.2-0.5s-0.4-0.2-0.6-0.2H19.8z M21.3,40.1
		c0.1-0.1,0.2-0.3,0.2-0.6c0-0.2-0.1-0.4-0.2-0.5c-0.1-0.1-0.3-0.2-0.6-0.2h-0.9v1.5h0.9C20.9,40.3,21.1,40.3,21.3,40.1z"/>
	<path fill="#FFFFFF" d="M27.7,39.7h-3c0,0.3,0.1,0.5,0.3,0.6s0.4,0.2,0.7,0.2c0.4,0,0.7-0.1,0.8-0.4h1.3c0,0.3-0.2,0.5-0.3,0.7
		c-0.2,0.2-0.4,0.4-0.7,0.5c-0.3,0.1-0.6,0.2-1,0.2c-0.7,0-1.2-0.2-1.6-0.6c-0.4-0.4-0.6-0.9-0.6-1.6c0-0.4,0.1-0.8,0.3-1.2
		c0.2-0.3,0.4-0.6,0.8-0.8c0.3-0.2,0.7-0.3,1.2-0.3c0.4,0,0.8,0.1,1.1,0.2c0.3,0.2,0.6,0.4,0.8,0.7c0.2,0.3,0.3,0.6,0.3,1
		C27.7,39.3,27.7,39.5,27.7,39.7z M26.4,38.9c0-0.3-0.1-0.5-0.2-0.6c-0.1-0.1-0.4-0.2-0.6-0.2c-0.3,0-0.5,0.1-0.7,0.2
		s-0.2,0.4-0.3,0.6H26.4z"/>
	<path fill="#FFFFFF" d="M29.1,41.3c-0.3-0.1-0.5-0.3-0.7-0.5c-0.2-0.2-0.2-0.4-0.2-0.7h1.3c0,0.1,0.1,0.3,0.2,0.3
		c0.1,0.1,0.3,0.1,0.5,0.1c0.1,0,0.3,0,0.3-0.1c0.1-0.1,0.1-0.2,0.1-0.3c0-0.2-0.1-0.3-0.3-0.3l-1-0.3c-0.3-0.1-0.6-0.2-0.8-0.4
		c-0.2-0.2-0.3-0.5-0.3-0.7c0-0.4,0.2-0.7,0.5-0.9c0.3-0.2,0.7-0.4,1.3-0.4c0.6,0,1,0.1,1.4,0.3s0.5,0.5,0.5,0.9h-1.3
		c0-0.1,0-0.3-0.1-0.3C30.4,38,30.2,38,30,38c-0.1,0-0.3,0-0.3,0.1s-0.1,0.1-0.1,0.2c0,0.2,0.1,0.3,0.3,0.4l1,0.3
		c0.3,0.1,0.6,0.2,0.8,0.4c0.2,0.2,0.3,0.4,0.3,0.7c0,0.4-0.2,0.8-0.5,1s-0.8,0.4-1.3,0.4C29.7,41.5,29.4,41.5,29.1,41.3z"/>
	<path fill="#FFFFFF" d="M35.3,40.4v1c-0.2,0-0.5,0.1-0.9,0.1c-0.4,0-0.8-0.1-1-0.3S33,40.6,33,40v-1.6h-0.6v-1H33v-1.2h1.3v1.2h0.9
		v1h-0.9v1.4c0,0.3,0,0.5,0.1,0.6c0.1,0.1,0.2,0.1,0.4,0.1C35,40.4,35.2,40.4,35.3,40.4z"/>
	<path fill="#FFFFFF" d="M41.8,35.7c0.3,0.2,0.6,0.4,0.8,0.8s0.3,0.7,0.3,1.1c0,0.4-0.1,0.8-0.3,1.1s-0.4,0.6-0.8,0.8
		c-0.3,0.2-0.7,0.3-1.1,0.3h-1.2v1.6h-1.4v-6h2.5C41.1,35.4,41.4,35.5,41.8,35.7z M41.1,38.3c0.2-0.2,0.3-0.4,0.3-0.7
		s-0.1-0.5-0.3-0.7c-0.2-0.2-0.4-0.3-0.7-0.3h-0.9v2.1h0.9C40.7,38.6,41,38.5,41.1,38.3z"/>
	<path fill="#FFFFFF" d="M43.4,37.3h1.3v0.9c0.1-0.3,0.2-0.5,0.4-0.7s0.4-0.2,0.7-0.2c0.1,0,0.2,0,0.3,0v1.2c-0.2,0-0.3,0-0.4,0
		c-0.3,0-0.6,0.1-0.8,0.3c-0.2,0.2-0.3,0.6-0.3,1v1.6h-1.3V37.3z"/>
	<path fill="#FFFFFF" d="M47.4,41.2c-0.3-0.2-0.5-0.4-0.7-0.8c-0.2-0.3-0.2-0.7-0.2-1.1c0-0.4,0.1-0.8,0.2-1.1s0.4-0.6,0.7-0.8
		c0.3-0.2,0.6-0.3,1-0.3c0.3,0,0.5,0.1,0.8,0.2s0.4,0.3,0.5,0.5v-0.6H51v4.1h-1.3v-0.6c-0.1,0.2-0.3,0.4-0.5,0.5
		c-0.2,0.1-0.5,0.2-0.8,0.2C48,41.5,47.7,41.4,47.4,41.2z M49.5,40.1c0.2-0.2,0.3-0.5,0.3-0.8c0-0.3-0.1-0.6-0.3-0.8
		s-0.4-0.3-0.7-0.3c-0.3,0-0.5,0.1-0.7,0.3c-0.2,0.2-0.3,0.5-0.3,0.8s0.1,0.6,0.3,0.8c0.2,0.2,0.4,0.3,0.7,0.3
		C49.1,40.4,49.3,40.3,49.5,40.1z"/>
	<path fill="#FFFFFF" d="M52.8,41.3c-0.3-0.2-0.6-0.4-0.8-0.8c-0.2-0.3-0.3-0.7-0.3-1.1s0.1-0.8,0.3-1.1c0.2-0.3,0.4-0.6,0.8-0.8
		c0.3-0.2,0.7-0.3,1.2-0.3c0.6,0,1.1,0.1,1.5,0.5c0.4,0.3,0.6,0.7,0.6,1.2h-1.3c0-0.2-0.1-0.3-0.3-0.4c-0.1-0.1-0.3-0.1-0.5-0.1
		c-0.3,0-0.5,0.1-0.7,0.3S53,39,53,39.3c0,0.3,0.1,0.6,0.2,0.8s0.4,0.3,0.7,0.3c0.2,0,0.4,0,0.5-0.1c0.1-0.1,0.2-0.2,0.3-0.4h1.3
		c-0.1,0.5-0.3,0.9-0.6,1.2c-0.4,0.3-0.9,0.4-1.5,0.4C53.5,41.5,53.1,41.4,52.8,41.3z"/>
	<path fill="#FFFFFF" d="M59.4,40.4v1c-0.2,0-0.5,0.1-0.9,0.1c-0.4,0-0.8-0.1-1-0.3s-0.4-0.6-0.4-1.2v-1.6h-0.6v-1h0.6v-1.2h1.3v1.2
		h0.9v1h-0.9v1.4c0,0.3,0,0.5,0.1,0.6c0.1,0.1,0.2,0.1,0.4,0.1C59.1,40.4,59.3,40.4,59.4,40.4z"/>
	<path fill="#FFFFFF" d="M60.2,36.7c-0.2-0.2-0.2-0.3-0.2-0.6c0-0.2,0.1-0.4,0.2-0.6c0.1-0.2,0.3-0.2,0.6-0.2s0.4,0.1,0.6,0.2
		s0.2,0.3,0.2,0.6c0,0.2-0.1,0.4-0.2,0.6c-0.2,0.2-0.3,0.2-0.6,0.2S60.4,36.9,60.2,36.7z M60.1,37.3h1.3v4.1h-1.3V37.3z"/>
	<path fill="#FFFFFF" d="M63.2,41.3c-0.3-0.2-0.6-0.4-0.8-0.8c-0.2-0.3-0.3-0.7-0.3-1.1s0.1-0.8,0.3-1.1c0.2-0.3,0.4-0.6,0.8-0.8
		c0.3-0.2,0.7-0.3,1.2-0.3c0.6,0,1.1,0.1,1.5,0.5c0.4,0.3,0.6,0.7,0.6,1.2h-1.3c0-0.2-0.1-0.3-0.3-0.4c-0.1-0.1-0.3-0.1-0.5-0.1
		c-0.3,0-0.5,0.1-0.7,0.3s-0.2,0.5-0.2,0.8c0,0.3,0.1,0.6,0.2,0.8s0.4,0.3,0.7,0.3c0.2,0,0.4,0,0.5-0.1c0.1-0.1,0.2-0.2,0.3-0.4h1.3
		c-0.1,0.5-0.3,0.9-0.6,1.2c-0.4,0.3-0.9,0.4-1.5,0.4C63.9,41.5,63.6,41.4,63.2,41.3z"/>
	<path fill="#FFFFFF" d="M71.4,39.7h-3c0,0.3,0.1,0.5,0.3,0.6s0.4,0.2,0.7,0.2c0.4,0,0.7-0.1,0.8-0.4h1.3c0,0.3-0.2,0.5-0.3,0.7
		c-0.2,0.2-0.4,0.4-0.7,0.5c-0.3,0.1-0.6,0.2-1,0.2c-0.7,0-1.2-0.2-1.6-0.6c-0.4-0.4-0.6-0.9-0.6-1.6c0-0.4,0.1-0.8,0.3-1.2
		c0.2-0.3,0.4-0.6,0.8-0.8c0.3-0.2,0.7-0.3,1.2-0.3c0.4,0,0.8,0.1,1.1,0.2c0.3,0.2,0.6,0.4,0.8,0.7c0.2,0.3,0.3,0.6,0.3,1
		C71.4,39.3,71.4,39.5,71.4,39.7z M70.1,38.9c0-0.3-0.1-0.5-0.2-0.6c-0.1-0.1-0.4-0.2-0.6-0.2c-0.3,0-0.5,0.1-0.7,0.2
		s-0.2,0.4-0.3,0.6H70.1z"/>
	<path fill="#FFFFFF" d="M28.4,45.9c0.3,0.2,0.6,0.4,0.8,0.8s0.3,0.7,0.3,1.1c0,0.4-0.1,0.8-0.3,1.1s-0.4,0.6-0.8,0.8
		c-0.3,0.2-0.7,0.3-1.1,0.3h-1.2v1.6h-1.4v-6h2.5C27.7,45.6,28.1,45.7,28.4,45.9z M27.8,48.5c0.2-0.2,0.3-0.4,0.3-0.7
		s-0.1-0.5-0.3-0.7c-0.2-0.2-0.4-0.3-0.7-0.3h-0.9v2.1h0.9C27.4,48.8,27.6,48.7,27.8,48.5z"/>
	<path fill="#FFFFFF" d="M30,47.5h1.3v0.9c0.1-0.3,0.2-0.5,0.4-0.7s0.4-0.2,0.7-0.2c0.1,0,0.2,0,0.3,0v1.2c-0.2,0-0.3,0-0.4,0
		c-0.3,0-0.6,0.1-0.8,0.3c-0.2,0.2-0.3,0.6-0.3,1v1.6H30V47.5z"/>
	<path fill="#FFFFFF" d="M34.2,51.4c-0.3-0.2-0.6-0.4-0.8-0.8s-0.3-0.7-0.3-1.1s0.1-0.8,0.3-1.1c0.2-0.3,0.4-0.6,0.8-0.8
		c0.3-0.2,0.7-0.3,1.2-0.3s0.9,0.1,1.2,0.3c0.3,0.2,0.6,0.4,0.8,0.8c0.2,0.3,0.3,0.7,0.3,1.1c0,0.4-0.1,0.8-0.3,1.1
		c-0.2,0.3-0.4,0.6-0.8,0.8c-0.3,0.2-0.7,0.3-1.2,0.3S34.6,51.6,34.2,51.4z M36.2,50.3c0.2-0.2,0.3-0.5,0.3-0.8s-0.1-0.6-0.3-0.8
		c-0.2-0.2-0.4-0.3-0.7-0.3c-0.3,0-0.5,0.1-0.7,0.3c-0.2,0.2-0.3,0.5-0.3,0.8s0.1,0.6,0.3,0.8c0.2,0.2,0.4,0.3,0.7,0.3
		C35.7,50.6,36,50.5,36.2,50.3z"/>
	<path fill="#FFFFFF" d="M39.3,51.4c-0.3-0.2-0.6-0.4-0.8-0.8c-0.2-0.3-0.3-0.7-0.3-1.1s0.1-0.8,0.3-1.1c0.2-0.3,0.4-0.6,0.8-0.8
		c0.3-0.2,0.7-0.3,1.2-0.3c0.6,0,1.1,0.1,1.5,0.5c0.4,0.3,0.6,0.7,0.6,1.2h-1.3c0-0.2-0.1-0.3-0.3-0.4c-0.1-0.1-0.3-0.1-0.5-0.1
		c-0.3,0-0.5,0.1-0.7,0.3s-0.2,0.5-0.2,0.8c0,0.3,0.1,0.6,0.2,0.8s0.4,0.3,0.7,0.3c0.2,0,0.4,0,0.5-0.1c0.1-0.1,0.2-0.2,0.3-0.4h1.3
		c-0.1,0.5-0.3,0.9-0.6,1.2c-0.4,0.3-0.9,0.4-1.5,0.4C40,51.7,39.6,51.6,39.3,51.4z"/>
	<path fill="#FFFFFF" d="M47.5,49.9h-3c0,0.3,0.1,0.5,0.3,0.6s0.4,0.2,0.7,0.2c0.4,0,0.7-0.1,0.8-0.4h1.3c0,0.3-0.2,0.5-0.3,0.7
		c-0.2,0.2-0.4,0.4-0.7,0.5c-0.3,0.1-0.6,0.2-1,0.2c-0.7,0-1.2-0.2-1.6-0.6c-0.4-0.4-0.6-0.9-0.6-1.6c0-0.4,0.1-0.8,0.3-1.2
		c0.2-0.3,0.4-0.6,0.8-0.8c0.3-0.2,0.7-0.3,1.2-0.3c0.4,0,0.8,0.1,1.1,0.2c0.3,0.2,0.6,0.4,0.8,0.7c0.2,0.3,0.3,0.6,0.3,1
		C47.5,49.5,47.5,49.7,47.5,49.9z M46.2,49.1c0-0.3-0.1-0.5-0.2-0.6c-0.1-0.1-0.4-0.2-0.6-0.2c-0.3,0-0.5,0.1-0.7,0.2
		s-0.2,0.4-0.3,0.6H46.2z"/>
	<path fill="#FFFFFF" d="M48.9,51.5c-0.3-0.1-0.5-0.3-0.7-0.5c-0.2-0.2-0.2-0.4-0.2-0.7h1.3c0,0.1,0.1,0.3,0.2,0.3
		c0.1,0.1,0.3,0.1,0.5,0.1c0.1,0,0.3,0,0.3-0.1c0.1-0.1,0.1-0.2,0.1-0.3c0-0.2-0.1-0.3-0.3-0.3l-1-0.3c-0.3-0.1-0.6-0.2-0.8-0.4
		c-0.2-0.2-0.3-0.5-0.3-0.7c0-0.4,0.2-0.7,0.5-0.9c0.3-0.2,0.7-0.4,1.3-0.4c0.6,0,1,0.1,1.4,0.3s0.5,0.5,0.5,0.9h-1.3
		c0-0.1,0-0.3-0.1-0.3c-0.1-0.1-0.2-0.1-0.4-0.1c-0.1,0-0.3,0-0.3,0.1s-0.1,0.1-0.1,0.2c0,0.2,0.1,0.3,0.3,0.4l1,0.3
		c0.3,0.1,0.6,0.2,0.8,0.4c0.2,0.2,0.3,0.4,0.3,0.7c0,0.4-0.2,0.8-0.5,1s-0.8,0.4-1.3,0.4C49.5,51.7,49.2,51.7,48.9,51.5z"/>
	<path fill="#FFFFFF" d="M53.1,51.5c-0.3-0.1-0.5-0.3-0.7-0.5c-0.2-0.2-0.2-0.4-0.2-0.7h1.3c0,0.1,0.1,0.3,0.2,0.3
		c0.1,0.1,0.3,0.1,0.5,0.1c0.1,0,0.3,0,0.3-0.1c0.1-0.1,0.1-0.2,0.1-0.3c0-0.2-0.1-0.3-0.3-0.3l-1-0.3c-0.3-0.1-0.6-0.2-0.8-0.4
		c-0.2-0.2-0.3-0.5-0.3-0.7c0-0.4,0.2-0.7,0.5-0.9c0.3-0.2,0.7-0.4,1.3-0.4c0.6,0,1,0.1,1.4,0.3s0.5,0.5,0.5,0.9h-1.3
		c0-0.1,0-0.3-0.1-0.3c-0.1-0.1-0.2-0.1-0.4-0.1c-0.1,0-0.3,0-0.3,0.1s-0.1,0.1-0.1,0.2c0,0.2,0.1,0.3,0.3,0.4l1,0.3
		c0.3,0.1,0.6,0.2,0.8,0.4c0.2,0.2,0.3,0.4,0.3,0.7c0,0.4-0.2,0.8-0.5,1s-0.8,0.4-1.3,0.4C53.8,51.7,53.4,51.7,53.1,51.5z"/>
	<path fill="#FFFFFF" d="M60.8,49.9h-3c0,0.3,0.1,0.5,0.3,0.6s0.4,0.2,0.7,0.2c0.4,0,0.7-0.1,0.8-0.4h1.3c0,0.3-0.2,0.5-0.3,0.7
		c-0.2,0.2-0.4,0.4-0.7,0.5c-0.3,0.1-0.6,0.2-1,0.2c-0.7,0-1.2-0.2-1.6-0.6c-0.4-0.4-0.6-0.9-0.6-1.6c0-0.4,0.1-0.8,0.3-1.2
		c0.2-0.3,0.4-0.6,0.8-0.8c0.3-0.2,0.7-0.3,1.2-0.3c0.4,0,0.8,0.1,1.1,0.2c0.3,0.2,0.6,0.4,0.8,0.7c0.2,0.3,0.3,0.6,0.3,1
		C60.8,49.5,60.8,49.7,60.8,49.9z M59.5,49.1c0-0.3-0.1-0.5-0.2-0.6c-0.1-0.1-0.4-0.2-0.6-0.2c-0.3,0-0.5,0.1-0.7,0.2
		s-0.2,0.4-0.3,0.6H59.5z"/>
	<path fill="#FFFFFF" d="M62.2,51.5c-0.3-0.1-0.5-0.3-0.7-0.5c-0.2-0.2-0.2-0.4-0.2-0.7h1.3c0,0.1,0.1,0.3,0.2,0.3
		c0.1,0.1,0.3,0.1,0.5,0.1c0.1,0,0.3,0,0.3-0.1c0.1-0.1,0.1-0.2,0.1-0.3c0-0.2-0.1-0.3-0.3-0.3l-1-0.3c-0.3-0.1-0.6-0.2-0.8-0.4
		c-0.2-0.2-0.3-0.5-0.3-0.7c0-0.4,0.2-0.7,0.5-0.9c0.3-0.2,0.7-0.4,1.3-0.4c0.6,0,1,0.1,1.4,0.3s0.5,0.5,0.5,0.9h-1.3
		c0-0.1,0-0.3-0.1-0.3c-0.1-0.1-0.2-0.1-0.4-0.1c-0.1,0-0.3,0-0.3,0.1s-0.1,0.1-0.1,0.2c0,0.2,0.1,0.3,0.3,0.4l1,0.3
		c0.3,0.1,0.6,0.2,0.8,0.4c0.2,0.2,0.3,0.4,0.3,0.7c0,0.4-0.2,0.8-0.5,1s-0.8,0.4-1.3,0.4C62.8,51.7,62.5,51.7,62.2,51.5z"/>
	<path fill="#FFFFFF" d="M37.7,59.2c0.2,0.2,0.3,0.6,0.3,1c0,0.5-0.2,0.9-0.5,1.2c-0.3,0.3-0.8,0.4-1.4,0.4h-2.5v-6H36
		c0.6,0,1.1,0.1,1.4,0.4c0.3,0.3,0.5,0.7,0.5,1.1c0,0.4-0.1,0.7-0.3,0.9c-0.2,0.2-0.5,0.4-0.8,0.4C37.2,58.8,37.5,58.9,37.7,59.2z
		 M35,56.8v1.4h0.8c0.3,0,0.5-0.1,0.6-0.2c0.1-0.1,0.2-0.3,0.2-0.5c0-0.2-0.1-0.4-0.2-0.5c-0.1-0.1-0.4-0.2-0.6-0.2H35z M36.4,60.5
		c0.1-0.1,0.2-0.3,0.2-0.6c0-0.2-0.1-0.4-0.2-0.5c-0.1-0.1-0.3-0.2-0.6-0.2H35v1.5h0.9C36.1,60.7,36.3,60.7,36.4,60.5z"/>
	<path fill="#FFFFFF" d="M42.5,56.1c0.3,0.2,0.6,0.4,0.8,0.8c0.2,0.3,0.3,0.7,0.3,1.1c0,0.4-0.1,0.8-0.3,1.1
		c-0.2,0.3-0.4,0.6-0.8,0.8c-0.3,0.2-0.7,0.3-1.1,0.3h-1.2v1.6h-1.4v-6h2.5C41.8,55.8,42.2,55.9,42.5,56.1z M41.9,58.7
		c0.2-0.2,0.3-0.4,0.3-0.7c0-0.3-0.1-0.5-0.3-0.7c-0.2-0.2-0.4-0.3-0.7-0.3h-0.9V59h0.9C41.5,59,41.7,58.9,41.9,58.7z"/>
	<path fill="#FFFFFF" d="M44.2,55.8h1.6l1.6,4.2l1.6-4.2h1.6v6h-1.3v-3.9l-1.3,3.9h-1l-1.4-3.9v3.9h-1.3V55.8z"/>
	<path fill="#FFFFFF" d="M51.1,55.8h1.5l1.2,4.2l1.2-4.2h1.5l-2,6h-1.4L51.1,55.8z"/>
</g>
<circle fill="#21ADE3" cx="161" cy="44.4" r="41.8"/>
<g>
	<path fill="#FFFFFF" d="M143.7,33.5c-0.4-0.4-0.6-0.9-0.6-1.6h1.4c0,0.3,0.1,0.6,0.3,0.8s0.4,0.3,0.7,0.3c0.3,0,0.5-0.1,0.6-0.2
		c0.1-0.1,0.2-0.3,0.2-0.5c0-0.2-0.1-0.3-0.2-0.4s-0.3-0.2-0.6-0.3l-1.1-0.4c-0.4-0.1-0.7-0.4-0.9-0.6s-0.3-0.6-0.3-1
		c0-0.3,0.1-0.7,0.3-0.9c0.2-0.3,0.4-0.5,0.7-0.6c0.3-0.1,0.7-0.2,1.1-0.2c0.4,0,0.8,0.1,1.1,0.2c0.3,0.2,0.6,0.4,0.8,0.7
		c0.2,0.3,0.3,0.6,0.3,1h-1.4c0-0.3-0.1-0.5-0.2-0.6c-0.1-0.1-0.3-0.2-0.6-0.2c-0.2,0-0.4,0.1-0.5,0.2s-0.2,0.2-0.2,0.4
		c0,0.2,0.1,0.3,0.2,0.4c0.1,0.1,0.3,0.2,0.6,0.4l1,0.4c0.4,0.2,0.7,0.4,0.9,0.7c0.2,0.3,0.3,0.6,0.3,1c0,0.4-0.1,0.7-0.3,1
		c-0.2,0.3-0.4,0.5-0.8,0.6c-0.3,0.1-0.7,0.2-1.1,0.2C144.7,34,144.1,33.8,143.7,33.5z"/>
	<path fill="#FFFFFF" d="M150.9,32.8v1c-0.2,0-0.5,0.1-0.9,0.1c-0.4,0-0.8-0.1-1-0.3s-0.4-0.6-0.4-1.2v-1.6H148v-1h0.6v-1.2h1.3v1.2
		h0.9v1h-0.9v1.4c0,0.3,0,0.5,0.1,0.6c0.1,0.1,0.2,0.1,0.4,0.1C150.6,32.8,150.8,32.8,150.9,32.8z"/>
	<path fill="#FFFFFF" d="M152.2,33.7c-0.3-0.2-0.5-0.4-0.7-0.8c-0.2-0.3-0.2-0.7-0.2-1.1c0-0.4,0.1-0.8,0.2-1.1s0.4-0.6,0.7-0.8
		c0.3-0.2,0.6-0.3,1-0.3c0.3,0,0.5,0.1,0.8,0.2s0.4,0.3,0.5,0.5v-0.6h1.3v4.1h-1.3v-0.6c-0.1,0.2-0.3,0.4-0.5,0.5
		c-0.2,0.1-0.5,0.2-0.8,0.2C152.9,33.9,152.5,33.9,152.2,33.7z M154.4,32.6c0.2-0.2,0.3-0.5,0.3-0.8c0-0.3-0.1-0.6-0.3-0.8
		s-0.4-0.3-0.7-0.3c-0.3,0-0.5,0.1-0.7,0.3c-0.2,0.2-0.3,0.5-0.3,0.8s0.1,0.6,0.3,0.8c0.2,0.2,0.4,0.3,0.7,0.3
		C154,32.9,154.2,32.8,154.4,32.6z"/>
	<path fill="#FFFFFF" d="M156.9,29.7h1.3v0.6c0.1-0.2,0.3-0.4,0.5-0.5c0.2-0.1,0.5-0.2,0.8-0.2c1,0,1.5,0.6,1.5,1.7v2.5h-1.3v-2.1
		c0-0.4-0.1-0.6-0.2-0.8c-0.1-0.2-0.3-0.2-0.6-0.2s-0.5,0.1-0.6,0.2c-0.1,0.2-0.2,0.4-0.2,0.7v2.1h-1.3V29.7z"/>
	<path fill="#FFFFFF" d="M166.3,30L166.3,30l0,3.9H165v-0.6c-0.1,0.2-0.3,0.4-0.5,0.5c-0.2,0.1-0.5,0.2-0.8,0.2
		c-0.4,0-0.7-0.1-1-0.3s-0.5-0.4-0.7-0.8c-0.2-0.3-0.2-0.7-0.2-1.1c0-0.4,0.1-0.8,0.2-1.1s0.4-0.6,0.7-0.8c0.3-0.2,0.6-0.3,1-0.3
		c0.3,0,0.5,0.1,0.8,0.2s0.4,0.3,0.5,0.5v-2.4h1.3V30z M164.8,32.6c0.2-0.2,0.3-0.5,0.3-0.8c0-0.3-0.1-0.6-0.3-0.8s-0.4-0.3-0.7-0.3
		c-0.3,0-0.5,0.1-0.7,0.3c-0.2,0.2-0.3,0.5-0.3,0.8s0.1,0.6,0.3,0.8c0.2,0.2,0.4,0.3,0.7,0.3C164.4,32.9,164.7,32.8,164.8,32.6z"/>
	<path fill="#FFFFFF" d="M168,33.7c-0.3-0.2-0.5-0.4-0.7-0.8c-0.2-0.3-0.2-0.7-0.2-1.1c0-0.4,0.1-0.8,0.2-1.1s0.4-0.6,0.7-0.8
		c0.3-0.2,0.6-0.3,1-0.3c0.3,0,0.5,0.1,0.8,0.2s0.4,0.3,0.5,0.5v-0.6h1.3v4.1h-1.3v-0.6c-0.1,0.2-0.3,0.4-0.5,0.5
		c-0.2,0.1-0.5,0.2-0.8,0.2C168.6,33.9,168.3,33.9,168,33.7z M170.1,32.6c0.2-0.2,0.3-0.5,0.3-0.8c0-0.3-0.1-0.6-0.3-0.8
		s-0.4-0.3-0.7-0.3c-0.3,0-0.5,0.1-0.7,0.3c-0.2,0.2-0.3,0.5-0.3,0.8s0.1,0.6,0.3,0.8c0.2,0.2,0.4,0.3,0.7,0.3
		C169.7,32.9,170,32.8,170.1,32.6z"/>
	<path fill="#FFFFFF" d="M172.7,29.7h1.3v0.9c0.1-0.3,0.2-0.5,0.4-0.7s0.4-0.2,0.7-0.2c0.1,0,0.2,0,0.3,0v1.2c-0.2,0-0.3,0-0.4,0
		c-0.3,0-0.6,0.1-0.8,0.3c-0.2,0.2-0.3,0.6-0.3,1v1.6h-1.3V29.7z"/>
	<path fill="#FFFFFF" d="M180.3,30L180.3,30l0,3.9H179v-0.6c-0.1,0.2-0.3,0.4-0.5,0.5c-0.2,0.1-0.5,0.2-0.8,0.2
		c-0.4,0-0.7-0.1-1-0.3s-0.5-0.4-0.7-0.8c-0.2-0.3-0.2-0.7-0.2-1.1c0-0.4,0.1-0.8,0.2-1.1s0.4-0.6,0.7-0.8c0.3-0.2,0.6-0.3,1-0.3
		c0.3,0,0.5,0.1,0.8,0.2s0.4,0.3,0.5,0.5v-2.4h1.3V30z M178.8,32.6c0.2-0.2,0.3-0.5,0.3-0.8c0-0.3-0.1-0.6-0.3-0.8s-0.4-0.3-0.7-0.3
		c-0.3,0-0.5,0.1-0.7,0.3c-0.2,0.2-0.3,0.5-0.3,0.8s0.1,0.6,0.3,0.8c0.2,0.2,0.4,0.3,0.7,0.3C178.4,32.9,178.6,32.8,178.8,32.6z"/>
	<path fill="#FFFFFF" d="M133.4,38.1h2.2c0.6,0,1.2,0.1,1.6,0.4c0.5,0.3,0.8,0.6,1.1,1.1c0.2,0.5,0.4,0.9,0.4,1.5s-0.1,1-0.4,1.5
		c-0.2,0.5-0.6,0.8-1.1,1.1c-0.5,0.3-1,0.4-1.6,0.4h-2.2V38.1z M135.5,42.9c0.4,0,0.7-0.1,1-0.3c0.3-0.2,0.5-0.4,0.6-0.7
		c0.1-0.3,0.2-0.6,0.2-0.9c0-0.3-0.1-0.6-0.2-0.9c-0.1-0.3-0.3-0.5-0.6-0.7c-0.3-0.2-0.6-0.3-1-0.3h-0.7v3.6H135.5z"/>
	<path fill="#FFFFFF" d="M143.5,39.9v4c0,0.3-0.1,0.6-0.2,0.9c-0.1,0.3-0.2,0.5-0.4,0.6c-0.2,0.2-0.4,0.3-0.6,0.4
		c-0.2,0.1-0.5,0.1-0.9,0.1c-0.7,0-1.2-0.1-1.5-0.4c-0.2-0.1-0.3-0.3-0.4-0.5c-0.1-0.2-0.1-0.4-0.1-0.6h1.3c0,0.2,0.1,0.3,0.2,0.4
		c0.1,0.1,0.3,0.1,0.5,0.1c0.2,0,0.4-0.1,0.6-0.2s0.2-0.4,0.2-0.7v-0.6c-0.1,0.2-0.3,0.4-0.5,0.5c-0.2,0.1-0.5,0.2-0.8,0.2
		c-0.5,0-0.9-0.2-1.1-0.5c-0.3-0.3-0.4-0.7-0.4-1.3v-2.4h1.3v2.2c0,0.3,0.1,0.5,0.2,0.7c0.1,0.2,0.3,0.2,0.6,0.2
		c0.3,0,0.5-0.1,0.6-0.3c0.1-0.2,0.2-0.4,0.2-0.8v-2H143.5z"/>
	<path fill="#FFFFFF" d="M144.6,39.9h1.3v0.6c0.1-0.2,0.3-0.4,0.5-0.5c0.2-0.1,0.5-0.2,0.8-0.2c1,0,1.5,0.6,1.5,1.7V44h-1.3v-2.1
		c0-0.4-0.1-0.6-0.2-0.8c-0.1-0.2-0.3-0.2-0.6-0.2s-0.5,0.1-0.6,0.2c-0.1,0.2-0.2,0.4-0.2,0.7V44h-1.3V39.9z"/>
	<path fill="#FFFFFF" d="M150.3,43.9c-0.3-0.2-0.5-0.4-0.7-0.8c-0.2-0.3-0.2-0.7-0.2-1.1c0-0.4,0.1-0.8,0.2-1.1s0.4-0.6,0.7-0.8
		c0.3-0.2,0.6-0.3,1-0.3c0.3,0,0.5,0.1,0.8,0.2s0.4,0.3,0.5,0.5v-0.6h1.3V44h-1.3v-0.6c-0.1,0.2-0.3,0.4-0.5,0.5
		c-0.2,0.1-0.5,0.2-0.8,0.2C150.9,44.1,150.6,44.1,150.3,43.9z M152.4,42.8c0.2-0.2,0.3-0.5,0.3-0.8c0-0.3-0.1-0.6-0.3-0.8
		s-0.4-0.3-0.7-0.3c-0.3,0-0.5,0.1-0.7,0.3c-0.2,0.2-0.3,0.5-0.3,0.8s0.1,0.6,0.3,0.8c0.2,0.2,0.4,0.3,0.7,0.3
		C152,43.1,152.3,43,152.4,42.8z"/>
	<path fill="#FFFFFF" d="M155,39.9h1.3v0.6c0.1-0.2,0.2-0.4,0.4-0.5c0.2-0.1,0.4-0.2,0.7-0.2c0.6,0,1.1,0.3,1.3,0.8
		c0.1-0.2,0.3-0.4,0.5-0.5c0.2-0.1,0.5-0.2,0.8-0.2c1,0,1.5,0.6,1.5,1.7V44h-1.3v-2.3c0-0.3-0.1-0.5-0.2-0.6
		c-0.1-0.1-0.3-0.2-0.5-0.2c-0.2,0-0.4,0.1-0.5,0.2c-0.1,0.2-0.2,0.4-0.2,0.8V44h-1.3v-2.3c0-0.3,0-0.5-0.1-0.6s-0.3-0.2-0.5-0.2
		c-0.2,0-0.4,0.1-0.5,0.2c-0.1,0.2-0.2,0.4-0.2,0.8V44H155V39.9z"/>
	<path fill="#FFFFFF" d="M162.6,39.4c-0.2-0.2-0.2-0.3-0.2-0.6c0-0.2,0.1-0.4,0.2-0.6c0.1-0.2,0.3-0.2,0.6-0.2s0.4,0.1,0.6,0.2
		s0.2,0.3,0.2,0.6c0,0.2-0.1,0.4-0.2,0.6c-0.2,0.2-0.3,0.2-0.6,0.2S162.8,39.5,162.6,39.4z M162.6,39.9h1.3V44h-1.3V39.9z"/>
	<path fill="#FFFFFF" d="M165.6,43.9c-0.3-0.2-0.6-0.4-0.8-0.8c-0.2-0.3-0.3-0.7-0.3-1.1s0.1-0.8,0.3-1.1c0.2-0.3,0.4-0.6,0.8-0.8
		c0.3-0.2,0.7-0.3,1.2-0.3c0.6,0,1.1,0.1,1.5,0.5c0.4,0.3,0.6,0.7,0.6,1.2h-1.3c0-0.2-0.1-0.3-0.3-0.4c-0.1-0.1-0.3-0.1-0.5-0.1
		c-0.3,0-0.5,0.1-0.7,0.3s-0.2,0.5-0.2,0.8c0,0.3,0.1,0.6,0.2,0.8s0.4,0.3,0.7,0.3c0.2,0,0.4,0,0.5-0.1c0.1-0.1,0.2-0.2,0.3-0.4h1.3
		c-0.1,0.5-0.3,0.9-0.6,1.2c-0.4,0.3-0.9,0.4-1.5,0.4C166.4,44.2,166,44.1,165.6,43.9z"/>
	<path fill="#FFFFFF" d="M170.3,44c-0.3-0.1-0.5-0.3-0.7-0.5c-0.2-0.2-0.2-0.4-0.2-0.7h1.3c0,0.1,0.1,0.3,0.2,0.3
		c0.1,0.1,0.3,0.1,0.5,0.1c0.1,0,0.3,0,0.3-0.1c0.1-0.1,0.1-0.2,0.1-0.3c0-0.2-0.1-0.3-0.3-0.3l-1-0.3c-0.3-0.1-0.6-0.2-0.8-0.4
		c-0.2-0.2-0.3-0.5-0.3-0.7c0-0.4,0.2-0.7,0.5-0.9c0.3-0.2,0.7-0.4,1.3-0.4c0.6,0,1,0.1,1.4,0.3s0.5,0.5,0.5,0.9h-1.3
		c0-0.1,0-0.3-0.1-0.3c-0.1-0.1-0.2-0.1-0.4-0.1c-0.1,0-0.3,0-0.3,0.1s-0.1,0.1-0.1,0.2c0,0.2,0.1,0.3,0.3,0.4l1,0.3
		c0.3,0.1,0.6,0.2,0.8,0.4c0.2,0.2,0.3,0.4,0.3,0.7c0,0.4-0.2,0.8-0.5,1s-0.8,0.4-1.3,0.4C170.9,44.2,170.6,44.1,170.3,44z"/>
	<path fill="#FFFFFF" d="M176.3,43.6c-0.4-0.4-0.6-0.9-0.6-1.5h1.4c0,0.3,0.1,0.5,0.2,0.7c0.2,0.2,0.4,0.2,0.7,0.2
		c0.2,0,0.4-0.1,0.6-0.2c0.1-0.1,0.2-0.3,0.2-0.5c0-0.5-0.3-0.8-0.9-0.8h-0.6v-1.1h0.6c0.5,0,0.8-0.2,0.8-0.7c0-0.2-0.1-0.4-0.2-0.5
		c-0.1-0.1-0.3-0.2-0.5-0.2c-0.3,0-0.5,0.1-0.6,0.2c-0.1,0.1-0.2,0.3-0.2,0.6h-1.4c0-0.4,0.1-0.7,0.3-1c0.2-0.3,0.4-0.5,0.8-0.6
		c0.3-0.2,0.7-0.2,1.2-0.2c0.4,0,0.8,0.1,1.1,0.2s0.6,0.3,0.7,0.6s0.3,0.5,0.3,0.9c0,0.3-0.1,0.6-0.3,0.8c-0.2,0.2-0.4,0.4-0.8,0.5
		c0.4,0.1,0.6,0.2,0.9,0.5c0.2,0.2,0.3,0.5,0.3,0.9c0,0.3-0.1,0.7-0.3,0.9s-0.4,0.5-0.8,0.6c-0.3,0.1-0.7,0.2-1.2,0.2
		C177.3,44.2,176.7,44,176.3,43.6z"/>
	<path fill="#FFFFFF" d="M184.5,40.2c0.3,0.2,0.5,0.4,0.7,0.8s0.2,0.7,0.2,1.1c0,0.4-0.1,0.8-0.3,1.1s-0.5,0.6-0.8,0.8
		s-0.7,0.3-1.2,0.3s-0.9-0.1-1.2-0.3c-0.3-0.2-0.6-0.4-0.8-0.8s-0.3-0.7-0.3-1.1c0-0.5,0.1-1,0.4-1.4l1.7-2.4h1.6l-1.2,1.6
		C183.8,39.9,184.2,40,184.5,40.2z M183.8,42.8c0.2-0.2,0.3-0.5,0.3-0.8s-0.1-0.6-0.3-0.8c-0.2-0.2-0.4-0.3-0.7-0.3
		c-0.3,0-0.5,0.1-0.7,0.3c-0.2,0.2-0.3,0.5-0.3,0.8s0.1,0.6,0.3,0.8c0.2,0.2,0.4,0.3,0.7,0.3C183.4,43.1,183.7,43,183.8,42.8z"/>
	<path fill="#FFFFFF" d="M186.7,43.7c-0.4-0.3-0.6-0.7-0.6-1.3h1.3c0,0.2,0.1,0.4,0.3,0.5c0.2,0.1,0.4,0.2,0.6,0.2
		c0.3,0,0.5-0.1,0.7-0.3c0.2-0.2,0.3-0.4,0.3-0.7c0-0.3-0.1-0.5-0.2-0.7s-0.4-0.3-0.6-0.3c-0.2,0-0.4,0-0.6,0.1
		c-0.2,0.1-0.3,0.2-0.4,0.4h-1.2v-3.4h4v1.1h-2.8v1.2c0.1-0.2,0.3-0.3,0.5-0.3c0.2-0.1,0.4-0.1,0.7-0.1c0.4,0,0.7,0.1,1,0.2
		c0.3,0.2,0.5,0.4,0.7,0.7s0.2,0.6,0.2,1c0,0.4-0.1,0.8-0.3,1.1c-0.2,0.3-0.4,0.6-0.8,0.8s-0.7,0.3-1.2,0.3
		C187.7,44.2,187.1,44,186.7,43.7z"/>
	<path fill="#FFFFFF" d="M143.1,52.1h-1.3v-1h1.3v-1.3h1.1V51h1.3v1h-1.3v1.3h-1.1V52.1z"/>
	<path fill="#FFFFFF" d="M148.6,48.3h1.4v6h-1.4V48.3z"/>
	<path fill="#FFFFFF" d="M151.1,50.1h1.3v0.6c0.1-0.2,0.3-0.4,0.5-0.5s0.5-0.2,0.8-0.2c1,0,1.5,0.6,1.5,1.7v2.5h-1.3v-2.1
		c0-0.4-0.1-0.6-0.2-0.8c-0.1-0.2-0.3-0.2-0.6-0.2s-0.5,0.1-0.6,0.2s-0.2,0.4-0.2,0.7v2.1h-1.3V50.1z"/>
	<path fill="#FFFFFF" d="M160.5,50.4L160.5,50.4l0,3.9h-1.3v-0.6c-0.1,0.2-0.3,0.4-0.5,0.5c-0.2,0.1-0.5,0.2-0.8,0.2
		c-0.4,0-0.7-0.1-1-0.3c-0.3-0.2-0.5-0.4-0.7-0.8c-0.2-0.3-0.2-0.7-0.2-1.1c0-0.4,0.1-0.8,0.2-1.1c0.2-0.3,0.4-0.6,0.7-0.8
		c0.3-0.2,0.6-0.3,1-0.3c0.3,0,0.5,0.1,0.8,0.2s0.4,0.3,0.5,0.5v-2.4h1.3V50.4z M159,53c0.2-0.2,0.3-0.5,0.3-0.8
		c0-0.3-0.1-0.6-0.3-0.8s-0.4-0.3-0.7-0.3c-0.3,0-0.5,0.1-0.7,0.3c-0.2,0.2-0.3,0.5-0.3,0.8s0.1,0.6,0.3,0.8
		c0.2,0.2,0.4,0.3,0.7,0.3C158.6,53.3,158.8,53.2,159,53z"/>
	<path fill="#FFFFFF" d="M161.9,53.9c-0.3-0.3-0.4-0.7-0.4-1.2v-2.5h1.3v2.2c0,0.3,0.1,0.5,0.2,0.6c0.1,0.1,0.3,0.2,0.5,0.2
		c0.3,0,0.5-0.1,0.6-0.2c0.1-0.2,0.2-0.4,0.2-0.7v-2.2h1.3v4.1h-1.3v-0.6c-0.1,0.2-0.3,0.4-0.5,0.5s-0.5,0.2-0.8,0.2
		C162.5,54.3,162.2,54.2,161.9,53.9z"/>
	<path fill="#FFFFFF" d="M167.3,54.2c-0.3-0.1-0.5-0.3-0.7-0.5s-0.2-0.4-0.2-0.7h1.3c0,0.1,0.1,0.3,0.2,0.3c0.1,0.1,0.3,0.1,0.5,0.1
		c0.1,0,0.3,0,0.3-0.1c0.1-0.1,0.1-0.2,0.1-0.3c0-0.2-0.1-0.3-0.3-0.3l-1-0.3c-0.3-0.1-0.6-0.2-0.8-0.4c-0.2-0.2-0.3-0.5-0.3-0.7
		c0-0.4,0.2-0.7,0.5-0.9c0.3-0.2,0.7-0.4,1.3-0.4c0.6,0,1,0.1,1.4,0.3s0.5,0.5,0.5,0.9h-1.3c0-0.1,0-0.3-0.1-0.3s-0.2-0.1-0.4-0.1
		c-0.1,0-0.3,0-0.3,0.1s-0.1,0.1-0.1,0.2c0,0.2,0.1,0.3,0.3,0.4l1,0.3c0.3,0.1,0.6,0.2,0.8,0.4s0.3,0.4,0.3,0.7c0,0.4-0.2,0.8-0.5,1
		s-0.8,0.4-1.3,0.4C167.9,54.4,167.6,54.3,167.3,54.2z"/>
	<path fill="#FFFFFF" d="M173.5,53.2v1c-0.2,0-0.5,0.1-0.9,0.1c-0.4,0-0.8-0.1-1-0.3s-0.4-0.6-0.4-1.2v-1.6h-0.6v-1h0.6v-1.2h1.3
		v1.2h0.9v1h-0.9v1.4c0,0.3,0,0.5,0.1,0.6c0.1,0.1,0.2,0.1,0.4,0.1C173.2,53.2,173.3,53.2,173.5,53.2z"/>
	<path fill="#FFFFFF" d="M174.2,50.1h1.3V51c0.1-0.3,0.2-0.5,0.4-0.7s0.4-0.2,0.7-0.2c0.1,0,0.2,0,0.3,0v1.2c-0.2,0-0.3,0-0.4,0
		c-0.3,0-0.6,0.1-0.8,0.3c-0.2,0.2-0.3,0.6-0.3,1v1.6h-1.3V50.1z"/>
	<path fill="#FFFFFF" d="M181.7,50.1v4c0,0.3-0.1,0.6-0.2,0.9s-0.2,0.5-0.4,0.6c-0.2,0.2-0.4,0.3-0.6,0.4c-0.2,0.1-0.5,0.1-0.9,0.1
		c-0.7,0-1.2-0.1-1.5-0.4c-0.2-0.1-0.3-0.3-0.4-0.5c-0.1-0.2-0.1-0.4-0.1-0.6h1.3c0,0.2,0.1,0.3,0.2,0.4s0.3,0.1,0.5,0.1
		c0.2,0,0.4-0.1,0.6-0.2c0.1-0.2,0.2-0.4,0.2-0.7v-0.6c-0.1,0.2-0.3,0.4-0.5,0.5c-0.2,0.1-0.5,0.2-0.8,0.2c-0.5,0-0.9-0.2-1.1-0.5
		c-0.3-0.3-0.4-0.7-0.4-1.3v-2.4h1.3v2.2c0,0.3,0.1,0.5,0.2,0.7c0.1,0.2,0.3,0.2,0.6,0.2c0.3,0,0.5-0.1,0.6-0.3
		c0.1-0.2,0.2-0.4,0.2-0.8v-2H181.7z"/>
	<path fill="#FFFFFF" d="M140.6,58.5h3.6v1.1h-2.3v1.4h2.3V62h-2.3v1.3h2.3v1.1h-3.6V58.5z"/>
	<path fill="#FFFFFF" d="M146.3,62.4l-1.5-2h1.6l0.7,1.2l0.7-1.2h1.6l-1.5,2l1.5,2.1h-1.6l-0.7-1.2l-0.7,1.2h-1.6L146.3,62.4z"/>
	<path fill="#FFFFFF" d="M152.6,63.4v1c-0.2,0-0.5,0.1-0.9,0.1c-0.4,0-0.8-0.1-1-0.3s-0.4-0.6-0.4-1.2v-1.6h-0.6v-1h0.6v-1.2h1.3
		v1.2h0.9v1h-0.9v1.4c0,0.3,0,0.5,0.1,0.6c0.1,0.1,0.2,0.1,0.4,0.1C152.3,63.4,152.5,63.4,152.6,63.4z"/>
	<path fill="#FFFFFF" d="M157.3,62.7h-3c0,0.3,0.1,0.5,0.3,0.6s0.4,0.2,0.7,0.2c0.4,0,0.7-0.1,0.8-0.4h1.3c0,0.3-0.2,0.5-0.3,0.7
		s-0.4,0.4-0.7,0.5c-0.3,0.1-0.6,0.2-1,0.2c-0.7,0-1.2-0.2-1.6-0.6c-0.4-0.4-0.6-0.9-0.6-1.6c0-0.4,0.1-0.8,0.3-1.2
		c0.2-0.3,0.4-0.6,0.8-0.8s0.7-0.3,1.2-0.3c0.4,0,0.8,0.1,1.1,0.2c0.3,0.2,0.6,0.4,0.8,0.7c0.2,0.3,0.3,0.6,0.3,1
		C157.4,62.3,157.4,62.5,157.3,62.7z M156.1,61.9c0-0.3-0.1-0.5-0.2-0.6c-0.1-0.1-0.4-0.2-0.6-0.2c-0.3,0-0.5,0.1-0.7,0.2
		s-0.2,0.4-0.3,0.6H156.1z"/>
	<path fill="#FFFFFF" d="M158.1,60.3h1.3v0.6c0.1-0.2,0.3-0.4,0.5-0.5s0.5-0.2,0.8-0.2c1,0,1.5,0.6,1.5,1.7v2.5h-1.3v-2.1
		c0-0.4-0.1-0.6-0.2-0.8c-0.1-0.2-0.3-0.2-0.6-0.2s-0.5,0.1-0.6,0.2s-0.2,0.4-0.2,0.7v2.1h-1.3V60.3z"/>
	<path fill="#FFFFFF" d="M163.9,64.4c-0.3-0.1-0.5-0.3-0.7-0.5s-0.2-0.4-0.2-0.7h1.3c0,0.1,0.1,0.3,0.2,0.3c0.1,0.1,0.3,0.1,0.5,0.1
		c0.1,0,0.3,0,0.3-0.1c0.1-0.1,0.1-0.2,0.1-0.3c0-0.2-0.1-0.3-0.3-0.3l-1-0.3c-0.3-0.1-0.6-0.2-0.8-0.4c-0.2-0.2-0.3-0.5-0.3-0.7
		c0-0.4,0.2-0.7,0.5-0.9c0.3-0.2,0.7-0.4,1.3-0.4c0.6,0,1,0.1,1.4,0.3s0.5,0.5,0.5,0.9h-1.3c0-0.1,0-0.3-0.1-0.3S165,61,164.8,61
		c-0.1,0-0.3,0-0.3,0.1s-0.1,0.1-0.1,0.2c0,0.2,0.1,0.3,0.3,0.4l1,0.3c0.3,0.1,0.6,0.2,0.8,0.4s0.3,0.4,0.3,0.7c0,0.4-0.2,0.8-0.5,1
		s-0.8,0.4-1.3,0.4C164.5,64.6,164.2,64.5,163.9,64.4z"/>
	<path fill="#FFFFFF" d="M167.6,59.8c-0.2-0.2-0.2-0.3-0.2-0.6c0-0.2,0.1-0.4,0.2-0.6c0.1-0.2,0.3-0.2,0.6-0.2s0.4,0.1,0.6,0.2
		c0.2,0.2,0.2,0.3,0.2,0.6c0,0.2-0.1,0.4-0.2,0.6s-0.3,0.2-0.6,0.2S167.8,59.9,167.6,59.8z M167.5,60.3h1.3v4.1h-1.3V60.3z"/>
	<path fill="#FFFFFF" d="M170.6,64.3c-0.3-0.2-0.6-0.4-0.8-0.8c-0.2-0.3-0.3-0.7-0.3-1.1c0-0.4,0.1-0.8,0.3-1.1s0.4-0.6,0.8-0.8
		c0.3-0.2,0.7-0.3,1.2-0.3s0.9,0.1,1.2,0.3c0.3,0.2,0.6,0.4,0.8,0.8c0.2,0.3,0.3,0.7,0.3,1.1c0,0.4-0.1,0.8-0.3,1.1
		c-0.2,0.3-0.4,0.6-0.8,0.8c-0.3,0.2-0.7,0.3-1.2,0.3S171,64.5,170.6,64.3z M172.6,63.2c0.2-0.2,0.3-0.5,0.3-0.8s-0.1-0.6-0.3-0.8
		c-0.2-0.2-0.4-0.3-0.7-0.3c-0.3,0-0.5,0.1-0.7,0.3c-0.2,0.2-0.3,0.5-0.3,0.8s0.1,0.6,0.3,0.8c0.2,0.2,0.4,0.3,0.7,0.3
		C172.1,63.5,172.4,63.4,172.6,63.2z"/>
	<path fill="#FFFFFF" d="M174.9,60.3h1.3v0.6c0.1-0.2,0.3-0.4,0.5-0.5s0.5-0.2,0.8-0.2c1,0,1.5,0.6,1.5,1.7v2.5h-1.3v-2.1
		c0-0.4-0.1-0.6-0.2-0.8c-0.1-0.2-0.3-0.2-0.6-0.2s-0.5,0.1-0.6,0.2s-0.2,0.4-0.2,0.7v2.1h-1.3V60.3z"/>
	<path fill="#FFFFFF" d="M180.6,64.4c-0.3-0.1-0.5-0.3-0.7-0.5s-0.2-0.4-0.2-0.7h1.3c0,0.1,0.1,0.3,0.2,0.3c0.1,0.1,0.3,0.1,0.5,0.1
		c0.1,0,0.3,0,0.3-0.1c0.1-0.1,0.1-0.2,0.1-0.3c0-0.2-0.1-0.3-0.3-0.3l-1-0.3c-0.3-0.1-0.6-0.2-0.8-0.4c-0.2-0.2-0.3-0.5-0.3-0.7
		c0-0.4,0.2-0.7,0.5-0.9c0.3-0.2,0.7-0.4,1.3-0.4c0.6,0,1,0.1,1.4,0.3s0.5,0.5,0.5,0.9h-1.3c0-0.1,0-0.3-0.1-0.3s-0.2-0.1-0.4-0.1
		c-0.1,0-0.3,0-0.3,0.1s-0.1,0.1-0.1,0.2c0,0.2,0.1,0.3,0.3,0.4l1,0.3c0.3,0.1,0.6,0.2,0.8,0.4s0.3,0.4,0.3,0.7c0,0.4-0.2,0.8-0.5,1
		s-0.8,0.4-1.3,0.4C181.3,64.6,180.9,64.5,180.6,64.4z"/>
</g>
<circle fill="#21ADE3" cx="275.6" cy="44.4" r="41.8"/>
<g>
	<path fill="#FFFFFF" d="M257.4,36.3h-2.1l-0.2,0.7h-1.5l2-6h1.4l2,6h-1.5L257.4,36.3z M257,35.3l-0.7-2.6l-0.7,2.6H257z"/>
	<path fill="#FFFFFF" d="M259.6,31.1h1.3v6h-1.3V31.1z"/>
	<path fill="#FFFFFF" d="M262.1,32.4c-0.2-0.2-0.2-0.3-0.2-0.6c0-0.2,0.1-0.4,0.2-0.6c0.1-0.2,0.3-0.2,0.6-0.2s0.4,0.1,0.6,0.2
		s0.2,0.3,0.2,0.6c0,0.2-0.1,0.4-0.2,0.6c-0.2,0.2-0.3,0.2-0.6,0.2S262.2,32.5,262.1,32.4z M262,33h1.3v4.1H262V33z"/>
	<path fill="#FFFFFF" d="M268.6,33v3.8c0,0.4-0.1,0.7-0.2,1c-0.1,0.3-0.3,0.5-0.6,0.7c-0.3,0.2-0.8,0.4-1.5,0.4
		c-0.6,0-1.1-0.1-1.5-0.3c-0.2-0.1-0.4-0.3-0.5-0.5c-0.1-0.2-0.2-0.4-0.2-0.6h1.3c0,0.2,0.1,0.3,0.3,0.4c0.1,0.1,0.3,0.1,0.6,0.1
		c0.3,0,0.6-0.1,0.7-0.2c0.2-0.2,0.2-0.4,0.2-0.8v-0.5c-0.1,0.2-0.3,0.4-0.5,0.5c-0.2,0.1-0.5,0.2-0.8,0.2c-0.4,0-0.7-0.1-1-0.3
		c-0.3-0.2-0.5-0.4-0.7-0.7c-0.2-0.3-0.2-0.7-0.2-1.1s0.1-0.8,0.2-1.1c0.2-0.3,0.4-0.6,0.7-0.8s0.6-0.3,1-0.3c0.3,0,0.5,0.1,0.8,0.2
		s0.4,0.3,0.5,0.5V33H268.6z M267.1,35.8c0.2-0.2,0.3-0.5,0.3-0.8c0-0.3-0.1-0.6-0.3-0.8s-0.4-0.3-0.7-0.3c-0.3,0-0.5,0.1-0.7,0.3
		c-0.2,0.2-0.3,0.5-0.3,0.8c0,0.3,0.1,0.6,0.3,0.8c0.2,0.2,0.4,0.3,0.7,0.3C266.7,36.1,266.9,36,267.1,35.8z"/>
	<path fill="#FFFFFF" d="M269.7,33h1.3v0.6c0.1-0.2,0.3-0.4,0.5-0.5c0.2-0.1,0.5-0.2,0.8-0.2c1,0,1.5,0.6,1.5,1.7v2.5h-1.3V35
		c0-0.4-0.1-0.6-0.2-0.8c-0.1-0.2-0.3-0.2-0.6-0.2s-0.5,0.1-0.6,0.2c-0.1,0.2-0.2,0.4-0.2,0.7v2.1h-1.3V33z"/>
	<path fill="#FFFFFF" d="M274.8,33h1.3v0.6c0.1-0.2,0.2-0.4,0.4-0.5c0.2-0.1,0.4-0.2,0.7-0.2c0.6,0,1.1,0.3,1.3,0.8
		c0.1-0.2,0.3-0.4,0.5-0.5c0.2-0.1,0.5-0.2,0.8-0.2c1,0,1.5,0.6,1.5,1.7v2.5H280v-2.3c0-0.3-0.1-0.5-0.2-0.6
		c-0.1-0.1-0.3-0.2-0.5-0.2c-0.2,0-0.4,0.1-0.5,0.2c-0.1,0.2-0.2,0.4-0.2,0.8v2.1h-1.3v-2.3c0-0.3,0-0.5-0.1-0.6
		c-0.1-0.1-0.3-0.2-0.5-0.2c-0.2,0-0.4,0.1-0.5,0.2c-0.1,0.2-0.2,0.4-0.2,0.8v2.1h-1.3V33z"/>
	<path fill="#FFFFFF" d="M286.4,35.4h-3c0,0.3,0.1,0.5,0.3,0.6s0.4,0.2,0.7,0.2c0.4,0,0.7-0.1,0.8-0.4h1.3c0,0.3-0.2,0.5-0.3,0.7
		c-0.2,0.2-0.4,0.4-0.7,0.5c-0.3,0.1-0.6,0.2-1,0.2c-0.7,0-1.2-0.2-1.6-0.6c-0.4-0.4-0.6-0.9-0.6-1.6c0-0.4,0.1-0.8,0.3-1.2
		c0.2-0.3,0.4-0.6,0.8-0.8c0.3-0.2,0.7-0.3,1.2-0.3c0.4,0,0.8,0.1,1.1,0.2c0.3,0.2,0.6,0.4,0.8,0.7s0.3,0.6,0.3,1
		C286.4,35,286.4,35.2,286.4,35.4z M285.1,34.6c0-0.3-0.1-0.5-0.2-0.6s-0.4-0.2-0.6-0.2s-0.5,0.1-0.7,0.2c-0.2,0.2-0.2,0.4-0.3,0.6
		H285.1z"/>
	<path fill="#FFFFFF" d="M287.2,33h1.3v0.6c0.1-0.2,0.3-0.4,0.5-0.5c0.2-0.1,0.5-0.2,0.8-0.2c1,0,1.5,0.6,1.5,1.7v2.5H290V35
		c0-0.4-0.1-0.6-0.2-0.8c-0.1-0.2-0.3-0.2-0.6-0.2s-0.5,0.1-0.6,0.2c-0.1,0.2-0.2,0.4-0.2,0.7v2.1h-1.3V33z"/>
	<path fill="#FFFFFF" d="M294.8,36v1c-0.2,0-0.5,0.1-0.9,0.1c-0.4,0-0.8-0.1-1-0.3c-0.3-0.2-0.4-0.6-0.4-1.2V34h-0.6v-1h0.6v-1.2
		h1.3V33h0.9v1h-0.9v1.4c0,0.3,0,0.5,0.1,0.6c0.1,0.1,0.2,0.1,0.4,0.1C294.6,36,294.7,36,294.8,36z"/>
	<path fill="#FFFFFF" d="M263.8,47.1c-0.3-0.2-0.6-0.4-0.8-0.8s-0.3-0.7-0.3-1.1s0.1-0.8,0.3-1.1c0.2-0.3,0.4-0.6,0.8-0.8
		c0.3-0.2,0.7-0.3,1.2-0.3s0.9,0.1,1.2,0.3c0.3,0.2,0.6,0.4,0.8,0.8c0.2,0.3,0.3,0.7,0.3,1.1c0,0.4-0.1,0.8-0.3,1.1
		c-0.2,0.3-0.4,0.6-0.8,0.8c-0.3,0.2-0.7,0.3-1.2,0.3S264.2,47.3,263.8,47.1z M265.7,46c0.2-0.2,0.3-0.5,0.3-0.8s-0.1-0.6-0.3-0.8
		c-0.2-0.2-0.4-0.3-0.7-0.3c-0.3,0-0.5,0.1-0.7,0.3c-0.2,0.2-0.3,0.5-0.3,0.8s0.1,0.6,0.3,0.8c0.2,0.2,0.4,0.3,0.7,0.3
		C265.3,46.3,265.6,46.2,265.7,46z"/>
	<path fill="#FFFFFF" d="M269.8,42.3c-0.1,0.1-0.2,0.2-0.2,0.4v0.4h1v1h-1v3.1h-1.3v-3.1h-0.7v-1h0.7v-0.4c0-0.6,0.2-1,0.5-1.2
		c0.3-0.2,0.7-0.3,1-0.3c0.3,0,0.5,0,0.7,0.1v0.9c-0.1,0-0.1,0-0.2,0s-0.1,0-0.2,0C270,42.2,269.9,42.3,269.8,42.3z"/>
	<path fill="#FFFFFF" d="M275.9,46.2v1c-0.3,0-0.5,0.1-0.9,0.1c-0.4,0-0.8-0.1-1-0.3c-0.3-0.2-0.4-0.6-0.4-1.2v-1.6h-0.6v-1h0.6
		v-1.2h1.3v1.2h0.9v1h-0.9v1.4c0,0.3,0,0.5,0.1,0.6c0.1,0.1,0.2,0.1,0.4,0.1C275.6,46.2,275.8,46.2,275.9,46.2z"/>
	<path fill="#FFFFFF" d="M280.7,44.7v2.5h-1.3v-2.1c0-0.4-0.1-0.6-0.2-0.8s-0.3-0.2-0.6-0.2s-0.5,0.1-0.6,0.2
		c-0.1,0.2-0.2,0.4-0.2,0.7v2.1h-1.3v-6h1.3v2.4c0.1-0.2,0.3-0.4,0.5-0.5c0.2-0.1,0.5-0.2,0.8-0.2C280.2,43.1,280.7,43.6,280.7,44.7
		z"/>
	<path fill="#FFFFFF" d="M285.8,45.6h-3c0,0.3,0.1,0.5,0.3,0.6s0.4,0.2,0.7,0.2c0.4,0,0.7-0.1,0.8-0.4h1.3c0,0.3-0.2,0.5-0.3,0.7
		c-0.2,0.2-0.4,0.4-0.7,0.5s-0.6,0.2-1,0.2c-0.7,0-1.2-0.2-1.6-0.6c-0.4-0.4-0.6-0.9-0.6-1.6c0-0.4,0.1-0.8,0.3-1.2s0.4-0.6,0.8-0.8
		c0.3-0.2,0.7-0.3,1.2-0.3c0.4,0,0.8,0.1,1.1,0.2c0.3,0.2,0.6,0.4,0.8,0.7c0.2,0.3,0.3,0.6,0.3,1C285.8,45.2,285.8,45.4,285.8,45.6z
		 M284.5,44.8c0-0.3-0.1-0.5-0.2-0.6c-0.1-0.1-0.4-0.2-0.6-0.2c-0.3,0-0.5,0.1-0.7,0.2c-0.2,0.2-0.2,0.4-0.3,0.6H284.5z"/>
	<path fill="#FFFFFF" d="M249.8,57.3c-0.3-0.2-0.6-0.4-0.8-0.8c-0.2-0.3-0.3-0.7-0.3-1.1c0-0.4,0.1-0.8,0.3-1.1
		c0.2-0.3,0.4-0.6,0.8-0.8c0.3-0.2,0.7-0.3,1.2-0.3s0.9,0.1,1.2,0.3c0.3,0.2,0.6,0.4,0.8,0.8c0.2,0.3,0.3,0.7,0.3,1.1
		c0,0.4-0.1,0.8-0.3,1.1c-0.2,0.3-0.4,0.6-0.8,0.8c-0.3,0.2-0.7,0.3-1.2,0.3S250.1,57.5,249.8,57.3z M251.7,56.2
		c0.2-0.2,0.3-0.5,0.3-0.8s-0.1-0.6-0.3-0.8c-0.2-0.2-0.4-0.3-0.7-0.3c-0.3,0-0.5,0.1-0.7,0.3c-0.2,0.2-0.3,0.5-0.3,0.8
		s0.1,0.6,0.3,0.8c0.2,0.2,0.4,0.3,0.7,0.3C251.3,56.5,251.5,56.4,251.7,56.2z"/>
	<path fill="#FFFFFF" d="M254,53.4h1.3v0.9c0.1-0.3,0.2-0.5,0.4-0.7s0.4-0.2,0.7-0.2c0.1,0,0.2,0,0.3,0v1.2c-0.2,0-0.3,0-0.4,0
		c-0.3,0-0.6,0.1-0.8,0.3c-0.2,0.2-0.3,0.6-0.3,1v1.6H254V53.4z"/>
	<path fill="#FFFFFF" d="M261.6,53.4v3.8c0,0.4-0.1,0.7-0.2,1c-0.1,0.3-0.3,0.5-0.6,0.7c-0.3,0.2-0.8,0.4-1.5,0.4
		c-0.6,0-1.1-0.1-1.5-0.3c-0.2-0.1-0.4-0.3-0.5-0.5c-0.1-0.2-0.2-0.4-0.2-0.6h1.3c0,0.2,0.1,0.3,0.3,0.4s0.3,0.1,0.6,0.1
		c0.3,0,0.6-0.1,0.7-0.2c0.2-0.2,0.2-0.4,0.2-0.8v-0.5c-0.1,0.2-0.3,0.4-0.5,0.5s-0.5,0.2-0.8,0.2c-0.4,0-0.7-0.1-1-0.3
		s-0.5-0.4-0.7-0.7s-0.2-0.7-0.2-1.1s0.1-0.8,0.2-1.1c0.2-0.3,0.4-0.6,0.7-0.8c0.3-0.2,0.6-0.3,1-0.3c0.3,0,0.5,0.1,0.8,0.2
		c0.2,0.1,0.4,0.3,0.5,0.5v-0.6H261.6z M260.1,56.2c0.2-0.2,0.3-0.5,0.3-0.8c0-0.3-0.1-0.6-0.3-0.8s-0.4-0.3-0.7-0.3
		c-0.3,0-0.5,0.1-0.7,0.3c-0.2,0.2-0.3,0.5-0.3,0.8s0.1,0.6,0.3,0.8c0.2,0.2,0.4,0.3,0.7,0.3C259.7,56.5,259.9,56.4,260.1,56.2z"/>
	<path fill="#FFFFFF" d="M263.3,57.3c-0.3-0.2-0.5-0.4-0.7-0.8c-0.2-0.3-0.2-0.7-0.2-1.1c0-0.4,0.1-0.8,0.2-1.1
		c0.2-0.3,0.4-0.6,0.7-0.8c0.3-0.2,0.6-0.3,1-0.3c0.3,0,0.5,0.1,0.8,0.2s0.4,0.3,0.5,0.5v-0.6h1.3v4.1h-1.3v-0.6
		c-0.1,0.2-0.3,0.4-0.5,0.5c-0.2,0.1-0.5,0.2-0.8,0.2C263.9,57.6,263.6,57.5,263.3,57.3z M265.4,56.2c0.2-0.2,0.3-0.5,0.3-0.8
		c0-0.3-0.1-0.6-0.3-0.8s-0.4-0.3-0.7-0.3c-0.3,0-0.5,0.1-0.7,0.3c-0.2,0.2-0.3,0.5-0.3,0.8s0.1,0.6,0.3,0.8
		c0.2,0.2,0.4,0.3,0.7,0.3C265,56.5,265.2,56.4,265.4,56.2z"/>
	<path fill="#FFFFFF" d="M268,53.4h1.3V54c0.1-0.2,0.3-0.4,0.5-0.5s0.5-0.2,0.8-0.2c1,0,1.5,0.6,1.5,1.7v2.5h-1.3v-2.1
		c0-0.4-0.1-0.6-0.2-0.8c-0.1-0.2-0.3-0.2-0.6-0.2s-0.5,0.1-0.6,0.2c-0.1,0.2-0.2,0.4-0.2,0.7v2.1H268V53.4z"/>
	<path fill="#FFFFFF" d="M273.2,52.8c-0.2-0.2-0.2-0.3-0.2-0.6c0-0.2,0.1-0.4,0.2-0.6c0.2-0.2,0.3-0.2,0.6-0.2s0.4,0.1,0.6,0.2
		c0.2,0.2,0.2,0.3,0.2,0.6c0,0.2-0.1,0.4-0.2,0.6c-0.2,0.2-0.3,0.2-0.6,0.2S273.4,52.9,273.2,52.8z M273.1,53.4h1.3v4.1h-1.3V53.4z"
		/>
	<path fill="#FFFFFF" d="M277,54.4h-1.8v-1.1h3.8l-2,3h1.8v1.1H275L277,54.4z"/>
	<path fill="#FFFFFF" d="M280,57.3c-0.3-0.2-0.5-0.4-0.7-0.8c-0.2-0.3-0.2-0.7-0.2-1.1c0-0.4,0.1-0.8,0.2-1.1
		c0.2-0.3,0.4-0.6,0.7-0.8c0.3-0.2,0.6-0.3,1-0.3c0.3,0,0.5,0.1,0.8,0.2s0.4,0.3,0.5,0.5v-0.6h1.3v4.1h-1.3v-0.6
		c-0.1,0.2-0.3,0.4-0.5,0.5c-0.2,0.1-0.5,0.2-0.8,0.2C280.7,57.6,280.3,57.5,280,57.3z M282.2,56.2c0.2-0.2,0.3-0.5,0.3-0.8
		c0-0.3-0.1-0.6-0.3-0.8s-0.4-0.3-0.7-0.3c-0.3,0-0.5,0.1-0.7,0.3s-0.3,0.5-0.3,0.8s0.1,0.6,0.3,0.8s0.4,0.3,0.7,0.3
		C281.8,56.5,282,56.4,282.2,56.2z"/>
	<path fill="#FFFFFF" d="M287.3,56.4v1c-0.2,0-0.5,0.1-0.9,0.1c-0.4,0-0.8-0.1-1-0.3c-0.3-0.2-0.4-0.6-0.4-1.2v-1.6h-0.6v-1h0.6
		v-1.2h1.3v1.2h0.9v1h-0.9v1.4c0,0.3,0,0.5,0.1,0.6c0.1,0.1,0.2,0.1,0.4,0.1C287.1,56.4,287.2,56.4,287.3,56.4z"/>
	<path fill="#FFFFFF" d="M288.2,52.8c-0.2-0.2-0.2-0.3-0.2-0.6c0-0.2,0.1-0.4,0.2-0.6c0.1-0.2,0.3-0.2,0.6-0.2s0.4,0.1,0.6,0.2
		c0.2,0.2,0.2,0.3,0.2,0.6c0,0.2-0.1,0.4-0.2,0.6c-0.2,0.2-0.3,0.2-0.6,0.2S288.3,52.9,288.2,52.8z M288.1,53.4h1.3v4.1h-1.3V53.4z"
		/>
	<path fill="#FFFFFF" d="M291.2,57.3c-0.3-0.2-0.6-0.4-0.8-0.8c-0.2-0.3-0.3-0.7-0.3-1.1c0-0.4,0.1-0.8,0.3-1.1
		c0.2-0.3,0.4-0.6,0.8-0.8c0.3-0.2,0.7-0.3,1.2-0.3s0.9,0.1,1.2,0.3c0.3,0.2,0.6,0.4,0.8,0.8c0.2,0.3,0.3,0.7,0.3,1.1
		c0,0.4-0.1,0.8-0.3,1.1c-0.2,0.3-0.4,0.6-0.8,0.8c-0.3,0.2-0.7,0.3-1.2,0.3S291.6,57.5,291.2,57.3z M293.1,56.2
		c0.2-0.2,0.3-0.5,0.3-0.8s-0.1-0.6-0.3-0.8c-0.2-0.2-0.4-0.3-0.7-0.3c-0.3,0-0.5,0.1-0.7,0.3s-0.3,0.5-0.3,0.8s0.1,0.6,0.3,0.8
		c0.2,0.2,0.4,0.3,0.7,0.3C292.7,56.5,293,56.4,293.1,56.2z"/>
	<path fill="#FFFFFF" d="M295.4,53.4h1.3V54c0.1-0.2,0.3-0.4,0.5-0.5s0.5-0.2,0.8-0.2c1,0,1.5,0.6,1.5,1.7v2.5h-1.3v-2.1
		c0-0.4-0.1-0.6-0.2-0.8c-0.1-0.2-0.3-0.2-0.6-0.2s-0.5,0.1-0.6,0.2c-0.1,0.2-0.2,0.4-0.2,0.7v2.1h-1.3V53.4z"/>
</g>
<circle fill="#21ADE3" cx="388.5" cy="44.4" r="41.8"/>
<g>
	<path fill="#FFFFFF" d="M370.6,31.7h3.6v1.2H372v1.6h2.3v1.1H372v2.1h-1.4V31.7z"/>
	<path fill="#FFFFFF" d="M375.9,37.5c-0.3-0.2-0.6-0.4-0.8-0.8c-0.2-0.3-0.3-0.7-0.3-1.1s0.1-0.8,0.3-1.1c0.2-0.3,0.4-0.6,0.8-0.8
		c0.3-0.2,0.7-0.3,1.2-0.3s0.9,0.1,1.2,0.3s0.6,0.4,0.8,0.8c0.2,0.3,0.3,0.7,0.3,1.1c0,0.4-0.1,0.8-0.3,1.1
		c-0.2,0.3-0.4,0.6-0.8,0.8s-0.7,0.3-1.2,0.3S376.3,37.7,375.9,37.5z M377.8,36.4c0.2-0.2,0.3-0.5,0.3-0.8s-0.1-0.6-0.3-0.8
		c-0.2-0.2-0.4-0.3-0.7-0.3c-0.3,0-0.5,0.1-0.7,0.3c-0.2,0.2-0.3,0.5-0.3,0.8s0.1,0.6,0.3,0.8s0.4,0.3,0.7,0.3
		C377.4,36.7,377.7,36.6,377.8,36.4z"/>
	<path fill="#FFFFFF" d="M381,37.5c-0.3-0.2-0.6-0.4-0.8-0.8c-0.2-0.3-0.3-0.7-0.3-1.1s0.1-0.8,0.3-1.1c0.2-0.3,0.4-0.6,0.8-0.8
		c0.3-0.2,0.7-0.3,1.2-0.3c0.6,0,1.1,0.1,1.5,0.5c0.4,0.3,0.6,0.7,0.6,1.2H383c0-0.2-0.1-0.3-0.3-0.4c-0.1-0.1-0.3-0.1-0.5-0.1
		c-0.3,0-0.5,0.1-0.7,0.3c-0.2,0.2-0.2,0.5-0.2,0.8c0,0.3,0.1,0.6,0.2,0.8c0.2,0.2,0.4,0.3,0.7,0.3c0.2,0,0.4,0,0.5-0.1
		c0.1-0.1,0.2-0.2,0.3-0.4h1.3c-0.1,0.5-0.3,0.9-0.6,1.2s-0.9,0.4-1.5,0.4C381.7,37.8,381.3,37.7,381,37.5z"/>
	<path fill="#FFFFFF" d="M385.4,37.3c-0.3-0.3-0.4-0.7-0.4-1.2v-2.5h1.3v2.2c0,0.3,0.1,0.5,0.2,0.7c0.1,0.1,0.3,0.2,0.5,0.2
		c0.3,0,0.5-0.1,0.6-0.2c0.1-0.2,0.2-0.4,0.2-0.7v-2.2h1.3v4.1h-1.3v-0.6c-0.1,0.2-0.3,0.4-0.5,0.5c-0.2,0.1-0.5,0.2-0.8,0.2
		C386,37.8,385.6,37.6,385.4,37.3z"/>
	<path fill="#FFFFFF" d="M390.8,37.6c-0.3-0.1-0.5-0.3-0.7-0.5c-0.2-0.2-0.2-0.4-0.2-0.7h1.3c0,0.1,0.1,0.3,0.2,0.3
		c0.1,0.1,0.3,0.1,0.5,0.1c0.1,0,0.3,0,0.3-0.1c0.1-0.1,0.1-0.2,0.1-0.3c0-0.2-0.1-0.3-0.3-0.3l-1-0.3c-0.3-0.1-0.6-0.2-0.8-0.4
		c-0.2-0.2-0.3-0.5-0.3-0.7c0-0.4,0.2-0.7,0.5-0.9c0.3-0.2,0.7-0.4,1.3-0.4c0.6,0,1,0.1,1.4,0.3s0.5,0.5,0.5,0.9h-1.3
		c0-0.1,0-0.3-0.1-0.3c-0.1-0.1-0.2-0.1-0.4-0.1c-0.1,0-0.3,0-0.3,0.1s-0.1,0.1-0.1,0.2c0,0.2,0.1,0.3,0.3,0.4l1,0.3
		c0.3,0.1,0.6,0.2,0.8,0.4c0.2,0.2,0.3,0.4,0.3,0.7c0,0.4-0.2,0.8-0.5,1s-0.8,0.4-1.3,0.4C391.4,37.8,391.1,37.7,390.8,37.6z"/>
	<path fill="#FFFFFF" d="M397.2,37.5c-0.3-0.2-0.6-0.4-0.8-0.8c-0.2-0.3-0.3-0.7-0.3-1.1s0.1-0.8,0.3-1.1c0.2-0.3,0.4-0.6,0.8-0.8
		s0.7-0.3,1.2-0.3s0.9,0.1,1.2,0.3c0.3,0.2,0.6,0.4,0.8,0.8s0.3,0.7,0.3,1.1c0,0.4-0.1,0.8-0.3,1.1s-0.4,0.6-0.8,0.8
		c-0.3,0.2-0.7,0.3-1.2,0.3S397.5,37.7,397.2,37.5z M399.1,36.4c0.2-0.2,0.3-0.5,0.3-0.8s-0.1-0.6-0.3-0.8c-0.2-0.2-0.4-0.3-0.7-0.3
		c-0.3,0-0.5,0.1-0.7,0.3c-0.2,0.2-0.3,0.5-0.3,0.8s0.1,0.6,0.3,0.8c0.2,0.2,0.4,0.3,0.7,0.3C398.7,36.7,398.9,36.6,399.1,36.4z"/>
	<path fill="#FFFFFF" d="M401.4,33.6h1.3v0.6c0.1-0.2,0.3-0.4,0.5-0.5c0.2-0.1,0.5-0.2,0.8-0.2c1,0,1.5,0.6,1.5,1.7v2.5h-1.3v-2.1
		c0-0.4-0.1-0.6-0.2-0.8c-0.1-0.2-0.3-0.2-0.6-0.2s-0.5,0.1-0.6,0.2c-0.1,0.2-0.2,0.4-0.2,0.7v2.1h-1.3V33.6z"/>
	<path fill="#FFFFFF" d="M373.6,47.6c-0.5-0.3-0.9-0.6-1.1-1.1c-0.3-0.5-0.4-1-0.4-1.6c0-0.6,0.1-1.1,0.4-1.6
		c0.3-0.5,0.6-0.8,1.1-1.1s1-0.4,1.7-0.4c0.6,0,1.1,0.1,1.5,0.3c0.4,0.2,0.8,0.5,1,0.8c0.3,0.4,0.4,0.8,0.5,1.2h-1.5
		c-0.1-0.3-0.3-0.6-0.5-0.8c-0.3-0.2-0.6-0.3-1-0.3c-0.6,0-1,0.2-1.3,0.5s-0.5,0.8-0.5,1.4s0.2,1.1,0.5,1.4s0.7,0.5,1.3,0.5
		c0.4,0,0.8-0.1,1-0.3c0.3-0.2,0.4-0.5,0.5-0.8h1.5c-0.1,0.5-0.2,0.9-0.5,1.2c-0.3,0.4-0.6,0.6-1,0.8c-0.4,0.2-0.9,0.3-1.5,0.3
		C374.6,48,374.1,47.9,373.6,47.6z"/>
	<path fill="#FFFFFF" d="M383.2,45.3v2.5h-1.3v-2.1c0-0.4-0.1-0.6-0.2-0.8s-0.3-0.2-0.6-0.2s-0.5,0.1-0.6,0.2
		c-0.1,0.2-0.2,0.4-0.2,0.7v2.1H379v-6h1.3v2.4c0.1-0.2,0.3-0.4,0.5-0.5c0.2-0.1,0.5-0.2,0.8-0.2C382.7,43.6,383.2,44.2,383.2,45.3z
		"/>
	<path fill="#FFFFFF" d="M384.8,47.7c-0.3-0.2-0.5-0.4-0.7-0.8c-0.2-0.3-0.2-0.7-0.2-1.1c0-0.4,0.1-0.8,0.2-1.1
		c0.2-0.3,0.4-0.6,0.7-0.8c0.3-0.2,0.6-0.3,1-0.3c0.3,0,0.5,0.1,0.8,0.2s0.4,0.3,0.5,0.5v-0.6h1.3v4.1h-1.3v-0.6
		c-0.1,0.2-0.3,0.4-0.5,0.5c-0.2,0.1-0.5,0.2-0.8,0.2C385.4,48,385.1,47.9,384.8,47.7z M386.9,46.6c0.2-0.2,0.3-0.5,0.3-0.8
		c0-0.3-0.1-0.6-0.3-0.8s-0.4-0.3-0.7-0.3c-0.3,0-0.5,0.1-0.7,0.3c-0.2,0.2-0.3,0.5-0.3,0.8s0.1,0.6,0.3,0.8
		c0.2,0.2,0.4,0.3,0.7,0.3C386.5,46.9,386.8,46.8,386.9,46.6z"/>
	<path fill="#FFFFFF" d="M389.5,43.8h1.3v0.6c0.1-0.2,0.3-0.4,0.5-0.5c0.2-0.1,0.5-0.2,0.8-0.2c1,0,1.5,0.6,1.5,1.7v2.5h-1.3v-2.1
		c0-0.4-0.1-0.6-0.2-0.8c-0.1-0.2-0.3-0.2-0.6-0.2s-0.5,0.1-0.6,0.2c-0.1,0.2-0.2,0.4-0.2,0.7v2.1h-1.3V43.8z"/>
	<path fill="#FFFFFF" d="M398.9,43.8v3.8c0,0.4-0.1,0.7-0.2,1c-0.1,0.3-0.3,0.5-0.6,0.7c-0.3,0.2-0.8,0.4-1.5,0.4
		c-0.6,0-1.1-0.1-1.5-0.3c-0.2-0.1-0.4-0.3-0.5-0.5s-0.2-0.4-0.2-0.6h1.3c0,0.2,0.1,0.3,0.3,0.4c0.1,0.1,0.3,0.1,0.6,0.1
		c0.3,0,0.6-0.1,0.7-0.2s0.2-0.4,0.2-0.8v-0.5c-0.1,0.2-0.3,0.4-0.5,0.5c-0.2,0.1-0.5,0.2-0.8,0.2c-0.4,0-0.7-0.1-1-0.3
		c-0.3-0.2-0.5-0.4-0.7-0.7c-0.2-0.3-0.2-0.7-0.2-1.1s0.1-0.8,0.2-1.1c0.2-0.3,0.4-0.6,0.7-0.8c0.3-0.2,0.6-0.3,1-0.3
		c0.3,0,0.5,0.1,0.8,0.2s0.4,0.3,0.5,0.5v-0.6H398.9z M397.4,46.5c0.2-0.2,0.3-0.5,0.3-0.8c0-0.3-0.1-0.6-0.3-0.8s-0.4-0.3-0.7-0.3
		c-0.3,0-0.5,0.1-0.7,0.3c-0.2,0.2-0.3,0.5-0.3,0.8c0,0.3,0.1,0.6,0.3,0.8c0.2,0.2,0.4,0.3,0.7,0.3C397,46.9,397.2,46.7,397.4,46.5z
		"/>
	<path fill="#FFFFFF" d="M404,46.2h-3c0,0.3,0.1,0.5,0.3,0.6s0.4,0.2,0.7,0.2c0.4,0,0.7-0.1,0.8-0.4h1.3c0,0.3-0.2,0.5-0.3,0.7
		c-0.2,0.2-0.4,0.4-0.7,0.5c-0.3,0.1-0.6,0.2-1,0.2c-0.7,0-1.2-0.2-1.6-0.6c-0.4-0.4-0.6-0.9-0.6-1.6c0-0.4,0.1-0.8,0.3-1.2
		c0.2-0.3,0.4-0.6,0.8-0.8c0.3-0.2,0.7-0.3,1.2-0.3c0.4,0,0.8,0.1,1.1,0.2c0.3,0.2,0.6,0.4,0.8,0.7s0.3,0.6,0.3,1
		C404,45.8,404,46,404,46.2z M402.7,45.4c0-0.3-0.1-0.5-0.2-0.6s-0.4-0.2-0.6-0.2s-0.5,0.1-0.7,0.2c-0.2,0.2-0.2,0.4-0.3,0.6H402.7z
		"/>
	<path fill="#FFFFFF" d="M361.6,52.1h1.6l1.6,4.2l1.6-4.2h1.6v5.9h-1.3v-3.9l-1.3,3.9h-1l-1.4-3.9v3.9h-1.3V52.1z"/>
	<path fill="#FFFFFF" d="M369.6,57.9c-0.3-0.2-0.5-0.4-0.7-0.8c-0.2-0.3-0.2-0.7-0.2-1.1c0-0.4,0.1-0.8,0.2-1.1
		c0.2-0.3,0.4-0.6,0.7-0.8c0.3-0.2,0.6-0.3,1-0.3c0.3,0,0.5,0.1,0.8,0.2s0.4,0.3,0.5,0.5V54h1.3v4.1h-1.3v-0.6
		c-0.1,0.2-0.3,0.4-0.5,0.5c-0.2,0.1-0.5,0.2-0.8,0.2C370.2,58.2,369.9,58.1,369.6,57.9z M371.7,56.8c0.2-0.2,0.3-0.5,0.3-0.8
		c0-0.3-0.1-0.6-0.3-0.8s-0.4-0.3-0.7-0.3c-0.3,0-0.5,0.1-0.7,0.3S370,55.7,370,56s0.1,0.6,0.3,0.8s0.4,0.3,0.7,0.3
		C371.3,57.1,371.6,57,371.7,56.8z"/>
	<path fill="#FFFFFF" d="M374.3,54h1.3v0.6c0.1-0.2,0.3-0.4,0.5-0.5s0.5-0.2,0.8-0.2c1,0,1.5,0.6,1.5,1.7v2.5h-1.3v-2.1
		c0-0.4-0.1-0.6-0.2-0.8c-0.1-0.2-0.3-0.2-0.6-0.2s-0.5,0.1-0.6,0.2c-0.1,0.2-0.2,0.4-0.2,0.7v2.1h-1.3V54z"/>
	<path fill="#FFFFFF" d="M380.1,57.9c-0.3-0.2-0.5-0.4-0.7-0.8c-0.2-0.3-0.2-0.7-0.2-1.1c0-0.4,0.1-0.8,0.2-1.1
		c0.2-0.3,0.4-0.6,0.7-0.8c0.3-0.2,0.6-0.3,1-0.3c0.3,0,0.5,0.1,0.8,0.2s0.4,0.3,0.5,0.5V54h1.3v4.1h-1.3v-0.6
		c-0.1,0.2-0.3,0.4-0.5,0.5c-0.2,0.1-0.5,0.2-0.8,0.2C380.7,58.2,380.4,58.1,380.1,57.9z M382.2,56.8c0.2-0.2,0.3-0.5,0.3-0.8
		c0-0.3-0.1-0.6-0.3-0.8s-0.4-0.3-0.7-0.3c-0.3,0-0.5,0.1-0.7,0.3c-0.2,0.2-0.3,0.5-0.3,0.8s0.1,0.6,0.3,0.8
		c0.2,0.2,0.4,0.3,0.7,0.3C381.8,57.1,382,57,382.2,56.8z"/>
	<path fill="#FFFFFF" d="M389,54v3.8c0,0.4-0.1,0.7-0.2,1c-0.1,0.3-0.3,0.5-0.6,0.7c-0.3,0.2-0.8,0.4-1.5,0.4
		c-0.6,0-1.1-0.1-1.5-0.3c-0.2-0.1-0.4-0.3-0.5-0.5c-0.1-0.2-0.2-0.4-0.2-0.6h1.3c0,0.2,0.1,0.3,0.3,0.4s0.3,0.1,0.6,0.1
		c0.3,0,0.6-0.1,0.7-0.2c0.2-0.2,0.2-0.4,0.2-0.8v-0.5c-0.1,0.2-0.3,0.4-0.5,0.5c-0.2,0.1-0.5,0.2-0.8,0.2c-0.4,0-0.7-0.1-1-0.3
		c-0.3-0.2-0.5-0.4-0.7-0.7c-0.2-0.3-0.2-0.7-0.2-1.1s0.1-0.8,0.2-1.1s0.4-0.6,0.7-0.8c0.3-0.2,0.6-0.3,1-0.3c0.3,0,0.5,0.1,0.8,0.2
		c0.2,0.1,0.4,0.3,0.5,0.5V54H389z M387.5,56.7c0.2-0.2,0.3-0.5,0.3-0.8c0-0.3-0.1-0.6-0.3-0.8s-0.4-0.3-0.7-0.3
		c-0.3,0-0.5,0.1-0.7,0.3s-0.3,0.5-0.3,0.8s0.1,0.6,0.3,0.8s0.4,0.3,0.7,0.3C387.1,57.1,387.3,56.9,387.5,56.7z"/>
	<path fill="#FFFFFF" d="M394.1,56.4h-3c0,0.3,0.1,0.5,0.3,0.6s0.4,0.2,0.7,0.2c0.4,0,0.7-0.1,0.8-0.4h1.3c0,0.3-0.2,0.5-0.3,0.7
		c-0.2,0.2-0.4,0.4-0.7,0.5s-0.6,0.2-1,0.2c-0.7,0-1.2-0.2-1.6-0.6c-0.4-0.4-0.6-0.9-0.6-1.6c0-0.4,0.1-0.8,0.3-1.2s0.4-0.6,0.8-0.8
		c0.3-0.2,0.7-0.3,1.2-0.3c0.4,0,0.8,0.1,1.1,0.2c0.3,0.2,0.6,0.4,0.8,0.7c0.2,0.3,0.3,0.6,0.3,1C394.1,56,394.1,56.2,394.1,56.4z
		 M392.8,55.6c0-0.3-0.1-0.5-0.2-0.6c-0.1-0.1-0.4-0.2-0.6-0.2c-0.3,0-0.5,0.1-0.7,0.2c-0.2,0.2-0.2,0.4-0.3,0.6H392.8z"/>
	<path fill="#FFFFFF" d="M394.9,54h1.3v0.6c0.1-0.2,0.2-0.4,0.4-0.5c0.2-0.1,0.4-0.2,0.7-0.2c0.6,0,1.1,0.3,1.3,0.8
		c0.1-0.2,0.3-0.4,0.5-0.5s0.5-0.2,0.8-0.2c1,0,1.5,0.6,1.5,1.7v2.5h-1.3v-2.3c0-0.3-0.1-0.5-0.2-0.6c-0.1-0.1-0.3-0.2-0.5-0.2
		c-0.2,0-0.4,0.1-0.5,0.2s-0.2,0.4-0.2,0.8v2.1h-1.3v-2.3c0-0.3,0-0.5-0.1-0.6c-0.1-0.1-0.3-0.2-0.5-0.2c-0.2,0-0.4,0.1-0.5,0.2
		s-0.2,0.4-0.2,0.8v2.1h-1.3V54z"/>
	<path fill="#FFFFFF" d="M406.4,56.4h-3c0,0.3,0.1,0.5,0.3,0.6s0.4,0.2,0.7,0.2c0.4,0,0.7-0.1,0.8-0.4h1.3c0,0.3-0.2,0.5-0.3,0.7
		c-0.2,0.2-0.4,0.4-0.7,0.5c-0.3,0.1-0.6,0.2-1,0.2c-0.7,0-1.2-0.2-1.6-0.6c-0.4-0.4-0.6-0.9-0.6-1.6c0-0.4,0.1-0.8,0.3-1.2
		c0.2-0.3,0.4-0.6,0.8-0.8c0.3-0.2,0.7-0.3,1.2-0.3c0.4,0,0.8,0.1,1.1,0.2c0.3,0.2,0.6,0.4,0.8,0.7c0.2,0.3,0.3,0.6,0.3,1
		C406.4,56,406.4,56.2,406.4,56.4z M405.2,55.6c0-0.3-0.1-0.5-0.2-0.6s-0.4-0.2-0.6-0.2s-0.5,0.1-0.7,0.2c-0.2,0.2-0.2,0.4-0.3,0.6
		H405.2z"/>
	<path fill="#FFFFFF" d="M407.2,54h1.3v0.6c0.1-0.2,0.3-0.4,0.5-0.5s0.5-0.2,0.8-0.2c1,0,1.5,0.6,1.5,1.7v2.5H410v-2.1
		c0-0.4-0.1-0.6-0.2-0.8c-0.1-0.2-0.3-0.2-0.6-0.2s-0.5,0.1-0.6,0.2c-0.1,0.2-0.2,0.4-0.2,0.7v2.1h-1.3V54z"/>
	<path fill="#FFFFFF" d="M414.9,57v1c-0.2,0-0.5,0.1-0.9,0.1c-0.4,0-0.8-0.1-1-0.3c-0.3-0.2-0.4-0.6-0.4-1.2V55h-0.6v-1h0.6v-1.2
		h1.3V54h0.9v1h-0.9v1.4c0,0.3,0,0.5,0.1,0.6c0.1,0.1,0.2,0.1,0.4,0.1C414.6,57,414.7,57,414.9,57z"/>
</g>
<circle fill="#21ADE3" cx="502.4" cy="44.4" r="41.8"/>
<g>
	<path fill="#FFFFFF" d="M482.2,24.2c-0.5-0.3-0.8-0.7-1.1-1.1c-0.3-0.5-0.4-1-0.4-1.6c0-0.6,0.1-1.1,0.4-1.6s0.6-0.9,1.1-1.1
		c0.5-0.3,1-0.4,1.7-0.4c0.6,0,1.2,0.1,1.7,0.4c0.5,0.3,0.8,0.7,1.1,1.1s0.4,1,0.4,1.6c0,0.6-0.1,1.1-0.4,1.6
		c-0.3,0.5-0.6,0.9-1.1,1.1c-0.5,0.3-1,0.4-1.7,0.4C483.3,24.6,482.7,24.5,482.2,24.2z M484.9,23.2c0.3-0.2,0.5-0.4,0.6-0.7
		s0.2-0.6,0.2-1c0-0.4-0.1-0.7-0.2-1c-0.1-0.3-0.3-0.5-0.6-0.7c-0.3-0.2-0.6-0.3-0.9-0.3c-0.4,0-0.7,0.1-0.9,0.3
		c-0.3,0.2-0.5,0.4-0.6,0.7c-0.1,0.3-0.2,0.6-0.2,1c0,0.4,0.1,0.7,0.2,1c0.1,0.3,0.3,0.5,0.6,0.7s0.6,0.3,0.9,0.3
		C484.3,23.4,484.6,23.3,484.9,23.2z"/>
	<path fill="#FFFFFF" d="M491.5,20.5c0.3,0.2,0.5,0.4,0.7,0.8c0.2,0.3,0.2,0.7,0.2,1.1c0,0.4-0.1,0.8-0.2,1.1
		c-0.2,0.3-0.4,0.6-0.7,0.8c-0.3,0.2-0.6,0.3-1,0.3c-0.3,0-0.6-0.1-0.8-0.2c-0.2-0.1-0.4-0.3-0.5-0.5v2.3h-1.3v-5.8h1.3V21
		c0.1-0.2,0.3-0.4,0.5-0.5c0.2-0.1,0.5-0.2,0.8-0.2C490.9,20.3,491.2,20.4,491.5,20.5z M490.8,23.2c0.2-0.2,0.3-0.5,0.3-0.8
		s-0.1-0.6-0.3-0.8c-0.2-0.2-0.4-0.3-0.7-0.3c-0.3,0-0.5,0.1-0.7,0.3c-0.2,0.2-0.3,0.5-0.3,0.8c0,0.3,0.1,0.6,0.3,0.8
		c0.2,0.2,0.4,0.3,0.7,0.3C490.4,23.5,490.6,23.4,490.8,23.2z"/>
	<path fill="#FFFFFF" d="M495.8,23.4v1c-0.3,0-0.5,0.1-0.9,0.1c-0.4,0-0.8-0.1-1-0.3c-0.3-0.2-0.4-0.6-0.4-1.2v-1.6h-0.6v-1h0.6
		v-1.2h1.3v1.2h0.9v1h-0.9v1.4c0,0.3,0,0.5,0.1,0.6c0.1,0.1,0.2,0.1,0.4,0.1C495.5,23.5,495.6,23.4,495.8,23.4z"/>
	<path fill="#FFFFFF" d="M496.6,19.8c-0.2-0.2-0.2-0.3-0.2-0.6c0-0.2,0.1-0.4,0.2-0.6s0.3-0.2,0.6-0.2s0.4,0.1,0.6,0.2
		c0.2,0.2,0.2,0.3,0.2,0.6c0,0.2-0.1,0.4-0.2,0.6c-0.2,0.2-0.3,0.2-0.6,0.2S496.7,19.9,496.6,19.8z M496.5,20.4h1.3v4.1h-1.3V20.4z"
		/>
	<path fill="#FFFFFF" d="M498.9,20.4h1.3V21c0.1-0.2,0.2-0.4,0.4-0.5c0.2-0.1,0.4-0.2,0.7-0.2c0.6,0,1.1,0.3,1.3,0.8
		c0.1-0.2,0.3-0.4,0.5-0.5c0.2-0.1,0.5-0.2,0.8-0.2c1,0,1.5,0.6,1.5,1.7v2.5h-1.3v-2.3c0-0.3-0.1-0.5-0.2-0.6s-0.3-0.2-0.5-0.2
		c-0.2,0-0.4,0.1-0.5,0.2c-0.1,0.2-0.2,0.4-0.2,0.8v2.1h-1.3v-2.3c0-0.3,0-0.5-0.1-0.6c-0.1-0.1-0.3-0.2-0.5-0.2
		c-0.2,0-0.4,0.1-0.5,0.2c-0.1,0.2-0.2,0.4-0.2,0.8v2.1h-1.3V20.4z"/>
	<path fill="#FFFFFF" d="M506.5,19.8c-0.2-0.2-0.2-0.3-0.2-0.6c0-0.2,0.1-0.4,0.2-0.6c0.1-0.2,0.3-0.2,0.6-0.2s0.4,0.1,0.6,0.2
		c0.2,0.2,0.2,0.3,0.2,0.6c0,0.2-0.1,0.4-0.2,0.6c-0.2,0.2-0.3,0.2-0.6,0.2S506.7,19.9,506.5,19.8z M506.4,20.4h1.3v4.1h-1.3V20.4z"
		/>
	<path fill="#FFFFFF" d="M510.3,21.5h-1.8v-1.1h3.8l-2,3h1.8v1.1h-3.8L510.3,21.5z"/>
	<path fill="#FFFFFF" d="M516.7,22.8h-3c0,0.3,0.1,0.5,0.3,0.6s0.4,0.2,0.7,0.2c0.4,0,0.7-0.1,0.8-0.4h1.3c0,0.3-0.2,0.5-0.3,0.7
		c-0.2,0.2-0.4,0.4-0.7,0.5c-0.3,0.1-0.6,0.2-1,0.2c-0.7,0-1.2-0.2-1.6-0.6c-0.4-0.4-0.6-0.9-0.6-1.6c0-0.4,0.1-0.8,0.3-1.2
		c0.2-0.3,0.4-0.6,0.8-0.8c0.3-0.2,0.7-0.3,1.2-0.3c0.4,0,0.8,0.1,1.1,0.2c0.3,0.2,0.6,0.4,0.8,0.7s0.3,0.6,0.3,1
		C516.7,22.4,516.7,22.6,516.7,22.8z M515.5,22c0-0.3-0.1-0.5-0.2-0.6s-0.4-0.2-0.6-0.2s-0.5,0.1-0.7,0.2c-0.2,0.2-0.2,0.4-0.3,0.6
		H515.5z"/>
	<path fill="#FFFFFF" d="M521.8,20.6L521.8,20.6l0,3.9h-1.3v-0.6c-0.1,0.2-0.3,0.4-0.5,0.5s-0.5,0.2-0.8,0.2c-0.4,0-0.7-0.1-1-0.3
		s-0.5-0.4-0.7-0.8c-0.2-0.3-0.2-0.7-0.2-1.1c0-0.4,0.1-0.8,0.2-1.1c0.2-0.3,0.4-0.6,0.7-0.8c0.3-0.2,0.6-0.3,1-0.3
		c0.3,0,0.5,0.1,0.8,0.2s0.4,0.3,0.5,0.5v-2.4h1.3V20.6z M520.3,23.2c0.2-0.2,0.3-0.5,0.3-0.8c0-0.3-0.1-0.6-0.3-0.8
		s-0.4-0.3-0.7-0.3c-0.3,0-0.5,0.1-0.7,0.3c-0.2,0.2-0.3,0.5-0.3,0.8s0.1,0.6,0.3,0.8s0.4,0.3,0.7,0.3
		C519.9,23.5,520.2,23.4,520.3,23.2z"/>
	<path fill="#FFFFFF" d="M479.2,32c0.2,0.2,0.3,0.6,0.3,1c0,0.5-0.2,0.9-0.5,1.2c-0.3,0.3-0.8,0.4-1.4,0.4h-2.5v-6h2.4
		c0.6,0,1.1,0.1,1.4,0.4s0.5,0.7,0.5,1.1c0,0.4-0.1,0.7-0.3,0.9s-0.5,0.4-0.8,0.4C478.7,31.7,479,31.8,479.2,32z M476.5,29.7v1.4
		h0.8c0.3,0,0.5-0.1,0.6-0.2c0.1-0.1,0.2-0.3,0.2-0.5s-0.1-0.4-0.2-0.5s-0.4-0.2-0.6-0.2H476.5z M478,33.4c0.1-0.1,0.2-0.3,0.2-0.6
		c0-0.2-0.1-0.4-0.2-0.5c-0.2-0.1-0.3-0.2-0.6-0.2h-0.9v1.5h0.9C477.6,33.6,477.8,33.6,478,33.4z"/>
	<path fill="#FFFFFF" d="M484.4,33h-3c0,0.3,0.1,0.5,0.3,0.6s0.4,0.2,0.7,0.2c0.4,0,0.7-0.1,0.8-0.4h1.3c0,0.3-0.2,0.5-0.3,0.7
		c-0.2,0.2-0.4,0.4-0.7,0.5s-0.6,0.2-1,0.2c-0.7,0-1.2-0.2-1.6-0.6c-0.4-0.4-0.6-0.9-0.6-1.6c0-0.4,0.1-0.8,0.3-1.2s0.4-0.6,0.8-0.8
		c0.3-0.2,0.7-0.3,1.2-0.3c0.4,0,0.8,0.1,1.1,0.2c0.3,0.2,0.6,0.4,0.8,0.7c0.2,0.3,0.3,0.6,0.3,1C484.4,32.6,484.4,32.8,484.4,33z
		 M483.1,32.2c0-0.3-0.1-0.5-0.2-0.6c-0.1-0.1-0.4-0.2-0.6-0.2c-0.3,0-0.5,0.1-0.7,0.2c-0.2,0.2-0.2,0.4-0.3,0.6H483.1z"/>
	<path fill="#FFFFFF" d="M485.8,34.6c-0.3-0.1-0.5-0.3-0.7-0.5c-0.2-0.2-0.2-0.4-0.2-0.7h1.3c0,0.1,0.1,0.3,0.2,0.3
		c0.1,0.1,0.3,0.1,0.5,0.1c0.1,0,0.3,0,0.3-0.1c0.1-0.1,0.1-0.2,0.1-0.3c0-0.2-0.1-0.3-0.3-0.3l-1-0.3c-0.3-0.1-0.6-0.2-0.8-0.4
		c-0.2-0.2-0.3-0.5-0.3-0.7c0-0.4,0.2-0.7,0.5-0.9c0.3-0.2,0.7-0.4,1.3-0.4c0.6,0,1,0.1,1.4,0.3s0.5,0.5,0.5,0.9h-1.3
		c0-0.1,0-0.3-0.1-0.3c-0.1-0.1-0.2-0.1-0.4-0.1c-0.1,0-0.3,0-0.3,0.1s-0.1,0.1-0.1,0.2c0,0.2,0.1,0.3,0.3,0.4l1,0.3
		c0.3,0.1,0.6,0.2,0.8,0.4c0.2,0.2,0.3,0.4,0.3,0.7c0,0.4-0.2,0.8-0.5,1s-0.8,0.4-1.3,0.4C486.4,34.8,486.1,34.7,485.8,34.6z"/>
	<path fill="#FFFFFF" d="M492,33.6v1c-0.3,0-0.5,0.1-0.9,0.1c-0.4,0-0.8-0.1-1-0.3c-0.3-0.2-0.4-0.6-0.4-1.2v-1.6H489v-1h0.6v-1.2
		h1.3v1.2h0.9v1H491V33c0,0.3,0,0.5,0.1,0.6c0.1,0.1,0.2,0.1,0.4,0.1C491.7,33.7,491.9,33.6,492,33.6z"/>
	<path fill="#FFFFFF" d="M498.5,29c0.3,0.2,0.6,0.4,0.8,0.8c0.2,0.3,0.3,0.7,0.3,1.1c0,0.4-0.1,0.8-0.3,1.1
		c-0.2,0.3-0.4,0.6-0.8,0.8c-0.3,0.2-0.7,0.3-1.1,0.3h-1.2v1.6h-1.4v-6h2.5C497.8,28.7,498.1,28.8,498.5,29z M497.8,31.6
		c0.2-0.2,0.3-0.4,0.3-0.7s-0.1-0.5-0.3-0.7c-0.2-0.2-0.4-0.3-0.7-0.3h-0.9v2.1h0.9C497.4,31.9,497.7,31.8,497.8,31.6z"/>
	<path fill="#FFFFFF" d="M500.1,30.6h1.3v0.9c0.1-0.3,0.2-0.5,0.4-0.7c0.2-0.2,0.4-0.2,0.7-0.2c0.1,0,0.2,0,0.3,0v1.2
		c-0.2,0-0.3,0-0.4,0c-0.3,0-0.6,0.1-0.8,0.3c-0.2,0.2-0.3,0.6-0.3,1v1.6h-1.3V30.6z"/>
	<path fill="#FFFFFF" d="M504.1,34.5c-0.3-0.2-0.5-0.4-0.7-0.8c-0.2-0.3-0.2-0.7-0.2-1.1c0-0.4,0.1-0.8,0.2-1.1
		c0.2-0.3,0.4-0.6,0.7-0.8c0.3-0.2,0.6-0.3,1-0.3c0.3,0,0.5,0.1,0.8,0.2s0.4,0.3,0.5,0.5v-0.6h1.3v4.1h-1.3v-0.6
		c-0.1,0.2-0.3,0.4-0.5,0.5s-0.5,0.2-0.8,0.2C504.7,34.8,504.4,34.7,504.1,34.5z M506.2,33.4c0.2-0.2,0.3-0.5,0.3-0.8
		c0-0.3-0.1-0.6-0.3-0.8s-0.4-0.3-0.7-0.3c-0.3,0-0.5,0.1-0.7,0.3c-0.2,0.2-0.3,0.5-0.3,0.8s0.1,0.6,0.3,0.8s0.4,0.3,0.7,0.3
		C505.8,33.7,506,33.6,506.2,33.4z"/>
	<path fill="#FFFFFF" d="M509.5,34.5c-0.3-0.2-0.6-0.4-0.8-0.8c-0.2-0.3-0.3-0.7-0.3-1.1s0.1-0.8,0.3-1.1c0.2-0.3,0.4-0.6,0.8-0.8
		c0.3-0.2,0.7-0.3,1.2-0.3c0.6,0,1.1,0.1,1.5,0.5c0.4,0.3,0.6,0.7,0.6,1.2h-1.3c0-0.2-0.1-0.3-0.3-0.4c-0.1-0.1-0.3-0.1-0.5-0.1
		c-0.3,0-0.5,0.1-0.7,0.3c-0.2,0.2-0.2,0.5-0.2,0.8c0,0.3,0.1,0.6,0.2,0.8c0.2,0.2,0.4,0.3,0.7,0.3c0.2,0,0.4,0,0.5-0.1
		c0.1-0.1,0.2-0.2,0.3-0.4h1.3c-0.1,0.5-0.3,0.9-0.6,1.2s-0.9,0.4-1.5,0.4C510.2,34.8,509.8,34.7,509.5,34.5z"/>
	<path fill="#FFFFFF" d="M516.1,33.6v1c-0.3,0-0.5,0.1-0.9,0.1c-0.4,0-0.8-0.1-1-0.3c-0.3-0.2-0.4-0.6-0.4-1.2v-1.6h-0.6v-1h0.6
		v-1.2h1.3v1.2h0.9v1h-0.9V33c0,0.3,0,0.5,0.1,0.6c0.1,0.1,0.2,0.1,0.4,0.1C515.8,33.7,516,33.6,516.1,33.6z"/>
	<path fill="#FFFFFF" d="M516.9,30c-0.2-0.2-0.2-0.3-0.2-0.6c0-0.2,0.1-0.4,0.2-0.6s0.3-0.2,0.6-0.2s0.4,0.1,0.6,0.2
		c0.2,0.2,0.2,0.3,0.2,0.6c0,0.2-0.1,0.4-0.2,0.6c-0.2,0.2-0.3,0.2-0.6,0.2S517.1,30.1,516.9,30z M516.8,30.6h1.3v4.1h-1.3V30.6z"/>
	<path fill="#FFFFFF" d="M519.9,34.5c-0.3-0.2-0.6-0.4-0.8-0.8c-0.2-0.3-0.3-0.7-0.3-1.1s0.1-0.8,0.3-1.1c0.2-0.3,0.4-0.6,0.8-0.8
		c0.3-0.2,0.7-0.3,1.2-0.3c0.6,0,1.1,0.1,1.5,0.5c0.4,0.3,0.6,0.7,0.6,1.2h-1.3c0-0.2-0.1-0.3-0.3-0.4c-0.1-0.1-0.3-0.1-0.5-0.1
		c-0.3,0-0.5,0.1-0.7,0.3c-0.2,0.2-0.2,0.5-0.2,0.8c0,0.3,0.1,0.6,0.2,0.8c0.2,0.2,0.4,0.3,0.7,0.3c0.2,0,0.4,0,0.5-0.1
		c0.1-0.1,0.2-0.2,0.3-0.4h1.3c-0.1,0.5-0.3,0.9-0.6,1.2c-0.4,0.3-0.9,0.4-1.5,0.4C520.6,34.8,520.3,34.7,519.9,34.5z"/>
	<path fill="#FFFFFF" d="M528.1,33h-3c0,0.3,0.1,0.5,0.3,0.6s0.4,0.2,0.7,0.2c0.4,0,0.7-0.1,0.8-0.4h1.3c0,0.3-0.2,0.5-0.3,0.7
		c-0.2,0.2-0.4,0.4-0.7,0.5s-0.6,0.2-1,0.2c-0.7,0-1.2-0.2-1.6-0.6c-0.4-0.4-0.6-0.9-0.6-1.6c0-0.4,0.1-0.8,0.3-1.2s0.4-0.6,0.8-0.8
		c0.3-0.2,0.7-0.3,1.2-0.3c0.4,0,0.8,0.1,1.1,0.2c0.3,0.2,0.6,0.4,0.8,0.7c0.2,0.3,0.3,0.6,0.3,1C528.1,32.6,528.1,32.8,528.1,33z
		 M526.8,32.2c0-0.3-0.1-0.5-0.2-0.6c-0.1-0.1-0.4-0.2-0.6-0.2c-0.3,0-0.5,0.1-0.7,0.2c-0.2,0.2-0.2,0.4-0.3,0.6H526.8z"/>
	<path fill="#FFFFFF" d="M474.2,44.7c-0.3-0.2-0.5-0.4-0.7-0.8c-0.2-0.3-0.2-0.7-0.2-1.1c0-0.4,0.1-0.8,0.2-1.1
		c0.2-0.3,0.4-0.6,0.7-0.8c0.3-0.2,0.6-0.3,1-0.3c0.3,0,0.5,0.1,0.8,0.2s0.4,0.3,0.5,0.5v-0.6h1.3v4.1h-1.3v-0.6
		c-0.1,0.2-0.3,0.4-0.5,0.5s-0.5,0.2-0.8,0.2C474.8,45,474.5,44.9,474.2,44.7z M476.3,43.6c0.2-0.2,0.3-0.5,0.3-0.8
		c0-0.3-0.1-0.6-0.3-0.8s-0.4-0.3-0.7-0.3c-0.3,0-0.5,0.1-0.7,0.3c-0.2,0.2-0.3,0.5-0.3,0.8s0.1,0.6,0.3,0.8s0.4,0.3,0.7,0.3
		C475.9,43.9,476.2,43.8,476.3,43.6z"/>
	<path fill="#FFFFFF" d="M478.9,40.8h1.3v0.6c0.1-0.2,0.3-0.4,0.5-0.5c0.2-0.1,0.5-0.2,0.8-0.2c1,0,1.5,0.6,1.5,1.7v2.5h-1.3v-2.1
		c0-0.4-0.1-0.6-0.2-0.8s-0.3-0.2-0.6-0.2s-0.5,0.1-0.6,0.2c-0.1,0.2-0.2,0.4-0.2,0.7v2.1h-1.3V40.8z"/>
	<path fill="#FFFFFF" d="M488.3,41L488.3,41l0,3.9H487v-0.6c-0.1,0.2-0.3,0.4-0.5,0.5c-0.2,0.1-0.5,0.2-0.8,0.2
		c-0.4,0-0.7-0.1-1-0.3s-0.5-0.4-0.7-0.8c-0.2-0.3-0.2-0.7-0.2-1.1c0-0.4,0.1-0.8,0.2-1.1c0.2-0.3,0.4-0.6,0.7-0.8
		c0.3-0.2,0.6-0.3,1-0.3c0.3,0,0.5,0.1,0.8,0.2s0.4,0.3,0.5,0.5v-2.4h1.3V41z M486.8,43.6c0.2-0.2,0.3-0.5,0.3-0.8
		c0-0.3-0.1-0.6-0.3-0.8s-0.4-0.3-0.7-0.3c-0.3,0-0.5,0.1-0.7,0.3c-0.2,0.2-0.3,0.5-0.3,0.8s0.1,0.6,0.3,0.8
		c0.2,0.2,0.4,0.3,0.7,0.3C486.4,43.9,486.6,43.8,486.8,43.6z"/>
	<path fill="#FFFFFF" d="M495,40.9c0.3,0.2,0.5,0.4,0.7,0.8c0.2,0.3,0.2,0.7,0.2,1.1c0,0.4-0.1,0.8-0.2,1.1
		c-0.2,0.3-0.4,0.6-0.7,0.8c-0.3,0.2-0.6,0.3-1,0.3c-0.3,0-0.6-0.1-0.8-0.2s-0.4-0.3-0.5-0.5v0.6h-1.3v-6h1.3v2.4
		c0.1-0.2,0.3-0.4,0.5-0.5c0.2-0.1,0.5-0.2,0.8-0.2C494.4,40.7,494.8,40.8,495,40.9z M494.4,43.6c0.2-0.2,0.3-0.5,0.3-0.8
		s-0.1-0.6-0.3-0.8c-0.2-0.2-0.4-0.3-0.7-0.3c-0.3,0-0.5,0.1-0.7,0.3c-0.2,0.2-0.3,0.5-0.3,0.8c0,0.3,0.1,0.6,0.3,0.8
		c0.2,0.2,0.4,0.3,0.7,0.3C493.9,43.9,494.2,43.8,494.4,43.6z"/>
	<path fill="#FFFFFF" d="M497.1,44.5c-0.3-0.3-0.4-0.7-0.4-1.2v-2.5h1.3V43c0,0.3,0.1,0.5,0.2,0.7s0.3,0.2,0.5,0.2
		c0.3,0,0.5-0.1,0.6-0.2c0.1-0.2,0.2-0.4,0.2-0.7v-2.2h1.3v4.1h-1.3v-0.6c-0.1,0.2-0.3,0.4-0.5,0.5c-0.2,0.1-0.5,0.2-0.8,0.2
		C497.7,45,497.3,44.8,497.1,44.5z"/>
	<path fill="#FFFFFF" d="M502.5,44.8c-0.3-0.1-0.5-0.3-0.7-0.5c-0.2-0.2-0.2-0.4-0.2-0.7h1.3c0,0.1,0.1,0.3,0.2,0.3
		c0.1,0.1,0.3,0.1,0.5,0.1c0.1,0,0.3,0,0.3-0.1s0.1-0.2,0.1-0.3c0-0.2-0.1-0.3-0.3-0.3l-1-0.3c-0.3-0.1-0.6-0.2-0.8-0.4
		s-0.3-0.5-0.3-0.7c0-0.4,0.2-0.7,0.5-0.9c0.3-0.2,0.7-0.4,1.3-0.4c0.6,0,1,0.1,1.4,0.3s0.5,0.5,0.5,0.9H504c0-0.1,0-0.3-0.1-0.3
		c-0.1-0.1-0.2-0.1-0.4-0.1c-0.1,0-0.3,0-0.3,0.1s-0.1,0.1-0.1,0.2c0,0.2,0.1,0.3,0.3,0.4l1,0.3c0.3,0.1,0.6,0.2,0.8,0.4
		c0.2,0.2,0.3,0.4,0.3,0.7c0,0.4-0.2,0.8-0.5,1S504,45,503.5,45C503.1,45,502.8,44.9,502.5,44.8z"/>
	<path fill="#FFFFFF" d="M506.2,40.2c-0.2-0.2-0.2-0.3-0.2-0.6c0-0.2,0.1-0.4,0.2-0.6s0.3-0.2,0.6-0.2s0.4,0.1,0.6,0.2
		c0.2,0.2,0.2,0.3,0.2,0.6c0,0.2-0.1,0.4-0.2,0.6c-0.2,0.2-0.3,0.2-0.6,0.2S506.3,40.3,506.2,40.2z M506.1,40.8h1.3v4.1h-1.3V40.8z"
		/>
	<path fill="#FFFFFF" d="M508.5,40.8h1.3v0.6c0.1-0.2,0.3-0.4,0.5-0.5c0.2-0.1,0.5-0.2,0.8-0.2c1,0,1.5,0.6,1.5,1.7v2.5h-1.3v-2.1
		c0-0.4-0.1-0.6-0.2-0.8c-0.1-0.2-0.3-0.2-0.6-0.2s-0.5,0.1-0.6,0.2c-0.1,0.2-0.2,0.4-0.2,0.7v2.1h-1.3V40.8z"/>
	<path fill="#FFFFFF" d="M517.6,43.2h-3c0,0.3,0.1,0.5,0.3,0.6s0.4,0.2,0.7,0.2c0.4,0,0.7-0.1,0.8-0.4h1.3c0,0.3-0.2,0.5-0.3,0.7
		c-0.2,0.2-0.4,0.4-0.7,0.5c-0.3,0.1-0.6,0.2-1,0.2c-0.7,0-1.2-0.2-1.6-0.6c-0.4-0.4-0.6-0.9-0.6-1.6c0-0.4,0.1-0.8,0.3-1.2
		c0.2-0.3,0.4-0.6,0.8-0.8c0.3-0.2,0.7-0.3,1.2-0.3c0.4,0,0.8,0.1,1.1,0.2c0.3,0.2,0.6,0.4,0.8,0.7s0.3,0.6,0.3,1
		C517.7,42.8,517.6,43,517.6,43.2z M516.4,42.4c0-0.3-0.1-0.5-0.2-0.6s-0.4-0.2-0.6-0.2s-0.5,0.1-0.7,0.2c-0.2,0.2-0.2,0.4-0.3,0.6
		H516.4z"/>
	<path fill="#FFFFFF" d="M519,44.8c-0.3-0.1-0.5-0.3-0.7-0.5c-0.2-0.2-0.2-0.4-0.2-0.7h1.3c0,0.1,0.1,0.3,0.2,0.3
		c0.1,0.1,0.3,0.1,0.5,0.1c0.1,0,0.3,0,0.3-0.1s0.1-0.2,0.1-0.3c0-0.2-0.1-0.3-0.3-0.3l-1-0.3c-0.3-0.1-0.6-0.2-0.8-0.4
		s-0.3-0.5-0.3-0.7c0-0.4,0.2-0.7,0.5-0.9c0.3-0.2,0.7-0.4,1.3-0.4c0.6,0,1,0.1,1.4,0.3s0.5,0.5,0.5,0.9h-1.3c0-0.1,0-0.3-0.1-0.3
		c-0.1-0.1-0.2-0.1-0.4-0.1c-0.1,0-0.3,0-0.3,0.1s-0.1,0.1-0.1,0.2c0,0.2,0.1,0.3,0.3,0.4l1,0.3c0.3,0.1,0.6,0.2,0.8,0.4
		c0.2,0.2,0.3,0.4,0.3,0.7c0,0.4-0.2,0.8-0.5,1s-0.8,0.4-1.3,0.4C519.7,45,519.3,44.9,519,44.8z"/>
	<path fill="#FFFFFF" d="M523.3,44.8c-0.3-0.1-0.5-0.3-0.7-0.5c-0.2-0.2-0.2-0.4-0.2-0.7h1.3c0,0.1,0.1,0.3,0.2,0.3
		c0.1,0.1,0.3,0.1,0.5,0.1c0.1,0,0.3,0,0.3-0.1s0.1-0.2,0.1-0.3c0-0.2-0.1-0.3-0.3-0.3l-1-0.3c-0.3-0.1-0.6-0.2-0.8-0.4
		s-0.3-0.5-0.3-0.7c0-0.4,0.2-0.7,0.5-0.9c0.3-0.2,0.7-0.4,1.3-0.4c0.6,0,1,0.1,1.4,0.3s0.5,0.5,0.5,0.9h-1.3c0-0.1,0-0.3-0.1-0.3
		c-0.1-0.1-0.2-0.1-0.4-0.1c-0.1,0-0.3,0-0.3,0.1s-0.1,0.1-0.1,0.2c0,0.2,0.1,0.3,0.3,0.4l1,0.3c0.3,0.1,0.6,0.2,0.8,0.4
		c0.2,0.2,0.3,0.4,0.3,0.7c0,0.4-0.2,0.8-0.5,1s-0.8,0.4-1.3,0.4C523.9,45,523.6,44.9,523.3,44.8z"/>
	<path fill="#FFFFFF" d="M526.7,42h2.7v1h-2.7V42z"/>
	<path fill="#FFFFFF" d="M493.4,51.2L493.4,51.2l0,3.9h-1.3v-0.6c-0.1,0.2-0.3,0.4-0.5,0.5c-0.2,0.1-0.5,0.2-0.8,0.2
		c-0.4,0-0.7-0.1-1-0.3c-0.3-0.2-0.5-0.4-0.7-0.8c-0.2-0.3-0.2-0.7-0.2-1.1c0-0.4,0.1-0.8,0.2-1.1c0.2-0.3,0.4-0.6,0.7-0.8
		c0.3-0.2,0.6-0.3,1-0.3c0.3,0,0.5,0.1,0.8,0.2s0.4,0.3,0.5,0.5v-2.4h1.3V51.2z M491.9,53.8c0.2-0.2,0.3-0.5,0.3-0.8
		c0-0.3-0.1-0.6-0.3-0.8s-0.4-0.3-0.7-0.3c-0.3,0-0.5,0.1-0.7,0.3c-0.2,0.2-0.3,0.5-0.3,0.8c0,0.3,0.1,0.6,0.3,0.8s0.4,0.3,0.7,0.3
		C491.5,54.1,491.8,54,491.9,53.8z"/>
	<path fill="#FFFFFF" d="M494.5,51h1.3v0.9c0.1-0.3,0.2-0.5,0.4-0.7c0.2-0.2,0.4-0.2,0.7-0.2c0.1,0,0.2,0,0.3,0v1.2
		c-0.2,0-0.3,0-0.4,0c-0.3,0-0.6,0.1-0.8,0.3c-0.2,0.2-0.3,0.6-0.3,1v1.6h-1.3V51z"/>
	<path fill="#FFFFFF" d="M498.1,50.4c-0.2-0.2-0.2-0.3-0.2-0.6c0-0.2,0.1-0.4,0.2-0.6s0.3-0.2,0.6-0.2s0.4,0.1,0.6,0.2
		c0.2,0.2,0.2,0.3,0.2,0.6c0,0.2-0.1,0.4-0.2,0.6c-0.2,0.2-0.3,0.2-0.6,0.2S498.2,50.5,498.1,50.4z M498,51h1.3v4.1H498V51z"/>
	<path fill="#FFFFFF" d="M499.8,51h1.4l0.9,2.6l0.9-2.6h1.4l-1.8,4.1h-1.2L499.8,51z"/>
	<path fill="#FFFFFF" d="M508.8,53.4h-3c0,0.3,0.1,0.5,0.3,0.6s0.4,0.2,0.7,0.2c0.4,0,0.7-0.1,0.8-0.4h1.3c0,0.3-0.2,0.5-0.3,0.7
		c-0.2,0.2-0.4,0.4-0.7,0.5s-0.6,0.2-1,0.2c-0.7,0-1.2-0.2-1.6-0.6c-0.4-0.4-0.6-0.9-0.6-1.6c0-0.4,0.1-0.8,0.3-1.2
		c0.2-0.3,0.4-0.6,0.8-0.8c0.3-0.2,0.7-0.3,1.2-0.3c0.4,0,0.8,0.1,1.1,0.2c0.3,0.2,0.6,0.4,0.8,0.7c0.2,0.3,0.3,0.6,0.3,1
		C508.9,53,508.8,53.2,508.8,53.4z M507.6,52.6c0-0.3-0.1-0.5-0.2-0.6c-0.1-0.1-0.4-0.2-0.6-0.2c-0.3,0-0.5,0.1-0.7,0.2
		c-0.2,0.2-0.2,0.4-0.3,0.6H507.6z"/>
	<path fill="#FFFFFF" d="M509.6,51h1.3v0.6c0.1-0.2,0.3-0.4,0.5-0.5c0.2-0.1,0.5-0.2,0.8-0.2c1,0,1.5,0.6,1.5,1.7v2.5h-1.3V53
		c0-0.4-0.1-0.6-0.2-0.8c-0.1-0.2-0.3-0.2-0.6-0.2s-0.5,0.1-0.6,0.2c-0.1,0.2-0.2,0.4-0.2,0.7v2.1h-1.3V51z"/>
	<path fill="#FFFFFF" d="M481.5,64.2v1c-0.3,0-0.5,0.1-0.9,0.1c-0.4,0-0.8-0.1-1-0.3c-0.3-0.2-0.4-0.6-0.4-1.2v-1.6h-0.6v-1h0.6V60
		h1.3v1.2h0.9v1h-0.9v1.4c0,0.3,0,0.5,0.1,0.6c0.1,0.1,0.2,0.1,0.4,0.1C481.2,64.3,481.4,64.2,481.5,64.2z"/>
	<path fill="#FFFFFF" d="M486.2,63.6h-3c0,0.3,0.1,0.5,0.3,0.6s0.4,0.2,0.7,0.2c0.4,0,0.7-0.1,0.8-0.4h1.3c0,0.3-0.2,0.5-0.3,0.7
		c-0.2,0.2-0.4,0.4-0.7,0.5c-0.3,0.1-0.6,0.2-1,0.2c-0.7,0-1.2-0.2-1.6-0.6c-0.4-0.4-0.6-0.9-0.6-1.6c0-0.4,0.1-0.8,0.3-1.2
		c0.2-0.3,0.4-0.6,0.8-0.8c0.3-0.2,0.7-0.3,1.2-0.3c0.4,0,0.8,0.1,1.1,0.2c0.3,0.2,0.6,0.4,0.8,0.7c0.2,0.3,0.3,0.6,0.3,1
		C486.3,63.2,486.2,63.4,486.2,63.6z M485,62.8c0-0.3-0.1-0.5-0.2-0.6s-0.4-0.2-0.6-0.2s-0.5,0.1-0.7,0.2c-0.2,0.2-0.2,0.4-0.3,0.6
		H485z"/>
	<path fill="#FFFFFF" d="M487.9,65.1c-0.3-0.2-0.6-0.4-0.8-0.8c-0.2-0.3-0.3-0.7-0.3-1.1s0.1-0.8,0.3-1.1c0.2-0.3,0.4-0.6,0.8-0.8
		c0.3-0.2,0.7-0.3,1.2-0.3c0.6,0,1.1,0.2,1.5,0.5c0.4,0.3,0.6,0.7,0.6,1.2h-1.3c0-0.2-0.1-0.3-0.3-0.4c-0.1-0.1-0.3-0.1-0.5-0.1
		c-0.3,0-0.5,0.1-0.7,0.3c-0.2,0.2-0.2,0.5-0.2,0.8s0.1,0.6,0.2,0.8c0.2,0.2,0.4,0.3,0.7,0.3c0.2,0,0.4,0,0.5-0.1s0.2-0.2,0.3-0.4
		h1.3c-0.1,0.5-0.3,0.9-0.6,1.2c-0.4,0.3-0.9,0.4-1.5,0.4C488.6,65.4,488.2,65.3,487.9,65.1z"/>
	<path fill="#FFFFFF" d="M496,62.7v2.5h-1.3v-2.1c0-0.4-0.1-0.6-0.2-0.8c-0.1-0.2-0.3-0.2-0.6-0.2s-0.5,0.1-0.6,0.2
		c-0.1,0.2-0.2,0.4-0.2,0.7v2.1h-1.3v-6h1.3v2.4c0.1-0.2,0.3-0.4,0.5-0.5s0.5-0.2,0.8-0.2C495.5,61.1,496,61.6,496,62.7z"/>
	<path fill="#FFFFFF" d="M497.1,61.2h1.3v0.6c0.1-0.2,0.3-0.4,0.5-0.5s0.5-0.2,0.8-0.2c1,0,1.5,0.6,1.5,1.7v2.5h-1.3v-2.1
		c0-0.4-0.1-0.6-0.2-0.8c-0.1-0.2-0.3-0.2-0.6-0.2s-0.5,0.1-0.6,0.2c-0.1,0.2-0.2,0.4-0.2,0.7v2.1h-1.3V61.2z"/>
	<path fill="#FFFFFF" d="M503,65.1c-0.3-0.2-0.6-0.4-0.8-0.8c-0.2-0.3-0.3-0.7-0.3-1.1c0-0.4,0.1-0.8,0.3-1.1
		c0.2-0.3,0.4-0.6,0.8-0.8c0.3-0.2,0.7-0.3,1.2-0.3s0.9,0.1,1.2,0.3c0.3,0.2,0.6,0.4,0.8,0.8c0.2,0.3,0.3,0.7,0.3,1.1
		c0,0.4-0.1,0.8-0.3,1.1c-0.2,0.3-0.4,0.6-0.8,0.8c-0.3,0.2-0.7,0.3-1.2,0.3S503.3,65.3,503,65.1z M504.9,64
		c0.2-0.2,0.3-0.5,0.3-0.8s-0.1-0.6-0.3-0.8s-0.4-0.3-0.7-0.3c-0.3,0-0.5,0.1-0.7,0.3c-0.2,0.2-0.3,0.5-0.3,0.8s0.1,0.6,0.3,0.8
		c0.2,0.2,0.4,0.3,0.7,0.3C504.5,64.3,504.7,64.2,504.9,64z"/>
	<path fill="#FFFFFF" d="M507.2,59.3h1.3v6h-1.3V59.3z"/>
	<path fill="#FFFFFF" d="M510.3,65.1c-0.3-0.2-0.6-0.4-0.8-0.8c-0.2-0.3-0.3-0.7-0.3-1.1c0-0.4,0.1-0.8,0.3-1.1
		c0.2-0.3,0.4-0.6,0.8-0.8c0.3-0.2,0.7-0.3,1.2-0.3s0.9,0.1,1.2,0.3c0.3,0.2,0.6,0.4,0.8,0.8c0.2,0.3,0.3,0.7,0.3,1.1
		c0,0.4-0.1,0.8-0.3,1.1c-0.2,0.3-0.4,0.6-0.8,0.8c-0.3,0.2-0.7,0.3-1.2,0.3S510.7,65.3,510.3,65.1z M512.2,64
		c0.2-0.2,0.3-0.5,0.3-0.8s-0.1-0.6-0.3-0.8c-0.2-0.2-0.4-0.3-0.7-0.3c-0.3,0-0.5,0.1-0.7,0.3s-0.3,0.5-0.3,0.8s0.1,0.6,0.3,0.8
		c0.2,0.2,0.4,0.3,0.7,0.3C511.8,64.3,512.1,64.2,512.2,64z"/>
	<path fill="#FFFFFF" d="M518.9,61.2V65c0,0.4-0.1,0.7-0.2,1c-0.1,0.3-0.3,0.5-0.6,0.7c-0.3,0.2-0.8,0.4-1.5,0.4
		c-0.6,0-1.1-0.1-1.5-0.3c-0.2-0.1-0.4-0.3-0.5-0.5c-0.1-0.2-0.2-0.4-0.2-0.6h1.3c0,0.2,0.1,0.3,0.3,0.4s0.3,0.1,0.6,0.1
		c0.3,0,0.6-0.1,0.7-0.2c0.2-0.2,0.2-0.4,0.2-0.8v-0.5c-0.1,0.2-0.3,0.4-0.5,0.5c-0.2,0.1-0.5,0.2-0.8,0.2c-0.4,0-0.7-0.1-1-0.3
		c-0.3-0.2-0.5-0.4-0.7-0.7c-0.2-0.3-0.2-0.7-0.2-1.1s0.1-0.8,0.2-1.1s0.4-0.6,0.7-0.8c0.3-0.2,0.6-0.3,1-0.3c0.3,0,0.5,0.1,0.8,0.2
		c0.2,0.1,0.4,0.3,0.5,0.5v-0.6H518.9z M517.4,64c0.2-0.2,0.3-0.5,0.3-0.8c0-0.3-0.1-0.6-0.3-0.8s-0.4-0.3-0.7-0.3
		c-0.3,0-0.5,0.1-0.7,0.3s-0.3,0.5-0.3,0.8s0.1,0.6,0.3,0.8s0.4,0.3,0.7,0.3C516.9,64.3,517.2,64.2,517.4,64z"/>
	<path fill="#FFFFFF" d="M524,61.2v4c0,0.3-0.1,0.6-0.2,0.9c-0.1,0.3-0.2,0.5-0.4,0.6c-0.2,0.2-0.4,0.3-0.6,0.4
		c-0.2,0.1-0.5,0.1-0.9,0.1c-0.7,0-1.2-0.1-1.5-0.4c-0.2-0.1-0.3-0.3-0.4-0.5c-0.1-0.2-0.1-0.4-0.1-0.6h1.3c0,0.2,0.1,0.3,0.2,0.4
		s0.3,0.1,0.5,0.1c0.2,0,0.4-0.1,0.6-0.2c0.1-0.2,0.2-0.4,0.2-0.7v-0.6c-0.1,0.2-0.3,0.4-0.5,0.5c-0.2,0.1-0.5,0.2-0.8,0.2
		c-0.5,0-0.9-0.2-1.1-0.5s-0.4-0.7-0.4-1.3v-2.4h1.3v2.2c0,0.3,0.1,0.5,0.2,0.7c0.1,0.2,0.3,0.2,0.6,0.2c0.3,0,0.5-0.1,0.6-0.3
		c0.1-0.2,0.2-0.4,0.2-0.8v-2H524z"/>
	<path fill="#FFFFFF" d="M485.6,75.1c-0.4-0.4-0.6-0.9-0.6-1.6h1.4c0,0.3,0.1,0.6,0.3,0.8c0.2,0.2,0.4,0.3,0.7,0.3
		c0.3,0,0.5-0.1,0.6-0.2s0.2-0.3,0.2-0.5c0-0.2-0.1-0.3-0.2-0.4c-0.1-0.1-0.3-0.2-0.6-0.3l-1.1-0.4c-0.4-0.1-0.7-0.4-0.9-0.6
		c-0.2-0.3-0.3-0.6-0.3-1c0-0.3,0.1-0.6,0.3-0.9s0.4-0.5,0.7-0.6c0.3-0.1,0.7-0.2,1.1-0.2c0.4,0,0.8,0.1,1.1,0.2
		c0.3,0.2,0.6,0.4,0.8,0.7s0.3,0.6,0.3,1H488c0-0.3-0.1-0.5-0.2-0.6s-0.3-0.2-0.6-0.2c-0.2,0-0.4,0.1-0.5,0.2
		c-0.1,0.1-0.2,0.2-0.2,0.4c0,0.2,0.1,0.3,0.2,0.4c0.1,0.1,0.3,0.2,0.6,0.4l1,0.4c0.4,0.2,0.7,0.4,0.9,0.7c0.2,0.3,0.3,0.6,0.3,1
		c0,0.4-0.1,0.7-0.3,1c-0.2,0.3-0.4,0.5-0.8,0.6c-0.3,0.2-0.7,0.2-1.1,0.2C486.6,75.6,486,75.5,485.6,75.1z"/>
	<path fill="#FFFFFF" d="M491.1,75.3c-0.3-0.2-0.6-0.4-0.8-0.8c-0.2-0.3-0.3-0.7-0.3-1.1c0-0.4,0.1-0.8,0.3-1.1
		c0.2-0.3,0.4-0.6,0.8-0.8c0.3-0.2,0.7-0.3,1.2-0.3s0.9,0.1,1.2,0.3c0.3,0.2,0.6,0.4,0.8,0.8c0.2,0.3,0.3,0.7,0.3,1.1
		c0,0.4-0.1,0.8-0.3,1.1c-0.2,0.3-0.4,0.6-0.8,0.8c-0.3,0.2-0.7,0.3-1.2,0.3S491.4,75.5,491.1,75.3z M493,74.2
		c0.2-0.2,0.3-0.5,0.3-0.8s-0.1-0.6-0.3-0.8s-0.4-0.3-0.7-0.3c-0.3,0-0.5,0.1-0.7,0.3c-0.2,0.2-0.3,0.5-0.3,0.8s0.1,0.6,0.3,0.8
		c0.2,0.2,0.4,0.3,0.7,0.3C492.6,74.5,492.8,74.4,493,74.2z"/>
	<path fill="#FFFFFF" d="M495.3,69.5h1.3v6h-1.3V69.5z"/>
	<path fill="#FFFFFF" d="M498,75.1c-0.3-0.3-0.4-0.7-0.4-1.2v-2.5h1.3v2.2c0,0.3,0.1,0.5,0.2,0.6c0.1,0.1,0.3,0.2,0.5,0.2
		c0.3,0,0.5-0.1,0.6-0.2c0.1-0.2,0.2-0.4,0.2-0.7v-2.2h1.3v4.1h-1.3v-0.6c-0.1,0.2-0.3,0.4-0.5,0.5c-0.2,0.1-0.5,0.2-0.8,0.2
		C498.6,75.6,498.3,75.4,498,75.1z"/>
	<path fill="#FFFFFF" d="M505.4,74.4v1c-0.3,0-0.5,0.1-0.9,0.1c-0.4,0-0.8-0.1-1-0.3c-0.3-0.2-0.4-0.6-0.4-1.2v-1.6h-0.6v-1h0.6
		v-1.2h1.3v1.2h0.9v1h-0.9v1.4c0,0.3,0,0.5,0.1,0.6c0.1,0.1,0.2,0.1,0.4,0.1C505.1,74.5,505.3,74.4,505.4,74.4z"/>
	<path fill="#FFFFFF" d="M506.2,70.8c-0.2-0.2-0.2-0.3-0.2-0.6c0-0.2,0.1-0.4,0.2-0.6c0.2-0.2,0.3-0.2,0.6-0.2s0.4,0.1,0.6,0.2
		c0.2,0.2,0.2,0.3,0.2,0.6c0,0.2-0.1,0.4-0.2,0.6c-0.2,0.2-0.3,0.2-0.6,0.2S506.4,70.9,506.2,70.8z M506.1,71.4h1.3v4.1h-1.3V71.4z"
		/>
	<path fill="#FFFFFF" d="M509.3,75.3c-0.3-0.2-0.6-0.4-0.8-0.8c-0.2-0.3-0.3-0.7-0.3-1.1c0-0.4,0.1-0.8,0.3-1.1
		c0.2-0.3,0.4-0.6,0.8-0.8c0.3-0.2,0.7-0.3,1.2-0.3s0.9,0.1,1.2,0.3c0.3,0.2,0.6,0.4,0.8,0.8c0.2,0.3,0.3,0.7,0.3,1.1
		c0,0.4-0.1,0.8-0.3,1.1c-0.2,0.3-0.4,0.6-0.8,0.8c-0.3,0.2-0.7,0.3-1.2,0.3S509.6,75.5,509.3,75.3z M511.2,74.2
		c0.2-0.2,0.3-0.5,0.3-0.8s-0.1-0.6-0.3-0.8s-0.4-0.3-0.7-0.3c-0.3,0-0.5,0.1-0.7,0.3c-0.2,0.2-0.3,0.5-0.3,0.8s0.1,0.6,0.3,0.8
		c0.2,0.2,0.4,0.3,0.7,0.3C510.8,74.5,511,74.4,511.2,74.2z"/>
	<path fill="#FFFFFF" d="M513.5,71.4h1.3V72c0.1-0.2,0.3-0.4,0.5-0.5s0.5-0.2,0.8-0.2c1,0,1.5,0.6,1.5,1.7v2.5h-1.3v-2.1
		c0-0.4-0.1-0.6-0.2-0.8c-0.1-0.2-0.3-0.2-0.6-0.2s-0.5,0.1-0.6,0.2c-0.1,0.2-0.2,0.4-0.2,0.7v2.1h-1.3V71.4z"/>
</g>
<rect x="91.9" y="41.2" fill="#7F3F98" width="21.6" height="6.2"/>
<rect x="91.9" y="41.3" transform="matrix(-1.836970e-16 1 -1 -1.836970e-16 147.1111 -58.2222)" fill="#7F3F98" width="21.6" height="6.2"/>
<rect x="208.3" y="41.2" fill="#7F3F98" width="21.6" height="6.2"/>
<rect x="208.3" y="41.3" transform="matrix(-1.836970e-16 1 -1 -1.836970e-16 263.5185 -174.6296)" fill="#7F3F98" width="21.6" height="6.2"/>
<rect x="321.2" y="41" fill="#7F3F98" width="21.6" height="6.2"/>
<rect x="434.6" y="45.9" fill="#7F3F98" width="21.6" height="6.2"/>
<rect x="434.6" y="36.6" fill="#7F3F98" width="21.6" height="6.2"/>
<rect x="321.2" y="41.2" transform="matrix(-1.836970e-16 1 -1 -1.836970e-16 376.3323 -287.7397)" fill="#7F3F98" width="21.6" height="6.2"/>
</svg>
