<?xml version="1.0" encoding="utf-8"?>
<!-- Generator: Adobe Illustrator 24.1.2, SVG Export Plug-In . SVG Version: 6.00 Build 0)  -->
<svg version="1.1" id="Layer_2" xmlns="http://www.w3.org/2000/svg" xmlns:xlink="http://www.w3.org/1999/xlink" x="0px" y="0px"
	 viewBox="0 0 200.8 618.7" enable-background="new 0 0 200.8 618.7" xml:space="preserve">
<circle fill="#7F3F98" cx="101.6" cy="520.7" r="82.4"/>
<circle fill="#7F3F98" cx="99.2" cy="313.1" r="82.7"/>
<g>
	<path fill="#FFFFFF" d="M116.5,274.4l-13.3-13.3c-0.4-0.8-1.5-1.3-2.8-1.3c-0.9,0-1.7,0.3-2.2,0.7l0,0l-0.1,0.1
		c-0.1,0.1-0.3,0.2-0.4,0.4l-13.2,13.7l2.7,2.6l12.9-13.3c0.1,0,0.2,0,0.3,0c0.1,0,0.2,0,0.3,0l13.2,13.2L116.5,274.4z"/>
	<path fill="#FFFFFF" d="M130.3,278.8H70.4c-0.2-1.4-0.4-2.9-0.6-4.3c20.4,0,40.8,0,61.2-0.1C130.8,275.9,130.5,277.4,130.3,278.8z"
		/>
	<path fill="#FFFFFF" d="M123.3,310.7h-45c-0.6,0-1-0.5-1-1v-2.4c0-0.6,0.5-1,1-1h45c0.6,0,1,0.5,1,1v2.4
		C124.4,310.3,123.9,310.7,123.3,310.7z"/>
	<path fill="#FFFFFF" d="M125.9,308c1.5-9.7,2.9-19.4,4.4-29.2c-1.4,0-2.7-0.1-4.1-0.1c-1.5,10.7-2.9,21.4-4.4,32l0.5,0.1
		C124.1,311,125.7,309.8,125.9,308z"/>
	<path fill="#FFFFFF" d="M75.4,307.9c-1.6-9.7-3.3-19.4-4.9-29.1c1.4-0.1,2.9-0.1,4.3-0.2c1.6,10.7,3.2,21.3,4.8,32l-0.5,0.1
		C77.2,310.9,75.6,309.7,75.4,307.9z"/>
	<rect x="75.6" y="285.9" fill="#FFFFFF" width="50.8" height="3"/>
	<rect x="76.2" y="296.1" fill="#FFFFFF" width="48.2" height="2.9"/>
	
		<rect x="86.9" y="278.3" transform="matrix(0.9987 -5.035816e-02 5.035816e-02 0.9987 -14.6598 4.8131)" fill="#FFFFFF" width="2.6" height="30.1"/>
	
		<rect x="111.6" y="278" transform="matrix(-0.9987 -5.035816e-02 5.035816e-02 -0.9987 210.8289 592.2228)" fill="#FFFFFF" width="2.6" height="30.9"/>
	<rect x="99.2" y="278" fill="#FFFFFF" width="2.7" height="29.6"/>
</g>
<g>
	<path fill="#FFFFFF" d="M77.7,332.5c-0.4,0.6-0.8,1-1.4,1.3l1.8,3.3h-2.8l-1.6-2.9h-1.3v2.9H70v-10.5h4.5c0.7,0,1.4,0.2,1.9,0.5
		c0.6,0.3,1,0.8,1.3,1.4c0.3,0.6,0.5,1.2,0.5,2C78.2,331.2,78.1,331.9,77.7,332.5z M72.4,332.3h1.7c0.5,0,0.9-0.2,1.2-0.5
		c0.3-0.3,0.5-0.8,0.5-1.3c0-0.5-0.2-1-0.5-1.3c-0.3-0.3-0.7-0.5-1.2-0.5h-1.7V332.3z"/>
	<path fill="#FFFFFF" d="M79.8,326.6h6.4v2h-4v2.4h4v1.9h-4v2.3h4v2h-6.4V326.6z"/>
	<path fill="#FFFFFF" d="M89.9,328.8h-2.9v-2.2h8.2v2.2h-2.9v8.3h-2.4V328.8z"/>
	<path fill="#FFFFFF" d="M101,335.9h-3.7l-0.4,1.3h-2.6l3.6-10.5h2.4l3.6,10.5h-2.6L101,335.9z M100.4,334l-1.3-4.7l-1.3,4.7H100.4z
		"/>
	<path fill="#FFFFFF" d="M105.1,326.6h2.4v10.5h-2.4V326.6z"/>
	<path fill="#FFFFFF" d="M109.5,326.6h2.4v8.3h3.9v2.2h-6.3V326.6z"/>
	<path fill="#FFFFFF" d="M129.3,333.7h-0.6c0,1.1-0.4,2-1.1,2.7c-0.7,0.7-1.7,1-2.9,1c-0.8,0-1.5-0.1-2.1-0.4
		c-0.6-0.3-1.1-0.6-1.4-1.1c-0.3-0.5-0.5-1-0.5-1.7c0-0.7,0.2-1.2,0.6-1.7c0.4-0.5,0.9-0.8,1.4-0.9c-0.5-0.1-1-0.4-1.3-0.8
		c-0.3-0.4-0.5-0.9-0.5-1.5s0.2-1.1,0.5-1.6c0.3-0.5,0.8-0.8,1.4-1c0.6-0.2,1.2-0.4,1.9-0.4c1.3,0,2.2,0.3,2.9,0.9
		c0.6,0.6,1,1.4,1,2.5h-2.5c0-0.5-0.1-0.9-0.3-1.2c-0.2-0.3-0.6-0.4-1-0.4c-0.4,0-0.7,0.1-1,0.3c-0.3,0.2-0.4,0.5-0.4,0.9
		c0,0.9,0.5,1.3,1.4,1.3h0.3v1.9h-0.3c-0.5,0-0.9,0.1-1.2,0.4c-0.2,0.3-0.4,0.6-0.4,1.1c0,0.4,0.1,0.7,0.4,1s0.6,0.4,1.1,0.4
		c0.4,0,0.8-0.2,1.1-0.5s0.5-0.8,0.5-1.3h-0.7v-1.8h3.8V333.7z"/>
	<path fill="#FFFFFF" d="M49.7,344.6h4c1.1,0,2,0.2,2.9,0.7s1.4,1.1,1.9,1.9c0.4,0.8,0.6,1.7,0.6,2.6s-0.2,1.8-0.6,2.6
		c-0.4,0.8-1,1.4-1.9,1.9c-0.8,0.5-1.8,0.7-2.9,0.7h-4V344.6z M53.4,353.1c0.7,0,1.2-0.1,1.7-0.4c0.5-0.3,0.8-0.7,1-1.2
		c0.2-0.5,0.3-1,0.3-1.6c0-0.6-0.1-1.1-0.3-1.6s-0.6-0.9-1-1.2c-0.5-0.3-1-0.4-1.7-0.4h-1.3v6.4H53.4z"/>
	<path fill="#FFFFFF" d="M60.4,344.6h2.4v10.5h-2.4V344.6z"/>
	<path fill="#FFFFFF" d="M65.3,354.5c-0.7-0.7-1.1-1.6-1.1-2.8h2.4c0,0.6,0.2,1,0.5,1.3s0.7,0.5,1.3,0.5c0.5,0,0.8-0.1,1-0.3
		s0.4-0.5,0.4-0.9c0-0.3-0.1-0.6-0.3-0.8c-0.2-0.2-0.5-0.4-1-0.6l-1.9-0.7c-0.7-0.3-1.2-0.6-1.6-1.1c-0.4-0.5-0.5-1.1-0.5-1.7
		c0-0.6,0.2-1.1,0.5-1.6c0.3-0.5,0.7-0.8,1.3-1.1s1.2-0.4,2-0.4c0.8,0,1.4,0.1,2,0.4c0.6,0.3,1,0.7,1.3,1.2c0.3,0.5,0.5,1.1,0.5,1.8
		h-2.4c0-0.5-0.1-0.9-0.4-1.1c-0.3-0.3-0.6-0.4-1.1-0.4c-0.4,0-0.7,0.1-0.9,0.3c-0.2,0.2-0.3,0.4-0.3,0.8c0,0.3,0.1,0.5,0.3,0.7
		c0.2,0.2,0.6,0.4,1.1,0.6l1.7,0.7c0.7,0.3,1.3,0.7,1.6,1.2c0.3,0.5,0.5,1.1,0.5,1.8c0,0.6-0.2,1.2-0.5,1.7
		c-0.3,0.5-0.8,0.9-1.4,1.1c-0.6,0.3-1.3,0.4-2,0.4C67,355.4,66,355.1,65.3,354.5z"/>
	<path fill="#FFFFFF" d="M75.4,346.8h-2.9v-2.2h8.2v2.2h-2.9v8.3h-2.4V346.8z"/>
	<path fill="#FFFFFF" d="M89.5,350.5c-0.4,0.6-0.8,1-1.4,1.3l1.8,3.3h-2.8l-1.6-2.9h-1.3v2.9h-2.4v-10.5h4.5c0.7,0,1.4,0.2,1.9,0.5
		c0.6,0.3,1,0.8,1.3,1.4c0.3,0.6,0.5,1.2,0.5,2C90,349.2,89.8,349.9,89.5,350.5z M84.2,350.3h1.7c0.5,0,0.9-0.2,1.2-0.5
		c0.3-0.3,0.5-0.8,0.5-1.3c0-0.5-0.2-1-0.5-1.3c-0.3-0.3-0.7-0.5-1.2-0.5h-1.7V350.3z"/>
	<path fill="#FFFFFF" d="M91.5,344.6H94v10.5h-2.4V344.6z"/>
	<path fill="#FFFFFF" d="M103.2,350.5c0.4,0.4,0.6,1,0.6,1.7c0,0.9-0.3,1.6-0.9,2.1c-0.6,0.5-1.4,0.8-2.5,0.8H96v-10.5h4.3
		c1,0,1.9,0.2,2.5,0.7c0.6,0.5,0.9,1.2,0.9,2c0,0.7-0.2,1.2-0.5,1.6c-0.4,0.4-0.9,0.7-1.5,0.8C102.3,349.8,102.8,350.1,103.2,350.5z
		 M98.4,346.4v2.6h1.3c0.5,0,0.8-0.1,1.1-0.3c0.3-0.2,0.4-0.5,0.4-0.9c0-0.4-0.1-0.7-0.4-0.9c-0.3-0.2-0.6-0.3-1.1-0.3H98.4z
		 M101,352.9c0.3-0.2,0.4-0.6,0.4-1c0-0.4-0.1-0.7-0.4-0.9c-0.3-0.2-0.6-0.4-1.1-0.4h-1.5v2.7h1.5
		C100.4,353.3,100.7,353.2,101,352.9z"/>
	<path fill="#FFFFFF" d="M106.2,354.4c-0.8-0.7-1.1-1.6-1.1-2.8v-6.9h2.4v6.8c0,0.6,0.2,1.1,0.5,1.4c0.3,0.3,0.8,0.5,1.3,0.5
		c0.6,0,1-0.2,1.3-0.5c0.3-0.3,0.5-0.8,0.5-1.4v-6.8h2.4v6.9c0,1.2-0.4,2.2-1.1,2.8s-1.8,1-3.1,1C108,355.4,107,355.1,106.2,354.4z"
		/>
	<path fill="#FFFFFF" d="M117.3,346.8h-2.9v-2.2h8.2v2.2h-2.9v8.3h-2.4V346.8z"/>
	<path fill="#FFFFFF" d="M123.7,344.6h2.4v10.5h-2.4V344.6z"/>
	<path fill="#FFFFFF" d="M130.2,354.7c-0.9-0.5-1.5-1.2-2-2c-0.5-0.8-0.7-1.8-0.7-2.8c0-1,0.2-1.9,0.7-2.8c0.5-0.8,1.1-1.5,2-2
		c0.8-0.5,1.8-0.8,3-0.8c1.1,0,2.1,0.3,3,0.8s1.5,1.2,2,2s0.7,1.8,0.7,2.8c0,1-0.2,1.9-0.7,2.8c-0.5,0.8-1.1,1.5-2,2
		c-0.8,0.5-1.8,0.8-3,0.8C132,355.4,131,355.2,130.2,354.7z M134.8,352.8c0.5-0.3,0.8-0.7,1.1-1.2c0.2-0.5,0.4-1.1,0.4-1.7
		s-0.1-1.2-0.4-1.7c-0.2-0.5-0.6-0.9-1.1-1.2c-0.5-0.3-1-0.5-1.7-0.5c-0.6,0-1.2,0.2-1.7,0.5s-0.8,0.7-1.1,1.2s-0.4,1.1-0.3,1.7
		c0,0.6,0.1,1.2,0.3,1.7c0.2,0.5,0.6,0.9,1.1,1.2c0.5,0.3,1,0.5,1.7,0.5C133.8,353.3,134.4,353.1,134.8,352.8z"/>
	<path fill="#FFFFFF" d="M140.2,344.6h2.5l3.6,6.8v-6.8h2.3v10.5h-2.5l-3.6-6.8v6.8h-2.3V344.6z"/>
</g>
<g>
	<circle fill="none" stroke="#7F3F98" stroke-miterlimit="10" stroke-dasharray="3,1" cx="99.3" cy="312.4" r="99.3"/>
</g>
<circle fill="#7F3F98" cx="100.5" cy="104.4" r="82.7"/>
<g>
	<circle fill="none" stroke="#7F3F98" stroke-miterlimit="10" stroke-dasharray="3,1" cx="99.8" cy="104.3" r="99.3"/>
</g>
<g>
	<circle fill="none" stroke="#7F3F98" stroke-miterlimit="10" stroke-dasharray="3,1" cx="101.5" cy="519.4" r="99.3"/>
</g>
<g>
	<g>
		<path fill="#FFFFFF" d="M91.6,89.3c0,2.1-3.4,3.5-4.2,5.3c-0.8,1.9,0.6,5.3-0.9,6.7c-1.4,1.4-4.8-0.1-6.7,0.7
			c-1.8,0.7-3.3,4.2-5.4,4.2c-2.1,0-3.5-3.4-5.4-4.2c-1.9-0.8-5.3,0.7-6.7-0.7c-1.5-1.4-0.1-4.8-0.9-6.7c-0.8-1.8-4.2-3.2-4.2-5.3
			c0-2.1,3.4-3.5,4.2-5.3c0.8-1.9-0.6-5.3,0.9-6.7c1.4-1.4,4.8,0.1,6.7-0.7c1.8-0.7,3.3-4.2,5.4-4.2s3.5,3.4,5.4,4.2
			c1.9,0.8,5.3-0.7,6.7,0.7c1.5,1.4,0.1,4.8,0.9,6.7C88.2,85.8,91.6,87.2,91.6,89.3z"/>
	</g>
	<circle fill="#7F3F98" cx="74.4" cy="89.3" r="6.1"/>
	<g>
		<path fill="#FFFFFF" d="M109.6,60.4c0,2.1-3.4,3.5-4.2,5.3c-0.8,1.9,0.6,5.3-0.9,6.7c-1.4,1.4-4.8-0.1-6.7,0.7
			c-1.8,0.7-3.3,4.2-5.4,4.2c-2.1,0-3.5-3.4-5.4-4.2c-1.9-0.8-5.3,0.7-6.7-0.7c-1.5-1.4-0.1-4.8-0.9-6.7c-0.8-1.8-4.2-3.2-4.2-5.3
			c0-2.1,3.4-3.5,4.2-5.3c0.8-1.9-0.6-5.3,0.9-6.7c1.4-1.4,4.8,0.1,6.7-0.7c1.8-0.7,3.3-4.2,5.4-4.2s3.5,3.4,5.4,4.2
			c1.9,0.8,5.3-0.7,6.7,0.7c1.5,1.4,0.1,4.8,0.9,6.7C106.2,56.9,109.6,58.3,109.6,60.4z"/>
	</g>
	<circle fill="#7F3F98" cx="92.4" cy="60.4" r="6.1"/>
	<path fill="#FFFFFF" d="M127.5,105.4H104c-1.6,0-2.9-1.3-2.9-2.9V101c0-1.6,1.3-2.9,2.9-2.9h23.6c1.6,0,2.9,1.3,2.9,2.9v1.4
		C130.5,104.1,129.1,105.4,127.5,105.4z"/>
	<path fill="#FFFFFF" d="M129.5,95.3h-27.9v-7.8c0-0.2,0.2-0.4,0.4-0.4h27.5V95.3z"/>
	<path fill="#FFFFFF" d="M129.5,87.2h-13.2v-5.7c0-1.3,1.1-2.4,2.4-2.4h8.6c1.3,0,2.3,1,2.3,2.3V87.2z"/>
	<path fill="#FFFFFF" d="M134,93.1l1.7-13.1l1.4,0.2c3.7,0.5,6.2,3.8,5.8,7.5v0c-0.5,3.6-3.7,6.1-7.3,5.7L134,93.1z"/>
	<rect x="118.4" y="81.4" fill="#7F3F98" width="9" height="5.7"/>
	<circle fill="#7F3F98" cx="110.1" cy="101.7" r="1.5"/>
	<circle fill="#7F3F98" cx="104.5" cy="101.7" r="1.5"/>
	<circle fill="#7F3F98" cx="115.7" cy="101.7" r="1.5"/>
	<circle fill="#7F3F98" cx="121.3" cy="101.7" r="1.5"/>
	<circle fill="#7F3F98" cx="126.9" cy="101.7" r="1.5"/>
	<path fill="#FFFFFF" d="M140.7,83l-15.5-15.5c-0.1-0.4-0.5-0.7-0.9-0.7c-0.4,0-0.7,0.2-0.9,0.5l-21.7,20.2l1.1,1.2L124,68.8
		l15.4,15.4L140.7,83z"/>
</g>
<g>
	<path fill="#FFFFFF" d="M37.9,117.4h2.8l2.8,7.5l2.8-7.5h2.8v10.5h-2.3v-6.8l-2.3,6.8h-1.8l-2.4-6.9v6.9h-2.3V117.4z"/>
	<path fill="#FFFFFF" d="M56.9,126.7h-3.7l-0.4,1.3h-2.6l3.6-10.5h2.4l3.6,10.5h-2.6L56.9,126.7z M56.3,124.8l-1.3-4.7l-1.3,4.7
		H56.3z"/>
	<path fill="#FFFFFF" d="M61,117.4h2.5l3.6,6.8v-6.8h2.3v10.5H67l-3.6-6.8v6.8H61V117.4z"/>
	<path fill="#FFFFFF" d="M72.4,127.2c-0.8-0.7-1.1-1.6-1.1-2.8v-6.9h2.4v6.8c0,0.6,0.2,1.1,0.5,1.4c0.3,0.3,0.8,0.5,1.3,0.5
		s1-0.2,1.3-0.5c0.3-0.3,0.5-0.8,0.5-1.4v-6.8h2.4v6.9c0,1.2-0.4,2.2-1.1,2.8c-0.8,0.7-1.8,1-3.1,1S73.1,127.9,72.4,127.2z"/>
	<path fill="#FFFFFF" d="M81.5,117.4h6.4v2h-4v2.8h4v2h-4v3.6h-2.4V117.4z"/>
	<path fill="#FFFFFF" d="M94.7,126.7H91l-0.4,1.3h-2.6l3.6-10.5h2.4l3.6,10.5h-2.6L94.7,126.7z M94.2,124.8l-1.3-4.7l-1.3,4.7H94.2z
		"/>
	<path fill="#FFFFFF" d="M100.3,127.5c-0.9-0.5-1.5-1.1-2-2c-0.5-0.8-0.7-1.8-0.7-2.9c0-1.1,0.2-2,0.7-2.9c0.5-0.8,1.1-1.5,2-2
		c0.9-0.5,1.8-0.7,3-0.7c1,0,1.9,0.2,2.7,0.5c0.8,0.3,1.4,0.8,1.9,1.4c0.5,0.6,0.7,1.3,0.8,2.2H106c-0.1-0.6-0.4-1.1-0.9-1.4
		c-0.5-0.3-1.1-0.5-1.8-0.5c-1,0-1.7,0.3-2.3,0.9c-0.6,0.6-0.8,1.4-0.8,2.5s0.3,1.9,0.8,2.5c0.5,0.6,1.3,0.9,2.3,0.9
		c0.7,0,1.4-0.2,1.8-0.5c0.5-0.3,0.8-0.8,0.9-1.4h2.6c-0.1,0.8-0.4,1.5-0.8,2.2c-0.5,0.6-1.1,1.1-1.9,1.4s-1.7,0.5-2.7,0.5
		C102.1,128.2,101.1,128,100.3,127.5z"/>
	<path fill="#FFFFFF" d="M111.4,119.6h-2.9v-2.2h8.2v2.2h-2.9v8.3h-2.4V119.6z"/>
	<path fill="#FFFFFF" d="M118.7,127.2c-0.8-0.7-1.1-1.6-1.1-2.8v-6.9h2.4v6.8c0,0.6,0.2,1.1,0.5,1.4c0.3,0.3,0.8,0.5,1.3,0.5
		c0.6,0,1-0.2,1.3-0.5c0.3-0.3,0.5-0.8,0.5-1.4v-6.8h2.4v6.9c0,1.2-0.4,2.2-1.1,2.8c-0.8,0.7-1.8,1-3.1,1
		C120.5,128.2,119.5,127.9,118.7,127.2z"/>
	<path fill="#FFFFFF" d="M135.6,123.3c-0.4,0.6-0.8,1-1.4,1.3l1.8,3.3h-2.8l-1.7-2.9h-1.3v2.9h-2.4v-10.5h4.5c0.7,0,1.4,0.2,1.9,0.5
		c0.6,0.3,1,0.8,1.3,1.4s0.5,1.2,0.5,2C136.1,122,135.9,122.7,135.6,123.3z M130.3,123.1h1.7c0.5,0,0.9-0.2,1.2-0.5
		c0.3-0.3,0.5-0.8,0.5-1.3c0-0.5-0.2-1-0.5-1.3c-0.3-0.3-0.7-0.5-1.2-0.5h-1.7V123.1z"/>
	<path fill="#FFFFFF" d="M137.6,117.4h2.4v10.5h-2.4V117.4z"/>
	<path fill="#FFFFFF" d="M142.1,117.4h2.5l3.6,6.8v-6.8h2.3v10.5h-2.5l-3.6-6.8v6.8h-2.3V117.4z"/>
	<path fill="#FFFFFF" d="M163.8,124.3h-1c-0.3,1.3-0.9,2.3-1.8,2.9s-2.1,1-3.5,1c-1.1,0-2.1-0.2-2.9-0.7c-0.8-0.5-1.5-1.1-2-2
		s-0.7-1.8-0.7-2.8c0-1,0.2-2,0.7-2.8c0.4-0.9,1.1-1.5,2-2c0.9-0.5,1.9-0.8,3.1-0.8c0.9,0,1.7,0.2,2.5,0.5c0.7,0.3,1.3,0.7,1.7,1.3
		c0.4,0.5,0.7,1.2,0.7,1.8H160c-0.1-0.4-0.4-0.8-0.8-1.1c-0.4-0.3-0.9-0.4-1.5-0.4c-1,0-1.8,0.3-2.4,1c-0.5,0.7-0.8,1.5-0.8,2.5
		c0,0.7,0.1,1.2,0.4,1.8c0.2,0.5,0.6,0.9,1.1,1.2s1,0.4,1.6,0.4c1.5,0,2.4-0.6,2.7-1.9h-1.9v-1.8h5.4V124.3z"/>
	<path fill="#FFFFFF" d="M44.4,142.5h-0.6c0,1.1-0.4,2-1.1,2.7c-0.7,0.7-1.7,1-2.9,1c-0.8,0-1.5-0.1-2.1-0.4
		c-0.6-0.3-1.1-0.6-1.4-1.1c-0.4-0.5-0.5-1-0.5-1.7c0-0.7,0.2-1.2,0.6-1.7c0.4-0.5,0.9-0.8,1.4-0.9c-0.5-0.1-1-0.4-1.3-0.8
		c-0.3-0.4-0.5-0.9-0.5-1.5s0.2-1.1,0.5-1.6s0.8-0.8,1.4-1c0.6-0.2,1.2-0.4,1.9-0.4c1.3,0,2.2,0.3,2.9,0.9c0.6,0.6,1,1.4,1,2.5h-2.5
		c0-0.5-0.1-0.9-0.3-1.2c-0.2-0.3-0.6-0.4-1.1-0.4c-0.4,0-0.7,0.1-1,0.3c-0.3,0.2-0.4,0.5-0.4,0.9c0,0.9,0.5,1.3,1.4,1.3h0.3v1.9
		h-0.3c-0.5,0-0.9,0.1-1.2,0.4c-0.2,0.3-0.4,0.6-0.4,1.1c0,0.4,0.1,0.7,0.4,1s0.6,0.4,1.1,0.4c0.4,0,0.8-0.2,1.1-0.5
		c0.3-0.3,0.5-0.8,0.5-1.3h-0.7v-1.8h3.8V142.5z"/>
	<path fill="#FFFFFF" d="M51.2,145.5c-0.9-0.5-1.5-1.1-2-2c-0.5-0.8-0.7-1.8-0.7-2.9c0-1.1,0.2-2,0.7-2.9c0.5-0.8,1.1-1.5,2-2
		c0.9-0.5,1.8-0.7,3-0.7c1,0,1.9,0.2,2.7,0.5c0.8,0.3,1.4,0.8,1.9,1.4c0.5,0.6,0.7,1.3,0.8,2.2H57c-0.1-0.6-0.4-1.1-0.9-1.4
		s-1.1-0.5-1.8-0.5c-1,0-1.7,0.3-2.3,0.9c-0.6,0.6-0.8,1.4-0.8,2.5s0.3,1.9,0.8,2.5c0.5,0.6,1.3,0.9,2.3,0.9c0.7,0,1.4-0.2,1.8-0.5
		c0.5-0.3,0.8-0.8,0.9-1.4h2.6c-0.1,0.8-0.4,1.5-0.8,2.2c-0.5,0.6-1.1,1.1-1.9,1.4c-0.8,0.3-1.7,0.5-2.7,0.5
		C53.1,146.2,52.1,146,51.2,145.5z"/>
	<path fill="#FFFFFF" d="M63,145.5c-0.9-0.5-1.5-1.2-1.9-2c-0.5-0.8-0.7-1.8-0.7-2.8c0-1,0.2-1.9,0.7-2.8c0.4-0.8,1.1-1.5,1.9-2
		s1.8-0.8,3-0.8c1.1,0,2.1,0.3,3,0.8c0.8,0.5,1.5,1.2,2,2c0.4,0.8,0.7,1.8,0.7,2.8c0,1-0.2,1.9-0.7,2.8c-0.5,0.8-1.1,1.5-2,2
		c-0.9,0.5-1.8,0.8-3,0.8C64.9,146.2,63.9,146,63,145.5z M67.7,143.6c0.5-0.3,0.8-0.7,1.1-1.2c0.2-0.5,0.4-1.1,0.4-1.7
		s-0.1-1.2-0.4-1.7c-0.2-0.5-0.6-0.9-1.1-1.2c-0.5-0.3-1-0.5-1.7-0.5c-0.7,0-1.2,0.2-1.7,0.5c-0.5,0.3-0.8,0.7-1.1,1.2
		c-0.2,0.5-0.4,1.1-0.3,1.7c0,0.6,0.1,1.2,0.3,1.7c0.2,0.5,0.6,0.9,1.1,1.2c0.5,0.3,1,0.5,1.7,0.5C66.6,144.1,67.2,143.9,67.7,143.6
		z"/>
	<path fill="#FFFFFF" d="M73,135.4h2.5l3.6,6.8v-6.8h2.3v10.5H79l-3.6-6.8v6.8H73V135.4z"/>
	<path fill="#FFFFFF" d="M83.9,145.3c-0.7-0.7-1.1-1.6-1.1-2.8h2.4c0,0.6,0.2,1,0.5,1.3s0.7,0.5,1.3,0.5c0.5,0,0.8-0.1,1-0.3
		s0.4-0.5,0.4-0.9c0-0.3-0.1-0.6-0.3-0.8c-0.2-0.2-0.5-0.4-1-0.6l-1.9-0.7c-0.7-0.3-1.2-0.6-1.6-1.1c-0.4-0.5-0.5-1.1-0.5-1.7
		c0-0.6,0.2-1.1,0.5-1.6c0.3-0.5,0.7-0.8,1.3-1.1s1.2-0.4,2-0.4c0.8,0,1.4,0.1,2,0.4c0.6,0.3,1,0.7,1.3,1.2c0.3,0.5,0.5,1.1,0.5,1.8
		h-2.4c0-0.5-0.1-0.9-0.4-1.1c-0.3-0.3-0.6-0.4-1.1-0.4c-0.4,0-0.7,0.1-0.9,0.3c-0.2,0.2-0.3,0.4-0.3,0.8c0,0.3,0.1,0.5,0.3,0.7
		c0.2,0.2,0.6,0.4,1.1,0.6l1.7,0.7c0.7,0.3,1.3,0.7,1.6,1.2c0.3,0.5,0.5,1.1,0.5,1.8c0,0.6-0.2,1.2-0.5,1.7
		c-0.3,0.5-0.8,0.9-1.4,1.1c-0.6,0.3-1.3,0.4-2,0.4C85.7,146.2,84.7,145.9,83.9,145.3z"/>
	<path fill="#FFFFFF" d="M94,137.6h-2.9v-2.2h8.2v2.2h-2.9v8.3H94V137.6z"/>
	<path fill="#FFFFFF" d="M108.1,141.3c-0.4,0.6-0.8,1-1.4,1.3l1.8,3.3h-2.8l-1.6-2.9h-1.3v2.9h-2.4v-10.5h4.5c0.7,0,1.4,0.2,1.9,0.5
		c0.6,0.3,1,0.8,1.3,1.4c0.3,0.6,0.5,1.2,0.5,2C108.7,140,108.5,140.7,108.1,141.3z M102.9,141.1h1.7c0.5,0,0.9-0.2,1.2-0.5
		s0.5-0.8,0.5-1.3c0-0.5-0.2-1-0.5-1.3s-0.7-0.5-1.2-0.5h-1.7V141.1z"/>
	<path fill="#FFFFFF" d="M111,145.2c-0.8-0.7-1.1-1.6-1.1-2.8v-6.9h2.4v6.8c0,0.6,0.2,1.1,0.5,1.4c0.3,0.3,0.8,0.5,1.3,0.5
		c0.6,0,1-0.2,1.3-0.5c0.3-0.3,0.5-0.8,0.5-1.4v-6.8h2.4v6.9c0,1.2-0.4,2.2-1.1,2.8c-0.8,0.7-1.8,1-3.1,1
		C112.8,146.2,111.8,145.9,111,145.2z"/>
	<path fill="#FFFFFF" d="M122.2,145.5c-0.9-0.5-1.5-1.1-2-2s-0.7-1.8-0.7-2.9c0-1.1,0.2-2,0.7-2.9c0.5-0.8,1.1-1.5,2-2
		c0.9-0.5,1.8-0.7,3-0.7c1,0,1.9,0.2,2.7,0.5c0.8,0.3,1.4,0.8,1.9,1.4s0.7,1.3,0.8,2.2H128c-0.1-0.6-0.5-1.1-0.9-1.4
		c-0.5-0.3-1.1-0.5-1.8-0.5c-1,0-1.7,0.3-2.3,0.9c-0.5,0.6-0.8,1.4-0.8,2.5s0.3,1.9,0.8,2.5c0.5,0.6,1.3,0.9,2.3,0.9
		c0.7,0,1.4-0.2,1.8-0.5c0.5-0.3,0.8-0.8,0.9-1.4h2.6c-0.1,0.8-0.4,1.5-0.8,2.2s-1.1,1.1-1.9,1.4c-0.8,0.3-1.7,0.5-2.7,0.5
		C124.1,146.2,123.1,146,122.2,145.5z"/>
	<path fill="#FFFFFF" d="M133.4,137.6h-2.9v-2.2h8.2v2.2h-2.9v8.3h-2.4V137.6z"/>
	<path fill="#FFFFFF" d="M139.8,135.4h2.4v10.5h-2.4V135.4z"/>
	<path fill="#FFFFFF" d="M146.2,145.5c-0.9-0.5-1.5-1.2-2-2c-0.5-0.8-0.7-1.8-0.7-2.8c0-1,0.2-1.9,0.7-2.8s1.1-1.5,2-2
		c0.8-0.5,1.8-0.8,3-0.8c1.1,0,2.1,0.3,3,0.8s1.5,1.2,2,2s0.7,1.8,0.7,2.8c0,1-0.2,1.9-0.7,2.8c-0.5,0.8-1.1,1.5-2,2
		c-0.8,0.5-1.8,0.8-3,0.8C148.1,146.2,147.1,146,146.2,145.5z M150.9,143.6c0.5-0.3,0.8-0.7,1.1-1.2c0.2-0.5,0.4-1.1,0.4-1.7
		s-0.1-1.2-0.4-1.7c-0.2-0.5-0.6-0.9-1.1-1.2c-0.5-0.3-1-0.5-1.7-0.5c-0.6,0-1.2,0.2-1.7,0.5s-0.8,0.7-1.1,1.2s-0.4,1.1-0.3,1.7
		c0,0.6,0.1,1.2,0.3,1.7c0.2,0.5,0.6,0.9,1.1,1.2c0.5,0.3,1,0.5,1.7,0.5C149.9,144.1,150.4,143.9,150.9,143.6z"/>
	<path fill="#FFFFFF" d="M156.3,135.4h2.5l3.6,6.8v-6.8h2.3v10.5h-2.5l-3.6-6.8v6.8h-2.3V135.4z"/>
</g>
<g>
	<path fill="#FFFFFF" d="M66.3,553.3c-0.7-0.7-1.1-1.6-1.1-2.8h2.4c0,0.6,0.2,1,0.5,1.3c0.3,0.3,0.7,0.5,1.3,0.5
		c0.5,0,0.8-0.1,1-0.3s0.4-0.5,0.4-0.9c0-0.3-0.1-0.6-0.3-0.8c-0.2-0.2-0.5-0.4-1-0.6l-1.9-0.7c-0.7-0.3-1.2-0.6-1.6-1.1
		c-0.4-0.5-0.5-1.1-0.5-1.7c0-0.6,0.2-1.1,0.5-1.6c0.3-0.5,0.7-0.8,1.3-1.1s1.2-0.4,2-0.4c0.8,0,1.4,0.1,2,0.4
		c0.6,0.3,1,0.7,1.3,1.2c0.3,0.5,0.5,1.1,0.5,1.8h-2.4c0-0.5-0.1-0.9-0.4-1.1c-0.3-0.3-0.6-0.4-1.1-0.4c-0.4,0-0.7,0.1-0.9,0.3
		c-0.2,0.2-0.3,0.4-0.3,0.8c0,0.3,0.1,0.5,0.3,0.7c0.2,0.2,0.6,0.4,1.1,0.6l1.7,0.7c0.7,0.3,1.3,0.7,1.6,1.2
		c0.3,0.5,0.5,1.1,0.5,1.8c0,0.7-0.2,1.2-0.5,1.7c-0.3,0.5-0.8,0.9-1.4,1.1c-0.6,0.3-1.3,0.4-2,0.4C68,554.3,67,554,66.3,553.3z"/>
	<path fill="#FFFFFF" d="M74.6,543.5H81v2h-4v2.4h4v1.9h-4v2.3h4v2h-6.4V543.5z"/>
	<path fill="#FFFFFF" d="M90.6,549.3c-0.4,0.6-0.8,1-1.4,1.3L91,554h-2.8l-1.6-2.9h-1.3v2.9h-2.4v-10.5h4.5c0.7,0,1.4,0.2,1.9,0.5
		c0.6,0.3,1,0.8,1.3,1.3c0.3,0.6,0.5,1.2,0.5,2C91.2,548.1,91,548.8,90.6,549.3z M85.4,549.1H87c0.5,0,0.9-0.2,1.2-0.5
		c0.3-0.3,0.5-0.8,0.5-1.3s-0.2-1-0.5-1.3c-0.3-0.3-0.7-0.5-1.2-0.5h-1.7V549.1z"/>
	<path fill="#FFFFFF" d="M91.1,543.5h2.6l2.2,7.4l2.2-7.4h2.6L97.2,554h-2.5L91.1,543.5z"/>
	<path fill="#FFFFFF" d="M101.7,543.5h2.4V554h-2.4V543.5z"/>
	<path fill="#FFFFFF" d="M108.2,553.6c-0.9-0.5-1.5-1.1-2-2c-0.5-0.8-0.7-1.8-0.7-2.9s0.2-2,0.7-2.9s1.1-1.5,2-2
		c0.9-0.5,1.8-0.7,3-0.7c1,0,1.9,0.2,2.7,0.5c0.8,0.3,1.4,0.8,1.9,1.4c0.5,0.6,0.7,1.3,0.8,2.2H114c-0.1-0.6-0.4-1.1-0.9-1.4
		c-0.5-0.3-1.1-0.5-1.8-0.5c-1,0-1.7,0.3-2.3,0.9c-0.5,0.6-0.8,1.4-0.8,2.5s0.3,1.9,0.8,2.5c0.5,0.6,1.3,0.9,2.3,0.9
		c0.7,0,1.4-0.2,1.8-0.5c0.5-0.3,0.8-0.8,0.9-1.4h2.6c-0.1,0.8-0.4,1.5-0.8,2.2c-0.5,0.6-1.1,1.1-1.9,1.4c-0.8,0.3-1.7,0.5-2.7,0.5
		C110,554.3,109.1,554.1,108.2,553.6z"/>
	<path fill="#FFFFFF" d="M117.9,543.5h6.4v2h-4v2.4h4v1.9h-4v2.3h4v2h-6.4V543.5z"/>
	<path fill="#FFFFFF" d="M138.1,550.6h-0.6c0,1.1-0.4,2-1.1,2.7c-0.7,0.7-1.7,1-2.9,1c-0.8,0-1.5-0.1-2.1-0.4
		c-0.6-0.3-1.1-0.6-1.4-1.1c-0.4-0.5-0.5-1-0.5-1.7c0-0.6,0.2-1.2,0.6-1.7c0.4-0.5,0.9-0.8,1.4-0.9c-0.5-0.2-1-0.4-1.3-0.8
		s-0.5-0.9-0.5-1.5c0-0.6,0.2-1.1,0.5-1.6s0.8-0.8,1.4-1s1.2-0.4,1.9-0.4c1.3,0,2.2,0.3,2.9,0.9c0.6,0.6,1,1.4,1,2.5h-2.5
		c0-0.5-0.1-0.9-0.3-1.2c-0.2-0.3-0.6-0.4-1.1-0.4c-0.4,0-0.7,0.1-1,0.3c-0.3,0.2-0.4,0.5-0.4,0.9c0,0.9,0.5,1.3,1.4,1.3h0.3v1.9
		h-0.3c-0.5,0-0.9,0.1-1.2,0.4c-0.2,0.3-0.4,0.6-0.4,1.1c0,0.4,0.1,0.7,0.4,1c0.3,0.3,0.6,0.4,1.1,0.4c0.4,0,0.8-0.2,1.1-0.5
		s0.5-0.8,0.5-1.4h-0.7v-1.8h3.8V550.6z"/>
	<path fill="#FFFFFF" d="M71.1,571.3c-0.8-0.7-1.1-1.6-1.1-2.8v-6.9h2.4v6.8c0,0.6,0.2,1,0.5,1.4c0.3,0.3,0.8,0.5,1.3,0.5
		s1-0.2,1.3-0.5c0.3-0.3,0.5-0.8,0.5-1.4v-6.8h2.4v6.9c0,1.2-0.4,2.2-1.1,2.8c-0.8,0.7-1.8,1-3.1,1S71.8,572,71.1,571.3z"/>
	<path fill="#FFFFFF" d="M82.2,563.7h-2.9v-2.2h8.2v2.2h-2.9v8.3h-2.4V563.7z"/>
	<path fill="#FFFFFF" d="M88.6,561.5H91V572h-2.4V561.5z"/>
	<path fill="#FFFFFF" d="M93,561.5h2.4v8.3h3.9v2.2H93V561.5z"/>
	<path fill="#FFFFFF" d="M101,561.5h2.4V572H101V561.5z"/>
	<path fill="#FFFFFF" d="M107.4,563.7h-2.9v-2.2h8.2v2.2h-2.9v8.3h-2.4V563.7z"/>
	<path fill="#FFFFFF" d="M113.8,561.5h2.4V572h-2.4V561.5z"/>
	<path fill="#FFFFFF" d="M118.2,561.5h6.4v2h-4v2.4h4v1.9h-4v2.3h4v2h-6.4V561.5z"/>
	<path fill="#FFFFFF" d="M126.8,571.3c-0.7-0.7-1.1-1.6-1.1-2.8h2.4c0,0.6,0.2,1,0.5,1.3c0.3,0.3,0.7,0.5,1.3,0.5
		c0.5,0,0.8-0.1,1-0.3s0.4-0.5,0.4-0.9c0-0.3-0.1-0.6-0.3-0.8c-0.2-0.2-0.5-0.4-1-0.6l-1.9-0.7c-0.7-0.3-1.2-0.6-1.6-1.1
		s-0.5-1.1-0.5-1.7c0-0.6,0.2-1.1,0.5-1.6c0.3-0.5,0.7-0.8,1.3-1.1c0.6-0.3,1.2-0.4,2-0.4c0.8,0,1.4,0.1,2,0.4s1,0.7,1.3,1.2
		c0.3,0.5,0.5,1.1,0.5,1.8h-2.4c0-0.5-0.1-0.9-0.4-1.1c-0.3-0.3-0.6-0.4-1.1-0.4c-0.4,0-0.7,0.1-0.9,0.3c-0.2,0.2-0.3,0.4-0.3,0.8
		c0,0.3,0.1,0.5,0.3,0.7c0.2,0.2,0.6,0.4,1.1,0.6l1.7,0.7c0.7,0.3,1.3,0.7,1.6,1.2c0.3,0.5,0.5,1.1,0.5,1.8c0,0.7-0.2,1.2-0.5,1.7
		c-0.3,0.5-0.8,0.9-1.3,1.1c-0.6,0.3-1.3,0.4-2,0.4C128.5,572.3,127.5,572,126.8,571.3z"/>
</g>
<g>
	<ellipse fill="none" stroke="#FFFFFF" stroke-width="3" stroke-miterlimit="10" cx="88.3" cy="487.5" rx="16.7" ry="15.9"/>
	<circle fill="#FFFFFF" cx="69.3" cy="479.2" r="6.9"/>
	<circle fill="#FFFFFF" cx="107.7" cy="479.2" r="6.9"/>
	<path fill="#FFFFFF" d="M73.6,488.2H65c-5.5,0-9.9,4.4-9.9,9.9v3.1h28.4v-3.1C83.5,492.6,79.1,488.2,73.6,488.2z"/>
	<path fill="#FFFFFF" d="M112,488.2h-8.7c-5.5,0-9.9,4.4-9.9,9.9v3.1h28.4v-3.1C121.9,492.6,117.5,488.2,112,488.2z"/>
	<circle fill="#7F3F98" cx="88.3" cy="487.5" r="15.2"/>
	<circle fill="#FFFFFF" cx="87.9" cy="484.6" r="7.8"/>
	<path fill="#FFFFFF" d="M92.7,493.5h-8.7c-5.5,0-9.9,4.4-9.9,9.9v8.1h28.4v-8.1C102.6,497.9,98.2,493.5,92.7,493.5z"/>
	<ellipse fill="none" stroke="#7F3F98" stroke-miterlimit="10" cx="88.3" cy="487.6" rx="18.7" ry="17.8"/>
	<path fill="#FFFFFF" stroke="#7F3F98" stroke-miterlimit="10" d="M117,509.3l-8.6-8.2c-0.4,0.2-1,0.3-1.7,0.3c-2.5,0-4-2.1-4.2-2.4
		c-0.7,0.7-1.5,1.4-2.2,2.1c0.6,0.5,2.3,1.9,2.5,4.1c0.1,0.5,0,0.9,0,1.3l8.6,8.2c1.5,1.4,3.9,1.4,5.4,0l0.3-0.3
		C118.5,513.1,118.5,510.7,117,509.3z"/>
	<path fill="#FFFFFF" d="M101.6,498.6c0.5,0.5,0.9,1.1,1.4,1.6c-0.6,0.3-1.2,0.7-1.8,1c-0.4-0.4-0.8-0.8-1.1-1.2L101.6,498.6z"/>
	<path fill="#FFFFFF" d="M137.4,513.8c-3.8,0-7.5,0-11.3-0.1c1.6-9.2,3.3-18.5,4.9-27.7h15.5C143.5,495.3,140.5,504.6,137.4,513.8z"
		/>
	<path fill="#FFFFFF" d="M130,536.1L130,536.1c2.8-9.9,5.6-19.7,8.3-29.6h11.9C143.5,516.3,136.8,526.2,130,536.1z"/>
</g>
<circle fill="#7F3F98" cx="99.3" cy="205.4" r="12.3"/>
<circle fill="none" stroke="#7F3F98" stroke-width="0.75" stroke-miterlimit="10" cx="99.3" cy="205.4" r="16"/>
<circle fill="#7F3F98" cx="99.3" cy="417.1" r="12.3"/>
<circle fill="none" stroke="#7F3F98" stroke-width="0.75" stroke-miterlimit="10" cx="99.3" cy="417.1" r="16"/>
</svg>
