<?xml version="1.0" encoding="utf-8"?>
<!-- Generator: Adobe Illustrator 24.1.2, SVG Export Plug-In . SVG Version: 6.00 Build 0)  -->
<svg version="1.1" id="Layer_2" xmlns="http://www.w3.org/2000/svg" xmlns:xlink="http://www.w3.org/1999/xlink" x="0px" y="0px"
	 viewBox="0 0 619.9 283.3" enable-background="new 0 0 619.9 283.3" xml:space="preserve">
<g>
	<path fill="#7F3F98" d="M4.3,142.1C4.3,73.7,54.9,15.4,121.4,5c37.6-5.8,71.6,2.8,103.3,22.8c23.1,14.6,43.1,32.8,62.5,51.7
		c6.5,6.4,13.1,12.8,19.4,19.4c2.4,2.5,3.9,2.4,6.4,0c14.6-13.8,28.7-28.2,44-41.4c23.8-20.6,49.1-38.9,79.9-47.7
		C481.7-3,524.3,1.1,562.8,29c28.1,20.3,43.6,48.9,49.7,82.5c9.2,50.4-4.2,93.9-41.3,129.4c-21.7,20.8-48.2,31.8-77.9,36.2
		c-41.6,6.1-77.2-8.3-110.2-31.5c-25.2-17.7-46.7-39.5-68.3-61.2c-4.8-4.9-4.9-4.9-9.7-0.2c-21.6,21-42.8,42.3-67.4,60
		c-30.4,21.8-64.1,35.6-101.7,34.4C60.3,276.1,14.8,226.2,6.1,162.7C5.2,155.5,3.9,148.3,4.3,142.1z M476,60.2
		c-16.8-0.6-33.6,5-49.4,13.7c-29.7,16.3-53.1,40.2-76.3,64.4c-2.2,2.2-1.2,3.5,0.6,5.3c8.8,8.5,17.5,17.3,26.4,25.8
		c14.2,13.5,28.7,26.8,45.7,36.8c20.5,12.1,42.3,18.5,66.3,14.1c40.3-7.5,67-41.1,66.3-83.2C554.8,92.7,521.7,60.2,476,60.2z
		 M145.3,60c-13.9,0-27,3.1-39.2,9.9C74,87.7,58,123.5,66.4,160.4c7.3,32,27,52.4,59.4,59.4c24.5,5.2,47.2-0.9,68.6-12.8
		c29.3-16.3,52.4-40,75.4-63.9c1.9-2,1.4-3.3-0.3-4.9c-18.2-16.8-34.9-35.2-54.5-50.4C194.4,71.8,172.2,60,145.3,60z"/>
</g>
<g>
	<path d="M119.3,135.5c-1.7-1.6-2.6-3.8-2.6-6.6h3.7c0,1.9,0.5,3.3,1.6,4.3c1.1,1,2.5,1.5,4.4,1.5c1.7,0,3-0.5,4-1.4
		c1-0.9,1.5-2.1,1.5-3.6c0-1.6-0.5-2.8-1.5-3.7c-1-0.9-2.4-1.3-4.3-1.3h-2v-3.2h2c1.7,0,2.9-0.4,3.8-1.2c0.9-0.8,1.3-1.9,1.3-3.4
		c0-1.3-0.5-2.3-1.4-3.1c-0.9-0.8-2.1-1.2-3.6-1.2c-1.7,0-3,0.5-4,1.4c-1,0.9-1.5,2.2-1.5,3.7h-3.6c0-2.5,0.8-4.5,2.4-5.9
		c1.6-1.5,3.8-2.2,6.6-2.2c1.7,0,3.3,0.3,4.6,0.9c1.3,0.6,2.3,1.5,3.1,2.6c0.7,1.1,1.1,2.4,1.1,3.9c0,1.5-0.4,2.8-1.3,3.9
		c-0.9,1-2.1,1.8-3.7,2.2c1.6,0.2,3,0.9,4,2.2c1,1.2,1.6,2.7,1.6,4.5c0,1.6-0.4,3-1.2,4.2c-0.8,1.2-1.9,2.2-3.3,2.8
		c-1.4,0.7-3,1-4.8,1C123.4,137.9,121,137.1,119.3,135.5z"/>
	<path d="M142.2,134.3c-1.7-2.4-2.6-5.9-2.6-10.5c0-4.6,0.9-8.1,2.6-10.5c1.7-2.4,4.3-3.6,7.7-3.6c3.4,0,5.9,1.2,7.7,3.6
		c1.7,2.4,2.6,5.9,2.6,10.5c0,4.6-0.9,8.1-2.6,10.5c-1.7,2.4-4.3,3.6-7.7,3.6C146.5,137.9,144,136.7,142.2,134.3z M156.7,123.8
		c0-7.2-2.3-10.8-6.8-10.8c-4.6,0-6.8,3.6-6.8,10.8c0,7.3,2.3,10.9,6.8,10.9C154.4,134.7,156.7,131,156.7,123.8z"/>
	<path d="M166.2,122.6c-1.1-0.6-1.9-1.5-2.4-2.5c-0.6-1-0.8-2.2-0.8-3.4c0-1.2,0.3-2.4,0.8-3.4c0.6-1,1.4-1.9,2.4-2.5
		c1.1-0.6,2.3-0.9,3.8-0.9s2.7,0.3,3.8,0.9c1.1,0.6,1.9,1.5,2.4,2.5c0.6,1,0.8,2.2,0.8,3.4c0,1.2-0.3,2.4-0.8,3.4
		c-0.6,1-1.4,1.9-2.4,2.5c-1.1,0.6-2.3,0.9-3.8,0.9S167.2,123.2,166.2,122.6z M172.9,119.6c0.7-0.8,1.1-1.7,1.1-2.9
		c0-1.2-0.4-2.1-1.1-2.9c-0.7-0.8-1.7-1.2-2.9-1.2s-2.2,0.4-2.9,1.2c-0.7,0.8-1.1,1.7-1.1,2.9c0,1.2,0.4,2.1,1.1,2.9
		c0.7,0.8,1.7,1.2,2.9,1.2S172.1,120.4,172.9,119.6z M167,136.7l18.9-27.3l2.3,1.3L169.4,138L167,136.7z M181.7,136.7
		c-1.1-0.6-1.9-1.5-2.4-2.5c-0.6-1-0.8-2.2-0.8-3.4c0-1.2,0.3-2.4,0.8-3.4c0.6-1,1.4-1.9,2.4-2.5c1.1-0.6,2.3-0.9,3.8-0.9
		s2.7,0.3,3.8,0.9c1.1,0.6,1.9,1.5,2.4,2.5c0.6,1,0.8,2.2,0.8,3.4c0,1.2-0.3,2.4-0.8,3.4c-0.6,1-1.4,1.9-2.4,2.5
		c-1.1,0.6-2.3,0.9-3.8,0.9S182.7,137.3,181.7,136.7z M188.3,133.7c0.7-0.8,1.1-1.7,1.1-2.9c0-1.2-0.4-2.1-1.1-2.9
		c-0.7-0.8-1.7-1.2-2.9-1.2s-2.2,0.4-2.9,1.2c-0.7,0.8-1.1,1.7-1.1,2.9c0,1.2,0.4,2.1,1.1,2.9c0.7,0.8,1.7,1.2,2.9,1.2
		S187.6,134.5,188.3,133.7z"/>
	<path d="M93.9,148c-0.3,0.2-0.4,0.6-0.4,1.2v1.5h2.3v1.3h-2.3v7h-1.6v-7h-1.8v-1.3h1.8v-1.4c0-1.1,0.3-1.9,0.8-2.3
		c0.6-0.4,1.2-0.6,1.8-0.6c0.5,0,1,0.1,1.3,0.2v1.3c-0.3-0.1-0.6-0.1-0.8-0.1C94.6,147.7,94.2,147.8,93.9,148z"/>
	<path d="M97.5,150.7H99v1.9c0.2-0.7,0.5-1.2,0.9-1.5s1-0.5,1.5-0.5c0.3,0,0.6,0,0.8,0.1v1.4c-0.2,0-0.4-0.1-0.8-0.1
		c-0.8,0-1.4,0.3-1.8,0.9s-0.6,1.4-0.6,2.4v3.6h-1.6V150.7z"/>
	<path d="M105.1,158.7c-0.7-0.4-1.2-0.9-1.5-1.6c-0.3-0.7-0.5-1.4-0.5-2.2c0-0.8,0.2-1.5,0.5-2.2c0.3-0.7,0.8-1.2,1.5-1.6
		c0.7-0.4,1.4-0.6,2.3-0.6s1.6,0.2,2.3,0.6c0.6,0.4,1.1,0.9,1.5,1.6s0.5,1.4,0.5,2.2c0,0.8-0.2,1.6-0.5,2.2s-0.8,1.2-1.5,1.6
		c-0.7,0.4-1.4,0.6-2.3,0.6S105.7,159,105.1,158.7z M109.4,157c0.5-0.6,0.7-1.3,0.7-2.1c0-0.9-0.2-1.6-0.7-2.1
		c-0.5-0.6-1.2-0.8-2-0.8s-1.5,0.3-2,0.8c-0.5,0.6-0.7,1.3-0.7,2.1c0,0.9,0.2,1.6,0.7,2.1c0.5,0.6,1.2,0.8,2,0.8
		S108.9,157.5,109.4,157z"/>
	<path d="M113.7,150.7h1.6v1.5c0.2-0.5,0.5-0.9,0.9-1.2s1-0.5,1.6-0.5c0.7,0,1.3,0.2,1.7,0.5c0.4,0.3,0.8,0.8,0.9,1.3
		c0.2-0.5,0.5-0.9,1-1.3s1-0.5,1.7-0.5c1.1,0,1.8,0.3,2.3,0.9c0.5,0.6,0.7,1.4,0.7,2.4v5.3h-1.6v-5c0-1.5-0.6-2.2-1.8-2.2
		c-0.6,0-1.1,0.2-1.5,0.7s-0.5,1.2-0.5,2.2v4.3h-1.6v-4.8c0-0.8-0.2-1.4-0.5-1.8c-0.3-0.4-0.8-0.5-1.3-0.5c-0.6,0-1.2,0.2-1.5,0.7
		c-0.4,0.5-0.5,1.2-0.5,2.1v4.3h-1.6V150.7z"/>
	<path d="M137.8,157.6v1.4c-0.4,0.1-0.8,0.1-1.4,0.1c-0.7,0-1.3-0.2-1.8-0.5c-0.5-0.4-0.7-1.1-0.7-2.3V152h-1.5v-1.3h1.5v-2.6h1.6
		v2.6h2.1v1.3h-2.1v3.9c0,0.5,0.1,0.9,0.2,1.1c0.1,0.3,0.3,0.4,0.4,0.5c0.2,0.1,0.4,0.1,0.7,0.1
		C137.1,157.7,137.5,157.7,137.8,157.6z"/>
	<path d="M146.4,151.4c0.5,0.6,0.8,1.4,0.8,2.5v5.1h-1.6v-4.4c0-0.9-0.2-1.6-0.5-2.1c-0.3-0.4-0.9-0.7-1.6-0.7
		c-0.8,0-1.3,0.2-1.7,0.7c-0.4,0.5-0.6,1.2-0.6,2v4.4h-1.6v-12.6h1.6v5.8c0.2-0.5,0.6-1,1.1-1.3c0.5-0.3,1.1-0.5,1.8-0.5
		C145.1,150.5,145.9,150.8,146.4,151.4z"/>
	<path d="M157.1,155.3h-6.4c0,0.8,0.3,1.4,0.7,1.9c0.5,0.5,1.1,0.7,1.9,0.7c0.5,0,1-0.1,1.4-0.3c0.4-0.2,0.7-0.5,0.8-0.9h1.6
		c-0.1,0.8-0.6,1.4-1.3,1.9c-0.7,0.5-1.5,0.7-2.5,0.7c-1.3,0-2.3-0.4-3-1.2c-0.8-0.8-1.1-1.9-1.1-3.2c0-0.9,0.2-1.6,0.5-2.3
		c0.3-0.7,0.8-1.2,1.4-1.5c0.6-0.4,1.3-0.5,2.2-0.5c0.8,0,1.5,0.2,2.1,0.5c0.6,0.3,1.1,0.8,1.4,1.4s0.5,1.3,0.5,2
		C157.2,154.6,157.2,154.9,157.1,155.3z M155.6,154.1c0-0.7-0.2-1.3-0.6-1.7s-1-0.6-1.8-0.6c-0.7,0-1.3,0.2-1.8,0.6
		c-0.4,0.4-0.7,1-0.7,1.7H155.6z"/>
	<path d="M170.5,151.1c0.6,0.4,1.1,0.9,1.4,1.5s0.5,1.4,0.5,2.3c0,0.8-0.2,1.6-0.5,2.3c-0.3,0.7-0.8,1.2-1.5,1.5
		c-0.6,0.4-1.3,0.6-2.1,0.6c-0.6,0-1.2-0.2-1.8-0.5c-0.5-0.3-0.9-0.7-1.2-1.2v5.3h-1.6v-12.1h1.6v1.5c0.3-0.5,0.7-0.9,1.2-1.2
		c0.5-0.3,1.2-0.4,1.8-0.4C169.1,150.5,169.8,150.7,170.5,151.1z M170,157c0.5-0.6,0.8-1.3,0.8-2.1c0-0.6-0.1-1.1-0.4-1.5
		c-0.2-0.5-0.6-0.8-1-1.1c-0.4-0.3-0.9-0.4-1.4-0.4c-0.8,0-1.5,0.3-2,0.8c-0.5,0.6-0.8,1.3-0.8,2.1c0,0.9,0.3,1.6,0.8,2.1
		s1.2,0.8,2,0.8C168.9,157.8,169.5,157.6,170,157z"/>
	<path d="M174.4,150.7h1.6v1.9c0.2-0.7,0.5-1.2,0.9-1.5s1-0.5,1.5-0.5c0.3,0,0.6,0,0.8,0.1v1.4c-0.2,0-0.4-0.1-0.8-0.1
		c-0.8,0-1.4,0.3-1.8,0.9s-0.6,1.4-0.6,2.4v3.6h-1.6V150.7z"/>
	<path d="M182,158.7c-0.7-0.4-1.2-0.9-1.5-1.6c-0.3-0.7-0.5-1.4-0.5-2.2c0-0.8,0.2-1.5,0.5-2.2c0.3-0.7,0.8-1.2,1.5-1.6
		c0.7-0.4,1.4-0.6,2.3-0.6s1.6,0.2,2.3,0.6c0.6,0.4,1.1,0.9,1.5,1.6s0.5,1.4,0.5,2.2c0,0.8-0.2,1.6-0.5,2.2s-0.8,1.2-1.5,1.6
		c-0.7,0.4-1.4,0.6-2.3,0.6S182.7,159,182,158.7z M186.3,157c0.5-0.6,0.7-1.3,0.7-2.1c0-0.9-0.2-1.6-0.7-2.1c-0.5-0.6-1.2-0.8-2-0.8
		s-1.5,0.3-2,0.8c-0.5,0.6-0.7,1.3-0.7,2.1c0,0.9,0.2,1.6,0.7,2.1c0.5,0.6,1.2,0.8,2,0.8S185.8,157.5,186.3,157z"/>
	<path d="M188.8,162.8v-1.4c0.2,0.1,0.5,0.1,0.8,0.1c0.6,0,0.9-0.4,0.9-1.1v-9.6h1.6v10.1c0,0.7-0.2,1.2-0.6,1.6s-0.9,0.6-1.6,0.6
		C189.4,163,189.1,162.9,188.8,162.8z M190.4,148.9c-0.2-0.2-0.4-0.5-0.4-0.9c0-0.4,0.1-0.7,0.4-0.9s0.5-0.4,0.9-0.4
		c0.4,0,0.7,0.1,0.9,0.4c0.2,0.2,0.4,0.5,0.4,0.9c0,0.4-0.1,0.7-0.4,0.9c-0.2,0.2-0.5,0.4-0.9,0.4
		C191,149.3,190.7,149.2,190.4,148.9z"/>
	<path d="M202.1,155.3h-6.4c0,0.8,0.3,1.4,0.7,1.9c0.5,0.5,1.1,0.7,1.9,0.7c0.5,0,1-0.1,1.4-0.3c0.4-0.2,0.7-0.5,0.8-0.9h1.6
		c-0.1,0.8-0.6,1.4-1.3,1.9c-0.7,0.5-1.5,0.7-2.5,0.7c-1.3,0-2.3-0.4-3-1.2c-0.8-0.8-1.1-1.9-1.1-3.2c0-0.9,0.2-1.6,0.5-2.3
		c0.3-0.7,0.8-1.2,1.4-1.5c0.6-0.4,1.3-0.5,2.2-0.5c0.8,0,1.5,0.2,2.1,0.5c0.6,0.3,1.1,0.8,1.4,1.4s0.5,1.3,0.5,2
		C202.2,154.6,202.2,154.9,202.1,155.3z M200.6,154.1c0-0.7-0.2-1.3-0.6-1.7s-1-0.6-1.8-0.6c-0.7,0-1.3,0.2-1.8,0.6
		c-0.4,0.4-0.7,1-0.7,1.7H200.6z"/>
	<path d="M205.6,158.7c-0.6-0.4-1.1-0.9-1.4-1.5s-0.5-1.4-0.5-2.3c0-0.9,0.2-1.6,0.5-2.3c0.3-0.7,0.8-1.2,1.4-1.5
		c0.6-0.4,1.3-0.5,2.2-0.5c1.1,0,2,0.3,2.7,0.8c0.7,0.6,1.1,1.3,1.2,2.2h-1.6c-0.1-0.6-0.4-1-0.7-1.3c-0.4-0.3-0.9-0.4-1.6-0.4
		c-0.8,0-1.4,0.3-1.9,0.8c-0.5,0.5-0.7,1.2-0.7,2.2s0.2,1.6,0.7,2.2c0.5,0.5,1.1,0.8,1.9,0.8c0.6,0,1.2-0.1,1.6-0.4
		c0.4-0.3,0.6-0.7,0.7-1.2h1.6c-0.1,0.9-0.5,1.7-1.2,2.2s-1.6,0.8-2.7,0.8C206.9,159.2,206.2,159,205.6,158.7z"/>
	<path d="M218.1,157.6v1.4c-0.4,0.1-0.8,0.1-1.4,0.1c-0.7,0-1.3-0.2-1.8-0.5c-0.5-0.4-0.7-1.1-0.7-2.3V152h-1.5v-1.3h1.5v-2.6h1.6
		v2.6h2.1v1.3h-2.1v3.9c0,0.5,0.1,0.9,0.2,1.1c0.1,0.3,0.3,0.4,0.4,0.5c0.2,0.1,0.4,0.1,0.7,0.1
		C217.5,157.7,217.9,157.7,218.1,157.6z"/>
</g>
<g>
	<path d="M444.7,113.5h-11.9V108H454l-13.3,27.2h-7.2L444.7,113.5z"/>
	<path d="M456.3,132.2c-1.9-2.4-2.9-5.9-2.9-10.6c0-4.6,1-8.1,2.9-10.6c1.9-2.4,4.8-3.6,8.5-3.6c3.7,0,6.5,1.2,8.5,3.6
		c1.9,2.4,2.9,5.9,2.9,10.6c0,4.6-1,8.1-2.9,10.6c-1.9,2.4-4.8,3.6-8.5,3.6C461.1,135.8,458.3,134.6,456.3,132.2z M468.7,128.4
		c0.9-1.5,1.3-3.7,1.3-6.8c0-3.1-0.4-5.3-1.3-6.8c-0.9-1.5-2.2-2.2-3.9-2.2c-1.8,0-3.1,0.7-3.9,2.2c-0.9,1.5-1.3,3.7-1.3,6.8
		c0,3.1,0.4,5.3,1.3,6.8c0.9,1.5,2.2,2.2,3.9,2.2C466.6,130.6,467.9,129.9,468.7,128.4z"/>
	<path d="M481.9,120.4c-1.1-0.6-1.9-1.5-2.5-2.5c-0.6-1-0.9-2.2-0.9-3.4c0-1.2,0.3-2.4,0.9-3.4c0.6-1,1.4-1.9,2.5-2.5
		c1.1-0.6,2.4-0.9,3.9-0.9s2.8,0.3,3.9,0.9c1.1,0.6,2,1.5,2.5,2.5c0.6,1,0.9,2.2,0.9,3.4c0,1.2-0.3,2.4-0.9,3.4
		c-0.6,1-1.4,1.9-2.5,2.5c-1.1,0.6-2.4,0.9-3.9,0.9S483,121,481.9,120.4z M488,116.8c0.5-0.6,0.8-1.3,0.8-2.2c0-0.9-0.3-1.7-0.8-2.3
		c-0.5-0.6-1.3-0.9-2.2-0.9s-1.7,0.3-2.2,0.9s-0.8,1.4-0.8,2.3c0,0.9,0.3,1.7,0.8,2.2c0.5,0.6,1.3,0.9,2.2,0.9
		S487.5,117.3,488,116.8z M482.9,134.3l19-27.4l3,1.8L486,136L482.9,134.3z M498.1,134.5c-1.1-0.6-1.9-1.5-2.5-2.5
		c-0.6-1-0.9-2.2-0.9-3.4c0-1.2,0.3-2.4,0.9-3.4c0.6-1,1.4-1.9,2.5-2.5c1.1-0.6,2.4-0.9,3.9-0.9c1.5,0,2.8,0.3,3.9,0.9
		c1.1,0.6,2,1.5,2.5,2.5c0.6,1,0.9,2.2,0.9,3.4c0,1.2-0.3,2.4-0.9,3.4c-0.6,1-1.4,1.9-2.5,2.5c-1.1,0.6-2.4,0.9-3.9,0.9
		C500.5,135.5,499.2,135.2,498.1,134.5z M504.2,130.9c0.5-0.6,0.8-1.3,0.8-2.2c0-0.9-0.3-1.7-0.8-2.3c-0.5-0.6-1.3-0.9-2.2-0.9
		s-1.7,0.3-2.2,0.9c-0.5,0.6-0.8,1.4-0.8,2.3c0,0.9,0.3,1.7,0.8,2.2s1.3,0.9,2.2,0.9S503.7,131.5,504.2,130.9z"/>
	<path d="M421,146.4c-0.2,0.2-0.4,0.4-0.4,0.9v0.9h2v2.2h-2v6.5h-2.8v-6.5h-1.5v-2.2h1.5v-0.8c0-1.2,0.3-2,1-2.5
		c0.6-0.5,1.4-0.7,2.2-0.7c0.6,0,1.2,0.1,1.6,0.2v2c-0.1,0-0.2,0-0.3,0c-0.1,0-0.3,0-0.4,0C421.5,146.1,421.2,146.2,421,146.4z"/>
	<path d="M424,148.1h2.8v1.8c0.1-0.6,0.4-1.1,0.9-1.4c0.5-0.3,1-0.5,1.5-0.5c0.3,0,0.5,0,0.7,0.1v2.6c-0.3,0-0.6-0.1-0.8-0.1
		c-0.7,0-1.3,0.2-1.7,0.7s-0.6,1.2-0.6,2.2v3.3H424V148.1z"/>
	<path d="M432.9,156.5c-0.7-0.4-1.3-0.9-1.7-1.6s-0.6-1.5-0.6-2.4s0.2-1.7,0.6-2.4c0.4-0.7,1-1.2,1.7-1.6c0.7-0.4,1.6-0.6,2.6-0.6
		c1,0,1.8,0.2,2.5,0.6c0.7,0.4,1.3,0.9,1.7,1.6c0.4,0.7,0.6,1.5,0.6,2.4c0,0.9-0.2,1.7-0.6,2.4s-0.9,1.2-1.7,1.6
		c-0.7,0.4-1.6,0.6-2.5,0.6C434.5,157.1,433.6,156.9,432.9,156.5z M437,154.1c0.4-0.4,0.6-1,0.6-1.6s-0.2-1.2-0.6-1.6
		s-0.9-0.6-1.5-0.6c-0.6,0-1.2,0.2-1.5,0.6s-0.5,1-0.5,1.6s0.2,1.2,0.5,1.6s0.9,0.6,1.5,0.6C436.1,154.7,436.6,154.5,437,154.1z"/>
	<path d="M441.8,148.1h2.8v1.3c0.2-0.4,0.5-0.8,0.9-1.1c0.4-0.3,1-0.4,1.5-0.4c1.4,0,2.3,0.5,2.7,1.6c0.2-0.5,0.6-0.9,1.1-1.2
		s1-0.4,1.7-0.4c2.1,0,3.1,1.2,3.1,3.5v5.4h-2.8v-4.9c0-0.6-0.1-1-0.3-1.3s-0.5-0.4-1-0.4c-0.5,0-0.8,0.2-1.1,0.5
		c-0.3,0.3-0.4,0.9-0.4,1.6v4.5h-2.8v-4.9c0-0.6-0.1-1-0.3-1.3c-0.2-0.3-0.5-0.4-1-0.4c-0.5,0-0.8,0.2-1.1,0.5
		c-0.3,0.3-0.4,0.9-0.4,1.6v4.5h-2.8V148.1z"/>
	<path d="M463.7,156.5c-0.7-0.4-1.2-0.9-1.6-1.6s-0.6-1.5-0.6-2.4s0.2-1.7,0.6-2.4c0.4-0.7,0.9-1.2,1.6-1.6c0.7-0.4,1.5-0.6,2.5-0.6
		c1.3,0,2.3,0.3,3.1,1c0.8,0.6,1.3,1.5,1.4,2.6h-2.8c-0.1-0.4-0.3-0.7-0.6-0.9c-0.3-0.2-0.7-0.3-1.2-0.3c-0.6,0-1.1,0.2-1.4,0.6
		c-0.3,0.4-0.5,1-0.5,1.7s0.2,1.3,0.5,1.7c0.3,0.4,0.8,0.6,1.4,0.6c0.5,0,0.9-0.1,1.2-0.3c0.3-0.2,0.5-0.5,0.6-0.9h2.8
		c-0.1,1.1-0.6,1.9-1.4,2.5c-0.8,0.6-1.8,0.9-3.1,0.9C465.2,157.1,464.4,156.9,463.7,156.5z"/>
	<path d="M481,151.4v5.4h-2.8v-4.5c0-0.7-0.1-1.3-0.4-1.6s-0.6-0.5-1.2-0.5c-0.6,0-1,0.2-1.3,0.5c-0.3,0.3-0.4,0.9-0.4,1.5v4.5h-2.8
		v-12.6h2.8v5.2c0.3-0.5,0.6-0.8,1.1-1.1c0.5-0.3,1-0.4,1.7-0.4C479.9,147.9,481,149.1,481,151.4z"/>
	<path d="M484.4,156.4c-0.6-0.4-1.1-0.9-1.4-1.6c-0.3-0.7-0.5-1.5-0.5-2.3c0-0.9,0.2-1.6,0.5-2.3s0.8-1.2,1.4-1.6
		c0.6-0.4,1.4-0.6,2.2-0.6c0.6,0,1.2,0.1,1.6,0.4c0.5,0.3,0.8,0.6,1.1,1.1v-1.2h2.7v8.7h-2.7v-1.2c-0.2,0.4-0.6,0.8-1.1,1.1
		c-0.5,0.3-1,0.4-1.6,0.4C485.8,157,485,156.8,484.4,156.4z M488.9,154.1c0.4-0.4,0.5-1,0.5-1.6c0-0.6-0.2-1.2-0.5-1.6
		s-0.9-0.6-1.5-0.6c-0.6,0-1.1,0.2-1.5,0.6s-0.6,1-0.6,1.6s0.2,1.2,0.6,1.6c0.4,0.4,0.9,0.6,1.5,0.6
		C488.1,154.7,488.6,154.5,488.9,154.1z"/>
	<path d="M494.4,148.1h2.8v1.3c0.3-0.5,0.6-0.8,1.1-1.1c0.5-0.3,1.1-0.4,1.7-0.4c2.1,0,3.2,1.2,3.2,3.5v5.4h-2.8v-4.5
		c0-0.7-0.1-1.3-0.4-1.6c-0.2-0.3-0.6-0.5-1.2-0.5s-1,0.2-1.3,0.5c-0.3,0.3-0.4,0.9-0.4,1.5v4.5h-2.8V148.1z"/>
	<path d="M514.3,148.1v8.1c0,0.8-0.1,1.6-0.4,2.2s-0.7,1.1-1.2,1.5c-0.7,0.5-1.8,0.8-3.1,0.8c-1.3,0-2.4-0.2-3.1-0.7
		c-0.4-0.3-0.8-0.6-1.1-1.1c-0.3-0.4-0.4-0.9-0.5-1.4h2.8c0.1,0.3,0.2,0.6,0.5,0.8c0.3,0.2,0.7,0.3,1.3,0.3c0.7,0,1.2-0.2,1.5-0.5
		c0.3-0.3,0.5-0.9,0.5-1.6v-1.2c-0.2,0.4-0.6,0.8-1.1,1c-0.5,0.3-1.1,0.4-1.6,0.4c-0.8,0-1.6-0.2-2.2-0.6s-1.1-0.9-1.4-1.6
		s-0.5-1.4-0.5-2.3c0-0.9,0.2-1.6,0.5-2.3c0.3-0.7,0.8-1.2,1.5-1.6c0.6-0.4,1.4-0.6,2.2-0.6c0.6,0,1.1,0.1,1.6,0.4
		c0.5,0.3,0.8,0.6,1.1,1.1v-1.2H514.3z M511.1,154c0.4-0.4,0.6-1,0.6-1.6c0-0.6-0.2-1.2-0.6-1.6c-0.4-0.4-0.9-0.6-1.5-0.6
		c-0.6,0-1.1,0.2-1.5,0.6c-0.4,0.4-0.6,1-0.6,1.6s0.2,1.2,0.6,1.6s0.9,0.6,1.5,0.6C510.2,154.7,510.7,154.5,511.1,154z"/>
	<path d="M525,153.2h-6.4c0,0.6,0.2,1,0.6,1.3c0.4,0.3,0.8,0.5,1.5,0.5c0.9,0,1.4-0.3,1.6-0.8h2.7c-0.1,0.6-0.3,1.1-0.7,1.5
		c-0.4,0.4-0.9,0.8-1.5,1s-1.3,0.4-2.1,0.4c-1.5,0-2.6-0.4-3.5-1.2c-0.9-0.8-1.3-1.9-1.3-3.4c0-0.9,0.2-1.7,0.6-2.4
		c0.4-0.7,0.9-1.2,1.6-1.6s1.5-0.6,2.5-0.6c0.9,0,1.7,0.2,2.4,0.5c0.7,0.3,1.2,0.8,1.6,1.5c0.4,0.6,0.6,1.3,0.6,2.2
		C525.1,152.4,525.1,152.8,525,153.2z M522.4,151.5c0-0.6-0.2-1-0.5-1.3c-0.3-0.3-0.8-0.5-1.3-0.5s-1.1,0.2-1.4,0.5
		c-0.3,0.3-0.5,0.8-0.5,1.3H522.4z"/>
	<path d="M414.7,165.8h3.4l3.3,8.9l3.3-8.9h3.3v12.6h-2.8v-8.2l-2.8,8.2h-2.2l-2.9-8.2v8.2h-2.8V165.8z"/>
	<path d="M431.8,178c-0.6-0.4-1.1-0.9-1.4-1.6c-0.3-0.7-0.5-1.5-0.5-2.3c0-0.9,0.2-1.6,0.5-2.3s0.8-1.2,1.4-1.6
		c0.6-0.4,1.4-0.6,2.2-0.6c0.6,0,1.2,0.1,1.6,0.4c0.5,0.3,0.8,0.6,1.1,1.1v-1.2h2.7v8.7h-2.7v-1.2c-0.2,0.4-0.6,0.8-1.1,1.1
		c-0.5,0.3-1,0.4-1.6,0.4C433.1,178.6,432.4,178.4,431.8,178z M436.3,175.7c0.4-0.4,0.5-1,0.5-1.6c0-0.6-0.2-1.2-0.5-1.6
		s-0.9-0.6-1.5-0.6c-0.6,0-1.1,0.2-1.5,0.6s-0.6,1-0.6,1.6s0.2,1.2,0.6,1.6c0.4,0.4,0.9,0.6,1.5,0.6
		C435.4,176.3,435.9,176.1,436.3,175.7z"/>
	<path d="M441.7,169.7h2.8v1.3c0.3-0.5,0.6-0.8,1.1-1.1c0.5-0.3,1.1-0.4,1.7-0.4c2.1,0,3.2,1.2,3.2,3.5v5.4h-2.8v-4.5
		c0-0.7-0.1-1.3-0.4-1.6c-0.2-0.3-0.6-0.5-1.2-0.5s-1,0.2-1.3,0.5c-0.3,0.3-0.4,0.9-0.4,1.5v4.5h-2.8V169.7z"/>
	<path d="M453.9,178c-0.6-0.4-1.1-0.9-1.4-1.6c-0.3-0.7-0.5-1.5-0.5-2.3c0-0.9,0.2-1.6,0.5-2.3s0.8-1.2,1.4-1.6
		c0.6-0.4,1.4-0.6,2.2-0.6c0.6,0,1.2,0.1,1.6,0.4c0.5,0.3,0.8,0.6,1.1,1.1v-1.2h2.7v8.7h-2.7v-1.2c-0.2,0.4-0.6,0.8-1.1,1.1
		c-0.5,0.3-1,0.4-1.6,0.4C455.3,178.6,454.5,178.4,453.9,178z M458.4,175.7c0.4-0.4,0.5-1,0.5-1.6c0-0.6-0.2-1.2-0.5-1.6
		c-0.4-0.4-0.9-0.6-1.5-0.6c-0.6,0-1.1,0.2-1.5,0.6s-0.6,1-0.6,1.6s0.2,1.2,0.6,1.6c0.4,0.4,0.9,0.6,1.5,0.6
		C457.6,176.3,458.1,176.1,458.4,175.7z"/>
	<path d="M472.8,169.7v8.1c0,0.8-0.1,1.6-0.4,2.2s-0.7,1.1-1.2,1.5c-0.7,0.5-1.8,0.8-3.1,0.8c-1.3,0-2.4-0.2-3.1-0.7
		c-0.4-0.3-0.8-0.6-1.1-1.1c-0.3-0.4-0.4-0.9-0.5-1.4h2.8c0.1,0.3,0.2,0.6,0.5,0.8c0.3,0.2,0.7,0.3,1.3,0.3c0.7,0,1.2-0.2,1.5-0.5
		c0.3-0.3,0.5-0.9,0.5-1.6V177c-0.2,0.4-0.6,0.8-1.1,1c-0.5,0.3-1.1,0.4-1.6,0.4c-0.8,0-1.6-0.2-2.2-0.6c-0.6-0.4-1.1-0.9-1.4-1.6
		s-0.5-1.4-0.5-2.3c0-0.9,0.2-1.6,0.5-2.3c0.3-0.7,0.8-1.2,1.5-1.6c0.6-0.4,1.4-0.6,2.2-0.6c0.6,0,1.1,0.1,1.6,0.4
		c0.5,0.3,0.8,0.6,1.1,1.1v-1.2H472.8z M469.6,175.6c0.4-0.4,0.6-1,0.6-1.6c0-0.6-0.2-1.2-0.6-1.6c-0.4-0.4-0.9-0.6-1.5-0.6
		c-0.6,0-1.1,0.2-1.5,0.6c-0.4,0.4-0.6,1-0.6,1.6s0.2,1.2,0.6,1.6s0.9,0.6,1.5,0.6C468.8,176.3,469.3,176.1,469.6,175.6z"/>
	<path d="M483.6,174.8h-6.4c0,0.6,0.2,1,0.6,1.3c0.4,0.3,0.8,0.5,1.5,0.5c0.9,0,1.4-0.3,1.6-0.8h2.7c-0.1,0.6-0.3,1.1-0.7,1.5
		c-0.4,0.4-0.9,0.8-1.5,1c-0.6,0.2-1.3,0.4-2.1,0.4c-1.5,0-2.6-0.4-3.5-1.2c-0.9-0.8-1.3-1.9-1.3-3.4c0-0.9,0.2-1.7,0.6-2.4
		c0.4-0.7,0.9-1.2,1.6-1.6s1.5-0.6,2.5-0.6c0.9,0,1.7,0.2,2.4,0.5c0.7,0.3,1.2,0.8,1.6,1.5c0.4,0.6,0.6,1.3,0.6,2.2
		C483.6,174,483.6,174.4,483.6,174.8z M480.9,173.1c0-0.6-0.2-1-0.5-1.3c-0.3-0.3-0.8-0.5-1.4-0.5s-1.1,0.2-1.4,0.5
		s-0.5,0.8-0.5,1.3H480.9z"/>
	<path d="M485.2,169.7h2.8v1.3c0.2-0.4,0.5-0.8,0.9-1.1c0.4-0.3,1-0.4,1.5-0.4c1.4,0,2.3,0.5,2.7,1.6c0.2-0.5,0.6-0.9,1.1-1.2
		c0.5-0.3,1-0.4,1.7-0.4c2.1,0,3.1,1.2,3.1,3.5v5.4h-2.8v-4.9c0-0.6-0.1-1-0.3-1.3c-0.2-0.3-0.5-0.4-1-0.4c-0.5,0-0.8,0.2-1.1,0.5
		c-0.3,0.3-0.4,0.9-0.4,1.6v4.5h-2.8v-4.9c0-0.6-0.1-1-0.3-1.3c-0.2-0.3-0.5-0.4-1-0.4c-0.5,0-0.8,0.2-1.1,0.5
		c-0.3,0.3-0.4,0.9-0.4,1.6v4.5h-2.8V169.7z"/>
	<path d="M509.7,174.8h-6.4c0,0.6,0.2,1,0.6,1.3c0.4,0.3,0.8,0.5,1.5,0.5c0.9,0,1.4-0.3,1.6-0.8h2.7c-0.1,0.6-0.3,1.1-0.7,1.5
		c-0.4,0.4-0.9,0.8-1.5,1c-0.6,0.2-1.3,0.4-2.1,0.4c-1.5,0-2.6-0.4-3.5-1.2c-0.9-0.8-1.3-1.9-1.3-3.4c0-0.9,0.2-1.7,0.6-2.4
		c0.4-0.7,0.9-1.2,1.6-1.6s1.5-0.6,2.5-0.6c0.9,0,1.7,0.2,2.4,0.5c0.7,0.3,1.2,0.8,1.6,1.5c0.4,0.6,0.6,1.3,0.6,2.2
		C509.7,174,509.7,174.4,509.7,174.8z M507,173.1c0-0.6-0.2-1-0.5-1.3c-0.3-0.3-0.8-0.5-1.4-0.5s-1.1,0.2-1.4,0.5s-0.5,0.8-0.5,1.3
		H507z"/>
	<path d="M511.3,169.7h2.8v1.3c0.3-0.5,0.6-0.8,1.1-1.1c0.5-0.3,1-0.4,1.7-0.4c2.1,0,3.2,1.2,3.2,3.5v5.4h-2.8v-4.5
		c0-0.7-0.1-1.3-0.4-1.6s-0.6-0.5-1.2-0.5c-0.6,0-1,0.2-1.3,0.5c-0.3,0.3-0.4,0.9-0.4,1.5v4.5h-2.8V169.7z"/>
	<path d="M527.6,176.2v2.2c-0.5,0.1-1.1,0.1-1.8,0.1c-0.9,0-1.6-0.2-2.2-0.6c-0.6-0.4-0.9-1.3-0.9-2.6v-3.5h-1.4v-2.2h1.4v-2.6h2.8
		v2.6h2v2.2h-2v2.9c0,0.6,0.1,1,0.3,1.2c0.2,0.2,0.5,0.3,0.9,0.3C527,176.3,527.3,176.2,527.6,176.2z"/>
</g>
</svg>
