<?xml version="1.0" encoding="utf-8"?>
<!-- Generator: Adobe Illustrator 24.1.2, SVG Export Plug-In . SVG Version: 6.00 Build 0)  -->
<svg version="1.1" id="Layer_1" xmlns="http://www.w3.org/2000/svg" xmlns:xlink="http://www.w3.org/1999/xlink" x="0px" y="0px"
	 viewBox="0 0 89.6 93.3" enable-background="new 0 0 89.6 93.3" xml:space="preserve">
<path d="M84.2,31.1c0,0-1.8-0.7-3.5-0.8c0.2-0.3,0.4-0.5,0.6-0.8c1.1-1.4,1.7-3.2,1.7-3.2s-1.6,1.4-3.9,2.5
	c-0.2,0.1-0.4,0.1-0.5,0.2c-2.7-5.8-8.8-9.9-15.8-9.9c-9.6,0-17.4,7.5-17.4,16.7c0,1.6,0.3,3,0.7,4.4c-1.3,1.4-2.9,2.8-4.6,4.2
	c-0.5-0.4-1-0.8-1.5-1.1c-5.9-3.3-9.2-0.2-17-4C12.2,34.2,6.9,25,6.9,25S4.1,39.4,6.2,49.1c1.9,9,3.6,16.7,10.1,22.6
	c2.5,2.3,5.7,4.2,9.1,5.6c-0.7,0.4-1.5,0.8-2.4,1.2c-9,4.2-17.5,5.5-17.5,5.5s14.3,3,14.3,3C30.2,88.9,36.4,90,42.8,88
	c2.6-0.8,5.1-2.1,7.4-3.6c5.6-2.3,11.2-6.7,15.6-12.9c4.2-5.8,6.5-13.7,5.8-21.2c5.1-2.9,8.6-8.2,8.6-14.4c0-1.2-0.1-2.3-0.4-3.4
	C82.1,31.4,84.2,31.1,84.2,31.1z"/>
</svg>
